<?xml version="1.0" encoding="utf-8"?>
<!-- Generator: Adobe Illustrator 15.1.0, SVG Export Plug-In . SVG Version: 6.00 Build 0)  -->
<!DOCTYPE svg PUBLIC "-//W3C//DTD SVG 1.1//EN" "http://www.w3.org/Graphics/SVG/1.1/DTD/svg11.dtd">
<svg version="1.1" id="Default" xmlns="http://www.w3.org/2000/svg" preserveAspectRatio="none"  xmlns:xlink="http://www.w3.org/1999/xlink" x="0px" y="0px"
	   viewBox="0 0 134 104" xmlns:agg="http://www.example.com" xml:space="preserve">
	 
<agg:params>
	<agg:param type="C" name="color" description="Color" cssAttributes="fill" classes="color"/>
	<agg:param type="F" name="saturation" description="Saturation" min="0" max="1" cssAttributes="opacity" classes="color"/>
</agg:params>

<style type="text/css" >
   <![CDATA[

	.stroke{
		stroke-width:2px;
		stroke-linecap:round;
		stroke-linejoin:round;
		stroke: black;
		opacity:0.5;
		fill:none;
	}
	
	.color {
		fill:#79A2C9;
	}

      ]]>
</style>

<defs>
	<path id="boundary" d="M2.202,19.621
		c-0.644-2.061,0.326-3.854,1.816-5.325c2.494-2.459,6.29-4.089,9.6-5.288c5.625-2.037,11.398-3.282,17.338-4.276
		C42.879,2.735,54.758,2,66.861,2c12.101,0,23.977,0.735,35.898,2.73c5.941,0.995,11.716,2.24,17.343,4.277
		c3.311,1.198,7.108,2.828,9.601,5.288c1.491,1.47,2.461,3.264,1.817,5.325c-7.181,24.051-14.361,48.101-21.542,72.151
		c-0.419,1.404-1.408,2.185-2.626,3.004c-1.946,1.308-4.079,2.125-6.339,2.859c-3.641,1.181-7.356,1.942-11.161,2.544
		c-7.637,1.208-15.25,1.667-22.992,1.667c-7.74,0-15.349-0.459-22.984-1.667c-3.808-0.602-7.524-1.364-11.167-2.545
		c-2.262-0.733-4.394-1.551-6.339-2.859c-1.219-0.819-2.208-1.601-2.626-3.004C16.563,67.721,9.383,43.671,2.202,19.621z"/>
</defs>

<g>
	<use xlink:href="#boundary" class="color"/>
	<ellipse opacity="0.5" cx="67.139" cy="18.338" rx="64.656" ry="16.337"/>
	
	<path opacity="0.12" fill="#FFFFFF" d="M76.092,2.154v0.013l-1.278,32.385v0.006
		c-2.646,0.08-5.292,0.117-7.953,0.117c-2.66,0-5.313-0.037-7.952-0.117v-0.006L57.631,2.167V2.154C60.699,2.05,63.773,2,66.861,2
		C69.95,2,73.024,2.05,76.092,2.154z"/>
	<path opacity="0.12" fill="#FFFFFF" d="M76.088,2.154C73.021,2.05,69.946,2,66.858,2
		c-3.089,0-6.163,0.049-9.23,0.154c-5.932,0.203-11.82,0.616-17.709,1.304v0.019l3.481,30.09v0.019
		c4.731,0.468,9.47,0.769,14.229,0.936c0.421,0.012,0.849,0.024,1.278,0.037c2.639,0.08,5.291,0.117,7.952,0.117
		c2.66,0,5.306-0.037,7.952-0.117c0.429-0.012,0.85-0.024,1.278-0.037c4.759-0.167,9.497-0.468,14.234-0.936v-0.019l3.482-30.09
		V3.458C87.916,2.77,82.02,2.351,76.088,2.154z"/>
	<path opacity="0.12" fill="#FFFFFF" d="M102.764,4.727c-2.99-0.499-5.973-0.917-8.957-1.268
		C87.918,2.77,82.023,2.351,76.092,2.154C73.024,2.05,69.95,2,66.861,2c-3.088,0-6.163,0.049-9.23,0.154
		C51.7,2.357,45.812,2.77,39.922,3.458c-2.99,0.351-5.973,0.77-8.964,1.274c-2.217,0.369-4.408,0.775-6.577,1.243l0.008,0.012
		l4.73,25.635c1.095,0.197,2.197,0.381,3.3,0.56c2.498,0.394,5.004,0.732,7.503,1.021c1.158,0.142,2.317,0.265,3.481,0.381
		c4.731,0.468,9.469,0.769,14.228,0.936c0.421,0.012,0.849,0.024,1.278,0.037c2.639,0.08,5.292,0.117,7.952,0.117
		c2.661,0,5.307-0.037,7.953-0.117c0.428-0.012,0.849-0.024,1.278-0.037c4.759-0.167,9.497-0.468,14.234-0.936
		c1.158-0.117,2.324-0.24,3.481-0.375c2.506-0.295,5.012-0.64,7.518-1.034c1.102-0.172,2.197-0.356,3.285-0.554l4.731-25.635V5.976
		C107.172,5.502,104.982,5.096,102.764,4.727z"/>
	<path opacity="0.12" fill="#FFFFFF" d="M120.383,9.009c-3.53-1.28-7.118-2.246-10.768-3.034
		c-2.169-0.474-4.359-0.88-6.577-1.249c-2.99-0.499-5.974-0.917-8.957-1.268C88.193,2.77,82.297,2.351,76.366,2.154
		C73.299,2.05,70.225,2,67.136,2s-6.162,0.049-9.23,0.154c-5.931,0.203-11.82,0.616-17.709,1.304
		c-2.99,0.351-5.973,0.77-8.963,1.274c-2.218,0.369-4.408,0.775-6.577,1.243c-3.65,0.788-7.236,1.753-10.761,3.034
		c-0.435,0.154-0.87,0.32-1.319,0.492l4.632,19.26c2.463,0.757,4.949,1.391,7.454,1.932c1.565,0.345,3.145,0.652,4.731,0.929
		c1.095,0.197,2.197,0.381,3.299,0.56c2.5,0.394,5.004,0.732,7.503,1.021c1.159,0.142,2.317,0.265,3.481,0.381
		c4.731,0.468,9.47,0.769,14.229,0.936c0.421,0.012,0.849,0.024,1.278,0.037c2.639,0.08,5.292,0.117,7.952,0.117
		s5.306-0.037,7.952-0.117c0.429-0.012,0.85-0.024,1.278-0.037c4.76-0.167,9.497-0.468,14.235-0.936
		c1.158-0.117,2.323-0.24,3.481-0.375c2.505-0.295,5.012-0.64,7.518-1.034c1.102-0.172,2.197-0.356,3.285-0.554
		c1.586-0.277,3.166-0.584,4.731-0.929c2.505-0.542,4.991-1.175,7.447-1.926l4.639-19.267C121.26,9.329,120.818,9.163,120.383,9.009
		z"/>
	<path opacity="0.12" fill="#FFFFFF" d="M129.092,13.735c-2.119-1.846-4.969-3.193-7.664-4.233
		c-0.442-0.172-0.885-0.338-1.32-0.492c-3.53-1.28-7.117-2.246-10.767-3.034c-2.169-0.474-4.359-0.88-6.577-1.249
		c-2.99-0.499-5.973-0.917-8.957-1.268C87.918,2.77,82.023,2.351,76.092,2.154C73.024,2.05,69.95,2,66.861,2
		c-3.088,0-6.163,0.049-9.23,0.154C51.7,2.357,45.812,2.77,39.922,3.458c-2.99,0.351-5.973,0.77-8.964,1.274
		c-2.217,0.369-4.408,0.775-6.577,1.243c-3.65,0.788-7.236,1.753-10.76,3.034c-0.436,0.154-0.871,0.32-1.32,0.492
		c-2.696,1.04-5.545,2.381-7.672,4.233l3.18,11.359L7.803,25.1c1.446,0.819,2.955,1.496,4.506,2.086
		c1.102,0.431,2.232,0.818,3.376,1.188c0.415,0.135,0.835,0.265,1.249,0.388c2.464,0.757,4.949,1.391,7.455,1.932
		c1.564,0.345,3.145,0.652,4.73,0.929c1.095,0.197,2.197,0.381,3.3,0.56c2.498,0.394,5.004,0.732,7.503,1.021
		c1.158,0.142,2.317,0.265,3.481,0.381c4.731,0.468,9.469,0.769,14.228,0.936c0.421,0.012,0.849,0.024,1.278,0.037
		c2.639,0.08,5.292,0.117,7.952,0.117c2.661,0,5.307-0.037,7.953-0.117c0.428-0.012,0.849-0.024,1.278-0.037
		c4.759-0.167,9.497-0.468,14.234-0.936c1.158-0.117,2.324-0.24,3.481-0.375c2.506-0.295,5.012-0.64,7.518-1.034
		c1.102-0.172,2.197-0.356,3.285-0.554c1.586-0.277,3.166-0.584,4.731-0.929c2.506-0.542,4.99-1.175,7.447-1.926
		c0.421-0.129,0.85-0.265,1.271-0.4c1.144-0.369,2.267-0.757,3.362-1.181c1.558-0.597,3.061-1.268,4.507-2.086l-0.008-0.006
		L129.092,13.735z"/>
	<path opacity="0.21" fill="#FFFFFF" d="M118.056,28.521c-0.421,0.136-0.85,0.271-1.271,0.4
		c-2.457,0.75-4.942,1.385-7.448,1.926c-1.565,0.345-3.144,0.652-4.73,0.929c-1.088,0.197-2.183,0.382-3.285,0.554
		c-2.506,0.394-5.012,0.739-7.518,1.034c-1.158,0.135-2.324,0.258-3.482,0.375c-4.738,0.468-9.476,0.769-14.234,0.936
		c-0.428,0.012-0.849,0.024-1.278,0.037c-2.646,0.08-5.292,0.117-7.952,0.117c-2.661,0-5.313-0.037-7.952-0.117
		c-0.429-0.012-0.857-0.024-1.278-0.037c-4.759-0.167-9.498-0.468-14.229-0.936c-1.165-0.117-2.322-0.24-3.481-0.381
		c-2.499-0.289-5.004-0.627-7.503-1.021c-1.102-0.178-2.204-0.363-3.3-0.56c-1.586-0.277-3.165-0.584-4.73-0.929
		c-2.505-0.541-4.991-1.175-7.454-1.932c-0.414-0.123-0.836-0.252-1.25-0.388c-1.145-0.369-2.273-0.757-3.376-1.188l18.179,69.657
		v0.006c0.723,0.283,1.467,0.535,2.226,0.781c1.923,0.628,3.868,1.133,5.833,1.563c1.762,0.382,3.538,0.702,5.334,0.985
		c1.67,0.265,3.341,0.492,5.019,0.689c3.923,0.462,7.854,0.738,11.813,0.874c2.042,0.074,4.092,0.104,6.149,0.104
		c2.056,0,4.113-0.031,6.155-0.104c3.952-0.136,7.882-0.412,11.807-0.874c1.678-0.197,3.354-0.424,5.032-0.689
		c1.797-0.283,3.573-0.603,5.328-0.991c1.966-0.424,3.91-0.936,5.833-1.557c0.758-0.246,1.501-0.499,2.225-0.781v-0.006
		l18.18-69.657C120.323,27.765,119.2,28.153,118.056,28.521z"/>
	<path opacity="0.23" fill="#FFFFFF" d="M104.61,31.777c-1.088,0.197-2.183,0.382-3.285,0.554
		c-2.506,0.394-5.011,0.739-7.518,1.034c-1.158,0.135-2.323,0.258-3.481,0.375c-4.737,0.468-9.476,0.769-14.234,0.936
		c-0.429,0.012-0.85,0.024-1.278,0.037c-2.646,0.08-5.292,0.117-7.953,0.117c-2.66,0-5.313-0.037-7.952-0.117
		c-0.429-0.012-0.857-0.024-1.278-0.037c-4.759-0.167-9.497-0.468-14.228-0.936c-1.165-0.117-2.323-0.24-3.481-0.381
		c-2.499-0.289-5.005-0.627-7.503-1.021c-1.103-0.178-2.205-0.363-3.3-0.56c-1.585-0.277-3.166-0.584-4.73-0.929l14.157,68.494
		v0.006c1.762,0.382,3.538,0.702,5.335,0.985c1.67,0.265,3.34,0.492,5.018,0.689c3.924,0.462,7.855,0.738,11.813,0.874
		c2.043,0.074,4.093,0.104,6.149,0.104c2.057,0,4.113-0.031,6.156-0.104c3.951-0.136,7.882-0.412,11.806-0.874
		c1.678-0.197,3.355-0.424,5.033-0.689c1.796-0.283,3.572-0.603,5.327-0.991l14.158-68.494
		C107.776,31.192,106.196,31.5,104.61,31.777z"/>
	<path opacity="0.25" fill="#FFFFFF" d="M90.326,33.74c-4.737,0.468-9.476,0.769-14.234,0.936
		c-0.429,0.012-0.85,0.024-1.278,0.037c-2.646,0.08-5.292,0.117-7.953,0.117c-2.66,0-5.313-0.037-7.952-0.117
		c-0.429-0.012-0.857-0.024-1.278-0.037c-4.759-0.167-9.497-0.468-14.228-0.936c-1.165-0.117-2.323-0.24-3.481-0.381l8.977,67.657
		v0.006c3.924,0.462,7.855,0.738,11.813,0.874c2.043,0.074,4.093,0.104,6.149,0.104c2.057,0,4.113-0.031,6.156-0.104
		c3.951-0.136,7.882-0.412,11.806-0.874v-0.006l8.984-67.651C92.65,33.5,91.484,33.623,90.326,33.74z"/>
	<path opacity="0.35" fill="#FFFFFF" d="M76.092,34.675l-3.074,67.214v0.006
		c-2.043,0.074-4.1,0.104-6.156,0.104c-2.056,0-4.105-0.031-6.149-0.104v-0.006l-3.081-67.214c0.421,0.012,0.849,0.024,1.278,0.037
		c2.639,0.08,5.292,0.117,7.952,0.117c2.661,0,5.307-0.037,7.953-0.117C75.242,34.7,75.663,34.688,76.092,34.675z"/>
</g>

<g class="stroke">
	<use xlink:href="#boundary"/>
	<path d="M131.52,19.621
		c-0.653,2.094-2.144,3.263-3.975,4.485c-2.916,1.947-6.108,3.169-9.49,4.265c-5.46,1.768-11.029,2.909-16.733,3.81
		c-11.448,1.809-22.857,2.497-34.461,2.497c-11.597,0-23-0.688-34.441-2.494c-5.705-0.9-11.275-2.041-16.737-3.808
		c-3.386-1.096-6.582-2.318-9.5-4.267c-1.833-1.223-3.325-2.392-3.98-4.488"/>
</g>
</svg>
