<?xml version="1.0" encoding="utf-8"?>
<!-- Generator: Adobe Illustrator 15.1.0, SVG Export Plug-In . SVG Version: 6.00 Build 0)  -->
<!DOCTYPE svg PUBLIC "-//W3C//DTD SVG 1.1//EN" "http://www.w3.org/Graphics/SVG/1.1/DTD/svg11.dtd">
<svg version="1.1" id="Default" xmlns="http://www.w3.org/2000/svg" preserveAspectRatio="none"  xmlns:xlink="http://www.w3.org/1999/xlink" x="0px" y="0px"
	   viewBox="0 0 134 179" xmlns:agg="http://www.example.com" xml:space="preserve">
	 
<agg:params>
	<agg:param type="C" name="color" description="Color" cssAttributes="fill" classes="color"/>
</agg:params>

<style type="text/css" >
   <![CDATA[

	.stroke{
		stroke-width:2px;
		stroke-linecap:round;
		stroke-linejoin:round;
		stroke: black;
		opacity:0.5;
		fill:none;
	}
	
	.color {
		fill:#79A2C9;
	}

      ]]>
</style>	 

<defs>
	<path id="boundary" d="M2.09,20.025c0,25.03,0,50.07,0,75.1c0,2.63,1.359,4.03,3.197,5.59h0.01
		c12.472,11.01,24.923,22,37.394,32.99c0,12.18,0,24.35,0,36.53c0,2.23,3.218,3.43,4.747,4.01c0.79,0.29,1.579,0.55,2.378,0.77
		c1.319,0.37,2.658,0.66,4.017,0.9c0.34,0.06,0.689,0.12,1.029,0.17c1.959,0.32,3.907,0.55,5.876,0.69
		c2.088,0.15,4.187,0.22,6.306,0.22c2.118,0,4.217-0.07,6.305-0.22c1.969-0.14,3.918-0.37,5.876-0.69
		c0.34-0.05,0.689-0.11,1.029-0.17c1.359-0.24,2.698-0.53,4.017-0.9c0.8-0.22,1.599-0.48,2.389-0.77c0.41-0.15,0.939-0.35,1.488-0.61
		c1.529-0.68,3.258-1.76,3.258-3.4c0-12.17,0-24.34,0-36.52c12.461-11,24.922-22,37.394-33c1.838-1.56,3.198-2.96,3.198-5.59
		c0-25.03,0-50.07,0-75.1 M132,20.025c0-9.952-29.082-18.021-64.955-18.021S2.09,10.073,2.09,20.025"/>
</defs>

<use xlink:href="#boundary" class="color"/>
<ellipse opacity="0.5" cx="67.045" cy="20.025" rx="64.955" ry="18.02"/>

<path opacity="0.21" fill="#FFFFFF" d="M128.964,14.295c-1.766-1.541-3.681-2.661-5.704-3.601
	c-1.282-0.593-2.614-1.116-3.976-1.629c-2.102-0.779-4.234-1.449-6.375-2.028c-3.513-0.962-7.083-1.704-10.705-2.335
	c-0.92-0.155-1.84-0.311-2.76-0.456c-5.221-0.813-10.44-1.377-15.678-1.73C78.196,2.123,72.6,1.972,66.954,2
	c-5.647,0.029-11.241,0.237-16.806,0.686c-5.234,0.406-10.448,1.022-15.659,1.89c-0.919,0.154-1.837,0.319-2.756,0.483
	c-3.614,0.668-7.178,1.437-10.68,2.435c-2.136,0.611-4.261,1.302-6.355,2.103c-1.356,0.527-2.683,1.054-3.959,1.67l0.01,0.029
	l0.092,18.03v0.03c1.282,0.604,2.614,1.127,3.976,1.63c2.103,0.779,4.224,1.448,6.367,2.037c3.512,0.952,7.083,1.694,10.704,2.326
	c0.919,0.155,1.84,0.311,2.761,0.456c5.22,0.824,10.439,1.387,15.678,1.74c5.568,0.392,11.165,0.533,16.811,0.504
	c5.646-0.028,11.241-0.227,16.805-0.675c5.234-0.407,10.448-1.023,15.66-1.899c0.918-0.155,1.837-0.319,2.755-0.484
	c3.614-0.668,7.178-1.437,10.681-2.435c2.135-0.611,4.26-1.302,6.354-2.102c1.357-0.518,2.673-1.054,3.949-1.661
	c2.023-0.96,3.937-2.11,5.687-3.669c1.731-1.539,2.983-2.926,2.971-5.425C131.987,17.19,130.721,15.816,128.964,14.295z"/>
<path opacity="0.21" fill="#FFFFFF" d="M123.235,104.196l-0.029-0.05v-75.07
	c-1.28,0.6-2.599,1.13-3.958,1.64c-2.098,0.79-4.227,1.47-6.365,2.07c-3.508,0.98-7.075,1.73-10.693,2.38
	c-0.919,0.16-1.838,0.32-2.758,0.47c-5.216,0.85-10.433,1.44-15.669,1.82c-5.566,0.42-11.162,0.59-16.808,0.59
	c-5.646,0-11.242-0.17-16.809-0.59c-5.236-0.38-10.453-0.97-15.668-1.82c-0.92-0.15-1.839-0.31-2.758-0.47
	c-3.618-0.65-7.185-1.41-10.692-2.38c-2.139-0.6-4.257-1.28-6.356-2.07c-1.359-0.51-2.688-1.04-3.967-1.65
	c-2.029-0.94-3.938-2.08-5.696-3.63C3.259,23.906,2,22.525,2,20.025c0,25.03,0,50.07,0,75.1c0,2.63,1.359,4.03,3.197,5.59h0.01
	c12.472,11.01,24.923,22,37.394,32.99c0,12.18,0,24.35,0,36.53c0,2.23,3.218,3.43,4.747,4.01c0.79,0.29,1.579,0.55,2.378,0.77
	c1.319,0.37,2.658,0.66,4.017,0.9c0.34,0.06,0.689,0.12,1.029,0.17c1.959,0.32,3.907,0.55,5.876,0.69
	c2.088,0.15,4.187,0.22,6.306,0.22c2.118,0,4.217-0.07,6.305-0.22c1.969-0.14,3.917-0.37,5.876-0.69
	c0.34-0.05,0.689-0.11,1.029-0.17c1.359-0.24,2.698-0.53,4.017-0.9c0.8-0.22,1.599-0.48,2.389-0.77c0.41-0.15,0.939-0.35,1.489-0.61
	l-0.01-0.02v-37.54c0.849-0.41,1.579-0.87,2.138-1.37c0.38-0.33,0.75-0.66,1.129-0.99c12.461-11,24.922-22,37.394-33
	C127.203,102.005,125.354,103.156,123.235,104.196z"/>
<path opacity="0.21" fill="#FFFFFF" d="M102.133,35.166c-0.919,0.16-1.838,0.32-2.758,0.47
	c-5.216,0.85-10.433,1.44-15.669,1.82c-5.566,0.42-11.162,0.59-16.808,0.59c-5.646,0-11.242-0.17-16.809-0.59
	c-5.236-0.38-10.453-0.97-15.669-1.82c-0.92-0.15-1.839-0.31-2.758-0.47c-3.618-0.65-7.185-1.41-10.692-2.38
	c-2.139-0.6-4.257-1.28-6.356-2.07c-1.359-0.51-2.688-1.04-3.967-1.65v75.08l-0.02,0.05c-2.109-1.04-3.968-2.19-5.476-3.48
	c12.471,11.01,24.922,22,37.394,32.99c0,12.18,0,24.35,0,36.53c0,2.23,3.218,3.43,4.747,4.01c0.789,0.29,1.579,0.55,2.378,0.77
	c1.319,0.37,2.658,0.66,4.017,0.9c0.34,0.06,0.689,0.12,1.029,0.17c1.959,0.32,3.907,0.55,5.876,0.69
	c2.088,0.15,4.187,0.22,6.306,0.22c2.118,0,4.217-0.07,6.305-0.22c1.969-0.14,3.917-0.37,5.876-0.69
	c0.34-0.05,0.689-0.11,1.029-0.17c1.359-0.24,2.698-0.53,4.017-0.9v-37.52v-0.03l28.57-29.46l0.13-0.13v-75.09
	C109.318,33.766,105.75,34.516,102.133,35.166z"/>
<path opacity="0.23" fill="#FFFFFF" d="M83.85,37.456c-5.566,0.42-11.163,0.59-16.809,0.59
	c-5.646,0-11.242-0.17-16.809-0.59c-5.236-0.38-10.453-0.97-15.668-1.82c-0.92-0.15-1.839-0.31-2.758-0.47
	c-3.618-0.65-7.185-1.41-10.692-2.38v75.09l0.12,0.13l28.58,29.46v0.03v37.52c1.319,0.37,2.658,0.66,4.017,0.9
	c0.34,0.06,0.689,0.12,1.029,0.17c1.959,0.32,3.907,0.55,5.876,0.69c2.088,0.15,4.187,0.22,6.306,0.22
	c2.118,0,4.217-0.07,6.305-0.22c1.969-0.14,3.918-0.37,5.876-0.69v-37.53v-0.02l20.286-27.79l0.01-0.01v-75.1
	C94.303,36.486,89.086,37.076,83.85,37.456z"/>
<path opacity="0.25" fill="#FFFFFF" d="M66.475,38.045c-5.646,0-11.242-0.17-16.809-0.59
	c-5.236-0.38-10.453-0.97-15.669-1.82v75.1l0.01,0.01l20.286,27.79v0.02v37.53c1.959,0.32,3.907,0.55,5.876,0.69
	c2.088,0.15,4.187,0.22,6.306,0.22c2.118,0,4.217-0.07,6.305-0.22v-0.01v-37.55l10.503-26.68v-0.04v-75.04
	C77.717,37.875,72.121,38.045,66.475,38.045z"/>
<path opacity="0.25" fill="#FFFFFF" d="M83.854,2.601C78.287,2.181,72.691,2,67.045,2
	c-5.646,0-11.242,0.18-16.809,0.6v0.01v34.83v0.02c5.566,0.42,11.162,0.59,16.809,0.59c5.646,0,11.242-0.17,16.809-0.59
	c5.236-0.38,10.453-0.97,15.669-1.82V4.42v-0.01C94.306,3.57,89.089,2.98,83.854,2.601z"/>
<path opacity="0.23" fill="#FFFFFF" d="M103.39,4.88c-0.919-0.16-1.839-0.32-2.758-0.47
	C95.415,3.57,90.198,2.98,84.962,2.6C79.396,2.18,73.8,2,68.154,2c-5.646,0-11.242,0.18-16.809,0.6
	c-5.236,0.38-10.453,0.97-15.669,1.81v0.01v31.22c5.216,0.85,10.433,1.44,15.669,1.82c5.566,0.42,11.162,0.59,16.809,0.59
	c5.646,0,11.242-0.17,16.808-0.59c5.236-0.38,10.453-0.97,15.669-1.82c0.919-0.15,1.838-0.31,2.758-0.47
	c3.618-0.65,7.185-1.4,10.692-2.38v-0.02V7.28V7.27C110.574,6.29,107.007,5.53,103.39,4.88z"/>
<path opacity="0.21" fill="#FFFFFF" d="M119.335,9.331c-2.098-0.79-4.227-1.47-6.365-2.06
	c-3.508-0.98-7.075-1.74-10.693-2.39c-0.919-0.16-1.838-0.32-2.758-0.47c-5.216-0.84-10.433-1.43-15.669-1.81
	C78.284,2.181,72.688,2,67.042,2c-5.646,0-11.242,0.18-16.809,0.6c-5.236,0.38-10.453,0.97-15.668,1.81
	c-0.92,0.15-1.839,0.31-2.758,0.47c-3.618,0.65-7.185,1.4-10.692,2.38v0.02v25.49v0.02c3.507,0.97,7.075,1.73,10.692,2.38
	c0.919,0.16,1.838,0.32,2.758,0.47c5.216,0.85,10.433,1.44,15.668,1.82c5.566,0.42,11.162,0.59,16.809,0.59
	c5.646,0,11.242-0.17,16.809-0.59c5.236-0.38,10.453-0.97,15.669-1.82c0.919-0.15,1.839-0.31,2.758-0.47
	c3.618-0.65,7.185-1.4,10.693-2.38c2.138-0.6,4.267-1.28,6.365-2.07c1.359-0.51,2.678-1.04,3.958-1.64v-0.04V11.01l0.01-0.03
	C122.023,10.38,120.694,9.851,119.335,9.331z"/>
<path opacity="0.35" fill="#FFFFFF" d="M50.236,37.456v75.04v0.04l10.503,26.68v37.55v0.01
	c2.088,0.15,4.187,0.22,6.306,0.22v-37.56v-26.28v-75.11C61.398,38.045,55.803,37.875,50.236,37.456z"/>
<path opacity="0.35" fill="#FFFFFF" d="M83.853,37.44v0.02c-5.566,0.42-11.163,0.59-16.809,0.59V2
	c5.646,0,11.242,0.18,16.809,0.6v0.01V37.44z"/>
	
<g class="stroke">
	<use xlink:href="#boundary"/>
	<path d="M91.403,133.611
		c-0.38,0.33-0.75,0.66-1.129,0.99c-0.56,0.5-1.289,0.96-2.139,1.37c-1.089,0.54-2.398,1.01-3.867,1.42
		c-1.519,0.43-3.228,0.78-5.046,1.06c-1.859,0.3-3.837,0.51-5.876,0.66c-2.058,0.15-4.177,0.22-6.305,0.22
		c-2.129,0-4.247-0.07-6.306-0.22c-2.039-0.15-4.017-0.36-5.876-0.66c-1.819-0.28-3.527-0.63-5.046-1.06
		c-2.618-0.72-4.716-1.66-6.005-2.79c-0.38-0.33-0.75-0.66-1.12-1"/>
	<path d="M128.712,101.006
		c-1.509,1.29-3.358,2.44-5.477,3.48c-3.038,1.5-6.605,2.76-10.483,3.81c-4.197,1.14-8.744,2.04-13.331,2.74
		c-5.316,0.82-10.682,1.37-15.659,1.75c-6.726,0.5-12.711,0.66-16.808,0.66c-4.098,0-10.083-0.16-16.809-0.66
		c-4.966-0.38-10.343-0.93-15.659-1.75c-4.597-0.71-9.144-1.61-13.341-2.74c-3.867-1.06-7.435-2.31-10.462-3.81
		c-2.109-1.04-3.968-2.19-5.477-3.48"/>
	<path d="M132,20.055
		c0,2.5-1.259,3.88-2.998,5.41c-1.759,1.55-3.678,2.69-5.706,3.64c-1.279,0.6-2.598,1.13-3.958,1.64
		c-2.098,0.79-4.227,1.47-6.365,2.07c-3.508,0.98-7.075,1.73-10.693,2.38c-0.919,0.16-1.838,0.32-2.758,0.47
		c-5.216,0.85-10.433,1.44-15.669,1.82c-5.566,0.42-11.163,0.59-16.809,0.59c-5.646,0-11.242-0.17-16.809-0.59
		c-5.236-0.38-10.453-0.97-15.668-1.82c-0.92-0.15-1.839-0.31-2.758-0.47c-3.618-0.65-7.185-1.41-10.692-2.38
		c-2.139-0.6-4.257-1.28-6.356-2.07c-1.359-0.51-2.688-1.04-3.967-1.65c-2.029-0.94-3.937-2.08-5.696-3.63
		c-1.749-1.53-3.008-2.91-3.008-5.41"/>
</g>
</svg>
