<?xml version="1.0" encoding="utf-8"?>
<!-- Generator: Adobe Illustrator 15.1.0, SVG Export Plug-In . SVG Version: 6.00 Build 0)  -->
<!DOCTYPE svg PUBLIC "-//W3C//DTD SVG 1.1//EN" "http://www.w3.org/Graphics/SVG/1.1/DTD/svg11.dtd">
<svg version="1.1" id="Default" xmlns="http://www.w3.org/2000/svg" preserveAspectRatio="none"   x="0px" y="0px"
	   viewBox="0 0 154 204"  xmlns:agg="http://www.example.com" xml:space="preserve">

<agg:params>
	<agg:param type="C" name="color" description="Color" cssAttributes="fill" classes="color"/>
    <agg:param type="F" name="saturation" description="Saturation" min="0" max="1" cssAttributes="opacity" classes="color"/>
</agg:params>

<style type="text/css" >
   <![CDATA[

	.stroke {
		stroke-width:0.3;
		stroke-linecap:round;
		stroke-linejoin:round;
		stroke: black;
		fill:none;
	}
	
	.color {
		fill:#3664BF;
		opacity:0.2;
	}
	
      ]]>
</style>

<linearGradient id="base" gradientUnits="userSpaceOnUse" x1="2" y1="0" x2="152" y2="0">
	<stop  offset="0" style="stop-color:#767676"/>
	<stop  offset="0.06" style="stop-color:#919191"/>
	<stop  offset="0.14" style="stop-color:#B1B1B1"/>
	<stop  offset="0.21" style="stop-color:#CECECE"/>
	<stop  offset="0.28" style="stop-color:#E4E4E4"/>
	<stop  offset="0.35" style="stop-color:#F6F6F6"/>
	<stop  offset="0.42" style="stop-color:#FEFEFF"/>
	<stop  offset="0.47" style="stop-color:#F6F6F6"/>
	<stop  offset="0.53" style="stop-color:#E7E7E7"/>
	<stop  offset="0.58" style="stop-color:#D2D1D1"/>
	<stop  offset="0.64" style="stop-color:#B7B7B7"/>
	<stop  offset="0.7" style="stop-color:#989898"/>
	<stop  offset="0.72" style="stop-color:#8B8B8B"/>
	<stop  offset="1" style="stop-color:#FDFDFD"/>
</linearGradient>
	 
<rect x="2" y="2"   fill="url(#base)"/>
<rect x="2" y="2"   class="color"/>

<g class="stroke">

		<rect x="2" y="2"  />
	
		<line x1="2" y1="183.816" x2="152" y2="183.816"/>
	
		<line x1="2" y1="165.638" x2="152" y2="165.638"/>
	
		<line x1="2" y1="147.454" x2="152" y2="147.454"/>
	
		<line x1="2" y1="129.271" x2="152" y2="129.271"/>
	
		<line x1="2" y1="111.092" x2="152" y2="111.092"/>
	
		<line x1="2" y1="92.908" x2="152" y2="92.908"/>
	
		<line x1="2" y1="74.729" x2="152" y2="74.729"/>
	
		<line x1="2" y1="56.546" x2="152" y2="56.546"/>
	
		<line x1="2" y1="38.362" x2="152" y2="38.362"/>
	
		<line x1="2" y1="20.184" x2="152" y2="20.184"/>
	
		<line x1="57.589" y1="2" x2="57.589" y2="20.184"/>
	
		<line x1="77" y1="2" x2="77" y2="20.184"/>
	
		<line x1="96.411" y1="2" x2="96.411" y2="20.184"/>
	
		<line x1="114.5" y1="2" x2="114.5" y2="20.184"/>
	
		<line x1="130.033" y1="2" x2="130.033" y2="20.184"/>
	
		<line x1="141.952" y1="2" x2="141.952" y2="20.184"/>
	
		<line x1="12.048" y1="2" x2="12.048" y2="20.184"/>
	
		<line x1="23.967" y1="2" x2="23.967" y2="20.184"/>
	
		<line x1="39.5" y1="2" x2="39.5" y2="20.184"/>
	
		<line x1="67.21" y1="20.184" x2="67.21" y2="38.362"/>
	
		<line x1="86.79" y1="20.184" x2="86.79" y2="38.362"/>
	
		<line x1="105.701" y1="20.184" x2="105.701" y2="38.362"/>
	
		<line x1="122.657" y1="20.184" x2="122.657" y2="38.362"/>
	
		<line x1="136.501" y1="20.184" x2="136.501" y2="38.362"/>
	
		<line x1="146.291" y1="20.184" x2="146.291" y2="38.362"/>
	
		<line x1="7.709" y1="20.184" x2="7.709" y2="38.362"/>
	
		<line x1="17.499" y1="20.184" x2="17.499" y2="38.362"/>
	
		<line x1="31.343" y1="20.184" x2="31.343" y2="38.362"/>
	
		<line x1="48.299" y1="20.184" x2="48.299" y2="38.362"/>
	
		<line x1="57.589" y1="38.362" x2="57.589" y2="56.546"/>
	
		<line x1="77" y1="38.362" x2="77" y2="56.546"/>
	
		<line x1="96.411" y1="38.362" x2="96.411" y2="56.546"/>
	
		<line x1="114.5" y1="38.362" x2="114.5" y2="56.546"/>
	
		<line x1="130.033" y1="38.362" x2="130.033" y2="56.546"/>
	
		<line x1="141.952" y1="38.362" x2="141.952" y2="56.546"/>
	
		<line x1="12.048" y1="38.362" x2="12.048" y2="56.546"/>
	
		<line x1="23.967" y1="38.362" x2="23.967" y2="56.546"/>
	
		<line x1="39.5" y1="38.362" x2="39.5" y2="56.546"/>
	
		<line x1="67.21" y1="56.546" x2="67.21" y2="74.729"/>
	
		<line x1="86.79" y1="56.546" x2="86.79" y2="74.729"/>
	
		<line x1="105.701" y1="56.546" x2="105.701" y2="74.729"/>
	
		<line x1="122.657" y1="56.546" x2="122.657" y2="74.729"/>
	
		<line x1="136.501" y1="56.546" x2="136.501" y2="74.729"/>
	
		<line x1="146.291" y1="56.546" x2="146.291" y2="74.729"/>
	
		<line x1="7.709" y1="56.546" x2="7.709" y2="74.729"/>
	
		<line x1="17.499" y1="56.546" x2="17.499" y2="74.729"/>
	
		<line x1="31.343" y1="56.546" x2="31.343" y2="74.729"/>
	
		<line x1="48.299" y1="56.546" x2="48.299" y2="74.729"/>
	
		<line x1="57.589" y1="74.729" x2="57.589" y2="92.908"/>
	
		<line x1="77" y1="74.729" x2="77" y2="92.908"/>
	
		<line x1="96.411" y1="74.729" x2="96.411" y2="92.908"/>
	
		<line x1="114.5" y1="74.729" x2="114.5" y2="92.908"/>
	
		<line x1="130.033" y1="74.729" x2="130.033" y2="92.908"/>
	
		<line x1="141.952" y1="74.729" x2="141.952" y2="92.908"/>
	
		<line x1="12.048" y1="74.729" x2="12.048" y2="92.908"/>
	
		<line x1="23.967" y1="74.729" x2="23.967" y2="92.908"/>
	
		<line x1="39.5" y1="74.729" x2="39.5" y2="92.908"/>
	
		<line x1="67.21" y1="92.908" x2="67.21" y2="111.092"/>
	
		<line x1="86.79" y1="92.908" x2="86.79" y2="111.092"/>
	
		<line x1="105.701" y1="92.908" x2="105.701" y2="111.092"/>
	
		<line x1="122.657" y1="92.908" x2="122.657" y2="111.092"/>
	
		<line x1="136.501" y1="92.908" x2="136.501" y2="111.092"/>
	
		<line x1="146.291" y1="92.908" x2="146.291" y2="111.092"/>
	
		<line x1="7.709" y1="92.908" x2="7.709" y2="111.092"/>
	
		<line x1="17.499" y1="92.908" x2="17.499" y2="111.092"/>
	
		<line x1="31.343" y1="92.908" x2="31.343" y2="111.092"/>
	
		<line x1="48.299" y1="92.908" x2="48.299" y2="111.092"/>
	
		<line x1="57.589" y1="111.092" x2="57.589" y2="129.271"/>
	
		<line x1="77" y1="111.092" x2="77" y2="129.271"/>
	
		<line x1="96.411" y1="111.092" x2="96.411" y2="129.271"/>
	
		<line x1="114.5" y1="111.092" x2="114.5" y2="129.271"/>
	
		<line x1="130.033" y1="111.092" x2="130.033" y2="129.271"/>
	
		<line x1="141.952" y1="111.092" x2="141.952" y2="129.271"/>
	
		<line x1="12.048" y1="111.092" x2="12.048" y2="129.271"/>
	
		<line x1="23.967" y1="111.092" x2="23.967" y2="129.271"/>
	
		<line x1="39.5" y1="111.092" x2="39.5" y2="129.271"/>
	
		<line x1="67.21" y1="129.271" x2="67.21" y2="147.454"/>
	
		<line x1="86.79" y1="129.271" x2="86.79" y2="147.454"/>
	
		<line x1="105.701" y1="129.271" x2="105.701" y2="147.454"/>
	
		<line x1="122.657" y1="129.271" x2="122.657" y2="147.454"/>
	
		<line x1="136.501" y1="129.271" x2="136.501" y2="147.454"/>
	
		<line x1="146.291" y1="129.271" x2="146.291" y2="147.454"/>
	
		<line x1="7.709" y1="129.271" x2="7.709" y2="147.454"/>
	
		<line x1="17.499" y1="129.271" x2="17.499" y2="147.454"/>
	
		<line x1="31.343" y1="129.271" x2="31.343" y2="147.454"/>
	
		<line x1="48.299" y1="129.271" x2="48.299" y2="147.454"/>
	
		<line x1="57.589" y1="147.454" x2="57.589" y2="165.638"/>
	
		<line x1="77" y1="147.454" x2="77" y2="165.638"/>
	
		<line x1="96.411" y1="147.454" x2="96.411" y2="165.638"/>
	
		<line x1="114.5" y1="147.454" x2="114.5" y2="165.638"/>
	
		<line x1="130.033" y1="147.454" x2="130.033" y2="165.638"/>
	
		<line x1="141.952" y1="147.454" x2="141.952" y2="165.638"/>
	
		<line x1="12.048" y1="147.454" x2="12.048" y2="165.638"/>
	
		<line x1="23.967" y1="147.454" x2="23.967" y2="165.638"/>
	
		<line x1="39.5" y1="147.454" x2="39.5" y2="165.638"/>
	
		<line x1="67.21" y1="165.638" x2="67.21" y2="183.816"/>
	
		<line x1="86.79" y1="165.638" x2="86.79" y2="183.816"/>
	
		<line x1="105.701" y1="165.638" x2="105.701" y2="183.816"/>
	
		<line x1="122.657" y1="165.638" x2="122.657" y2="183.816"/>
	
		<line x1="136.501" y1="165.638" x2="136.501" y2="183.816"/>
	
		<line x1="146.291" y1="165.638" x2="146.291" y2="183.816"/>
	
		<line x1="7.709" y1="165.638" x2="7.709" y2="183.816"/>
	
		<line x1="17.499" y1="165.638" x2="17.499" y2="183.816"/>
	
		<line x1="31.343" y1="165.638" x2="31.343" y2="183.816"/>
	
		<line x1="48.299" y1="165.638" x2="48.299" y2="183.816"/>
	
		<line x1="57.589" y1="183.816" x2="57.589" y2="202"/>
	
		<line x1="77" y1="183.816" x2="77" y2="202"/>
	
		<line x1="96.411" y1="183.816" x2="96.411" y2="202"/>
	
		<line x1="114.5" y1="183.816" x2="114.5" y2="202"/>
	
		<line x1="130.033" y1="183.816" x2="130.033" y2="202"/>
	
		<line x1="141.952" y1="183.816" x2="141.952" y2="202"/>
	
		<line x1="12.048" y1="183.816" x2="12.048" y2="202"/>
	
		<line x1="23.967" y1="183.816" x2="23.967" y2="202"/>
	
		<line x1="39.5" y1="183.816" x2="39.5" y2="202"/>
</g>
</svg>
