<?xml version="1.0" encoding="utf-8"?>
<!-- Generator: Adobe Illustrator 15.1.0, SVG Export Plug-In . SVG Version: 6.00 Build 0)  -->
<!DOCTYPE svg PUBLIC "-//W3C//DTD SVG 1.1//EN" "http://www.w3.org/Graphics/SVG/1.1/DTD/svg11.dtd">
<svg version="1.1" id="_x30_" xmlns:agg="http://www.example.com"
	 xmlns="http://www.w3.org/2000/svg" preserveAspectRatio="none"   x="0px" y="0px" 
	  viewBox="0 0 34.021 43.986" enable-background="new 0 0 34.021 43.986" xml:space="preserve">
<agg:params>
	<agg:param type="C" name="color" description="Color" cssAttributes="fill" classes="color"/>
	<agg:param type="C" name="strokeColor" description="Stroke Color" cssAttributes="stroke" classes="color,stroked"/>
</agg:params>
<style type="text/css" >
<![CDATA[

	.color,.stroked,.dashed{
		stroke-width:0.5;
		stroke-linecap:round;
		stroke-linejoin:round;
		stroke: #000000;
	}
	
	.color {
		fill:   #A1BFE2;

	}
	
	.stroked,.dashed{
		fill:none;
	}
	
	.dashed {
		stroke-dasharray:1.4173,1.4173;
	}

      ]]>
</style>

<g class="stroked">
	<line x1="13.59" y1="1.92" x2="13.59" y2="42.142"/>
	<line x1="20.803" y1="1.92" x2="20.803" y2="42.142"/>
	<path d="M1.798,42.168
			c0.702,0.321,1.486,0.503,2.31,0.503c3.06,0,5.539-2.479,5.539-5.538s-2.479-5.539-5.539-5.539c-0.828,0-1.612,0.183-2.317,0.505
			c0.702,0.325,1.485,0.505,2.312,0.505c3.058,0,5.537-2.479,5.537-5.54c0-3.058-2.479-5.539-5.537-5.539
			c-0.83,0-1.615,0.182-2.318,0.508h0.007c0.702,0.323,1.485,0.503,2.312,0.503c3.058,0,5.537-2.48,5.537-5.539
			s-2.479-5.538-5.537-5.538c-0.83,0-1.615,0.181-2.318,0.506c0.703,0.323,1.485,0.503,2.31,0.503c3.06,0,5.54-2.48,5.54-5.539
			c0-3.06-2.48-5.539-5.54-5.539c-0.827,0-1.613,0.182-2.316,0.507"/>
	<path d="M32.596,42.168
			c-0.703,0.321-1.484,0.503-2.311,0.503c-3.059,0-5.539-2.479-5.539-5.538s2.48-5.539,5.539-5.539c0.828,0,1.613,0.183,2.318,0.505
			c-0.703,0.325-1.486,0.505-2.311,0.505c-3.061,0-5.539-2.479-5.539-5.54c0-3.058,2.479-5.539,5.539-5.539
			c0.828,0,1.613,0.182,2.316,0.508h-0.006c-0.703,0.323-1.486,0.503-2.311,0.503c-3.061,0-5.539-2.48-5.539-5.539
			s2.479-5.538,5.539-5.538c0.828,0,1.613,0.181,2.316,0.506c-0.703,0.323-1.484,0.503-2.309,0.503c-3.061,0-5.539-2.48-5.539-5.539
			c0-3.06,2.479-5.539,5.539-5.539c0.828,0,1.613,0.182,2.316,0.507"/>
</g>
</svg>
