<?xml version="1.0" encoding="utf-8"?>
<!-- Generator: Adobe Illustrator 15.1.0, SVG Export Plug-In . SVG Version: 6.00 Build 0)  -->
<!DOCTYPE svg PUBLIC "-//W3C//DTD SVG 1.1//EN" "http://www.w3.org/Graphics/SVG/1.1/DTD/svg11.dtd">
<svg version="1.1" id="Layer_1" xmlns="http://www.w3.org/2000/svg" preserveAspectRatio="none"  x="0px" y="0px"
       viewBox="0 0 152 87" xmlns:agg="http://www.example.com">
	 
<agg:params>
	<agg:param type="C" name="color" description="Color" cssAttributes="fill" classes="color"/>
</agg:params>

<style type="text/css" >
   <![CDATA[

	.stroke,.thin,.thick{
		stroke-linecap:butt;
		stroke-linejoin:round;
		stroke: black;
		fill:none;
		opacity:0.5;
	}

	.stroke{stroke-width:0.25;}

	.thin {stroke-width:0.25;}

	.thick {stroke-width:0.75;}
	
	.color {
		fill:#3366CC;
		opacity:1;
	}

      ]]>
</style>
	 
<polygon fill="#4C4C4C" points="25.907,79.629 126.093,79.629 126.093,84.439 25.907,84.439 25.907,79.629"/>
<polygon fill="#E5E5E5" points="3.974,66.952 3.974,57.521 1,48.153 3.974,3.998 
	148.025,3.998 151,48.153 148.025,57.521 148.025,66.952 126.093,66.952 126.093,79.629 25.907,79.629 25.907,66.952 3.974,66.952"/>
<polygon opacity="0.1" points="3.974,57.521 1,48.153 151,48.153 148.025,57.521 3.974,57.521"/>
<polyline class="stroke" points="38.484,57.521 36.998,48.153 38.484,3.998"/>
<polygon fill="#999999" points="54.408,7.058 52.611,48.153 54.408,57.521 97.592,57.521 99.389,48.153 97.592,7.058 54.408,7.058"/>
<polygon fill="#666666" points="52.611,48.153 54.408,57.521 97.592,57.521 99.389,48.153 52.611,48.153"/>
<polygon opacity="0.1" points="25.907,70.261 25.907,66.952 126.093,66.952 126.093,70.261 25.907,70.261"/>
<path d="M29.191,84.439h3.036V86h-3.036V84.439L29.191,84.439z M119.773,84.439V86h3.035
	v-1.562H119.773L119.773,84.439z M74.482,84.439V86h3.036v-1.562H74.482L74.482,84.439z M51.124,84.439V86h2.974v-1.562H51.124
	L51.124,84.439z M97.902,84.439V86h2.974v-1.562H97.902L97.902,84.439z"/>
<polyline fill="none" stroke="#FFFFFF" stroke- points="39.104,57.521 37.617,48.153 39.104,3.998"/>
<polygon fill="#191919" points="90.615,11.867 90.829,16.739 53.985,16.739 54.187,11.867"/>
<polygon fill="#191919" points="65.188,16.739 70.579,16.739 70.579,29.104 65.188,29.104 65.188,16.739"/>
<polygon points="93.999,48.153 94.928,46.654 94.928,38.785 93.999,36.974 95.795,36.974 96.725,38.785 96.725,46.654 95.795,48.153 93.999,48.153 "/>
<polygon fill="#7F7F7F" points="102.673,3.998 113.516,3.998 113.516,13.429 102.673,13.429 102.673,3.998 "/>
<path fill="#7F0000" d="M89.228,74.96v2.998h-6.32V74.96h0.868v-2.997h4.832v2.997H89.228zM11.223,16.004v2.998h8.364v-2.998H11.223L11.223,16.004z"/>
<polygon fill="#4C4C4C" points="58.001,48.153 68.782,48.153 68.782,24.607 58.001,24.607 58.001,48.153 "/>
<polygon fill="#4C4C4C" points="76.031,23.046 92.202,23.046 92.202,29.104 76.031,29.104 76.031,23.046 "/>
<polygon fill="#F2E5CC" points="66.985,29.104 88.608,29.104 88.608,48.153 66.985,48.153 66.985,29.104 "/>
<polygon fill="#B2CCFF" points="61.595,41.845 92.202,41.845 92.202,44.843 61.595,44.843 61.595,41.845 "/>
<polygon fill="#B2CCFF" points="54.408,35.475 68.782,35.475 68.782,41.845 54.408,41.845 54.408,35.475 "/>
<polygon fill="#B2CCFF" points="90.405,7.058 92.202,48.153 90.405,57.521 97.592,57.521 99.389,48.153 97.592,7.058 90.405,7.058 "/>
<polygon fill="#666666" points="100.876,2.499 119.773,2.499 119.773,21.235 100.876,21.235 100.876,2.499 "/>
<polygon fill="#666666" points="107.195,74.757 112.028,74.757 112.028,79.629 107.195,79.629 107.195,74.757 "/>
<polygon fill="#4C4C4C" points="102.425,21.235 107.195,21.235 107.195,81.128 102.425,81.128 102.425,21.235 "/>
<polygon fill="#333333" points="104.47,5.559 111.719,5.559 111.719,11.867 104.47,11.867 104.47,5.559 "/>
<polygon fill="#333333" points="57.381,1 94.618,1 94.618,3.998 57.381,3.998 57.381,1 "/>

<g class="stroke">
	<polyline points="54.408,7.058 52.611,48.153 54.408,57.521 97.592,57.521 99.389,48.153 97.592,7.058 54.408,7.058 	"/>
	<polyline points="119.773,3.998 148.025,3.998 151,48.153 148.025,57.521 148.025,66.952 126.093,66.952 126.093,84.439 25.907,84.439 
		25.907,66.952 3.974,66.952 	"/>
	<polyline points="3.974,66.952 3.974,57.521 1,48.153 3.974,3.998 100.876,3.998 	"/>
	<line x1="107.195" y1="66.952" x2="126.093" y2="66.952"/>
	<line x1="25.907" y1="66.952" x2="102.425" y2="66.952"/>
	<line x1="58.001" y1="41.845" x2="58.001" y2="48.153"/>
	<polyline points="68.782,29.104 68.782,24.607 58.001,24.607 58.001,35.475"/>
	<polyline points="91.369,29.104 76.031,29.104 76.031,23.046 76.031,23.046 91.104,23.046"/>
	<polyline points="88.608,44.843 88.608,48.153 66.985,48.153 66.985,44.843"/>
	<line x1="88.608" y1="29.104" x2="88.608" y2="41.845"/>
	<polyline points="66.985,35.475 66.985,29.104 66.985,29.104 76.031,29.104"/>
	<polyline points="88.608,41.845 92.202,41.845 92.202,44.843 88.608,44.843"/>
	<polyline points="88.608,44.843 61.595,44.843 61.595,41.845 61.595,41.845 88.608,41.845"/>
	<polyline points="61.595,41.845 54.408,41.845 54.408,35.475 54.408,35.475 68.782,35.475 68.782,41.845"/>
	<polyline points="92.057,44.843 92.202,48.153 90.405,57.521 97.592,57.521 99.389,48.153 97.592,7.058 90.405,7.058 90.405,7.058 91.926,41.845"/>
	<polygon points="100.876,2.499 119.773,2.499 119.773,21.235 100.876,21.235 100.876,2.499"/>
	<polyline points="107.195,74.757 112.028,74.757 112.028,79.629 107.195,79.629"/>
	<polyline points="107.195,21.235 107.195,81.128 102.425,81.128 102.425,21.235 102.425,21.235"/>
	<polygon points="104.47,5.559 111.719,5.559 111.719,11.867 104.47,11.867 104.47,5.559"/>
	<polygon points="57.381,1 94.618,1 94.618,3.998 57.381,3.998 57.381,1"/>
	<line x1="52.611" y1="48.153" x2="66.985" y2="48.153"/>
	<line x1="88.608" y1="48.153" x2="92.075" y2="48.153"/>
	<line x1="112.028" y1="79.629" x2="126.093" y2="79.629"/>
	<line x1="102.425" y1="79.629" x2="25.907" y2="79.629"/>
	<line x1="54.408" y1="57.521" x2="3.974" y2="57.521"/>
	<line x1="97.592" y1="57.521" x2="102.425" y2="57.521"/>
	<line x1="107.195" y1="57.521" x2="148.025" y2="57.521"/>
</g>

<g>
	<path fill="#E5E5E5" d="M102.25,17.005v0.874h0.868v-0.874H102.25L102.25,17.005z"/>
	<path fill="#E5E5E5" d="M102.25,14.909v0.875h0.868v-0.875H102.25L102.25,14.909z"/>
	<path fill="#E5E5E5" d="M102.25,19.1v0.874h0.868V19.1H102.25L102.25,19.1z"/>
	<path fill="#E5E5E5" d="M104.433,17.005v0.874h0.867v-0.874H104.433L104.433,17.005z"/>
	<path fill="#E5E5E5" d="M104.433,14.909v0.875h0.867v-0.875H104.433L104.433,14.909z"/>
	<path fill="#E5E5E5" d="M104.433,19.1v0.874h0.867V19.1H104.433L104.433,19.1z"/>
	<path fill="#E5E5E5" d="M106.615,17.005v0.874h0.868v-0.874H106.615L106.615,17.005z"/>
	<path fill="#E5E5E5" d="M106.615,14.909v0.875h0.868v-0.875H106.615L106.615,14.909z"/>
	<path fill="#E5E5E5" d="M106.615,19.1v0.874h0.868V19.1H106.615L106.615,19.1z"/>
	<path fill="#E5E5E5" d="M108.799,17.005v0.874h0.867v-0.874H108.799L108.799,17.005z"/>
	<path fill="#E5E5E5" d="M108.799,14.909v0.875h0.867v-0.875H108.799L108.799,14.909z"/>
	<path fill="#E5E5E5" d="M108.799,19.1v0.874h0.867V19.1H108.799L108.799,19.1z"/>
	<path fill="#E5E5E5" d="M110.982,17.005v0.874h0.867v-0.874H110.982L110.982,17.005z"/>
	<path fill="#E5E5E5" d="M110.982,14.909v0.875h0.867v-0.875H110.982L110.982,14.909z"/>
	<path fill="#E5E5E5" d="M110.982,19.1v0.874h0.867V19.1H110.982L110.982,19.1z"/>
	<path fill="#E5E5E5" d="M113.165,17.005v0.874h0.868v-0.874H113.165L113.165,17.005z"/>
	<path fill="#E5E5E5" d="M113.165,14.909v0.875h0.868v-0.875H113.165L113.165,14.909z"/>
	<path fill="#E5E5E5" d="M113.165,19.1v0.874h0.868V19.1H113.165L113.165,19.1z"/>
	<path fill="#E5E5E5" d="M115.348,17.005v0.874h0.868v-0.874H115.348L115.348,17.005z"/>
	<path fill="#E5E5E5" d="M115.348,14.909v0.875h0.868v-0.875H115.348L115.348,14.909z"/>
	<path fill="#E5E5E5" d="M115.348,19.1v0.874h0.868V19.1H115.348L115.348,19.1z"/>
	<path fill="#E5E5E5" d="M117.531,17.005v0.874h0.867v-0.874H117.531L117.531,17.005z"/>
	<path fill="#E5E5E5" d="M117.531,14.909v0.875h0.867v-0.875H117.531L117.531,14.909z"/>
	<path fill="#E5E5E5" d="M117.531,19.1v0.874h0.867V19.1H117.531L117.531,19.1z"/>
</g>
</svg>
