<?xml version="1.0" encoding="utf-8"?>
<!-- Generator: Adobe Illustrator 15.1.0, SVG Export Plug-In . SVG Version: 6.00 Build 0)  -->
<!DOCTYPE svg PUBLIC "-//W3C//DTD SVG 1.1//EN" "http://www.w3.org/Graphics/SVG/1.1/DTD/svg11.dtd">

<svg version="1.1" id="Layer_1" xmlns="http://www.w3.org/2000/svg" preserveAspectRatio="none"   x="0px" y="0px"
	   viewBox="0 0 289.134 272.126" enable-background="new 0 0 289.134 272.126"
	 xml:space="preserve" xmlns:agg="http://www.example.com">

<agg:params>
	<agg:param type="C" name="color" description="Color" cssAttributes="fill" classes="color"/>
</agg:params>

<style type="text/css" >
   <![CDATA[

	.stroke,.thin,.thick{
		stroke-linecap:butt;
		stroke-linejoin:round;
		stroke: black;
		fill:none;
		opacity:0.35;
	}

	.stroke{stroke-width:0.5;}

	.thin {stroke-width:0.25;}

	.thick {stroke-width:0.75;}
	
	.color {
		fill:#63B8C1;
		opacity:1;
	}

      ]]>
</style>	


	<polyline class="color" points="127.031,59.984 135.488,59.984 135.488,80.915 127.031,80.915 127.031,59.984 	"/>
	<polygon opacity="0.3" fill-rule="evenodd" clip-rule="evenodd" fill="#FFFFFF" points="127.031,62.218 135.488,62.218 
		135.488,78.598 127.031,78.598 127.031,62.218 	"/>
	<polygon opacity="0.3" fill-rule="evenodd" clip-rule="evenodd" fill="#FFFFFF" points="127.031,63.956 135.488,63.956 
		135.488,76.365 127.031,76.365 127.031,63.956 	"/>
	<polygon opacity="0.3" fill-rule="evenodd" clip-rule="evenodd" fill="#FFFFFF" points="127.031,66.188 135.488,66.188 
		135.488,74.71 127.031,74.71 127.031,66.188 	"/>
	<polygon opacity="0.3" fill-rule="evenodd" clip-rule="evenodd" fill="#FFFFFF" points="127.031,68.422 135.488,68.422 
		135.488,72.394 127.031,72.394 127.031,68.422 	"/>
	<polyline fill="#7F7F7F" points="127.031,20.373 268.722,20.373 268.722,40.725 127.031,40.725 127.031,20.373 	"/>
	<polygon opacity="0.3" fill-rule="evenodd" clip-rule="evenodd" fill="#FFFFFF" points="127.031,22.069 268.722,22.069 
		268.722,39.028 127.031,39.028 127.031,22.069 	"/>
	<polygon opacity="0.3" fill-rule="evenodd" clip-rule="evenodd" fill="#FFFFFF" points="127.031,24.344 268.722,24.344 
		268.722,36.753 127.031,36.753 127.031,24.344 	"/>
	<polygon opacity="0.3" fill-rule="evenodd" clip-rule="evenodd" fill="#FFFFFF" points="127.031,26.577 268.722,26.577 
		268.722,34.52 127.031,34.52 127.031,26.577 	"/>
	<polygon opacity="0.3" fill-rule="evenodd" clip-rule="evenodd" fill="#FFFFFF" points="127.031,28.273 268.722,28.273 
		268.722,32.824 127.031,32.824 127.031,28.273 	"/>
	<polygon fill-rule="evenodd" clip-rule="evenodd" fill="#7F7F7F" points="191.772,192.352 191.772,216.096 193.221,216.096 
		193.221,239.839 205.078,239.839 205.078,216.096 206.529,216.096 206.529,192.352 	"/>
	<polygon opacity="0.3" fill-rule="evenodd" clip-rule="evenodd" fill="#FFFFFF" points="192.642,192.352 192.642,216.096 
		194.052,216.096 194.052,239.839 204.249,239.839 204.249,216.096 205.658,216.096 205.658,192.352 	"/>
	<polygon opacity="0.3" fill-rule="evenodd" clip-rule="evenodd" fill="#FFFFFF" points="194.341,192.352 194.341,216.096 
		195.17,216.096 195.17,239.839 203.13,239.839 203.13,216.096 203.958,216.096 203.958,192.352 	"/>
	<polygon opacity="0.3" fill-rule="evenodd" clip-rule="evenodd" fill="#FFFFFF" points="195.75,192.352 195.75,216.096 
		196.621,216.096 196.621,239.839 201.678,239.839 201.678,216.096 202.549,216.096 202.549,192.352 	"/>
	<polygon opacity="0.3" fill-rule="evenodd" clip-rule="evenodd" fill="#FFFFFF" points="197.16,192.352 197.16,216.096 
		197.451,216.096 197.451,239.839 200.851,239.839 200.851,216.096 201.14,216.096 201.14,192.352 	"/>
	<polygon opacity="0.3" fill-rule="evenodd" clip-rule="evenodd" fill="#FFFFFF" points="198.28,192.352 198.28,216.096 
		198.28,239.839 200.02,239.839 200.02,216.096 200.02,192.352 	"/>
	<polygon fill-rule="evenodd" clip-rule="evenodd" class="color" points="280.661,192.352 280.661,15.806 268.722,15.806 
		268.722,115.993 227.35,115.993 227.35,110.284 132.669,110.284 132.669,115.993 127.031,115.993 127.031,15.806 32.35,15.806 
		25.403,115.993 2.834,115.993 2.834,222.301 18.032,222.301 14.773,269.291 244.927,269.291 250.565,245.548 120.73,222.301 
		120.73,192.352 	"/>
	<path opacity="0.3" fill-rule="evenodd" clip-rule="evenodd" fill="#FFFFFF" d="M55.868,115.994c0,0.584,0.017,1.165,0.044,1.742
		c5.255,4.206,11.926,6.726,19.191,6.726c16.942,0,30.676-13.681,30.676-30.558c0-4.354-0.92-8.492-2.567-12.241
		c-3.508-1.128-7.247-1.744-11.131-1.744C72.08,79.92,55.868,96.071,55.868,115.994z"/>
	<polygon opacity="0.15" fill-rule="evenodd" clip-rule="evenodd" points="25.403,115.993 2.834,115.993 2.834,222.301 
		18.032,222.301 	"/>
	<polygon fill-rule="evenodd" clip-rule="evenodd" class="color" points="71.98,98.454 78.198,98.454 78.198,127.823 
		71.98,127.823 71.98,98.454 	"/>
	<polygon fill-rule="evenodd" clip-rule="evenodd" class="color" points="55.288,2.834 59.267,3.993 51.888,33.362 80.823,41.304 
		79.662,45.275 50.728,37.333 42.851,66.206 38.871,65.627 46.831,36.174 17.315,28.315 18.476,24.344 47.328,32.287 55.288,2.834 	
		"/>
	<polygon fill-rule="evenodd" clip-rule="evenodd" fill="#333333" points="70.902,23.169 117.912,23.169 117.912,33.345 
		70.902,33.345 70.902,23.169 	"/>
	<polygon fill-rule="evenodd" clip-rule="evenodd" fill="#7F0000" points="75.38,28.877 113.352,28.877 113.352,36.241 
		75.38,36.241 75.38,28.877 	"/>
	<polygon opacity="0.05" fill-rule="evenodd" clip-rule="evenodd" points="120.73,192.352 120.73,166.292 280.661,125.01 
		280.661,192.352 120.73,192.352 	"/>
	<polygon opacity="0.05" fill-rule="evenodd" clip-rule="evenodd" points="120.73,192.352 120.73,174.813 280.661,133.531 
		280.661,192.352 120.73,192.352 	"/>
	<line fill="none" x1="224.418" y1="184.99" x2="224.418" y2="192.352"/>
	<line fill="none" x1="244.173" y1="182.177" x2="244.173" y2="192.352"/>
	<line fill="none" x1="262.222" y1="174.813" x2="262.222" y2="192.352"/>
	<line fill="none" x1="225.61" y1="184.99" x2="225.61" y2="192.352"/>
	<line fill="none" x1="244.927" y1="182.177" x2="244.927" y2="192.352"/>
	<line fill="none" x1="263.084" y1="173.656" x2="263.084" y2="192.352"/>
	<polyline fill="none" points="120.713,186.645 187.721,186.645 219.737,184.99 245.364,182.177 262.222,174.813 270.992,164.637 
		277.377,151.649 280.272,136.923 280.661,121.618 	"/>
	<polygon fill-rule="evenodd" clip-rule="evenodd" class="color" points="179.678,18.702 179.678,36.737 179.678,42.445 
		188.798,42.445 188.798,80.915 197.834,80.915 197.834,42.445 206.375,42.445 206.375,36.737 206.375,18.702 	"/>
	<polyline fill="none" points="179.678,18.702 206.375,18.702 206.375,42.445 197.834,42.445 197.834,80.915 188.798,80.915 
		188.798,42.445 179.678,42.445 179.678,18.702 	"/>
	<polygon opacity="0.3" fill-rule="evenodd" clip-rule="evenodd" fill="#FFFFFF" points="188.798,59.984 197.834,59.984 
		197.834,80.915 188.798,80.915 188.798,59.984 	"/>
	<polygon opacity="0.3" fill-rule="evenodd" clip-rule="evenodd" fill="#FFFFFF" points="188.798,62.218 197.834,62.218 
		197.834,78.598 188.798,78.598 188.798,62.218 	"/>
	<polygon opacity="0.3" fill-rule="evenodd" clip-rule="evenodd" fill="#FFFFFF" points="188.798,63.956 197.834,63.956 
		197.834,76.365 188.798,76.365 188.798,63.956 	"/>
	<polygon opacity="0.3" fill-rule="evenodd" clip-rule="evenodd" fill="#FFFFFF" points="188.798,66.188 197.834,66.188 
		197.834,74.71 188.798,74.71 188.798,66.188 	"/>
	<polygon opacity="0.3" fill-rule="evenodd" clip-rule="evenodd" fill="#FFFFFF" points="188.798,68.422 197.834,68.422 
		197.834,72.394 188.798,72.394 188.798,68.422 	"/>
	<polygon fill-rule="evenodd" clip-rule="evenodd" class="color" points="247.746,18.702 247.746,36.737 247.746,42.445 
		256.782,42.445 256.782,80.915 265.902,80.915 265.902,42.445 268.722,42.445 268.722,36.737 268.722,18.702 	"/>
	<polyline fill="none" points="247.746,18.702 268.722,18.702 268.722,42.445 265.902,42.445 265.902,80.915 256.782,80.915 
		256.782,42.445 247.746,42.445 247.746,18.702 	"/>
	<polygon opacity="0.3" fill-rule="evenodd" clip-rule="evenodd" fill="#FFFFFF" points="256.782,59.984 265.902,59.984 
		265.902,80.915 256.782,80.915 256.782,59.984 	"/>
	<polygon opacity="0.3" fill-rule="evenodd" clip-rule="evenodd" fill="#FFFFFF" points="256.782,62.218 265.902,62.218 
		265.902,78.598 256.782,78.598 256.782,62.218 	"/>
	<polygon opacity="0.3" fill-rule="evenodd" clip-rule="evenodd" fill="#FFFFFF" points="256.782,63.956 265.902,63.956 
		265.902,76.365 256.782,76.365 256.782,63.956 	"/>
	<polygon opacity="0.3" fill-rule="evenodd" clip-rule="evenodd" fill="#FFFFFF" points="256.782,66.188 265.902,66.188 
		265.902,74.71 256.782,74.71 256.782,66.188 	"/>
	<polygon opacity="0.3" fill-rule="evenodd" clip-rule="evenodd" fill="#FFFFFF" points="256.782,68.422 265.902,68.422 
		265.902,72.394 256.782,72.394 256.782,68.422 	"/>
	<polygon fill-rule="evenodd" clip-rule="evenodd" class="color" points="280.661,125.01 286.298,125.01 286.298,155.538 
		280.661,155.538 280.661,125.01 	"/>
	<polygon opacity="0.3" fill-rule="evenodd" clip-rule="evenodd" fill="#FFFFFF" points="280.661,127.823 286.298,127.823 
		286.298,152.725 280.661,152.725 280.661,127.823 	"/>
	<polygon opacity="0.3" fill-rule="evenodd" clip-rule="evenodd" fill="#FFFFFF" points="280.661,131.215 286.298,131.215 
		286.298,149.912 280.661,149.912 280.661,131.215 	"/>
	<polygon opacity="0.3" fill-rule="evenodd" clip-rule="evenodd" fill="#FFFFFF" points="280.661,134.11 286.298,134.11 
		286.298,146.52 280.661,146.52 280.661,134.11 	"/>
	<polygon opacity="0.3" fill-rule="evenodd" clip-rule="evenodd" fill="#FFFFFF" points="280.661,136.923 286.298,136.923 
		286.298,143.707 280.661,143.707 280.661,136.923 	"/>
	<polyline fill="none" points="280.661,125.01 286.298,125.01 286.298,155.538 280.661,155.538 280.661,125.01 	"/>
	<polyline fill="none" points="141.706,114.834 141.706,121.618 135.488,121.618 	"/>
	<polyline fill="none" points="135.488,121.618 135.488,114.255 141.706,114.255 	"/>
	<polygon fill-rule="evenodd" clip-rule="evenodd" fill="none" points="132.669,110.284 227.35,110.284 227.35,127.823 
		197.834,127.823 203.556,137.999 156.464,137.999 162.102,127.823 132.669,127.823 132.669,110.284 	"/>
	<polygon opacity="0.3" fill-rule="evenodd" clip-rule="evenodd" fill="#FFFFFF" points="179.678,18.702 206.375,18.702 
		206.375,42.445 179.678,42.445 179.678,18.702 	"/>
	<polygon opacity="0.3" fill-rule="evenodd" clip-rule="evenodd" fill="#FFFFFF" points="247.746,18.702 268.722,18.702 
		268.722,42.445 247.746,42.445 247.746,18.702 	"/>
	<path opacity="0.15" fill-rule="evenodd" clip-rule="evenodd" fill="#4F4F4F" d="M55.841,115.994
		c0-19.924,16.212-36.075,36.212-36.075c3.885,0,7.623,0.617,11.131,1.744c-4.738-10.781-15.537-18.317-28.108-18.317
		c-16.942,0-30.676,13.682-30.676,30.559c0,9.64,4.485,18.231,11.484,23.833C55.858,117.158,55.841,116.578,55.841,115.994z"/>
	<ellipse fill-rule="evenodd" clip-rule="evenodd" class="color" cx="49.069" cy="34.52" rx="11.939" ry="11.893"/>
	<path fill-rule="evenodd" clip-rule="evenodd" class="color" d="M71.98,150.408c-22.711,0-41.123,18.341-41.123,40.967V256.4
		h82.245v-65.025C113.102,168.75,94.691,150.408,71.98,150.408z"/>
	<path fill-rule="evenodd" clip-rule="evenodd" class="color" d="M71.979,171.704c-13.004,0-23.546,10.5-23.546,23.455v37.232
		h47.092v-37.232C95.525,182.204,84.984,171.704,71.979,171.704z"/>
	<polygon opacity="0.3" fill-rule="evenodd" clip-rule="evenodd" fill="#FFFFFF" points="30.857,256.4 48.434,232.657 
		95.525,232.657 113.102,256.4 30.857,256.4 	"/>
	<polygon opacity="0.1" fill-rule="evenodd" clip-rule="evenodd" points="48.434,191.374 48.434,232.657 30.857,256.4 
		30.857,187.693 	"/>
	<g>
		<line fill="none" x1="49.595" y1="225.873" x2="94.365" y2="225.873"/>
		<line fill="none" x1="94.365" y1="220.164" x2="49.595" y2="220.164"/>
		<line fill="none" x1="49.595" y1="213.958" x2="94.365" y2="213.958"/>
		<line fill="none" x1="94.365" y1="208.334" x2="49.595" y2="208.334"/>
		<line fill="none" x1="49.595" y1="202.046" x2="94.365" y2="202.046"/>
		<line fill="none" x1="94.365" y1="196.42" x2="49.595" y2="196.42"/>
		<line fill="none" x1="49.595" y1="190.215" x2="94.365" y2="190.215"/>
		<line fill="none" x1="52.994" y1="184.508" x2="91.546" y2="184.508"/>
		<line fill="none" x1="56.973" y1="178.882" x2="86.986" y2="178.882"/>
		<line fill="none" x1="72.229" y1="230.34" x2="72.229" y2="174.332"/>
		<line fill="none" x1="60.372" y1="177.228" x2="60.372" y2="230.34"/>
		<line fill="none" x1="83.587" y1="230.34" x2="83.587" y2="177.228"/>
	</g>
	<path opacity="0.1" fill-rule="evenodd" clip-rule="evenodd" d="M112.929,187.693l-17.404,3.68v41.283l17.577,23.743
		L112.929,187.693z M108.874,225.293h-4.56v-12.99h4.56V225.293z"/>
	<line fill="none" x1="25.403" y1="115.993" x2="18.032" y2="222.301"/>
	<polyline fill="none" points="127.031,115.951 120.73,166.25 120.73,192.311 	"/>
	<ellipse fill-rule="evenodd" clip-rule="evenodd" class="color" cx="75.09" cy="93.903" rx="5.43" ry="5.41"/>
	
	<g class="stroke">
		<polyline points="127.031,59.985 135.488,59.985 
			135.488,80.914 127.031,80.914 		"/>
		
			<line x1="179.678" y1="40.725" x2="127.031" y2="40.725"/>
		
			<line x1="127.031" y1="20.373" x2="179.678" y2="20.373"/>
		
			<line x1="247.375" y1="40.725" x2="206.529" y2="40.725"/>
		
			<line x1="206.529" y1="20.373" x2="247.375" y2="20.373"/>
		<polyline points="205.078,237.402 205.078,216.096 
			206.529,216.096 206.529,192.351 		"/>
		<polyline points="191.772,192.351 191.772,216.096 
			193.223,216.096 193.223,235.279 		"/>
		
			<polyline fill-rule="evenodd" clip-rule="evenodd" points="
			31.226,32.019 25.403,115.994 2.834,115.994 2.834,222.301 18.032,222.301 14.773,269.291 244.927,269.291 250.566,245.546 
			120.73,222.301 120.73,192.351 280.662,192.351 280.662,15.806 268.724,15.806 268.724,115.994 227.352,115.994 		"/>
		
			<polyline fill-rule="evenodd" clip-rule="evenodd" points="
			51.782,15.806 32.35,15.806 31.509,27.932 		"/>
		
			<polyline fill-rule="evenodd" clip-rule="evenodd" points="
			132.669,115.994 127.031,115.994 127.031,15.806 56.299,15.806 		"/>
		
			<polyline fill-rule="evenodd" clip-rule="evenodd" points="
			78.198,98.454 78.198,127.823 71.98,127.823 71.98,98.454 		"/>
		
			<polygon fill-rule="evenodd" clip-rule="evenodd" points="
			55.288,2.834 59.267,3.993 51.888,33.362 80.823,41.305 79.662,45.276 50.728,37.333 42.851,66.205 38.871,65.626 46.831,36.175 
			17.315,28.315 18.476,24.344 47.328,32.287 55.288,2.834 		"/>
		
			<line x1="224.418" y1="184.476" x2="224.418" y2="192.351"/>
		
			<line x1="244.174" y1="182.306" x2="244.174" y2="192.351"/>
		
			<line x1="262.222" y1="174.813" x2="262.222" y2="192.351"/>
		<polyline points="120.713,186.645 187.721,186.645 
			219.737,184.99 245.366,182.177 262.222,174.813 270.992,164.637 277.379,151.648 280.272,136.922 280.662,125.01 		"/>
		
			<polygon fill-rule="evenodd" clip-rule="evenodd" points="
			179.678,18.702 179.678,36.736 179.678,42.445 188.798,42.445 188.798,80.914 197.834,80.914 197.834,42.445 206.376,42.445 
			206.376,36.736 206.376,18.702 		"/>
		
			<polyline fill-rule="evenodd" clip-rule="evenodd" points="
			268.724,18.702 247.746,18.702 247.746,42.445 256.782,42.445 256.782,80.914 265.902,80.914 265.902,42.445 268.724,42.445 		"/>
		<polyline points="280.662,125.01 286.299,125.01 
			286.299,155.536 280.662,155.536 		"/>
		
			<polygon fill-rule="evenodd" clip-rule="evenodd" points="
			132.669,110.285 227.352,110.285 227.352,127.823 197.834,127.823 203.557,137.999 156.465,137.999 162.102,127.823 
			132.669,127.823 132.669,110.285 		"/>
		<path fill-rule="evenodd" clip-rule="evenodd" d="
			M38.127,29.755c1.844-4.196,6.049-7.128,10.942-7.128c0.29,0,0.576,0.01,0.86,0.031"/>
		<path fill-rule="evenodd" clip-rule="evenodd" d="
			M44.325,45.438c-4.233-1.829-7.195-6.029-7.195-10.917c0-0.309,0.012-0.615,0.035-0.919"/>
		<path fill-rule="evenodd" clip-rule="evenodd" d="
			M59.763,39.813c-1.955,3.912-6.01,6.601-10.694,6.601c-0.272,0-0.542-0.009-0.81-0.027"/>
		<path fill-rule="evenodd" clip-rule="evenodd" d="
			M54.272,23.813c3.987,1.926,6.735,5.997,6.735,10.708c0,0.449-0.024,0.891-0.073,1.327"/>
		<path fill-rule="evenodd" clip-rule="evenodd" d="
			M71.98,150.407c-22.711,0-41.123,18.341-41.123,40.967V256.4h82.245v-65.026C113.102,168.748,94.691,150.407,71.98,150.407z"/>
		<path fill-rule="evenodd" clip-rule="evenodd" d="
			M71.979,171.704c-13.004,0-23.546,10.5-23.546,23.455v37.231h47.092v-37.231C95.525,182.203,84.984,171.704,71.979,171.704z"/>

			
				<line x1="49.595" y1="225.871" x2="94.365" y2="225.871"/>
			
				<line x1="94.365" y1="220.163" x2="49.595" y2="220.163"/>
			
				<line x1="49.595" y1="213.958" x2="94.365" y2="213.958"/>
			
				<line x1="94.365" y1="208.334" x2="49.595" y2="208.334"/>
			
				<line x1="49.595" y1="202.046" x2="94.365" y2="202.046"/>
			
				<line x1="94.365" y1="196.42" x2="49.595" y2="196.42"/>
			
				<line x1="49.595" y1="190.215" x2="94.365" y2="190.215"/>
			
				<line x1="52.994" y1="184.507" x2="91.546" y2="184.507"/>
			
				<line x1="56.973" y1="178.881" x2="86.986" y2="178.881"/>
			
				<line x1="72.229" y1="230.339" x2="72.229" y2="174.33"/>
			
				<line x1="60.372" y1="177.226" x2="60.372" y2="230.339"/>
			
				<line x1="83.587" y1="230.339" x2="83.587" y2="177.226"/>

		
			<line x1="25.403" y1="115.994" x2="18.032" y2="222.301"/>
		<polyline points="127.031,115.952 120.73,166.25 
			120.73,192.31 		"/>
		
			<ellipse fill-rule="evenodd" clip-rule="evenodd" cx="75.09" cy="93.903" rx="5.43" ry="5.41"/>
		<path fill-rule="evenodd" clip-rule="evenodd" d="
			M78.198,124.308c15.482-1.552,27.568-14.573,27.568-30.405c0-16.876-13.735-30.559-30.676-30.559
			c-16.942,0-30.676,13.682-30.676,30.559c0,15.823,12.072,28.837,27.54,30.402"/>
		
			<line x1="193.223" y1="216.096" x2="205.078" y2="216.096"/>
		
			<line x1="188.798" y1="42.445" x2="197.834" y2="42.445"/>
		
			<line x1="256.782" y1="42.445" x2="265.902" y2="42.445"/>
	</g>

</svg>
