<?xml version="1.0" encoding="utf-8"?>
<!-- Generator: Adobe Illustrator 15.1.0, SVG Export Plug-In . SVG Version: 6.00 Build 0)  -->
<!DOCTYPE svg PUBLIC "-//W3C//DTD SVG 1.1//EN" "http://www.w3.org/Graphics/SVG/1.1/DTD/svg11.dtd">
<svg version="1.1" id="Layer_1" xmlns="http://www.w3.org/2000/svg" preserveAspectRatio="none"  xmlns:xlink="http://www.w3.org/1999/xlink" x="0px" y="0px"
	   viewBox="0 0 102 97" xmlns:agg="http://www.example.com">
	 
<agg:params>
	<agg:param type="C" name="color" description="Color" cssAttributes="fill" classes="color"/>
</agg:params>

<style type="text/css" >
   <![CDATA[

	.stroke,.thin,.thick{
		stroke-linecap:butt;
		stroke-linejoin:round;
		stroke: black;
		fill:none;
		opacity:0.5;
	}

	.stroke{stroke-width:0.25;}

	.thin {stroke-width:0.25;}

	.thick {stroke-width:0.75;}
	
	.color {
		fill:#99CCCC;
		opacity:1;
	}

      ]]>
</style>
	 
<polygon points="4.613,2.802 83.189,2.802 83.189,41.308 4.613,41.308 4.613,2.802 "/>
<path class="color" d="M7.214,41.308V29.554h6.575v11.754H7.214
	L7.214,41.308z M6.383,29.554h75V2.802h3.035V1H3.384v1.802h2.999V29.554z M101,15.169h-4.805l-4.804,16.584h-8.202v14.35
	L101,41.308V15.169z M1,48.518h85.802v-2.416h-3.613H1V48.518z M84.996,62.687h1.806v19.145L67.583,96h-47.58L1,81.831V62.687h1.192
	v-4.614h1.192h80.419h1.192V62.687z M83.189,62.687v-3.604H3.999v3.604H83.189z"/>
<polygon opacity="0.2" points="83.189,46.103 101,41.308 101,39.505 83.189,44.3 83.189,46.103 "/>

<g id="grad_2">
	<polygon class="color" points="7.214,41.308 7.214,29.554 13.789,29.554 13.789,41.308 7.214,41.308 "/>
	<polygon opacity="0.25" fill="#FFFFFF" points="7.611,41.308 7.611,29.554 13.392,29.554 13.392,41.308 7.611,41.308 	"/>
	<polygon opacity="0.25" fill="#FFFFFF" points="8.009,41.308 8.009,29.554 12.994,29.554 12.994,41.308 8.009,41.308 	"/>
	<polygon opacity="0.25" fill="#FFFFFF" points="8.406,41.308 8.406,29.554 12.597,29.554 12.597,41.308 8.406,41.308 	"/>
	<polygon opacity="0.25" fill="#FFFFFF" points="8.803,41.308 8.803,29.554 12.199,29.554 12.199,41.308 8.803,41.308 	"/>
	<polygon opacity="0.25" fill="#FFFFFF" points="9.201,41.308 9.201,29.554 11.802,29.554 11.802,41.308 9.201,41.308 	"/>
	<polygon opacity="0.25" fill="#FFFFFF" points="9.417,41.308 9.417,29.554 11.585,29.554 11.585,41.308 9.417,41.308 	"/>
	<polygon opacity="0.25" fill="#FFFFFF" points="9.815,41.308 9.815,29.554 11.188,29.554 11.188,41.308 9.815,41.308 	"/>
	<polygon opacity="0.25" fill="#FFFFFF" points="10.212,41.308 10.212,29.554 10.791,29.554 10.791,41.308 10.212,41.308 	"/>
</g>

<use xlink:href="#grad_2" transform="translate (66.583 0)"/>

<path d="M12.416,34.133h1.771v2.38h-1.771V34.133L12.416,34.133z M7.214,34.133v2.38h1.589
	v-2.38H7.214L7.214,34.133z M78.999,34.133v2.38h1.409v-2.38H78.999L78.999,34.133z M73.616,34.133v2.38h1.77v-2.38H73.616
	L73.616,34.133z"/>
<polygon class="color" points="1,58.072 86.802,58.072 86.802,41.308 77.192,41.308 72.388,29.554 15.198,29.554 10.61,41.308 1,41.308 1,58.072 "/>
<polygon opacity="0.05" points="1,58.072 86.802,58.072 86.802,41.308 77.192,41.308 74.989,35.719 1,49.708 1,58.072 "/>

<g id="grad_1">
	<polygon class="color" points="1,3.38 5.805,3.38 5.805,34.133 1,34.133 1,3.38"/>
	<polygon opacity="0.25" fill="#FFFFFF" points="1,4.786 5.805,4.786 5.805,32.546 1,32.546 1,4.786"/>
	<polygon opacity="0.25" fill="#FFFFFF" points="1,6.372 5.805,6.372 5.805,30.924 1,30.924 1,6.372"/>
	<polygon opacity="0.25" fill="#FFFFFF" points="1,7.994 5.805,7.994 5.805,29.338 1,29.338 1,7.994"/>
	<polygon opacity="0.25" fill="#FFFFFF" points="1,9.581 5.805,9.581 5.805,27.751 1,27.751 1,9.581"/>
	<polygon opacity="0.25" fill="#FFFFFF" points="1,11.167 5.805,11.167 5.805,26.345 1,26.345 1,11.167"/>
	<polygon opacity="0.25" fill="#FFFFFF" points="1,12.789 5.805,12.789 5.805,24.759 1,24.759 1,12.789"/>
	<polygon opacity="0.25" fill="#FFFFFF" points="1,14.375 5.805,14.375 5.805,23.137 1,23.137 1,14.375"/>
	<polygon opacity="0.25" fill="#FFFFFF" points="1,15.962 5.805,15.962 5.805,21.55 1,21.55 1,15.962"/>
</g>

<use xlink:href="#grad_1" transform="translate(80.998 0)"/>

<polygon opacity="0.05" points="81.383,29.554 81.383,7.994 6.383,23.569 6.383,29.554 81.383,29.554 "/>
<polygon opacity="0.3" points="6.383,26.562 81.383,26.562 81.383,28.328 6.383,28.328 6.383,26.562 "/>
<polygon opacity="0.6" points="6.383,28.328 81.383,28.328 81.383,29.554 6.383,29.554 6.383,28.328 "/>
<polygon opacity="0.6" points="15.198,29.554 72.388,29.554 73.002,30.744 14.801,30.744 15.198,29.554 "/>

<g class="stroke">
	<line x1="84.201" y1="75.847" x2="84.201" y2="66.256"/>
	<line x1="81.383" y1="75.847" x2="81.383" y2="66.256"/>
	<line x1="2.192" y1="48.518" x2="86.188" y2="48.518"/>
	<line x1="2.806" y1="75.847" x2="2.806" y2="66.256"/>
	<line x1="8.189" y1="2.802" x2="80.191" y2="2.802"/>
</g>
<g fill="none" stroke="#FFFFFF" stroke->
	<line x1="8.189" y1="3.38" x2="80.191" y2="3.38"/>
	<line x1="2.192" y1="49.095" x2="86.188" y2="49.095"/>
	<line x1="2.192" y1="57.279" x2="86.188" y2="57.279"/>
	<line x1="3.384" y1="75.847" x2="3.384" y2="66.256"/>
	<line x1="84.815" y1="75.847" x2="84.815" y2="66.256"/>
	<line x1="81.998" y1="75.847" x2="81.998" y2="66.256"/>
</g>

<polygon opacity="0.3" points="2.806,77.036 84.996,77.036 84.996,78.226 2.806,78.226 2.806,77.036 "/>
<polygon opacity="0.3" points="2.806,63.877 84.996,63.877 84.996,65.066 2.806,65.066 2.806,63.877 "/>
<polygon opacity="0.5" fill="#FFFFFF" points="2.806,64.273 84.996,64.273 84.996,64.887 2.806,64.887 2.806,64.273 "/>
<polygon opacity="0.5" fill="#FFFFFF" points="2.806,77.252 84.996,77.252 84.996,77.829 2.806,77.829 2.806,77.252 "/>
<polygon opacity="0.5" points="3.384,62.687 3.384,58.072 83.804,58.072 83.804,62.687 83.189,62.687 83.189,59.082 3.999,59.082 3.999,62.687 3.384,62.687 "/>

<g class="stroke">
	<line x1="83.189" y1="34.133" x2="83.189" y2="41.308"/>
	<polyline points="86.802,45.13 101,41.308 101,15.169 96.195,15.169 91.391,31.753 86.803,31.753"/>
	<line x1="12.482" y1="36.513" x2="7.214" y2="36.513"/>
	<line x1="7.214" y1="34.133" x2="13.411" y2="34.133"/>
	<polyline points="1,58.072 86.802,58.072 86.802,41.308 77.191,41.308 72.389,29.554 15.198,29.554 10.61,41.308 1,41.308 1,58.072"/>
	<line x1="10.61" y1="29.554" x2="77.191" y2="29.554"/>
	<polyline points="81.383,29.554 81.383,2.802 84.418,2.802 84.418,1 3.384,1 3.384,2.802 6.383,2.802 6.383,29.554 81.383,29.554"/>
	<polyline points="2.806,77.036 84.996,77.036 84.996,78.227 2.806,78.227 2.806,77.036"/>
	<polygon points="1,62.688 1,81.831 20.003,96 67.583,96 86.802,81.831 86.802,62.688"/>
	<line x1="86.802" y1="48.518" x2="1" y2="48.518"/>
	<line x1="1" y1="46.103" x2="86.802" y2="46.103"/>
	<polygon points="81.998,3.38 86.803,3.38 86.803,34.133 81.998,34.133"/>
	<polygon points="1,3.38 5.805,3.38 5.805,34.133 1,34.133"/>
	<polygon points="2.192,58.072 3.384,58.072 3.384,62.688 2.192,62.688"/>
	<polygon points="83.805,58.072 84.996,58.072 84.996,62.688 83.805,62.688"/>
	<polygon points="2.806,63.877 84.996,63.877 84.996,65.066 2.806,65.066"/>
	<line x1="80.408" y1="34.133" x2="74.259" y2="34.133"/>
	<line x1="80.408" y1="36.513" x2="75.387" y2="36.513"/>
</g>
</svg>
