<?xml version="1.0" encoding="utf-8"?>
<!-- Generator: Adobe Illustrator 15.1.0, SVG Export Plug-In . SVG Version: 6.00 Build 0)  -->
<!DOCTYPE svg PUBLIC "-//W3C//DTD SVG 1.1//EN" "http://www.w3.org/Graphics/SVG/1.1/DTD/svg11.dtd">
<svg version="1.1" id="Default" xmlns="http://www.w3.org/2000/svg" preserveAspectRatio="none"  x="0px" y="0px"
       viewBox="0 0 102 135" xmlns:agg="http://www.example.com">
	 
<agg:params>
	<agg:param type="C" name="color" description="Color" cssAttributes="fill" classes="color"/>
</agg:params>
	 
<style type="text/css" >
   <![CDATA[

	.stroke,.thin,.thick{
		stroke-linecap:butt;
		stroke-linejoin:round;
		stroke: black;
		fill:none;
		opacity:0.5;
	}

	.stroke{stroke-width:0.25;}

	.thin {stroke-width:0.25;}

	.thick {stroke-width:0.75;}
	
	.color {
		fill:#99CCCC;
		opacity:1;
	}

      ]]>
</style>
	 
<polygon class="color" points="84.554,107.392 84.554,11.107 81.337,7.63 14.409,1.001 11.191,4.479 11.191,7.63 21.125,24.412 
	17.908,47.08 17.908,80.782 21.125,80.782 24.577,80.782 25.37,81.617 25.37,93.299 24.577,94.086 21.125,94.086 21.125,87.458 
	17.908,87.458 17.908,134 21.125,134 21.125,109.803 34.511,109.803 34.511,107.392 74.62,107.392 74.62,109.803 88.006,109.803 
	88.006,107.392 "/>
<polygon opacity="0.15" fill="#FFFFFF" points="84.555,11.108 84.555,43.65 21.125,70.548 21.125,47.558 21.128,24.41 11.191,7.632 
	11.191,4.476 14.409,1 81.337,7.632 "/>
<rect x="73.035" y="14.306"  />
<path fill="#333333" d="M94.251,23.449c1.286,0.117,2.517-0.165,3.569-0.748L66.889,39.853l-0.794-1.348l27.067-15.257
	C93.513,23.345,93.876,23.413,94.251,23.449z"/>
<path fill="#333333" d="M63.11,8.187l32.286,2.985c-1.606-0.146-3.132,0.331-4.319,1.232l-28.2-2.36L63.11,8.187z"/>
<rect x="75.413" y="15.094" fill="#B2B2B2"  />
<path class="color" d="M51.067,14.027c-5.757,7.519-4.306,18.263,3.242,23.998s18.333,4.29,24.09-3.229
	c5.757-7.519,4.305-18.263-3.242-23.999C67.61,5.063,56.824,6.509,51.067,14.027z"/>
<path class="color" d="M5.595,12.684c-7.376,9.417-5.692,23.008,3.761,30.356c9.454,7.348,23.096,5.67,30.472-3.747
	s5.692-23.009-3.761-30.356C26.613,1.588,12.971,3.266,5.595,12.684z"/>
<polyline opacity="0.7" fill="none" stroke="#FFFFFF" stroke- points="21.126,101.551 58.856,101.551 58.856,91.723 62.075,91.723 62.075,65.901 "/>
<polyline class="stroke" points="21.126,100.762 58.016,100.762 58.016,90.656 61.235,90.656 61.235,65.901 "/>
<path opacity="0.3" fill="#FFFFFF" d="M80.623,17.869c2.252,5.449,1.618,11.904-2.221,16.924c-0.024,0.031-0.049,0.067-0.08,0.098
	L64.736,24.41l15.881-6.541H80.623z"/>
<path opacity="0.1" d="M64.736,24.41L50.934,34.615l-0.006,0.006c-0.874-1.177-1.587-2.446-2.123-3.77h0.006l15.685-6.345
	L64.736,24.41z"/>
<path opacity="0.1" d="M64.736,24.41l-0.24,0.098l-0.043-0.098l13.734-10.654c1.015,1.269,1.827,2.654,2.437,4.113h-0.006
	L64.736,24.41z"/>
<path opacity="0.3" fill="#FFFFFF" d="M64.453,24.41l0.043,0.098l-15.685,6.345h-0.006c-2.203-5.425-1.557-11.837,2.265-16.826
	L64.453,24.41z"/>
<path opacity="0.3" fill="#FFFFFF" d="M22.709,25.991l20.029-8.361c2.904,6.927,2.104,15.165-2.812,21.528L22.845,26.095
	L22.709,25.991z"/>
<path opacity="0.1" d="M22.709,25.991l0.136,0.104L5.487,39.164c-1.175-1.526-2.129-3.182-2.843-4.916l0.012-0.006L22.709,25.991z"
	/>
<path opacity="0.1" d="M42.738,17.63l-20.029,8.361v-0.006l17.223-13.167C41.089,14.314,42.024,15.932,42.738,17.63z"/>
<path opacity="0.3" fill="#FFFFFF" d="M5.592,12.684l17.118,13.308l-20.053,8.25l-0.012,0.006
	C-0.235,27.291,0.62,19.034,5.592,12.684z"/>
<ellipse class="color" cx="64.593" cy="24.412" rx="6.638" ry="6.613"/>
<polygon class="color" points="71.169,57.649 71.168,64.325 57.784,64.325 57.784,57.649 58.856,20.935 70.33,20.935 "/>
<path fill="#7F7F7F" d="M95.383,11.168
	c3.403,0.314,5.906,3.318,5.59,6.708s-3.33,5.883-6.733,5.569c-3.403-0.314-5.906-3.317-5.59-6.708
	C88.965,13.347,91.979,10.854,95.383,11.168z"/>
<rect x="17.908" y="87.458" opacity="0.3" fill="#FFFFFF"  />
<rect x="17.908" y="115.643" opacity="0.1"  />

<g class="stroke">
	<line x1="79.776" y1="32.697" x2="97.82" y2="22.694"/>
	<line x1="93.152" y1="23.247" x2="80.937" y2="30.132"/>
	<line x1="72.305" y1="9.037" x2="95.383" y2="11.168"/>
	<line x1="91.064" y1="12.401" x2="75.538" y2="11.102"/>
	<line x1="21.125" y1="80.782" x2="21.125" y2="47.558"/>
	<rect x="17.908" y="87.458"  />
	<polyline points="84.554,107.392 88.006,107.392 88.006,109.803 74.62,109.803 74.62,107.392 34.511,107.392 34.511,109.803 21.125,109.803"/>
	<line x1="57.784" y1="57.649" x2="71.168" y2="57.649"/>
	<path d="M70.776,40.443
		c2.89-1.079,5.522-2.945,7.546-5.551c0.031-0.031,0.056-0.067,0.08-0.098c3.839-5.021,4.474-11.475,2.221-16.924
		c-0.609-1.459-1.421-2.845-2.437-4.113c-0.861-1.084-1.871-2.083-3.027-2.961c-7.55-5.731-18.336-4.284-24.089,3.231
		c-3.821,4.989-4.467,11.401-2.265,16.826c0.536,1.324,1.249,2.593,2.123,3.77c0.936,1.256,2.068,2.403,3.378,3.402
		c1.251,0.951,2.592,1.705,3.984,2.266"/>
	<path d="M5.592,12.684
		c-4.972,6.35-5.827,14.607-2.947,21.564c0.714,1.734,1.667,3.39,2.843,4.916c1.095,1.416,2.387,2.721,3.87,3.874
		c9.451,7.35,23.093,5.67,30.471-3.745c0.037-0.043,0.067-0.093,0.098-0.135c4.917-6.363,5.716-14.601,2.812-21.528
		c-0.714-1.698-1.649-3.316-2.806-4.812c-1.089-1.422-2.381-2.728-3.865-3.88C26.611,1.588,12.969,3.268,5.592,12.684z"/>
	<path d="M70.54,30.133
		c0.755-0.778,1.368-1.718,1.778-2.794c1.623-4.25-0.521-9.006-4.787-10.623c-4.267-1.617-9.041,0.518-10.663,4.769
		c-1.166,3.052-0.389,6.365,1.721,8.589"/>
	<path d="M22.198,20.935
		c-2.801,0.437-4.717,3.052-4.279,5.843c0.438,2.791,3.063,4.7,5.865,4.263c2.802-0.436,4.718-3.052,4.28-5.843
		C27.625,22.407,25,20.499,22.198,20.935z"/>
	<path d="M70.48,27.47
		c0.479-0.915,0.751-1.955,0.751-3.058c0-3.653-2.972-6.613-6.638-6.613s-6.638,2.96-6.638,6.613c0,1.074,0.257,2.087,0.713,2.984"/>
	<polygon points="71.169,57.649 71.168,64.325 57.784,64.325 57.784,57.649 58.856,20.935 70.33,20.935"/>
	<path d="M95.383,11.168
		c3.403,0.314,5.906,3.318,5.59,6.708s-3.33,5.883-6.733,5.569c-3.403-0.314-5.906-3.317-5.59-6.708
		C88.965,13.347,91.979,10.854,95.383,11.168z"/>
	<polyline points="84.555,30.181 84.555,107.392 21.126,107.392"/>
	<line x1="84.555" y1="20.573" x2="84.555" y2="28.046"/>
	<line x1="84.555" y1="11.932" x2="84.555" y2="14.567"/>
	<polyline points="11.192,7.63 11.192,4.479 14.41,1.001 81.337,7.63 83.539,10.01"/>
	<polyline points="21.126,94.086 24.578,94.086 25.371,93.299 25.371,81.617 24.578,80.782 21.126,80.782 17.908,80.782 17.908,47.08"/>
	<rect x="27.795" y="54.219"  />
	<polyline points="71.053,52.597 73.035,52.597 73.035,65.901 56.151,65.901 56.151,52.597 57.932,52.597"/>
</g>
</svg>
