<?xml version="1.0" encoding="utf-8"?>
<!-- Generator: Adobe Illustrator 15.1.0, SVG Export Plug-In . SVG Version: 6.00 Build 0)  -->
<!DOCTYPE svg PUBLIC "-//W3C//DTD SVG 1.1//EN" "http://www.w3.org/Graphics/SVG/1.1/DTD/svg11.dtd">
<svg version="1.1" id="Layer_1" xmlns="http://www.w3.org/2000/svg" preserveAspectRatio="none"  x="0px" y="0px"
       viewBox="0 0 102 102" xmlns:agg="http://www.example.com">
	 
<agg:params>
	<agg:param type="C" name="color" description="Color" cssAttributes="fill" classes="color"/>
</agg:params>

<style type="text/css" >
   <![CDATA[

	.stroke,.thin,.thick{
		stroke-linecap:butt;
		stroke-linejoin:round;
		stroke: black;
		fill:none;
		opacity:0.35;
	}

	.stroke{stroke-width:0.5;}

	.thin {stroke-width:0.25;}

	.thick {stroke-width:0.75;}
	
	.color {
		fill:#2088B7;
		opacity:1;
	}

      ]]>
</style>	 
	 
<polygon class="color" points="56.21,63.401 56.21,60.392 64.604,60.392 64.604,59.41 
	67.614,59.41 67.614,50.002 101,50.002 101,41.608 97.8,41.608 76.008,35.399 62.387,35.399 62.387,23.807 46.613,23.807 
	46.613,35.399 25.992,35.399 25.992,34.386 23.997,34.386 23.997,8.19 25.992,8.19 25.992,2.996 23.997,2.996 23.997,1 11.39,1 
	11.39,2.996 9.394,2.996 9.394,8.19 11.39,8.19 11.39,34.386 9.394,34.386 9.394,35.399 1,35.399 1,50.002 9.394,50.002 
	9.394,51.016 11.39,51.016 11.39,59.41 9.394,59.41 9.394,93.809 5.213,93.809 5.213,99.986 1,99.986 1,101 101,101 101,99.986 
	96.787,99.986 96.787,93.809 25.992,93.809 25.992,59.41 23.997,59.41 23.997,51.016 25.992,51.016 25.992,50.002 45.79,50.002 
	45.79,60.392 48.553,60.392 45.409,65.808 47.215,66.791 50.921,60.392 54.215,60.392 54.215,63.401"/>
	
<g>
	<polygon opacity="0.2" fill="#FFFFFF" points="11.801,8.19 23.585,8.19 23.585,34.386 11.801,34.386 11.801,8.19"/>
	<polygon opacity="0.2" fill="#FFFFFF" points="12.681,8.19 22.67,8.19 22.67,34.386 12.681,34.386 12.681,8.19"/>
	<polygon opacity="0.2" fill="#FFFFFF" points="13.806,8.19 21.58,8.19 21.58,34.386 13.806,34.386 13.806,8.19"/>
	<polygon opacity="0.2" fill="#FFFFFF" points="14.686,8.19 20.454,8.19 20.454,34.386 14.686,34.386 14.686,8.19"/>
	<polygon opacity="0.2" fill="#FFFFFF" points="15.811,8.19 19.575,8.19 19.575,34.386 15.811,34.386 15.811,8.19"/>
	<polygon opacity="0.2" fill="#FFFFFF" points="16.69,8.19 18.449,8.19 18.449,34.386 16.69,34.386 16.69,8.19"/>
</g>

<g>
	<polygon opacity="0.2" fill="#FFFFFF" points="11.801,50.922 23.585,50.922 23.585,59.41 11.801,59.41 11.801,50.922"/>
	<polygon opacity="0.2" fill="#FFFFFF" points="12.681,50.922 22.67,50.922 22.67,59.41 12.681,59.41 12.681,50.922"/>
	<polygon opacity="0.2" fill="#FFFFFF" points="13.806,50.922 21.58,50.922 21.58,59.41 13.806,59.41 13.806,50.922"/>
	<polygon opacity="0.2" fill="#FFFFFF" points="14.686,50.922 20.454,50.922 20.454,59.41 14.686,59.41 14.686,50.922"/>
	<polygon opacity="0.2" fill="#FFFFFF" points="15.811,50.922 19.575,50.922 19.575,59.41 15.811,59.41 15.811,50.922"/>
	<polygon opacity="0.2" fill="#FFFFFF" points="16.69,50.922 18.449,50.922 18.449,59.41 16.69,59.41 16.69,50.922"/>
</g>
	
<g>
	<polygon opacity="0.2" fill="#FFFFFF" points="10.408,34.386 25.01,34.386 25.01,51.189 10.408,51.189 10.408,34.386"/>
	<polygon opacity="0.2" fill="#FFFFFF" points="11.498,34.386 23.877,34.386 23.877,51.189 11.498,51.189 11.498,34.386"/>
	<polygon opacity="0.2" fill="#FFFFFF" points="12.892,34.386 22.525,34.386 22.525,51.189 12.892,51.189 12.892,34.386"/>
	<polygon opacity="0.2" fill="#FFFFFF" points="13.981,34.386 21.13,34.386 21.13,51.189 13.981,51.189 13.981,34.386"/>
	<polygon opacity="0.2" fill="#FFFFFF" points="15.376,34.386 20.041,34.386 20.041,51.189 15.376,51.189 15.376,34.386"/>
	<polygon opacity="0.2" fill="#FFFFFF" points="16.466,34.386 18.646,34.386 18.646,51.189 16.466,51.189 16.466,34.386"/>
</g>

<g>
	<polygon opacity="0.2" fill="#FFFFFF" points="10.408,59.41 25.01,59.41 25.01,93.809 10.408,93.809 10.408,59.41"/>
	<polygon opacity="0.2" fill="#FFFFFF" points="11.497,59.41 23.877,59.41 23.877,93.809 11.497,93.809 11.497,59.41"/>
	<polygon opacity="0.2" fill="#FFFFFF" points="12.892,59.41 22.525,59.41 22.525,93.809 12.892,93.809 12.892,59.41"/>
	<polygon opacity="0.2" fill="#FFFFFF" points="13.981,59.41 21.131,59.41 21.131,93.809 13.981,93.809 13.981,59.41"/>
	<polygon opacity="0.2" fill="#FFFFFF" points="15.376,59.41 20.041,59.41 20.041,93.809 15.376,93.809 15.376,59.41"/>
	<polygon opacity="0.2" fill="#FFFFFF" points="16.466,59.41 18.646,59.41 18.646,93.809 16.466,93.809 16.466,59.41"/>
</g>

<g>
	<polygon opacity="0.15" fill="#FFFFFF" points="10.598,2.996 12.403,2.996 12.403,1 
		23.015,1 23.015,2.996 24.789,2.996 24.789,8.19 10.598,8.19 10.598,2.996 		"/>
	<polygon opacity="0.15" fill="#FFFFFF" points="11.801,2.996 13.195,2.996 13.195,1 
		22.191,1 22.191,2.996 23.585,2.996 23.585,8.19 11.801,8.19 11.801,2.996 		"/>
	<polygon opacity="0.15" fill="#FFFFFF" points="13.005,2.996 14.208,2.996 14.208,1 
		21.209,1 21.209,2.996 22.413,2.996 22.413,8.19 13.005,8.19 13.005,2.996 		"/>
	<polygon opacity="0.15" fill="#FFFFFF" points="14.208,2.996 15,2.996 15,1 20.195,1 
		20.195,2.996 21.209,2.996 21.209,8.19 14.208,8.19 14.208,2.996 		"/>
	<polygon opacity="0.15" fill="#FFFFFF" points="15.413,2.996 16.014,2.996 16.014,1 
		19.403,1 19.403,2.996 20.005,2.996 20.005,8.19 15.413,8.19 15.413,2.996 		"/>
	<polygon opacity="0.15" fill="#FFFFFF" points="16.584,2.996 16.806,2.996 16.806,1 
		18.39,1 18.39,2.996 18.612,2.996 18.612,8.19 16.584,8.19 16.584,2.996 		"/>
</g>

<g stroke="#FFFFFF" fill="none" opacity="0.5" stroke->
	<line x1="67.614" y1="48.799" x2="101" y2="48.799"/>
	<line x1="25.01" y1="48.799" x2="45.79" y2="48.799"/>
	<line x1="64.604" y1="41.592" x2="97.8" y2="41.621"/>
	<line x1="25.01" y1="41.621" x2="45.79" y2="41.621"/>
	<polyline points="10.408,48.894 2.014,48.894 2.014,36.508"/>
</g>

<g class="stroke">
	<polyline fill="none" points="47.785,38.409 49.59,38.409 49.59,25.992"/>
	<polyline fill="none" points="51.396,38.409 53.202,38.409 53.202,25.992"/>
	<polyline fill="none" points="55.007,38.409 56.812,38.409 56.812,25.992"/>
	<polyline fill="none" points="58.586,38.409 60.392,38.409 60.392,25.992"/>
</g>
	
<polygon opacity="0.15" fill="#FFFFFF" points="96.787,93.809 5.213,93.809 5.213,98.806 96.534,96.215"/>
<polyline opacity="0.25" fill="#FFFFFF" points="54.215,60.392 56.21,60.392 56.21,63.401 54.215,63.401 54.215,60.392"/>
<path opacity="0.25" fill="#FFFFFF" d="M62.387,23.807H46.613v16.788h13.431l-2.195,3.782
	c-0.873-0.374-1.833-0.582-2.842-0.582c-3.989,0-7.222,3.233-7.222,7.222c0,2.352,1.13,4.436,2.871,5.754l-5.246,9.039l1.806,0.982
	l5.229-9.029c0.797,0.303,1.659,0.477,2.563,0.477c3.989,0,7.222-3.233,7.222-7.222c0-2.25-1.03-4.259-2.644-5.584l2.802-4.837
	V23.807z M55.007,53.423c-1.33,0-2.407-1.078-2.407-2.407c0-1.329,1.078-2.407,2.407-2.407s2.407,1.078,2.407,2.407
	C57.414,52.345,56.336,53.423,55.007,53.423z"/>
<line class="stroke" x1="10.408" y1="36.413" x2="2.014" y2="36.413"/>

<g>
	<rect x="2.014" y="36.413" opacity="0.15" fill="#FFFFFF"  />
	<polygon opacity="0.15" fill="#FFFFFF" points="64.604,40.594 64.604,41.592 98.768,41.608 79.566,36.413 62.387,36.413 62.387,40.594"/>
	<polygon opacity="0.15" fill="#FFFFFF" points="46.613,36.413 25.01,36.413 25.01,41.621 45.79,41.617 45.79,40.594 46.613,40.594"/>
	<polygon opacity="0.15" fill="#FFFFFF" points="67.614,43.604 67.614,48.894 101,48.799 101,43.604"/>
	<rect x="25.01" y="43.604" opacity="0.15" fill="#FFFFFF"  />
</g>
	
<g class="stroke">
	<line x1="11.39" y1="34.386" x2="11.39" y2="8.19"/>
	<line x1="23.997" y1="8.19" x2="23.997" y2="34.386"/>
	<line x1="11.39" y1="59.41" x2="11.39" y2="50.963"/>
	<line x1="23.997" y1="50.963" x2="23.997" y2="59.41"/>
	<polyline points="5.213,93.809 96.787,93.809 96.787,99.986 101,99.986 101,101 1,101 1,99.986 5.213,99.986 5.213,93.809 		"/>
	<polyline points="9.394,2.996 11.39,2.996 11.39,1 23.997,1 23.997,2.996 25.992,2.996 25.992,8.19 9.394,8.19 9.394,2.996 		"/>
	<polyline points="45.79,50.002 25.992,50.002 25.992,51.016 9.394,51.016 9.394,50.002 1,50.002 1,35.399 9.394,35.399 9.394,34.386 		"/>
	<polyline points="62.387,35.399 76.008,35.399 97.8,41.608 101,41.608 101,50.002 67.614,50.002 		"/>
	<polyline points="9.394,34.386 25.992,34.386 25.992,35.399 46.613,35.399 		"/>
	<line x1="9.394" y1="93.809" x2="9.394" y2="59.41"/>
	<polyline points="9.394,59.41 25.992,59.41 25.992,93.809 		"/>
	<line x1="62.387" y1="36.413" x2="79.207" y2="36.413"/>
	<line x1="25.01" y1="36.413" x2="46.613" y2="36.413"/>
	<line x1="67.614" y1="43.604" x2="101" y2="43.604"/>
	<line x1="25.01" y1="43.604" x2="45.79" y2="43.604"/>
	<polyline points="60.044,40.594 46.613,40.594 46.613,23.807 46.613,23.807 62.387,23.807 62.387,40.594 		"/>
	<polyline points="64.604,42.59 64.604,59.41 67.614,59.41 67.614,42.59 67.614,42.59 64.604,42.59 		"/>
	<polyline points="56.21,60.392 56.21,63.401 54.215,63.401 54.215,60.392 		"/>
	<path  d="M57.851,44.375c-0.873-0.375-1.834-0.582-2.844-0.582c-3.989,0-7.222,3.233-7.222,7.222c0,2.353,1.125,4.443,2.866,5.761"/>
	<path d="M52.439,57.768c0.798,0.303,1.663,0.47,2.567,0.47c3.989,0,7.222-3.233,7.222-7.222c0-2.234-1.014-4.231-2.608-5.556"/>
	<line x1="57.069" y1="49.776" x2="59.585" y2="45.432"/>
	<polyline points="53.124,52.516 45.409,65.808 47.215,66.791 54.958,53.421 		"/>
	<polyline points="59.585,45.432 62.387,40.594 62.387,40.594 60.614,39.612 55.375,48.639 		"/>
	<polyline points="48.553,60.392 45.79,60.392 45.79,40.594 45.79,40.594 46.613,40.594 		"/>
	<polyline points="64.604,59.41 64.604,60.392 50.921,60.392 		"/>
	<polyline points="62.387,40.594 64.604,40.594 64.604,42.59 		"/>
	<circle cx="55.007" cy="51.016" r="2.407"/>
	<line x1="5.213" y1="99.986" x2="96.787" y2="99.986"/>
	<line x1="11.39" y1="2.996" x2="23.997" y2="2.996"/>
</g>

</svg>
