<?xml version="1.0" encoding="utf-8"?>
<!-- Generator: Adobe Illustrator 15.1.0, SVG Export Plug-In . SVG Version: 6.00 Build 0)  -->
<!DOCTYPE svg PUBLIC "-//W3C//DTD SVG 1.1//EN" "http://www.w3.org/Graphics/SVG/1.1/DTD/svg11.dtd">
<svg version="1.1" id="Layer_1" xmlns="http://www.w3.org/2000/svg" preserveAspectRatio="none"  xmlns:xlink="http://www.w3.org/1999/xlink" x="0px" y="0px"
	   viewBox="0 0 52 58" xmlns:agg="http://www.example.com" xml:space="preserve">

<agg:params>
	<agg:param type="C" name="color" description="Color" cssAttributes="fill" classes="color"/>
	<agg:param type="C" name="strokeColor" description="Stroke Color" cssAttributes="stroke" classes="color,stroked"/>
</agg:params>
	 
<style type="text/css" >
<![CDATA[

	.color,.stroked,.dashed{
		stroke-width:0.5;
		stroke-linecap:round;
		stroke-linejoin:round;
		stroke: #000000;
	}
	
	.color {
		fill:   #A1BFE2;

	}
	
	.stroked,.dashed{
		fill:none;
	}
	
	.dashed {
		stroke-dasharray:1.4173,1.4173;
	}
]]>
</style>

<g class="color">
	<path id="track" d="M40.651,17.542c-0.63-1.085-1.908-1.434-3.007-1.56c-2.116-0.243-4.028,0.164-6.021,0.718
		c-3.133,0.873-5.994,2.174-8.798,3.781c-2.806,1.609-5.373,3.42-7.702,5.681c-1.479,1.435-2.788,2.875-3.633,4.816
		c-0.439,1.008-0.773,2.279-0.142,3.363c0.63,1.085,1.908,1.434,3.006,1.56c2.117,0.243,4.029-0.163,6.021-0.718
		c3.133-0.873,5.994-2.174,8.798-3.781c2.806-1.609,5.373-3.421,7.701-5.681c1.479-1.435,2.788-2.875,3.633-4.816
		C40.948,19.898,41.282,18.626,40.651,17.542z M38.693,21.591c-0.717,1.705-1.846,2.971-3.129,4.233
		c-2.026,1.996-4.269,3.586-6.728,4.997c-2.459,1.409-4.967,2.543-7.721,3.288c-1.742,0.471-3.412,0.81-5.257,0.573
		c-0.976-0.125-2.086-0.454-2.643-1.411c-0.557-0.958-0.289-2.076,0.09-2.979c0.716-1.704,1.845-2.971,3.128-4.233
		c2.027-1.996,4.269-3.586,6.728-4.997c2.459-1.41,4.968-2.542,7.721-3.288c1.742-0.472,3.412-0.81,5.257-0.574
		c0.976,0.125,2.086,0.454,2.643,1.412C39.34,19.571,39.072,20.689,38.693,21.591z"/>
	<use xlink:href="#track" transform="rotate(120 26 26)"/>
	<use xlink:href="#track" transform="rotate(-120 26 26)"/>
	<circle cx="26" cy="26" r="2.5"/>
	<path d="M39.033,1H12.966L1,23.849v11.424L12.966,57h26.067L51,35.272V23.849L39.033,1z M12.966,46.473L3.087,27.794l12.229-23.21h21.367l12.229,23.21l-9.88,18.678H12.966z"/>
</g>
	
<line class="stroked" x1="48.913" y1="27.794" x2="51" y2="23.849"/>
<line class="stroked" x1="3.087" y1="27.794" x2="1" y2="23.849"/>
</svg>
