<?xml version="1.0" encoding="utf-8"?>
<!-- Generator: Adobe Illustrator 15.1.0, SVG Export Plug-In . SVG Version: 6.00 Build 0)  -->
<!DOCTYPE svg PUBLIC "-//W3C//DTD SVG 1.1//EN" "http://www.w3.org/Graphics/SVG/1.1/DTD/svg11.dtd">
<svg version="1.1" id="Layer_1" xmlns:agg="http://www.example.com"
	 xmlns="http://www.w3.org/2000/svg" preserveAspectRatio="none"   x="0px" y="0px" 
	  viewBox="0 5.361 43.984 38.625" enable-background="new 0 5.361 43.984 38.625" xml:space="preserve">
<agg:params>
	<agg:param type="C" name="color" description="Color" cssAttributes="fill" classes="color"/>
	<agg:param type="C" name="strokeColor" description="Stroke Color" cssAttributes="stroke" classes="color,stroked"/>
</agg:params>
<style type="text/css" >
<![CDATA[

	.color,.stroked,.dashed{
		stroke-width:0.5;
		stroke-linecap:round;
		stroke-linejoin:round;
		stroke: #000000;
	}
	
	.color {
		fill:   #A1BFE2;

	}
	
	.stroked,.dashed{
		fill:none;
	}
	
	.dashed {
		stroke-dasharray:1.4173,1.4173;
	}
]]>
</style>
<polygon class="color" points="
	20.039,10.506 16.864,10.506 21.916,15.523 26.97,10.506 23.794,10.506 23.794,6.779 20.039,6.779 "/>
<path class="color" d="M39.49,39.137
	c0,0.492-0.204,0.695-0.694,0.695c-11.3,0-22.602,0-33.902,0c-0.491,0-0.695-0.203-0.695-0.695c0-3.32,0-6.641,0-9.961
	c0-0.491,0.204-0.694,0.695-0.694c5.626,0,11.252,0,16.878,0c0-0.927,0-1.854,0-2.781c-5.626,0-11.252,0-16.878,0
	c-1.92,0-3.477,1.556-3.477,3.476c0,3.32,0,6.641,0,9.961c0,1.921,1.557,3.479,3.477,3.479c11.3,0,22.602,0,33.902,0
	c1.921,0,3.476-1.558,3.476-3.479c0-3.396,0-6.791,0-10.188c0-1.696-0.594-2.58-2.166-3.22c-7.651-3.115-15.301-6.231-22.952-9.346
	c-0.35,0.858-0.7,1.717-1.049,2.576c7.652,3.115,15.303,6.23,22.955,9.346c0.314,0.129,0.432,0.305,0.432,0.645
	C39.49,32.346,39.49,35.742,39.49,39.137z"/>
</svg>
