<?xml version="1.0" encoding="utf-8"?>
<!-- Generator: Adobe Illustrator 15.1.0, SVG Export Plug-In . SVG Version: 6.00 Build 0)  -->
<!DOCTYPE svg PUBLIC "-//W3C//DTD SVG 1.1//EN" "http://www.w3.org/Graphics/SVG/1.1/DTD/svg11.dtd">
<svg version="1.1" id="Layer_1" xmlns="http://www.w3.org/2000/svg" preserveAspectRatio="none"   x="0px" y="0px"
	   viewBox="0 0 47 75" xmlns:agg="http://www.example.com" xml:space="preserve">
	 
<agg:params>
	<agg:param type="C" name="color" description="Color" cssAttributes="fill" classes="color"/>
	<agg:param type="C" name="strokeColor" description="Stroke Color" cssAttributes="stroke" classes="color,stroked"/>
</agg:params>

<style type="text/css" >
<![CDATA[

	.color,.stroked,.dashed{
		stroke-width:0.5;
		stroke-linecap:round;
		stroke-linejoin:round;
		stroke: #000000;
	}
	
	.color {
		fill:   #A1BFE2;

	}
	
	.stroked,.dashed{
		fill:none;
	}
	
	.dashed {
		stroke-dasharray:1.4173,1.4173;
	}
]]>
</style>
	 
<g class="color">
	<path d="M39.077,74H7.923V60.312L1,46.625L10.23,1h4.616L6.769,46.625
		l8.077,13.687v7.984h24.23V74L39.077,74z M16,60.312h15v6.844H16V60.312L16,60.312z M39.077,63.734v-3.422L46,46.625L36.77,1
		h-4.616l8.077,45.625l-8.077,13.687v3.422H39.077L39.077,63.734z"/>
	<circle cx="23.5" cy="19.631" r="1.724"/>
	<circle cx="26.961" cy="24.229" r="1.724"/>
	<circle cx="20.039" cy="24.229" r="1.724"/>
	<circle cx="26.961" cy="33.424" r="1.724"/>
	<circle cx="20.039" cy="33.424" r="1.724"/>
	<circle cx="17.731" cy="28.827" r="1.724"/>
	<circle cx="23.5" cy="28.827" r="1.724"/>
	<circle cx="29.27" cy="28.827" r="1.724"/>
	<circle cx="32.731" cy="33.424" r="1.724"/>
	<circle cx="14.269" cy="33.424" r="1.724"/>
	<circle cx="26.961" cy="42.62" r="1.724"/>
	<circle cx="20.039" cy="42.62" r="1.724"/>
	<circle cx="32.731" cy="42.62" r="1.724"/>
	<circle cx="35.039" cy="47.217" r="1.724"/>
	<circle cx="11.961" cy="47.217" r="1.724"/>
	<circle cx="14.269" cy="42.62" r="1.724"/>
	<circle cx="26.961" cy="51.815" r="1.724"/>
	<circle cx="20.039" cy="51.815" r="1.724"/>
	<circle cx="32.731" cy="51.815" r="1.724"/>
	<circle cx="14.269" cy="51.815" r="1.724"/>
	<circle cx="17.731" cy="38.022" r="1.724"/>
	<circle cx="23.5" cy="38.022" r="1.724"/>
	<circle cx="29.27" cy="38.022" r="1.724"/>
	<circle cx="17.731" cy="47.217" r="1.724"/>
	<circle cx="23.5" cy="47.217" r="1.724"/>
	<circle cx="29.27" cy="47.217" r="1.724"/>
	<circle cx="17.731" cy="56.413" r="1.724"/>
	<circle cx="23.5" cy="56.413" r="1.724"/>
	<circle cx="29.27" cy="56.413" r="1.724"/>
</g>
</svg>
