<?xml version="1.0" encoding="utf-8"?>
<!-- Generator: Adobe Illustrator 15.1.0, SVG Export Plug-In . SVG Version: 6.00 Build 0)  -->
<!DOCTYPE svg PUBLIC "-//W3C//DTD SVG 1.1//EN" "http://www.w3.org/Graphics/SVG/1.1/DTD/svg11.dtd">
<svg version="1.1" id="Layer_1" xmlns="http://www.w3.org/2000/svg" preserveAspectRatio="none"  xmlns:agg="http://www.example.com"  x="0px" y="0px"
	   viewBox="0 0 60 35.836" xml:space="preserve">
	 
<agg:params>
	<agg:param type="C" name="color" description="Color" cssAttributes="fill" classes="color"/>
	<agg:param type="C" name="strokeColor" description="Stroke Color" cssAttributes="stroke" classes="color,stroked"/>
</agg:params>

<style type="text/css" >
<![CDATA[

	.color,.stroked,.dashed{
		stroke-width:0.5;
		stroke-linecap:round;
		stroke-linejoin:round;
		stroke: #000000;
	}
	
	.color {
		fill:   #A1BFE2;

	}
	
	.stroked,.dashed{
		fill:none;
	}
	
	.dashed {
		stroke-dasharray:1.4173,1.4173;
	}
]]>
</style>
	 
<g class="color">
	<path d="M41.112,23.223
		c-0.219-1.518-0.438-3.036-0.657-4.554c1.206-1.013,2.413-2.026,3.62-3.04c0.655,0,1.31,0,1.965,0
		c1.898-3.071,5.819-4.196,9.056-2.598s4.729,5.396,3.444,8.77c-1.538-1.539-3.075-3.077-4.613-4.616
		c-1.389,1.092-2.779,2.184-4.167,3.275c1.276,1.89,2.552,3.779,3.828,5.668c-2.831,0.661-5.775-0.496-7.4-2.907
		C44.497,23.223,42.804,23.223,41.112,23.223z"/>
	<path d="M27.375,15.63
		c-0.082,0.516-0.163,1.033-0.244,1.549c-0.236-0.516-0.473-1.033-0.708-1.549c-0.094-0.15-0.091-0.308-0.111-0.469
		c-0.083-0.659-0.167-1.317-0.25-1.975c-0.167-1.322-0.239-2.648-0.301-3.977c-0.066-1.428-0.141-2.845-0.425-4.257
		c-0.126-0.621-0.281-1.228-0.51-1.821C24.789,3.04,24.748,2.952,24.7,2.867c-0.448-0.791-1.368-1.183-2.248-0.958
		c-0.468,0.119-0.799,0.337-1.095,0.719c-0.139,0.18-0.241,0.37-0.313,0.585c-0.207,0.609-0.164,1.212-0.176,1.827
		c-0.044,2.171,0.252,4.304,0.424,6.453c0.079,0.976,0.109,1.952,0.137,2.929c0.006,0.244,0.013,0.487,0.02,0.732
		c0.002,0.067,0.016,0.131-0.008,0.2c-0.024,0.07-0.061,0.108-0.13,0.133c-0.283,0.102-0.29-0.166-0.364-0.345
		c-0.239-0.566-0.478-1.131-0.716-1.697c-0.447-1.06-0.82-2.144-1.193-3.229c-0.328-0.955-0.615-1.919-1.048-2.838
		c-0.437-0.929-1.524-1.353-2.475-0.964c-0.505,0.206-0.81,0.501-1.032,1c-0.332,0.743-0.091,1.325,0.132,1.999
		c0.679,2.051,1.328,4.102,1.787,6.219c1.401,0.856,2.801,1.713,4.201,2.569c5.203,0,10.406,0,15.608,0
		c0.782-0.856,1.563-1.713,2.345-2.569c0.831-2.388,1.162-4.874,1.777-7.303c0.252-0.994,0.561-1.971,0.739-2.987
		c0.016-0.092,0.026-0.184,0.03-0.277c0.008-0.2-0.01-0.392-0.056-0.587c-0.101-0.427-0.289-0.753-0.606-1.056
		c-0.576-0.548-1.408-0.732-2.161-0.479c-0.477,0.161-0.808,0.414-1.09,0.83c-0.222,0.329-0.315,0.693-0.44,1.056
		c-0.538,1.568-1.076,3.137-1.614,4.705c-0.437,1.273-0.874,2.546-1.311,3.82c-0.109,0.318-0.218,0.637-0.327,0.955
		c-0.063,0.184-0.106,0.374-0.193,0.55c-0.044,0.089-0.101,0.151-0.187,0.201c-0.19,0.112-0.332,0.107-0.514-0.017
		c-0.083-0.057-0.137-0.124-0.175-0.218c-0.107-0.268-0.028-0.517-0.024-0.776c0.041-2.507,0.212-5.002,0.388-7.501
		c0.084-1.191,0.211-2.376,0.21-3.574c0-0.185-0.024-0.36-0.074-0.537c-0.114-0.402-0.307-0.7-0.625-0.969
		c-0.581-0.491-1.393-0.604-2.086-0.29c-0.446,0.202-0.732,0.479-0.951,0.917c-0.132,0.265-0.178,0.541-0.225,0.826
		c-0.282,1.75-0.492,3.508-0.694,5.268c-0.176,1.54-0.344,3.081-0.545,4.617c-0.102,0.768-0.203,1.536-0.304,2.304
		C27.472,15.285,27.48,15.461,27.375,15.63z"/>
	<path d="M6.411,12.492
		c2.929-0.684,5.968,0.579,7.549,3.138c8.412,0,16.824,0,25.237,0c-0.275,2.531-0.551,5.062-0.827,7.593c-8.187,0-16.373,0-24.559,0
		c-1.987,2.95-5.872,3.942-9.03,2.305c-3.159-1.637-4.587-5.382-3.322-8.707c1.538,1.539,3.076,3.077,4.613,4.616
		c1.389-1.092,2.778-2.184,4.167-3.276C8.963,16.271,7.687,14.382,6.411,12.492z"/>
	<path d="M39.521,27.665
		c0.979-1.477,1.766-4.085,3.229-7.415c0.458-1.041,1.736-4.652,1.084-5.918c-0.327-0.635-0.931-1.083-1.635-1.209
		c-0.629-0.113-1.12-0.014-1.657,0.334c-0.251,0.164-0.453,0.357-0.626,0.603c-0.083,0.118-0.154,0.241-0.213,0.373
		c-0.332,0.728-0.621,1.473-0.947,2.203c-0.449,1.005-0.944,1.985-1.442,2.966c-0.326,0.638-0.645,1.277-1.026,1.886
		c-0.544,0.87-1.101,1.621-2.041,2.142c-0.214,0.118-0.752,0.398-1.042,0.322c-0.141-0.037,0.015-0.146,0.086-0.201
		c0.286-0.223,0.605-0.37,0.926-0.526c-5.757,0-11.514,0-17.27,0c-0.199,2.25-0.271,3.725,0.332,5.954
		c0.265,0.979,0.705,1.867,1.145,2.767c0.458,0.939,0.716,1.82,0.594,2.893c4.515,0,9.03,0,13.545,0
		c0.444-1.677,1.466-3.381,3.17-4.015S38.541,29.142,39.521,27.665z"/>
</g>
<g class="stroked">
	<path d="M46.188,23.223c-1.537-2.282-1.595-5.253-0.148-7.593"/>
	<path d="M13.96,15.63c1.446,2.34,1.388,5.311-0.149,7.593"/>
</g>

</svg>
