<?xml version="1.0" encoding="utf-8"?>
<!-- Generator: Adobe Illustrator 15.1.0, SVG Export Plug-In . SVG Version: 6.00 Build 0)  -->
<!DOCTYPE svg PUBLIC "-//W3C//DTD SVG 1.1//EN" "http://www.w3.org/Graphics/SVG/1.1/DTD/svg11.dtd">
<svg version="1.1" id="Layer_1" xmlns="http://www.w3.org/2000/svg" preserveAspectRatio="none"   x="0px" y="0px"
	   viewBox="0 0 50 34" xmlns:agg="http://www.example.com" xml:space="preserve">
	 
<agg:params>
	<agg:param type="C" name="color" description="Color" cssAttributes="fill" classes="color"/>
	<agg:param type="C" name="strokeColor" description="Stroke Color" cssAttributes="stroke" classes="color,stroked"/>
</agg:params>
	 
<style type="text/css" >
<![CDATA[

	.color,.stroked,.dashed{
		stroke-width:0.5;
		stroke-linecap:round;
		stroke-linejoin:round;
		stroke: #000000;
	}
	
	.color {
		fill:   #A1BFE2;

	}
	
	.stroked,.dashed{
		fill:none;
	}
	
	.dashed {
		stroke-dasharray:1.4173,1.4173;
	}
]]>
</style>
	 
<path class="color" d="M40.595,16.175H32.09L30.557,5.171V1h-4.322v4.171l-1.533,11.004
	h-3.207L19.961,5.171V1h-4.183v4.171l-1.673,11.004h-3.067L9.365,5.171V1H5.183v4.171L1,33h39.595C45.237,33,49,29.234,49,24.588
	C49,19.942,45.237,16.175,40.595,16.175z M40.594,30.838c-3.449,0-6.244-2.798-6.244-6.25c0-3.452,2.795-6.25,6.244-6.25
	c3.449,0,6.246,2.798,6.246,6.25C46.84,28.04,44.043,30.838,40.594,30.838z"/>
<path class="color" d="M43.869,24.602c-0.119-0.269,0.173-0.683,0.045-0.892c-0.001-0.002-0.559,0.307-0.841,0.85
	s-0.794,0.881-0.84,0.601c-0.125-0.739,0.564-1.413,0.605-2.126c0.012-0.199-0.52-1.325-0.544-1.283
	c-0.081,0.146,0.106,0.302-0.059,0.482c-0.098,0.085-0.196,0.169-0.295,0.252c-0.195,0.221,0.004,0.585-0.209,0.806
	c-0.172,0.175-0.584-1.625-0.575-1.792c0.023-0.412,0.15-0.83,0.365-1.182c0.039-0.064,0.396-0.513,0.396-0.513
	s-1.059,0-1.709,0.419c-0.373,0.24-0.827,0.986-1.159,1.24s-0.424,1.503-0.83,1.448c-0.341-0.046-0.103-1.012-0.118-1.183
	c0.008,0.075-0.407,0.468-0.63,0.932s-0.099,0.859-0.08,1.288c0.014,0.322,0.255,2.62,0.425,2.587
	c-0.259,0.05-0.522-0.26-0.674-0.413c0.043,0.044,0.083,1.121,0.142,1.294c0.166,0.486,0.609,0.582,0.92,0.938
	c0.39,0.446,0.325,1.056,1.026,1.215c0.38,0.088,0.594,0.377,0.957,0.493c-0.066-0.021-0.128-0.042,0,0c0.146,0.046,0.071,0.022,0,0
	c1.096,0.347,3.294-0.824,2.919-2.104c-0.305-1.04,0.115-1.495,0.719-2.256C44.093,25.369,43.988,24.871,43.869,24.602z
	 M41.235,29.229c-0.875-0.582-1.981-0.856-2.394-1.909c0.239,0,0.623-0.005,0.774,0.232c0.036,0.057,0.119,0.298,0.228,0.263
	c0.671-0.219-1.219-2.545-0.434-3.074c0.113,0.178,0.395,0.652,0.629,0.67c0.397,0.03,0.444-0.22,0.907,0.098
	c0.605,0.414,0.757,1.121,0.331,1.729c0.552,0.019,0.662-0.77,0.69-1.177C43.369,26.627,41.328,28.542,41.235,29.229z"/>
</svg>
