<?xml version="1.0" encoding="utf-8"?>
<!-- Generator: Adobe Illustrator 15.1.0, SVG Export Plug-In . SVG Version: 6.00 Build 0)  -->
<!DOCTYPE svg PUBLIC "-//W3C//DTD SVG 1.1//EN" "http://www.w3.org/Graphics/SVG/1.1/DTD/svg11.dtd">
<svg version="1.1" id="Layer_1" xmlns:agg="http://www.example.com"
	 xmlns="http://www.w3.org/2000/svg" preserveAspectRatio="none"   x="0px" y="0px" 
	  viewBox="0 0 43.984 30.152" enable-background="new 0 0 43.984 30.152" xml:space="preserve">
<agg:params>
	<agg:param type="C" name="color" description="Color" cssAttributes="fill" classes="color"/>
	<agg:param type="C" name="strokeColor" description="Stroke Color" cssAttributes="stroke" classes="color,stroked"/>
</agg:params>
<style type="text/css" >
<![CDATA[

	.color,.stroked{
		stroke-width:0.5;
		stroke-linecap:round;
		stroke-linejoin:round;
		stroke: #000000;
	}
	
	.color {
		fill:   #A1BFE2;

	}
	
	.stroked{
		fill:none;
	}
	
	.black
	{
		fill: black;
	}
]]>
</style>
<g class="color">
	
		<polygon points="
		1.417,7.437 8.227,7.437 13.388,17.725 30.633,17.725 35.685,7.437 42.604,7.437 42.604,4.043 33.158,4.043 27.996,14.223 
		16.024,14.223 10.862,4.043 1.417,4.043 1.417,7.437 	"/>
	
		<polygon points="
		21.186,19.258 23.273,19.258 23.273,25.606 25.251,24.731 22.175,28.782 19.21,24.731 21.186,25.606 21.186,19.258 	"/>
	
		<polygon  points="
		21.186,1.417 23.273,1.417 23.273,7.875 25.251,7 22.175,11.049 19.21,7 21.186,7.875 21.186,1.417 	"/>
</g>
</svg>
