<?xml version="1.0" encoding="utf-8"?>
<!-- Generator: Adobe Illustrator 15.1.0, SVG Export Plug-In . SVG Version: 6.00 Build 0)  -->
<!DOCTYPE svg PUBLIC "-//W3C//DTD SVG 1.1//EN" "http://www.w3.org/Graphics/SVG/1.1/DTD/svg11.dtd">
<svg version="1.1" id="Layer_1" xmlns="http://www.w3.org/2000/svg" preserveAspectRatio="none"  xmlns:xlink="http://www.w3.org/1999/xlink" x="0px" y="0px"
	   viewBox="0 0 52 58" xmlns:agg="http://www.example.com" xml:space="preserve">
	 
<agg:params>
	<agg:param type="C" name="color" description="Color" cssAttributes="fill" classes="color"/>
	<agg:param type="C" name="strokeColor" description="Stroke Color" cssAttributes="stroke" classes="color,stroked"/>
</agg:params>
	 
<style type="text/css" >
<![CDATA[

	.color,.stroked,.dashed{
		stroke-width:0.5;
		stroke-linecap:round;
		stroke-linejoin:round;
		stroke: #000000;
	}
	
	.color {
		fill:   #A1BFE2;

	}
	
	.stroked,.dashed{
		fill:none;
	}
	
	.dashed {
		stroke-dasharray:1.4173,1.4173;
	}
]]>
</style>
	 
<g class="color">
	<path id="track" d="M50.181,37.488c-1.411-3.237-3.596-5.639-6.062-8.032c-3.879-3.763-8.154-6.78-12.828-9.459
		c-4.677-2.681-9.449-4.852-14.675-6.305c-3.318-0.923-6.503-1.6-10.028-1.194c-1.83,0.21-3.957,0.792-5.007,2.599
		c-1.052,1.808-0.494,3.929,0.238,5.608c1.41,3.237,3.595,5.639,6.062,8.032c3.878,3.763,8.155,6.78,12.828,9.459
		c4.677,2.682,9.449,4.852,14.675,6.305c3.317,0.924,6.502,1.6,10.027,1.193c1.83-0.21,3.957-0.791,5.007-2.599
		C51.471,41.289,50.912,39.168,50.181,37.488z M47.306,41.313c-0.928,1.596-2.778,2.144-4.403,2.352
		c-3.075,0.395-5.857-0.169-8.761-0.955c-4.589-1.242-8.77-3.131-12.869-5.48c-4.098-2.35-7.834-5-11.212-8.326
		c-2.138-2.104-4.02-4.215-5.214-7.057c-0.631-1.503-1.079-3.368-0.151-4.964c0.928-1.596,2.778-2.144,4.404-2.352
		c3.075-0.394,5.857,0.169,8.76,0.955c4.59,1.242,8.771,3.13,12.87,5.48c4.098,2.35,7.834,5.001,11.213,8.326
		c2.137,2.104,4.02,4.215,5.214,7.057C47.787,37.851,48.234,39.716,47.306,41.313z"/>
	<use xlink:href="#track" transform="rotate(120 26 29)"/>
	<use xlink:href="#track" transform="rotate(-120 26 29)"/>
	<circle cx="26" cy="29" r="4.2"/>
</g>
</svg>
