<?xml version="1.0" encoding="utf-8"?>
<!-- Generator: Adobe Illustrator 15.1.0, SVG Export Plug-In . SVG Version: 6.00 Build 0)  -->
<!DOCTYPE svg PUBLIC "-//W3C//DTD SVG 1.1//EN" "http://www.w3.org/Graphics/SVG/1.1/DTD/svg11.dtd">
<svg version="1.1" id="Layer_1" xmlns="http://www.w3.org/2000/svg" preserveAspectRatio="none"   x="0px" y="0px"
	   viewBox="0 0 52 42" xmlns:agg="http://www.example.com" xml:space="preserve">
	 
<agg:params>
		<agg:param type="C" name="color" description="Color" cssAttributes="fill" classes="color"/>

	<agg:param type="C" name="strokeColor" description="Stroke Color" cssAttributes="stroke" classes="color,stroked"/>
</agg:params>
	 
<style type="text/css" >
<![CDATA[

	.color{
		stroke-width:0.5;
		stroke-linecap:round;
		stroke-linejoin:round;
		stroke: #000000;
		fill:   #A1BFE2;
	}

]]>
</style>
	 
<path class="color" d="M47.297,7.481
	c0-1.534-1.244-2.778-2.778-2.778s-2.777,1.244-2.777,2.778c0,9.013,0,18.025,0,27.038c0,3.579-2.902,6.48-6.481,6.48
	c-3.58,0-6.481-2.901-6.481-6.48c0-9.013,0-18.025,0-27.038c0-1.534-1.244-2.778-2.778-2.778s-2.778,1.244-2.778,2.778
	c0,9.013,0,18.025,0,27.038c0,3.579-2.902,6.48-6.481,6.48s-6.481-2.901-6.481-6.48c0-9.013,0-18.025,0-27.038
	c0-1.534-1.244-2.778-2.778-2.778S4.704,5.947,4.704,7.481c0,1.543,0,3.086,0,4.63c-1.234,0-2.469,0-3.704,0c0-1.543,0-3.086,0-4.63
	C1,3.902,3.902,1,7.481,1s6.482,2.902,6.482,6.481c0,9.013,0,18.025,0,27.038c0,1.534,1.243,2.777,2.777,2.777
	s2.778-1.243,2.778-2.777c0-9.013,0-18.025,0-27.038C19.519,3.902,22.42,1,26,1c3.58,0,6.481,2.902,6.481,6.481
	c0,9.013,0,18.025,0,27.038c0,1.534,1.244,2.777,2.778,2.777c1.533,0,2.777-1.243,2.777-2.777c0-9.013,0-18.025,0-27.038
	c0-3.58,2.902-6.481,6.481-6.481C48.099,1,51,3.902,51,7.481c0,1.543,0,3.086,0,4.63c-1.234,0-2.469,0-3.703,0
	C47.297,10.568,47.297,9.025,47.297,7.481z"/>
</svg>
