<?xml version="1.0" encoding="utf-8"?>
<!-- Generator: Adobe Illustrator 19.0.0, SVG Export Plug-In . SVG Version: 6.00 Build 0)  -->
<svg version="1.1" id="图层_1" xmlns="http://www.w3.org/2000/svg" xmlns:xlink="http://www.w3.org/1999/xlink" x="0px" y="0px"
	 viewBox="19 -20 40 40" style="enable-background:new 19 -20 40 40;" xml:space="preserve">
<style type="text/css">
	.st0{fill:#FF0000;}
	.st1{enable-background:new    ;}
</style>
<g id="XMLID_5_">
	<g id="XMLID_23_">
		<path id="XMLID_24_" class="st0" d="M39-19.2c10.6,0,19.3,8.6,19.3,19.3S49.6,19.3,39,19.3S19.8,10.6,19.8,0S28.4-19.2,39-19.2
			 M39-20c-11,0-20,9-20,20s9,20,20,20s20-9,20-20S50-20,39-20L39-20z"/>
	</g>
</g>
<g class="st1">
	<path class="st0" d="M39.4,6.3h-0.7L36.9-9.6c-0.1-0.7-0.1-1.2-0.1-1.5c0-0.8,0.2-1.5,0.7-2c0.4-0.5,1-0.7,1.6-0.7s1.1,0.2,1.6,0.7
		c0.4,0.5,0.6,1.2,0.6,2.2c0,0.3,0,0.7-0.1,1.3L39.4,6.3z M39,9.5c0.6,0,1.1,0.2,1.5,0.6c0.4,0.4,0.6,0.9,0.6,1.5
		c0,0.6-0.2,1.1-0.6,1.5s-0.9,0.6-1.5,0.6s-1.1-0.2-1.5-0.6s-0.6-0.9-0.6-1.5c0-0.6,0.2-1.1,0.6-1.5C37.9,9.7,38.4,9.5,39,9.5z"/>
</g>
</svg>
