<?xml version="1.0" encoding="utf-8"?>
<!-- Generator: Adobe Illustrator 19.0.0, SVG Export Plug-In . SVG Version: 6.00 Build 0)  -->
<svg version="1.1" id="图层_1" xmlns="http://www.w3.org/2000/svg" xmlns:xlink="http://www.w3.org/1999/xlink" x="0px" y="0px"
	 viewBox="0 0 50 50" style="enable-background:new 0 0 50 50;" xml:space="preserve">
<style type="text/css">
	.st0{fill:#75A991;}
	.st1{fill:none;stroke:#75A991;stroke-width:0.75;stroke-miterlimit:10;}
	.st2{fill:none;stroke:#0DAC67;stroke-width:0.75;stroke-miterlimit:10;}
	.st3{fill:#0DAC67;}
	.st4{fill:none;stroke:#E51373;stroke-width:0.75;stroke-miterlimit:10;}
	.st5{fill:#E51373;}
</style>
<g id="XMLID_7_">
	<g id="XMLID_30_">
		<path id="XMLID_31_" class="st0" d="M31.5,14.5L47.7,25L31.5,35.6V14.5 M30.8,13.1V37L49,25L30.8,13.1L30.8,13.1z"/>
	</g>
</g>
<circle id="XMLID_4_" class="st1" cx="36" cy="25.1" r="13.4"/>
<circle id="XMLID_1_" class="st2" cx="16.8" cy="36.1" r="13.4"/>
<rect id="XMLID_5_" x="16.4" y="36.1" class="st3" width="0.7" height="13.2"/>
<rect id="XMLID_10_" x="11.6" y="25.1" transform="matrix(-0.7071 0.7071 -0.7071 -0.7071 42.8468 45.8103)" class="st3" width="0.7" height="13.4"/>
<rect id="XMLID_11_" x="21.2" y="25.1" transform="matrix(0.7071 0.7071 -0.7071 0.7071 28.8042 -5.8928)" class="st3" width="0.7" height="13.5"/>
<circle id="XMLID_21_" class="st4" cx="16.9" cy="14" r="13.4"/>
<rect id="XMLID_20_" x="16.5" y="14" class="st5" width="0.7" height="13.2"/>
<rect id="XMLID_14_" x="11.7" y="3" transform="matrix(-0.7071 0.7071 -0.7071 -0.7071 27.4029 8.0128)" class="st5" width="0.7" height="13.4"/>
<rect id="XMLID_13_" x="21.3" y="3" transform="matrix(0.7071 0.7071 -0.7071 0.7071 13.2101 -12.44)" class="st5" width="0.7" height="13.5"/>
<line id="XMLID_8_" class="st4" x1="33.3" y1="-0.4" x2="4.1" y2="50.7"/>
</svg>
