<?xml version="1.0" encoding="utf-8"?>
<!-- Generator: Adobe Illustrator 19.0.0, SVG Export Plug-In . SVG Version: 6.00 Build 0)  -->
<svg version="1.1" id="图层_1" xmlns="http://www.w3.org/2000/svg" xmlns:xlink="http://www.w3.org/1999/xlink" x="0px" y="0px"
	 viewBox="0 0 40 40" style="enable-background:new 0 0 40 40;" xml:space="preserve">
<style type="text/css">
	.st0{fill:#FF0000;}
</style>
<g>
	<g id="XMLID_2_">
		<path class="st0" d="M20,4c5.7,0,10.3,4.6,10.3,10.3S25.7,24.5,20,24.5S9.8,19.9,9.8,14.3S14.3,4,20,4 M20,3.3
			c-6.1,0-11,4.9-11,11s4.9,11,11,11s11-4.9,11-11S26.1,3.3,20,3.3L20,3.3z"/>
	</g>
	<g id="XMLID_1_">
		<path class="st0" d="M29,15.5c5.7,0,10.3,4.6,10.3,10.3S34.7,36,29,36s-10.3-4.6-10.3-10.2S23.3,15.5,29,15.5 M29,14.7
			c-6.1,0-11,4.9-11,11s4.9,11,11,11s11-4.9,11-11S35.1,14.7,29,14.7L29,14.7z"/>
	</g>
	<g id="XMLID_4_">
		<path class="st0" d="M11,15.5c5.7,0,10.3,4.6,10.3,10.3S16.7,36,11,36S0.8,31.4,0.8,25.7S5.3,15.5,11,15.5 M11,14.7
			c-6.1,0-11,4.9-11,11s4.9,11,11,11s11-4.9,11-11S17.1,14.7,11,14.7L11,14.7z"/>
	</g>
</g>
</svg>
