<?xml version="1.0" encoding="utf-8"?>
<!-- Generator: Adobe Illustrator 19.0.0, SVG Export Plug-In . SVG Version: 6.00 Build 0)  -->
<svg version="1.1" id="图层_1" xmlns="http://www.w3.org/2000/svg" xmlns:xlink="http://www.w3.org/1999/xlink" x="0px" y="0px"
	 viewBox="24 -25 50 50" style="enable-background:new 24 -25 50 50;" xml:space="preserve">
<style type="text/css">
	.st0{fill:#0800FF;}
	.st1{enable-background:new    ;}
	.st2{fill:#1CF63D;}
</style>
<circle id="XMLID_67_" class="st0" cx="49" cy="0" r="23.6"/>
<g class="st1">
	<path class="st2" d="M42.8-7.3l0.4,4.4h-0.4C42.5-4,42-4.8,41.4-5.4c-0.8-0.8-1.9-1.2-3.2-1.2c-1.8,0-3.1,0.7-4,2.1
		C33.4-3.3,33-1.9,33-0.2c0,1.3,0.3,2.5,0.8,3.6c0.5,1.1,1.2,1.9,2,2.4c0.8,0.5,1.7,0.8,2.6,0.8c0.5,0,1-0.1,1.5-0.2
		s0.9-0.3,1.4-0.6v-4c0-0.7-0.1-1.2-0.2-1.4C41,0.2,40.8,0,40.6-0.1c-0.2-0.1-0.6-0.2-1.2-0.2v-0.4h5.4v0.4h-0.3
		c-0.5,0-0.9,0.2-1.1,0.5c-0.1,0.3-0.2,0.8-0.2,1.5V6c-0.8,0.4-1.6,0.7-2.3,0.9c-0.8,0.2-1.6,0.3-2.6,0.3c-2.7,0-4.7-0.9-6.1-2.6
		c-1-1.3-1.6-2.8-1.6-4.5c0-1.2,0.3-2.4,0.9-3.5c0.7-1.3,1.7-2.4,2.9-3.1c1-0.6,2.2-0.9,3.6-0.9c0.5,0,1,0,1.4,0.1
		c0.4,0.1,1,0.3,1.8,0.5c0.4,0.1,0.6,0.2,0.8,0.2c0.1,0,0.2-0.1,0.3-0.2c0.1-0.1,0.1-0.4,0.2-0.7H42.8z"/>
	<path class="st2" d="M49.4,0.4v4.1c0,0.9,0.1,1.4,0.3,1.6c0.3,0.3,0.7,0.5,1.2,0.5h0.5V7h-6V6.6H46c0.6,0,1-0.2,1.3-0.6
		c0.1-0.2,0.2-0.7,0.2-1.5v-9c0-0.9-0.1-1.4-0.3-1.6c-0.3-0.3-0.7-0.5-1.2-0.5h-0.5V-7h5.1c1.2,0,2.2,0.1,2.9,0.4
		c0.7,0.3,1.3,0.7,1.8,1.3S56-3.9,56-3.1C56-2,55.7-1,54.9-0.3c-0.7,0.7-1.8,1.1-3.2,1.1c-0.3,0-0.7,0-1.1-0.1S49.8,0.5,49.4,0.4z
		 M49.4-0.1c0.4,0.1,0.7,0.1,1,0.2s0.5,0.1,0.7,0.1c0.7,0,1.3-0.3,1.8-0.8c0.5-0.6,0.8-1.3,0.8-2.1c0-0.6-0.1-1.2-0.4-1.7
		s-0.6-0.9-1-1.2c-0.5-0.3-1-0.4-1.5-0.4c-0.3,0-0.8,0.1-1.3,0.2V-0.1z"/>
	<path class="st2" d="M66.4-7.3v4.8H66c-0.1-0.9-0.3-1.7-0.7-2.2C65-5.2,64.6-5.6,64-6s-1.2-0.5-1.8-0.5c-0.7,0-1.3,0.2-1.8,0.7
		c-0.5,0.4-0.7,0.9-0.7,1.5c0,0.4,0.1,0.8,0.4,1.2c0.4,0.5,1.4,1.2,3,2.1c1.3,0.7,2.2,1.2,2.7,1.6c0.5,0.4,0.8,0.8,1.1,1.3
		c0.3,0.5,0.4,1,0.4,1.6c0,1.1-0.4,2-1.2,2.7c-0.8,0.8-1.9,1.1-3.2,1.1c-0.4,0-0.8,0-1.1-0.1c-0.2,0-0.7-0.2-1.3-0.4
		c-0.7-0.2-1.1-0.3-1.3-0.3c-0.2,0-0.3,0.1-0.4,0.2c-0.1,0.1-0.2,0.3-0.2,0.6h-0.4V2.5h0.4c0.2,1,0.4,1.7,0.7,2.2
		c0.3,0.5,0.8,0.9,1.4,1.2c0.6,0.3,1.3,0.5,2,0.5c0.9,0,1.5-0.2,2-0.7c0.5-0.5,0.7-1,0.7-1.6c0-0.3-0.1-0.7-0.3-1
		c-0.2-0.3-0.5-0.7-0.9-1c-0.3-0.2-1-0.6-2.2-1.3c-1.2-0.7-2-1.2-2.5-1.6c-0.5-0.4-0.9-0.8-1.1-1.3s-0.4-1-0.4-1.6
		c0-1,0.4-1.9,1.1-2.6C60-6.9,61-7.3,62.2-7.3c0.7,0,1.5,0.2,2.3,0.5c0.4,0.2,0.7,0.3,0.8,0.3c0.2,0,0.3-0.1,0.4-0.2
		C65.9-6.7,66-6.9,66-7.3H66.4z"/>
</g>
</svg>
