<?xml version="1.0" encoding="utf-8"?>
<!-- Generator: Adobe Illustrator 19.0.0, SVG Export Plug-In . SVG Version: 6.00 Build 0)  -->
<svg version="1.1" id="图层_1" xmlns="http://www.w3.org/2000/svg" xmlns:xlink="http://www.w3.org/1999/xlink" x="0px" y="0px"
	 viewBox="19 -20 40 40" style="enable-background:new 19 -20 40 40;" xml:space="preserve">
<style type="text/css">
	.st0{enable-background:new    ;}
	.st1{fill:#FF0000;}
</style>
<g class="st0">
	<path class="st1" d="M49.3,4.3c-0.5,1.7-1.2,4.5-1.7,5.6c-1.1,0.2-4.2,0.9-6.6,0.9c-8.6,0-12.3-5.5-12.3-10.5
		c0-6.6,5.5-11.1,13-11.1c3.2,0,5.3,0.7,6.2,0.9c0.3,1.7,0.4,3.2,0.6,5.1L48-4.7c-0.9-3.8-3.2-5.3-7.5-5.3C34-10,31-5.7,31-0.5
		C31,5.9,34.9,10,40.7,10c4.6,0,6.5-2.5,8.1-5.9L49.3,4.3z"/>
</g>
<g>
	<path class="st1" d="M58.3-19.3v38.5H19.8v-38.5H58.3 M59-20H19v40h40V-20L59-20z"/>
</g>
</svg>
