<?xml version="1.0" encoding="utf-8"?>
<!-- Generator: Adobe Illustrator 19.0.0, SVG Export Plug-In . SVG Version: 6.00 Build 0)  -->
<svg version="1.1" id="图层_1" xmlns="http://www.w3.org/2000/svg" xmlns:xlink="http://www.w3.org/1999/xlink" x="0px" y="0px"
	 viewBox="-4 0 50 40" style="enable-background:new -4 0 50 40;" xml:space="preserve">
<style type="text/css">
	.st0{fill:none;stroke:#AF4957;stroke-width:0.75;stroke-miterlimit:10;}
	.st1{fill:#AF4957;}
</style>
<polyline class="st0" points="38.3,25.7 38.3,39.5 1.9,39.1 1.9,0.9 38.3,1.2 38.3,20.4 "/>
<g>
	<path class="st1" d="M4.4,16.6l-2.5,2l-2.5-2H4.4 M6.5,15.9h-9.2l4.6,3.8L6.5,15.9L6.5,15.9z"/>
</g>
<g>
	<path class="st1" d="M1.9,21.5l2.5,2.1h-5L1.9,21.5 M1.9,20.5l-4.6,3.8h9.2L1.9,20.5L1.9,20.5z"/>
</g>
<path class="st0" d="M32,20"/>
<path class="st0" d="M32,20c0-3.4,2.7-6.1,6.1-6.1s6.1,2.7,6.1,6.1c0,3.4-2.7,6.1-6.1,6.1"/>
<line class="st0" x1="31.6" y1="20" x2="38.1" y2="20"/>
</svg>
