<?xml version="1.0" encoding="utf-8"?>
<!-- Generator: Adobe Illustrator 19.0.0, SVG Export Plug-In . SVG Version: 6.00 Build 0)  -->
<svg version="1.1" id="图层_1" xmlns="http://www.w3.org/2000/svg" xmlns:xlink="http://www.w3.org/1999/xlink" x="0px" y="0px"
	 viewBox="0 0 40 40" style="enable-background:new 0 0 40 40;" xml:space="preserve">
<style type="text/css">
	.st0{fill:#FF0000;}
</style>
<g>
	<path class="st0" d="M23.8,9.5c0.7,0,1.3,0.6,1.3,1.3v12.4c0,0.7-0.6,1.2-1.3,1.2h-6.7c-0.7,0-1.2-0.6-1.2-1.2V10.8
		c0-0.7,0.6-1.3,1.2-1.3H23.8 M23.8,8.8h-6.7c-1.1,0-2,0.9-2,2v12.4c0,1.1,0.9,2,2,2h6.7c1.1,0,2-0.9,2-2V10.8
		C25.8,9.7,24.9,8.8,23.8,8.8L23.8,8.8z"/>
</g>
<g>
	<path class="st0" d="M27,32H13.4c-1.1,0-2-0.9-2-2V17.2c0-1.1,0.9-2,2-2H27c1.1,0,2,0.9,2,2V30C29,31.1,28.1,32,27,32z"/>
</g>
<g>
	<path class="st0" d="M20,0.8c10.6,0,19.3,8.6,19.3,19.3S30.6,39.3,20,39.3S0.8,30.6,0.8,20S9.4,0.8,20,0.8 M20,0C9,0,0,9,0,20
		s9,20,20,20s20-9,20-20S31,0,20,0L20,0z"/>
</g>
</svg>
