<?xml version="1.0" encoding="utf-8"?>
<!-- Generator: Adobe Illustrator 19.0.0, SVG Export Plug-In . SVG Version: 6.00 Build 0)  -->
<svg version="1.1" id="图层_1" xmlns="http://www.w3.org/2000/svg" xmlns:xlink="http://www.w3.org/1999/xlink" x="0px" y="0px"
	 viewBox="0 0 50 50" style="enable-background:new 0 0 50 50;" xml:space="preserve">
<style type="text/css">
	.st0{fill:none;stroke:#0DAC67;stroke-width:0.75;stroke-miterlimit:10;}
	.st1{fill:#0DAC67;}
	.st2{fill:none;stroke:#E51373;stroke-width:0.75;stroke-miterlimit:10;}
	.st3{fill:#E51373;}
	.st4{fill:#F7B52C;}
	.st5{fill:none;stroke:#F7B52C;stroke-width:0.75;stroke-miterlimit:10;}
</style>
<circle id="XMLID_18_" class="st0" cx="19.1" cy="35.2" r="14.3"/>
<rect id="XMLID_9_" x="18.8" y="35.2" class="st1" width="0.8" height="14.1"/>
<rect id="XMLID_10_" x="13.6" y="23.5" transform="matrix(-0.7071 0.7071 -0.7071 -0.7071 45.5581 42.3236)" class="st1" width="0.8" height="14.3"/>
<rect id="XMLID_11_" x="23.8" y="23.4" transform="matrix(0.7071 0.7071 -0.7071 0.7071 28.7652 -8.1566)" class="st1" width="0.8" height="14.4"/>
<circle id="XMLID_21_" class="st2" cx="34.2" cy="28.6" r="14.3"/>
<rect id="XMLID_20_" x="33.9" y="28.6" class="st3" width="0.8" height="14.1"/>
<rect id="XMLID_14_" x="28.7" y="16.8" transform="matrix(-0.7071 0.7071 -0.7071 -0.7071 66.6351 20.3458)" class="st3" width="0.8" height="14.3"/>
<rect id="XMLID_13_" x="38.9" y="16.8" transform="matrix(0.7071 0.7071 -0.7071 0.7071 28.5014 -20.767)" class="st3" width="0.8" height="14.4"/>
<g id="XMLID_7_">
	<g id="XMLID_30_">
		<path id="XMLID_31_" class="st4" d="M14.4,3.3l17.3,11.3L14.4,26V3.3 M13.7,1.9v25.4l19.5-12.7L13.7,1.9L13.7,1.9z"/>
	</g>
</g>
<circle id="XMLID_5_" class="st5" cx="19.3" cy="14.6" r="14.2"/>
<line id="XMLID_1_" class="st5" x1="41.6" y1="-0.1" x2="12.7" y2="50.5"/>
</svg>
