<?xml version="1.0" encoding="utf-8"?>
<!-- Generator: Adobe Illustrator 19.0.0, SVG Export Plug-In . SVG Version: 6.00 Build 0)  -->
<svg version="1.1" id="图层_1" xmlns="http://www.w3.org/2000/svg" xmlns:xlink="http://www.w3.org/1999/xlink" x="0px" y="0px"
	 viewBox="0 0 50 50" style="enable-background:new 0 0 50 50;" xml:space="preserve">
<style type="text/css">
	.st0{fill:#FFFFFF;}
	.st1{fill:#F7B52C;}
	.st2{fill:none;stroke:#F7B52C;stroke-width:0.75;stroke-miterlimit:10;}
	.st3{fill:none;stroke:#E51373;stroke-width:0.75;stroke-miterlimit:10;}
	.st4{fill:#E51373;}
	.st5{fill:none;stroke:#4635BF;stroke-width:0.75;stroke-miterlimit:10;}
	.st6{fill:#4635BF;}
</style>
<g id="XMLID_18_">
	<polygon id="XMLID_41_" class="st0" points="29.8,23.7 48.2,35.7 29.8,47.7 	"/>
	<path id="XMLID_38_" class="st1" d="M30.2,24.4l17.3,11.3L30.2,47V24.4 M29.5,23v25.4l19.5-12.7L29.5,23L29.5,23z"/>
</g>
<circle id="XMLID_9_" class="st2" cx="35.1" cy="35.7" r="14.2"/>
<circle id="XMLID_7_" class="st3" cx="14.7" cy="25.1" r="14.3"/>
<rect id="XMLID_5_" x="14.4" y="25.1" class="st4" width="0.8" height="14.1"/>
<rect id="XMLID_10_" x="9.2" y="13.4" transform="matrix(-0.7071 0.7071 -0.7071 -0.7071 30.94 28.3007)" class="st4" width="0.8" height="14.3"/>
<rect id="XMLID_11_" x="19.4" y="13.4" transform="matrix(0.7071 0.7071 -0.7071 0.7071 20.3765 -7.9823)" class="st4" width="0.8" height="14.4"/>
<circle id="XMLID_21_" class="st5" cx="35" cy="15.1" r="14.3"/>
<rect id="XMLID_20_" x="34.8" y="15.1" class="st6" width="0.8" height="14.1"/>
<rect id="XMLID_14_" x="29.6" y="3.3" transform="matrix(-0.7071 0.7071 -0.7071 -0.7071 58.586 -3.3021)" class="st6" width="0.8" height="14.4"/>
<rect id="XMLID_13_" x="39.9" y="3.4" transform="matrix(0.7071 0.7071 -0.7071 0.7071 19.2889 -25.3566)" class="st6" width="0.8" height="14.4"/>
<line id="XMLID_1_" class="st2" x1="50" y1="-0.2" x2="21.1" y2="50.4"/>
</svg>
