<?xml version="1.0" encoding="utf-8"?>
<!-- Generator: Adobe Illustrator 19.0.0, SVG Export Plug-In . SVG Version: 6.00 Build 0)  -->
<svg version="1.1" id="图层_1" xmlns="http://www.w3.org/2000/svg" xmlns:xlink="http://www.w3.org/1999/xlink" x="0px" y="0px"
	 viewBox="0 0 40 40" style="enable-background:new 0 0 40 40;" xml:space="preserve">
<style type="text/css">
	.st0{fill:#FF0000;}
</style>
<g id="XMLID_1_">
	<g id="XMLID_26_">
		<path id="XMLID_27_" class="st0" d="M3.5,33.8c1.5,0,2.7,1.2,2.7,2.7S5,39.3,3.5,39.3S0.7,38,0.7,36.5S2,33.8,3.5,33.8 M3.5,33
			C1.6,33,0,34.6,0,36.5C0,38.4,1.6,40,3.5,40S7,38.4,7,36.5C7,34.6,5.4,33,3.5,33L3.5,33z"/>
	</g>
</g>
<g id="XMLID_3_">
	<g id="XMLID_5_">
		<path id="XMLID_7_" class="st0" d="M3.5,0.8C5,0.8,6.2,2,6.2,3.5S5,6.2,3.5,6.2S0.7,5,0.7,3.5S2,0.8,3.5,0.8 M3.5,0
			C1.6,0,0,1.6,0,3.5C0,5.4,1.6,7,3.5,7S7,5.4,7,3.5C7,1.6,5.4,0,3.5,0L3.5,0z"/>
	</g>
</g>
<g id="XMLID_6_">
	<g id="XMLID_15_">
		<path id="XMLID_16_" class="st0" d="M36.5,0.8c1.5,0,2.7,1.2,2.7,2.7S38,6.2,36.5,6.2S33.8,5,33.8,3.5S35,0.8,36.5,0.8 M36.5,0
			C34.6,0,33,1.6,33,3.5C33,5.4,34.6,7,36.5,7C38.4,7,40,5.4,40,3.5C40,1.6,38.4,0,36.5,0L36.5,0z"/>
	</g>
</g>
<g id="XMLID_8_">
	<g id="XMLID_21_">
		<path id="XMLID_22_" class="st0" d="M36.5,33.8c1.5,0,2.7,1.2,2.7,2.7s-1.2,2.7-2.7,2.7s-2.7-1.2-2.7-2.7S35,33.8,36.5,33.8
			 M36.5,33c-1.9,0-3.5,1.6-3.5,3.5c0,1.9,1.6,3.5,3.5,3.5c1.9,0,3.5-1.6,3.5-3.5C40,34.6,38.4,33,36.5,33L36.5,33z"/>
	</g>
</g>
<rect id="XMLID_2_" x="16.9" y="13.1" transform="matrix(0.7071 -0.7071 0.7071 0.7071 -1.5083 23.2303)" class="st0" width="20.8" height="0.7"/>
<rect id="XMLID_30_" x="2.2" y="12.9" transform="matrix(-0.7071 -0.7071 0.7071 -0.7071 12.7053 31.7263)" class="st0" width="21.3" height="0.7"/>
</svg>
