<?xml version="1.0" encoding="utf-8"?>
<!-- Generator: Adobe Illustrator 19.0.0, SVG Export Plug-In . SVG Version: 6.00 Build 0)  -->
<svg version="1.1" id="图层_1" xmlns="http://www.w3.org/2000/svg" xmlns:xlink="http://www.w3.org/1999/xlink" x="0px" y="0px"
	 viewBox="0 0 40 40" style="enable-background:new 0 0 40 40;" xml:space="preserve">
<style type="text/css">
	.st0{fill:#FFFFFF;}
	.st1{fill:#FF73A8;}
	.st2{enable-background:new    ;}
	.st3{fill:#FF0000;}
</style>
<g id="XMLID_1_">
	<g id="XMLID_2_">
		<path id="XMLID_18_" class="st0" d="M20,39.6C9.2,39.6,0.4,30.8,0.4,20S9.2,0.4,20,0.4S39.6,9.2,39.6,20S30.8,39.6,20,39.6z"/>
		<path id="XMLID_15_" class="st1" d="M20,0.8c10.6,0,19.3,8.6,19.3,19.3c0,10.7-8.7,19.2-19.3,19.2S0.8,30.6,0.8,20S9.4,0.8,20,0.8
			 M20,0C9,0,0,9,0,20s9,20,20,20s20-9,20-20S31,0,20,0L20,0z"/>
	</g>
	<g class="st2">
		<path class="st3" d="M20,25.8h-0.7c0.1-1.5,0.3-2.7,0.6-3.7c0.3-1,0.9-2.3,1.8-4c0.7-1.3,1.2-2.3,1.4-3c0.2-0.7,0.3-1.4,0.3-2.2
			c0-1.5-0.4-2.7-1.2-3.6S20.3,8,19.2,8c-1,0-1.8,0.2-2.4,0.7c-0.6,0.5-0.9,1-0.9,1.6c0,0.4,0.2,1,0.5,1.6c0.4,0.6,0.5,1.1,0.5,1.4
			c0,0.4-0.1,0.8-0.4,1.1c-0.3,0.3-0.6,0.4-1,0.4c-0.5,0-0.9-0.2-1.3-0.7c-0.4-0.5-0.6-1.2-0.6-2c0-1.3,0.6-2.5,1.7-3.5
			c1.1-1,2.7-1.5,4.6-1.5c2.4,0,4.2,0.7,5.3,2.1c0.8,1,1.3,2.2,1.3,3.4c0,0.9-0.2,1.7-0.6,2.6c-0.4,0.9-1.1,2-2.2,3.2
			c-1.7,1.9-2.7,3.3-3.1,4.1C20.3,23.3,20.1,24.4,20,25.8z M19.7,28c0.6,0,1,0.2,1.4,0.6c0.4,0.4,0.6,0.8,0.6,1.4
			c0,0.5-0.2,1-0.6,1.4c-0.4,0.4-0.8,0.6-1.4,0.6c-0.5,0-1-0.2-1.4-0.6C18,31,17.8,30.5,17.8,30c0-0.6,0.2-1,0.6-1.4
			C18.7,28.2,19.2,28,19.7,28z"/>
	</g>
</g>
</svg>
