<?xml version="1.0" encoding="utf-8"?>
<!-- Generator: Adobe Illustrator 19.0.0, SVG Export Plug-In . SVG Version: 6.00 Build 0)  -->
<svg version="1.1" id="图层_1" xmlns="http://www.w3.org/2000/svg" xmlns:xlink="http://www.w3.org/1999/xlink" x="0px" y="0px"
	 viewBox="0 0 40 40" style="enable-background:new 0 0 40 40;" xml:space="preserve">
<style type="text/css">
	.st0{fill:#FFFFFF;}
	.st1{fill:#FF0000;}
	.st2{fill:none;stroke:#FF0000;stroke-width:0.75;stroke-miterlimit:10;}
	.st3{enable-background:new    ;}
	.st4{fill:#00FF00;}
</style>
<g>
	<g id="XMLID_6_">
		<path id="XMLID_18_" class="st0" d="M20,39.6C9.2,39.6,0.4,30.8,0.4,20S9.2,0.4,20,0.4S39.6,9.2,39.6,20S30.8,39.6,20,39.6z"/>
		<path id="XMLID_15_" class="st1" d="M20,0.8c10.6,0,19.3,8.6,19.3,19.3c0,10.7-8.7,19.2-19.3,19.2S0.8,30.6,0.8,20S9.4,0.8,20,0.8
			 M20,0C9,0,0,9,0,20s9,20,20,20s20-9,20-20S31,0,20,0L20,0z"/>
	</g>
	<line id="XMLID_3_" class="st2" x1="6" y1="6" x2="34" y2="34"/>
	<line id="XMLID_5_" class="st2" x1="34" y1="6" x2="6" y2="34"/>
	<circle id="XMLID_1_" class="st1" cx="20" cy="20" r="10"/>
	<g class="st3">
		<path class="st4" d="M19.2,16.6c0.1,0.1,0.1,0.1,0.1,0.2c0,0-0.1,0.1-0.2,0.1h-2.6v4.4l1.8-0.5l0.1,0.3l-3.2,1.4
			c-0.5,0.2-0.7,0.3-0.8,0.5c0,0-0.1,0.1-0.1,0.1c0,0-0.1,0-0.1-0.1l-0.6-0.6l2.4-0.7v-4.6h-1.1c-0.3,0-0.7,0.1-0.9,0.2l-0.4-0.5
			c0.4,0,0.7,0.1,1,0.1h1.4v-2.1c0-0.6,0-1.5-0.1-2l1.1,0.6C17,13,17,13,17,13.1c0,0,0,0.1-0.1,0.1l-0.4,0.2v3.2h1.2l0.6-0.8
			L19.2,16.6z M26.4,14.4c0.1,0.1,0.1,0.1,0.1,0.1c0,0,0,0.1-0.1,0.1h-3.8c-0.3,0.7-0.6,1.4-1,2.2l0.8,0.4c0.1,0,0.1,0.1,0.1,0.1
			c0,0-0.2,0.2-0.4,0.3v5.2c0,0.7,0,1.5,0.1,2.1V25c0,0.2-0.1,0.2-0.4,0.4c-0.2,0.1-0.3,0.1-0.3,0.1c-0.1,0-0.1-0.1-0.1-0.2v-0.1
			c0.1-1,0.1-1.8,0.1-2.4v-5.6c-1.5,3.2-3,5.1-5.2,6.9l-0.2-0.2c2.6-2.5,4.5-5.8,5.6-9.3h-2.4c-0.3,0-0.7,0.1-0.9,0.2l-0.4-0.5
			c0.4,0,0.7,0.1,1,0.1h5.8l0.7-0.8L26.4,14.4z M23,18.5c2,1.6,2.7,2.3,3,2.8c0.1,0.2,0.2,0.4,0.2,0.6c0,0.4-0.3,0.7-0.5,0.7
			c-0.1,0-0.2-0.1-0.4-0.7c-0.2-0.7-0.9-1.8-2.4-3.3L23,18.5z"/>
	</g>
</g>
</svg>
