<?xml version="1.0" encoding="utf-8"?>
<!-- Generator: Adobe Illustrator 19.0.0, SVG Export Plug-In . SVG Version: 6.00 Build 0)  -->
<svg version="1.1" id="图层_1" xmlns="http://www.w3.org/2000/svg" xmlns:xlink="http://www.w3.org/1999/xlink" x="0px" y="0px"
	 viewBox="0 0 60 40" style="enable-background:new 0 0 60 40;" xml:space="preserve">
<style type="text/css">
	.st0{fill:#00FF00;}
</style>
<g>
	<path class="st0" d="M10.1,10.8c5.1,0,9.2,4.1,9.2,9.3s-4.1,9.3-9.3,9.3S0.8,25.1,0.8,20S5,10.8,10.1,10.8 M10.1,10
		c-5.5,0-10,4.5-10,10s4.5,10,10,10s10-4.5,10-10S15.6,10,10.1,10L10.1,10z"/>
</g>
<g>
	<path class="st0" d="M30,10.8c5.1,0,9.3,4.1,9.3,9.3s-4.1,9.3-9.3,9.3s-9.3-4.1-9.3-9.3S24.9,10.8,30,10.8 M30,10
		c-5.5,0-10,4.5-10,10s4.5,10,10,10s10-4.5,10-10S35.5,10,30,10L30,10z"/>
</g>
<g>
	<path class="st0" d="M50,10.8c5.1,0,9.3,4.1,9.3,9.3s-4.1,9.3-9.3,9.3s-9.3-4.1-9.3-9.3S44.9,10.8,50,10.8 M50,10
		c-5.5,0-10,4.5-10,10s4.5,10,10,10s10-4.5,10-10S55.5,10,50,10L50,10z"/>
</g>
</svg>
