<?xml version="1.0" encoding="utf-8"?>
<!-- Generator: Adobe Illustrator 19.0.0, SVG Export Plug-In . SVG Version: 6.00 Build 0)  -->
<svg version="1.1" id="图层_1" xmlns="http://www.w3.org/2000/svg" xmlns:xlink="http://www.w3.org/1999/xlink" x="0px" y="0px"
	 viewBox="24 -25 50 50" style="enable-background:new 24 -25 50 50;" xml:space="preserve">
<style type="text/css">
	.st0{fill:#FF0000;}
	.st1{enable-background:new    ;}
</style>
<g id="XMLID_1_">
	<g id="XMLID_20_">
		<path id="XMLID_21_" class="st0" d="M49-24.2c13.4,0,24.3,10.9,24.3,24.3S62.4,24.3,49,24.3S24.8,13.4,24.8,0S35.6-24.2,49-24.2
			 M49-25C35.2-25,24-13.8,24,0s11.2,25,25,25S74,13.8,74,0S62.8-25,49-25L49-25z"/>
	</g>
</g>
<g class="st1">
	<path class="st0" d="M47.1-7.3c-1.7,0.2-1.9,0.6-3,2.7c-0.4,0.7-3.5,7.5-5.5,12.3h-0.3c-1.6-4.3-3.3-8.5-5-12.8
		c-0.7-1.7-1-2-2.5-2.1v-0.3H36v0.3c-1.2,0.1-1.7,0.2-1.7,0.8c0,0.2,0.1,0.5,0.2,0.8c0.5,1.4,2.4,6.1,4.4,11h0
		c0.5-1,4.6-10.3,4.6-11.6c0-0.7-0.6-0.8-1.8-1v-0.3h5.4V-7.3z"/>
	<path class="st0" d="M48.4,7c2.1-0.1,2.3-0.5,2.3-2.4v-9.6c0-1.9-0.2-2.3-2.3-2.4v-0.3h5.8v0.3C52.2-7.2,52-6.8,52-4.9v9.6
		c0,1.9,0.2,2.3,2.3,2.4v0.3h-5.8V7z"/>
	<path class="st0" d="M56.1,7c2.1-0.1,2.3-0.5,2.3-2.4v-9.6c0-1.9,0-2.3-2.1-2.4v-0.4h5.7c1.5,0,5.2,0.2,5.2,4.2
		c0,3.5-3.3,4.9-5.6,4.7l-1.9-0.5v4c0,1.9,0.2,2.2,2.6,2.4v0.3h-6.2V7z M59.6,0.2c0.3,0.1,0.9,0.4,2,0.4c2.1,0,3.9-1.1,3.9-3.9
		c0-2.6-1.5-3.8-4.5-3.8c-0.6,0-1,0-1.2,0c-0.2,0-0.2,0.1-0.2,0.6V0.2z"/>
</g>
</svg>
