<?xml version="1.0" encoding="utf-8"?>
<!-- Generator: Adobe Illustrator 19.0.0, SVG Export Plug-In . SVG Version: 6.00 Build 0)  -->
<svg version="1.1" id="图层_1" xmlns="http://www.w3.org/2000/svg" xmlns:xlink="http://www.w3.org/1999/xlink" x="0px" y="0px"
	 viewBox="-4 -5 50 50" style="enable-background:new -4 -5 50 50;" xml:space="preserve">
<style type="text/css">
	.st0{fill:#1403FF;}
	.st1{fill:none;stroke:#1403FF;stroke-width:0.75;stroke-miterlimit:10;}
</style>
<g>
	<path class="st0" d="M16.7-7.7C24-7.7,30-1.8,30,5.6s-6,13.2-13.3,13.2S3.4,12.9,3.4,5.5S9.4-7.7,16.7-7.7 M16.7-8.4
		c-7.7,0-14,6.3-14,14s6.3,14,14,14s14-6.3,14-14S24.4-8.4,16.7-8.4L16.7-8.4z"/>
</g>
<line class="st1" x1="17" y1="6.3" x2="6.9" y2="-3.8"/>
<line class="st1" x1="17" y1="6.3" x2="27.1" y2="-3.8"/>
<line class="st1" x1="17" y1="6.3" x2="17" y2="16.8"/>
<g>
	<path class="st0" d="M6,10.6c7.3,0,13.3,6.1,13.3,13.6S13.3,37.8,6,37.8S-7.3,31.7-7.3,24.2S-1.3,10.6,6,10.6 M6,9.8
		c-7.7,0-14,6.4-14,14.4s6.3,14.4,14,14.4s14-6.4,14-14.4S13.7,9.8,6,9.8L6,9.8z"/>
</g>
<g>
	<path class="st0" d="M28,11.7c7.3,0,13.3,6.1,13.3,13.6S35.4,38.9,28,38.9s-13.3-6.1-13.3-13.6C14.8,17.8,20.7,11.7,28,11.7
		 M28,10.9c-7.7,0-14,6.4-14,14.4c0,7.9,6.3,14.4,14,14.4s14-6.4,14-14.4S35.7,10.9,28,10.9L28,10.9z"/>
</g>
<line class="st1" x1="6.3" y1="24.9" x2="-3.8" y2="14.5"/>
<line class="st1" x1="6.3" y1="24.9" x2="16.4" y2="14.5"/>
<line class="st1" x1="6.3" y1="24.8" x2="6.3" y2="37.8"/>
<polyline class="st1" points="31.1,28.8 25.2,28.8 25.2,21.7 34.6,21.7 "/>
</svg>
