<?xml version="1.0" encoding="utf-8"?>
<!-- Generator: Adobe Illustrator 19.0.0, SVG Export Plug-In . SVG Version: 6.00 Build 0)  -->
<svg version="1.1" id="图层_1" xmlns="http://www.w3.org/2000/svg" xmlns:xlink="http://www.w3.org/1999/xlink" x="0px" y="0px"
	 viewBox="0 0 50 50" style="enable-background:new 0 0 50 50;" xml:space="preserve">
<style type="text/css">
	.st0{fill:#F7B52C;}
	.st1{fill:none;stroke:#F7B52C;stroke-width:0.75;stroke-miterlimit:10;}
	.st2{fill:none;stroke:#E51373;stroke-width:0.75;stroke-miterlimit:10;}
	.st3{fill:#E51373;}
	.st4{fill:none;stroke:#0DAC67;stroke-width:0.75;stroke-miterlimit:10;}
	.st5{fill:#0DAC67;}
</style>
<g id="XMLID_23_">
	<g id="XMLID_46_">
		<path id="XMLID_47_" class="st0" d="M26,3.6l17.3,11.3L26,26.3V3.6 M25.3,2.2v25.4l19.5-12.7L25.3,2.2L25.3,2.2z"/>
	</g>
</g>
<circle id="XMLID_22_" class="st1" cx="30.9" cy="15" r="14.2"/>
<circle id="XMLID_19_" class="st2" cx="16.8" cy="28.7" r="14.3"/>
<rect id="XMLID_17_" x="16.4" y="28.7" class="st3" width="0.8" height="14.1"/>
<rect id="XMLID_16_" x="11.2" y="17" transform="matrix(-0.7071 0.7071 -0.7071 -0.7071 36.9053 32.9747)" class="st3" width="0.8" height="14.3"/>
<rect id="XMLID_15_" x="21.5" y="17" transform="matrix(0.7071 0.7071 -0.7071 0.7071 23.4927 -8.3605)" class="st3" width="0.8" height="14.4"/>
<circle id="XMLID_12_" class="st4" cx="31.9" cy="35.5" r="14.3"/>
<rect id="XMLID_8_" x="31.5" y="35.5" class="st5" width="0.8" height="14.1"/>
<rect id="XMLID_6_" x="26.3" y="23.8" transform="matrix(-0.7071 0.7071 -0.7071 -0.7071 67.4762 33.8605)" class="st5" width="0.8" height="14.3"/>
<rect id="XMLID_4_" x="36.6" y="23.8" transform="matrix(0.7071 0.7071 -0.7071 0.7071 32.7061 -17.0551)" class="st5" width="0.8" height="14.4"/>
<line id="XMLID_3_" class="st1" x1="49.2" y1="0.2" x2="20.3" y2="50.8"/>
</svg>
