<?xml version="1.0" encoding="utf-8"?>
<!-- Generator: Adobe Illustrator 19.0.0, SVG Export Plug-In . SVG Version: 6.00 Build 0)  -->
<svg version="1.1" id="图层_1" xmlns="http://www.w3.org/2000/svg" xmlns:xlink="http://www.w3.org/1999/xlink" x="0px" y="0px"
	 viewBox="0 0 40 40" style="enable-background:new 0 0 40 40;" xml:space="preserve">
<style type="text/css">
	.st0{fill:#FFFFFF;}
	.st1{fill:#FF0000;}
	.st2{fill:#00FF00;}
	.st3{enable-background:new    ;}
</style>
<g id="XMLID_2_">
	<path id="XMLID_18_" class="st0" d="M20,39.6C9.2,39.6,0.4,30.8,0.4,20S9.2,0.4,20,0.4S39.6,9.2,39.6,20S30.8,39.6,20,39.6z"/>
	<path id="XMLID_15_" class="st1" d="M20,0.8c10.6,0,19.3,8.6,19.3,19.3S30.6,39.3,20,39.3S0.8,30.6,0.8,20S9.4,0.8,20,0.8 M20,0
		C9,0,0,9,0,20s9,20,20,20s20-9,20-20S31,0,20,0L20,0z"/>
</g>
<g id="XMLID_3_">
	<path id="XMLID_24_" class="st2" d="M20,34.6C11.9,34.6,5.4,28,5.4,20S11.9,5.4,20,5.4S34.6,11.9,34.6,20S28.1,34.6,20,34.6z"/>
	<path id="XMLID_21_" class="st1" d="M20,5.8c7.9,0,14.3,6.4,14.3,14.3S27.9,34.3,20,34.3S5.8,27.9,5.8,20S12.1,5.8,20,5.8 M20,5
		C11.7,5,5,11.7,5,20s6.7,15,15,15s15-6.7,15-15S28.3,5,20,5L20,5z"/>
</g>
<g class="st3">
	<path class="st1" d="M19.6,24.2c-0.7,0.2-1,0.4-1.2,0.7c0,0.1-0.1,0.1-0.2,0.1c-2.8-0.1-4.9-0.2-5.7-0.3c-1.3-0.2-2.5-0.7-3.3-1.6
		c-0.6,0.9-1.4,1.7-2.7,2.5l-0.2-0.1c1.2-1,1.9-1.8,2.5-2.8c-0.5-0.7-1.3-2-1.5-2.8l0.2-0.1c0.4,1,0.9,1.7,1.5,2.5
		c0.4-0.8,0.6-1.9,0.9-3.9H8.3C8.1,18.7,8,18.7,8,18.7c0,0-0.1,0-0.1,0l-0.8-0.4l0.7-0.4l1.9-3.1H8c-0.3,0-0.7,0.1-0.9,0.2l-0.4-0.5
		c0.4,0,0.7,0.1,1,0.1h2l0.5-0.5l0.7,0.6c0.1,0.1,0.1,0.1,0.1,0.1c0,0,0,0.1-0.1,0.1c-0.3,0.1-0.6,0.3-0.7,0.5l-1.7,2.7h1.5l0.4-0.5
		l0.7,0.7c0,0,0.1,0.1,0.1,0.1s0,0.1-0.1,0.1l-0.4,0.2c-0.2,1.9-0.5,3.1-1.1,4.1c1,1.1,2.8,1.6,5.7,1.6c1.3,0,2.7-0.1,4.5-0.3V24.2z
		 M19.5,16.2c0.1,0.1,0.1,0.1,0.1,0.1c0,0,0,0-0.1,0h-1.8c0,0.7,0,0.9,0.1,1.5v0.1c0,0.2-0.1,0.2-0.3,0.4c-0.1,0.1-0.2,0.1-0.3,0.1
		C17,18.4,17,18.3,17,18h-2.2v1.6h2l0.5-0.6l0.8,0.8c0,0,0.1,0.1,0.1,0.1c0,0,0,0-0.1,0h-3.3v1.6h2.9l0.5-0.7l0.8,0.9
		c0,0,0.1,0.1,0.1,0.1c0,0,0,0-0.1,0h-4.2c0,0.2,0,1.2,0,1.4c0,0.2,0,0.2-0.3,0.4c-0.1,0.1-0.2,0.1-0.3,0.1c-0.1,0-0.1-0.1-0.1-0.3
		c0-0.1,0-1.3,0-1.5h-2.4c-0.3,0-0.7,0.1-0.9,0.2l-0.4-0.5c0.4,0,0.7,0.1,1,0.1h2.7v-1.6h-1.6c-0.3,0-0.7,0.1-0.9,0.2l-0.4-0.5
		c0.4,0,0.7,0.1,1,0.1h1.9V18h-1.6c-0.3,0-0.6,0-0.8,0.1l-0.4-0.5c0.3,0,0.6,0.1,0.9,0.1h1.9v-1.4h-2.5c-0.3,0-0.7,0.1-0.9,0.2
		L10.4,16c0.4,0,0.7,0.1,1,0.1h2.8v-1.4h-1.4c-0.3,0-0.6,0.1-0.8,0.1l-0.4-0.5c0.3,0,0.6,0,0.9,0h1.6c0-0.6,0-1.5-0.1-2l1.1,0.5
		c0.1,0,0.1,0.1,0.1,0.1c0,0,0,0.1-0.1,0.1l-0.4,0.3v1h2l0.4-0.5l0.8,0.6c0,0,0.1,0.1,0.1,0.1c0,0,0,0.1,0,0.1L17.7,15V16h0.6
		l0.5-0.6L19.5,16.2z M17,16v-1.4h-2.2V16H17z M17,17.7v-1.4h-2.2v1.4H17z"/>
	<path class="st1" d="M26.1,20.8l-2.3,2.5c-0.4,0.4-0.7,1-0.9,1.4c0,0.1-0.1,0.1-0.1,0.1c0,0-0.1,0-0.1,0L22,24.1
		c0.5-0.4,0.6-0.6,0.6-1.2v-5.1l-1.1,0.1c-0.2,0-0.4,0.1-0.6,0.1l-0.3-0.4c0.2,0,0.5,0,0.7,0l1.2-0.1l0.4-0.6l0.9,0.6
		c0.1,0,0.1,0.1,0.1,0.1c0,0,0,0.1-0.1,0.1l-0.5,0.4V23l2.7-2.4L26.1,20.8z M22.1,12.9c1.2,0.7,1.8,1.3,1.9,1.7
		c0,0.1,0.1,0.2,0.1,0.3c0,0.4-0.3,0.7-0.4,0.7c-0.1,0-0.2-0.1-0.3-0.5c-0.2-0.8-0.5-1.3-1.3-2L22.1,12.9z M33.4,24.4
		c-0.8,0-1.2,0.1-1.4,0.4c0,0-0.1,0.1-0.1,0.1c-0.2,0-2.3-1.3-3.4-2.5c-1.2,1.4-2.9,2.4-4.9,3l-0.1-0.2c2.3-1,3.4-1.8,4.6-3.2
		c-1.1-1.5-2-4.1-2.4-7.4H26c0.7,3.4,1.6,5.7,2.5,6.9c1.1-1.4,1.8-3.8,2.3-7.9l1.1,0.6c0.1,0,0.1,0.1,0.1,0.1c0,0,0,0.1-0.1,0.1
		l-0.4,0.3c-0.9,4.1-1.4,5.7-2.5,7.2c1.2,1.2,3.4,2.3,4.5,2.3V24.4z M27.2,13c0.9,0.5,1.9,1.3,1.9,2c0,0.4-0.3,0.6-0.4,0.6
		c-0.2,0-0.3,0-0.4-0.5c-0.2-0.7-0.5-1.2-1.2-1.9L27.2,13z"/>
</g>
</svg>
