<?xml version="1.0" encoding="utf-8"?>
<!-- Generator: Adobe Illustrator 19.0.0, SVG Export Plug-In . SVG Version: 6.00 Build 0)  -->
<svg version="1.1" id="图层_1" xmlns="http://www.w3.org/2000/svg" xmlns:xlink="http://www.w3.org/1999/xlink" x="0px" y="0px"
	 viewBox="0 0 40 40" style="enable-background:new 0 0 40 40;" xml:space="preserve">
<style type="text/css">
	.st0{fill:#FFFFFF;}
	.st1{fill:#FF0000;}
	.st2{fill:#98C6FF;}
	.st3{enable-background:new    ;}
</style>
<g>
	<g id="XMLID_2_">
		<path id="XMLID_18_" class="st0" d="M20,39.6C9.2,39.6,0.4,30.8,0.4,20S9.2,0.4,20,0.4S39.6,9.2,39.6,20S30.8,39.6,20,39.6z"/>
		<path id="XMLID_15_" class="st1" d="M20,0.8c10.6,0,19.3,8.6,19.3,19.3c0,10.7-8.7,19.2-19.3,19.2S0.8,30.6,0.8,20S9.4,0.8,20,0.8
			 M20,0C9,0,0,9,0,20s9,20,20,20s20-9,20-20S31,0,20,0L20,0z"/>
	</g>
	<g id="XMLID_7_">
		<path id="XMLID_26_" class="st2" d="M20,29.6c-5.3,0-9.6-4.3-9.6-9.6s4.3-9.6,9.6-9.6s9.6,4.3,9.6,9.6S25.3,29.6,20,29.6z"/>
		<path id="XMLID_23_" class="st1" d="M20,10.8c5.1,0,9.3,4.1,9.3,9.3c0,5.2-4.1,9.3-9.3,9.3s-9.3-4.1-9.3-9.3
			C10.7,14.9,14.9,10.8,20,10.8 M20,10c-5.5,0-10,4.5-10,10s4.5,10,10,10s10-4.5,10-10S25.5,10,20,10L20,10z"/>
	</g>
	<g class="st3">
		<path class="st1" d="M25.2,16.2C25.3,16.2,25.3,16.3,25.2,16.2c0.1,0.1,0,0.1,0,0.2l-0.4,0.3v3.8c0,0.3,0.1,2,0.1,2
			c0,0.2-0.7,0.5-0.7,0.5c0,0-0.1-0.1-0.1-0.2V22h-3.6v1.1c0,1.5,0,2.3,0,2.8V26c0,0.2,0,0.2-0.3,0.4c-0.2,0.2-0.4,0.2-0.4,0.2
			c0,0,0,0,0-0.1v0c0.1-1,0.1-1.8,0.1-3.4V22h-3.6v1.1c0,0.2-0.6,0.5-0.7,0.5c0,0,0,0,0-0.1c0-0.5,0.1-1.5,0.1-2.7v-4.1
			c0-0.4,0-0.8,0-1.2l0.9,0.8h3.4v-0.7c0-1.1,0-1.6,0-2.1l1.1,0.7c0,0,0.1,0,0.1,0.1c0,0,0,0.1-0.1,0.1l-0.4,0.3v1.7h3.3l0.4-0.7
			L25.2,16.2z M19.8,18.9v-2.4h-3.6v2.4H19.8z M19.8,21.7v-2.6h-3.6v2.6H19.8z M24.1,18.9v-2.4h-3.6v2.4H24.1z M24.1,21.7v-2.6h-3.6
			v2.6H24.1z"/>
	</g>
</g>
</svg>
