<?xml version="1.0" encoding="utf-8"?>
<!-- Generator: Adobe Illustrator 19.0.0, SVG Export Plug-In . SVG Version: 6.00 Build 0)  -->
<svg version="1.1" id="图层_1" xmlns="http://www.w3.org/2000/svg" xmlns:xlink="http://www.w3.org/1999/xlink" x="0px" y="0px"
	 viewBox="0 0 40 40" style="enable-background:new 0 0 40 40;" xml:space="preserve">
<style type="text/css">
	.st0{fill:#CECAEB;}
</style>
<g id="XMLID_1_">
	<path id="XMLID_21_" class="st0" d="M20,0.8c10.6,0,19.2,8.6,19.2,19.2S30.6,39.2,20,39.2S0.8,30.6,0.8,20S9.4,0.8,20,0.8 M20,0.1
		C9,0.1,0.1,9,0.1,20S9,39.9,20,39.9S39.9,31,39.9,20S31,0.1,20,0.1L20,0.1z"/>
</g>
<g id="XMLID_5_">
	<path id="XMLID_18_" class="st0" d="M20,5.7c7.9,0,14.3,6.4,14.3,14.3S27.9,34.3,20,34.3S5.7,27.9,5.7,20S12.1,5.7,20,5.7 M20,5
		C11.7,5,5,11.7,5,20c0,8.3,6.7,15,15,15c8.3,0,15-6.7,15-15C35,11.7,28.3,5,20,5L20,5z"/>
</g>
<rect id="XMLID_6_" x="0.1" y="19.6" transform="matrix(-0.7071 -0.7071 0.7071 -0.7071 20 48.2843)" class="st0" width="39.9" height="0.8"/>
<rect id="XMLID_8_" x="0.1" y="19.6" transform="matrix(0.7071 -0.7071 0.7071 0.7071 -8.2843 20)" class="st0" width="39.9" height="0.8"/>
</svg>
