<?xml version="1.0" encoding="utf-8"?>
<!-- Generator: Adobe Illustrator 19.0.0, SVG Export Plug-In . SVG Version: 6.00 Build 0)  -->
<svg version="1.1" id="图层_1" xmlns="http://www.w3.org/2000/svg" xmlns:xlink="http://www.w3.org/1999/xlink" x="0px" y="0px"
	 viewBox="0 0 40 40" style="enable-background:new 0 0 40 40;" xml:space="preserve">
<style type="text/css">
	.st0{fill:#FFFFFF;}
	.st1{fill:#FF0000;}
	.st2{fill:#00FF00;}
	.st3{enable-background:new    ;}
</style>
<g>
	<g id="XMLID_5_">
		<path id="XMLID_8_" class="st0" d="M20,39.6C9.2,39.6,0.4,30.8,0.4,20S9.2,0.4,20,0.4S39.6,9.2,39.6,20S30.8,39.6,20,39.6z"/>
		<path id="XMLID_6_" class="st1" d="M20,0.8c10.6,0,19.3,8.6,19.3,19.3c0,10.7-8.7,19.2-19.3,19.2S0.8,30.6,0.8,20S9.4,0.8,20,0.8
			 M20,0C9,0,0,9,0,20s9,20,20,20s20-9,20-20S31,0,20,0L20,0z"/>
	</g>
	<g id="XMLID_1_">
		<path id="XMLID_4_" class="st2" d="M20,29.6c-5.3,0-9.6-4.3-9.6-9.6s4.3-9.6,9.6-9.6s9.6,4.3,9.6,9.6S25.3,29.6,20,29.6z"/>
		<path id="XMLID_3_" class="st1" d="M20,10.8c5.1,0,9.3,4.1,9.3,9.3c0,5.2-4.1,9.3-9.3,9.3s-9.3-4.1-9.3-9.3
			C10.7,14.9,14.9,10.8,20,10.8 M20,10c-5.5,0-10,4.5-10,10s4.5,10,10,10s10-4.5,10-10S25.5,10,20,10L20,10z"/>
	</g>
	<g class="st3">
		<path class="st1" d="M18.8,19l-2,1.3V25c0,1-0.2,1.2-0.9,1.6c0,0-0.1,0-0.1,0c0,0-0.1,0-0.1-0.1c-0.1-0.5-0.4-0.7-1.7-1.1l0.1-0.2
			c0.9,0.2,1.3,0.3,1.6,0.3c0.4,0,0.4-0.1,0.4-0.4v-4.4c-1.5,0.9-1.6,1.1-1.8,1.3c0,0.1-0.1,0.1-0.1,0.1c0,0,0,0-0.1-0.1l-0.6-0.6
			l2.6-1.3v-2.7H15c-0.3,0-0.7,0.1-0.9,0.2L13.7,17c0.4,0,0.7,0.1,1,0.1h1.4v-1.5c0-0.6,0-1.5-0.1-2l1,0.6c0.1,0.1,0.1,0.1,0.1,0.1
			c0,0.1,0,0.1-0.4,0.3v2.5h0.7l0.6-0.7l0.7,0.7c0.1,0.1,0.1,0.2,0.1,0.2c0,0.1-0.1,0.1-0.2,0.1h-1.9v2.4l1.9-1L18.8,19z M22.1,23.5
			c-1.7,1.3-2.2,2-2.5,2.5c0,0-0.1,0.1-0.1,0.1c0,0-0.1,0-0.1,0l-0.6-0.7c0.3-0.2,0.4-0.4,0.4-0.7v-9.1c0-0.5,0-1.4,0-1.8l1,0.6
			c0.1,0.1,0.2,0.1,0.2,0.2c0,0.1-0.1,0.1-0.2,0.2l-0.3,0.2v3.6h0.9l0.5-0.7l0.7,0.7c0.1,0.1,0.1,0.1,0.1,0.2s-0.1,0.1-0.2,0.1h-2v6
			l2-1.4L22.1,23.5z M26.1,22.6c0,0.3,0,0.5,0,0.7c0,1.1,0.1,1.3,0.4,1.4c0.1,0,0.1,0.1,0.1,0.1c0,0,0,0.1,0,0.1
			c-0.3,0.7-0.5,1-2.2,1c-1,0-1.7,0-1.7-1v-9.5c0-0.7,0-1.4,0-1.8l1.1,0.6c0.1,0,0.1,0.1,0.1,0.1c0,0.1-0.1,0.1-0.5,0.4v4.3
			c0.7-0.6,1.7-1.6,2.3-2.4l0.6,0.6c0.1,0.1,0.1,0.1,0.1,0.2s-0.1,0.1-0.1,0.1c-0.4,0-1,0.4-2.9,1.9v5.6c0,0.4,0.1,0.6,1,0.6
			c0.3,0,0.6,0,0.8,0c0.5-0.1,0.6-0.4,0.8-2.7H26.1z"/>
	</g>
</g>
</svg>
