<?xml version="1.0" encoding="utf-8"?>
<!-- Generator: Adobe Illustrator 19.0.0, SVG Export Plug-In . SVG Version: 6.00 Build 0)  -->
<svg version="1.1" id="图层_1" xmlns="http://www.w3.org/2000/svg" xmlns:xlink="http://www.w3.org/1999/xlink" x="0px" y="0px"
	 viewBox="0 0 50 50" style="enable-background:new 0 0 50 50;" xml:space="preserve">
<style type="text/css">
	.st0{fill:#F7B52C;}
	.st1{fill:none;stroke:#F7B52C;stroke-width:0.75;stroke-miterlimit:10;}
	.st2{fill:none;stroke:#4635BF;stroke-width:0.75;stroke-miterlimit:10;}
	.st3{fill:#4635BF;}
	.st4{fill:none;stroke:#E51373;stroke-width:0.75;stroke-miterlimit:10;}
	.st5{fill:#E51373;}
</style>
<g id="XMLID_9_">
	<g id="XMLID_43_">
		<path id="XMLID_44_" class="st0" d="M25.7,3.5l17,11l-17,11.1V3.5 M24.9,2.1V27L44,14.5L24.9,2.1L24.9,2.1z"/>
	</g>
</g>
<circle id="XMLID_7_" class="st1" cx="30.3" cy="14.5" r="14"/>
<circle id="XMLID_1_" class="st2" cx="16.3" cy="28.8" r="14.1"/>
<rect id="XMLID_5_" x="15.9" y="28.8" class="st3" width="0.8" height="13.8"/>
<rect id="XMLID_10_" x="10.9" y="17.3" transform="matrix(-0.7071 0.7071 -0.7071 -0.7071 36.3722 33.5116)" class="st3" width="0.8" height="14"/>
<rect id="XMLID_11_" x="20.9" y="17.3" transform="matrix(0.7071 0.7071 -0.7071 0.7071 23.4345 -7.9058)" class="st3" width="0.8" height="14.1"/>
<circle id="XMLID_21_" class="st4" cx="31.1" cy="35.4" r="14.1"/>
<rect id="XMLID_20_" x="30.7" y="35.4" class="st5" width="0.8" height="13.8"/>
<rect id="XMLID_14_" x="25.7" y="23.9" transform="matrix(-0.7071 0.7071 -0.7071 -0.7071 66.3438 34.3801)" class="st5" width="0.8" height="14"/>
<rect id="XMLID_13_" x="35.7" y="23.9" transform="matrix(0.7071 0.7071 -0.7071 0.7071 32.4674 -16.4299)" class="st5" width="0.8" height="14.1"/>
</svg>
