<?xml version="1.0" encoding="utf-8"?>
<!-- Generator: Adobe Illustrator 19.0.0, SVG Export Plug-In . SVG Version: 6.00 Build 0)  -->
<svg version="1.1" id="图层_1" xmlns="http://www.w3.org/2000/svg" xmlns:xlink="http://www.w3.org/1999/xlink" x="0px" y="0px"
	 viewBox="0 0 40 30" style="enable-background:new 0 0 40 30;" xml:space="preserve">
<style type="text/css">
	.st0{fill:#FF0000;}
</style>
<g id="XMLID_2_">
	<path id="XMLID_3_" class="st0" d="M34.9,17c-2.6,0.4-2.7,1-2.7,2.9v4c0,1.5,0,2.9,0.4,3.7c-2.9,0.7-6.6,1.8-10.2,1.8
		C12.8,29.4,6,23.6,6,15.3C6,5.6,14.1,0.6,22.8,0.6c3.7,0,7.1,0.7,8.6,1.2c0.1,1.3,0.4,3.8,0.7,6.5l-0.7,0.1C30,2.8,26.5,1.6,22,1.6
		c-8.4,0-12.9,4.9-12.9,13c0,6.2,3.5,13.7,13.2,13.7c2.3,0,4.3-0.3,5.6-0.7c1.3-0.4,1.8-1.1,1.8-3v-3.8c0-2.7-0.2-3.4-5.2-3.8v-0.6
		h10.3V17z"/>
</g>
</svg>
