<?xml version="1.0" encoding="utf-8"?>
<!-- Generator: Adobe Illustrator 19.0.0, SVG Export Plug-In . SVG Version: 6.00 Build 0)  -->
<svg version="1.1" id="图层_1" xmlns="http://www.w3.org/2000/svg" xmlns:xlink="http://www.w3.org/1999/xlink" x="0px" y="0px"
	 viewBox="0 0 40 50" style="enable-background:new 0 0 40 50;" xml:space="preserve">
<style type="text/css">
	.st0{fill:none;stroke:#385D83;stroke-width:0.75;stroke-miterlimit:10;}
	.st1{fill:#385D83;}
</style>
<line id="XMLID_3_" class="st0" x1="22.4" y1="0" x2="13.6" y2="50"/>
<line id="XMLID_5_" class="st0" x1="22.4" y1="33.7" x2="31.1" y2="50"/>
<g id="XMLID_1_">
	<path id="XMLID_15_" class="st1" d="M21.9,19.9c3.7,0,6.8,3,6.8,6.8s-3,6.8-6.8,6.8s-6.8-3-6.8-6.8S18.2,19.9,21.9,19.9 M21.9,19.2
		c-4.1,0-7.5,3.4-7.5,7.5s3.4,7.5,7.5,7.5s7.5-3.4,7.5-7.5S26,19.2,21.9,19.2L21.9,19.2z"/>
</g>
<line id="XMLID_6_" class="st0" x1="22.6" y1="0" x2="22.4" y2="0"/>
<line id="XMLID_7_" class="st0" x1="31.1" y1="50" x2="22.4" y2="0"/>
<line id="XMLID_4_" class="st0" x1="13.6" y1="50" x2="21.9" y2="33.7"/>
</svg>
