<?xml version="1.0" encoding="utf-8"?>
<!-- Generator: Adobe Illustrator 19.0.0, SVG Export Plug-In . SVG Version: 6.00 Build 0)  -->
<svg version="1.1" id="图层_1" xmlns="http://www.w3.org/2000/svg" xmlns:xlink="http://www.w3.org/1999/xlink" x="0px" y="0px"
	 viewBox="-449 266 60 30" style="enable-background:new -449 266 60 30;" xml:space="preserve">
<style type="text/css">
	.st0{fill:#D3001A;}
	.st1{enable-background:new    ;}
	.st2{fill:#F2DA00;}
	.st3{fill:#00E2ED;}
</style>
<g id="XMLID_1_">
	<path id="XMLID_17_" class="st0" d="M-389.7,266.8v28.5h-58.5v-28.5H-389.7 M-389,266h-60v30h60V266L-389,266z"/>
</g>
<g class="st1">
	<path class="st2" d="M-396.1,286.4c1-0.1,1.4-0.3,1.4-0.7c0-0.5-0.5-1.9-1.2-3.5h-4.2c-0.2,0.3-1.1,2.8-1.1,3.3
		c0,0.6,0.5,0.7,1.5,0.9v0.3h-4.1v-0.3c1.3-0.3,1.5-0.4,2.2-2l3.9-9.2l0.2-0.1l1.2,3.3c0.8,2.3,1.6,4.5,2.3,6.2
		c0.5,1.3,0.7,1.5,1.9,1.7v0.3h-4.1V286.4z M-397.9,276.8c-0.7,1.6-1.4,3.3-2,4.8h3.8L-397.9,276.8L-397.9,276.8z"/>
</g>
<g class="st1">
	<path class="st3" d="M-423.5,286.4c1.6-0.1,1.7-0.4,1.7-1.8v-7.2c0-1.4-0.1-1.7-1.6-1.8v-0.3h4.4c2.5,0,3.5,0.9,3.5,2.5
		c0,1.6-1.5,2.3-2.3,2.5v0c1.6,0.2,3.1,1.2,3.1,2.9c0,1.2-0.6,2.1-1.7,2.7c-0.9,0.5-2.1,0.6-3.4,0.6h-3.6V286.4z M-419.5,280.3
		c2,0,2.8-0.8,2.8-2.3c0-0.8-0.3-2.3-2.9-2.3c-0.6,0-0.9,0-1,0c-0.1,0-0.2,0.1-0.2,0.4v4.1H-419.5z M-420.8,280.7v4
		c0,1.2,0.2,1.5,1.7,1.5c1.8,0,3.2-0.7,3.2-2.7s-1.4-2.9-3.5-2.9H-420.8z"/>
</g>
<g class="st1">
	<path class="st0" d="M-434.7,283.4c-0.3,1-0.7,2.4-0.9,3c-0.6,0.1-2.3,0.5-3.6,0.5c-4.7,0-6.7-3-6.7-5.7c0-3.6,3-6.1,7.1-6.1
		c1.8,0,2.9,0.4,3.4,0.5c0.1,0.9,0.2,1.8,0.3,2.8l-0.3,0.1c-0.5-2.1-1.7-2.9-4.1-2.9c-3.6,0-5.2,2.4-5.2,5.2c0,3.5,2.1,5.8,5.3,5.8
		c2.5,0,3.5-1.4,4.4-3.2L-434.7,283.4z"/>
</g>
</svg>
