<?xml version="1.0" encoding="utf-8"?>
<!-- Generator: Adobe Illustrator 15.0.0, SVG Export Plug-In . SVG Version: 6.00 Build 0)  -->
<!DOCTYPE svg PUBLIC "-//W3C//DTD SVG 1.1//EN" "http://www.w3.org/Graphics/SVG/1.1/DTD/svg11.dtd">
<svg version="1.1" id="_x30_" xmlns:agg="http://www.example.com"
	 xmlns="http://www.w3.org/2000/svg" preserveAspectRatio="none"   x="0px" y="0px" 
	  viewBox="0 0 85.138 43.984" enable-background="new 0 0 85.138 43.984" xml:space="preserve">
<agg:params>
	<agg:param type="C" name="color" description="Color" cssAttributes="fill" classes="color"/>
	<agg:param type="C" name="strokeColor" description="Stroke Color" cssAttributes="stroke" classes="color,stroked"/>
</agg:params>
<style type="text/css" >
<![CDATA[

	.color,.stroked,.dashed{
		stroke-width:0.5;
		stroke-linecap:round;
		stroke-linejoin:round;
		stroke: #000000;
	}
	
	.color {
		fill:   #A1BFE2;

	}
	
	.stroked,.dashed{
		fill:none;
	}
	
	.dashed {
		stroke-dasharray:1.4173,1.4173;
	}

      ]]>
</style>

<polygon class="color" points="1.416,1.418 83.72,1.418 83.72,42.567 1.416,42.567 1.416,1.418 	"/>

<g class="stroked">
	<line x1="1.416" y1="11.705" x2="83.72" y2="11.705"/>
	<line x1="1.416" y1="21.951" x2="83.72" y2="21.951"/>
	<line x1="1.416" y1="32.32" x2="83.72" y2="32.32"/>
	<line x1="1.416" y1="6.562" x2="83.72" y2="6.562"/>
	<line x1="1.416" y1="16.807" x2="83.72" y2="16.807"/>
	<line x1="1.416" y1="27.177" x2="83.72" y2="27.177"/>
	<line x1="1.416" y1="37.382" x2="83.72" y2="37.382"/>
	<line x1="52.815" y1="1.418" x2="52.815" y2="42.567"/>
	<line x1="42.527" y1="1.418" x2="42.527" y2="42.567"/>
	<line x1="73.39" y1="1.418" x2="73.39" y2="42.567"/>
	<line x1="32.239" y1="1.418" x2="32.239" y2="42.567"/>
	<line x1="63.103" y1="1.418" x2="63.103" y2="42.567"/>
</g>
</svg>
