<?xml version="1.0" encoding="utf-8"?>
<!-- Generator: Adobe Illustrator 15.0.0, SVG Export Plug-In . SVG Version: 6.00 Build 0)  -->
<!DOCTYPE svg PUBLIC "-//W3C//DTD SVG 1.1//EN" "http://www.w3.org/Graphics/SVG/1.1/DTD/svg11.dtd">
<svg version="1.1" id="_x30_" xmlns:agg="http://www.example.com"
	 xmlns="http://www.w3.org/2000/svg" preserveAspectRatio="none"   x="0px" y="0px" 
	  viewBox="0 0 43.986 43.984" enable-background="new 0 0 43.986 43.984" xml:space="preserve">
<agg:params>
	<agg:param type="C" name="color" description="Color" cssAttributes="fill" classes="color"/>
	<agg:param type="C" name="strokeColor" description="Stroke Color" cssAttributes="stroke" classes="color,stroked"/>
</agg:params>
<style type="text/css" >
<![CDATA[

	.color,.stroked,.dashed{
		stroke-width:0.5;
		stroke-linecap:round;
		stroke-linejoin:round;
		stroke: #000000;
	}
	
	.color {
		fill:   #A1BFE2;

	}
	
	.stroked,.dashed{
		fill:none;
	}
	
	.dashed {
		stroke-dasharray:1.4173,1.4173;
	}

      ]]>
</style>
<path class="color" d="M39.63,5.495
	c3.382,0,3.414,5.511,2.57,9.865c-0.845,4.354-2.564,7.552-4.614,10.746c-2.05,3.192-4.428,6.379-6.875,9.259
	c-1.223,1.438-2.463,2.802-3.895,4.239c-1.436,1.438-3.06,2.949-4.714,2.963c-1.656,0.014-3.338-1.473-4.795-2.896
	c-1.455-1.424-2.685-2.785-3.912-4.223c-1.227-1.438-2.452-2.951-3.594-4.509c-1.143-1.558-2.205-3.16-3.206-4.805
	c-1.002-1.644-1.945-3.329-2.761-5.084c-0.816-1.754-1.505-3.578-1.943-5.454c-0.439-1.876-0.628-3.806-0.329-5.862
	c0.299-2.056,1.087-4.239,2.771-4.239c4.138,0,8.277,0,12.416,0c0-0.883,0-1.767,0-2.65c0-0.789,0.625-1.427,1.396-1.427
	c2.6,0,5.198,0,7.799,0c0.77,0,1.395,0.639,1.395,1.427c0,0.883,0,1.767,0,2.65C31.435,5.495,35.533,5.495,39.63,5.495z"/>
</svg>
