<?xml version="1.0" encoding="utf-8"?>
<!-- Generator: Adobe Illustrator 15.1.0, SVG Export Plug-In . SVG Version: 6.00 Build 0)  -->
<!DOCTYPE svg PUBLIC "-//W3C//DTD SVG 1.1//EN" "http://www.w3.org/Graphics/SVG/1.1/DTD/svg11.dtd">
<svg version="1.1" id="Default" xmlns:agg="http://www.example.com"
     xmlns="http://www.w3.org/2000/svg" preserveAspectRatio="none"  xmlns:xlink="http://www.w3.org/1999/xlink" x="0px" y="0px" 
      viewBox="26.898 -26.899 56.628 110.426" enable-background="new 26.898 -26.899 56.628 110.426"
     xml:space="preserve">

    <agg:params>
        <agg:param type="C" name="color" classes="color" description="Color" cssAttributes="fill"/>
        <agg:param type="C" name="strokeColor" classes="stroke" description="Stroke Color" cssAttributes="stroke"/>
        <agg:param type="F" name="strokeWidth" classes="stroke" description="Stroke Width" cssAttributes="stroke-width" min="0"/>
    </agg:params>

    <style type="text/css">
        <![CDATA[

	.stroke{
		stroke-width:1;
		stroke-linecap:round;
		stroke-linejoin:round;
		stroke: black;
		fill:none;
	}
	
	.color {
		fill:white;
		opacity:1;
	}

      ]]>
    </style>

    <path class="color" d="M82.111-25.483c-29.711,0-53.797,24.086-53.797,53.796c0,29.711,24.086,53.798,53.797,53.798
	c0-9.112,0-18.226,0-27.338c-14.612,0-26.458-11.847-26.458-26.459c0-14.614,11.846-26.459,26.458-26.459
	C82.111-7.258,82.111-16.371,82.111-25.483z"/>
    <path class="stroke" d="M82.111-25.483
	c-29.711,0-53.797,24.086-53.797,53.796c0,29.711,24.086,53.798,53.797,53.798"/>
    <path class="stroke" d="M82.111,54.774
	c-14.612,0-26.458-11.847-26.458-26.459c0-14.614,11.846-26.459,26.458-26.459"/>
</svg>
