<?xml version="1.0" encoding="utf-8"?>
<!-- Generator: Adobe Illustrator 15.1.0, SVG Export Plug-In . SVG Version: 6.00 Build 0)  -->
<!DOCTYPE svg PUBLIC "-//W3C//DTD SVG 1.1//EN" "http://www.w3.org/Graphics/SVG/1.1/DTD/svg11.dtd">
<svg version="1.1" id="Layer_1" xmlns="http://www.w3.org/2000/svg" preserveAspectRatio="none"   x="0px" y="0px"
	   viewBox="0 0 109 152" xmlns:agg="http://www.example.com" xml:space="preserve">

<agg:params>
	<agg:param name="bagColor" description="Bag Color" type="C" cssAttributes="fill" classes="bag"/>
</agg:params>
	 
<style type="text/css" >
   <![CDATA[

	.stroke,.thin,.thick{
		stroke-linecap:butt;
		stroke-linejoin:round;
		stroke: black;
		fill:none;
		opacity:0.5;
	}

	.stroke{stroke-width:0.5;}

	.thin {stroke-width:0.25;}

	.thick {stroke-width:0.75;}
	
	.bag {
		fill:#CE36A3;
	}

      ]]>
</style>
	 
<linearGradient id="SVGID_1_" gradientUnits="userSpaceOnUse" x1="-1.2227" y1="-10.2959" x2="86.5425" y2="63.3478">
	<stop  offset="0.0051" style="stop-color:#4C5B75"/>
	<stop  offset="0.1372" style="stop-color:#5D6B83"/>
	<stop  offset="0.3988" style="stop-color:#8A95A6"/>
	<stop  offset="0.4788" style="stop-color:#99A3B2"/>
	<stop  offset="0.503" style="stop-color:#ADB7C4"/>
	<stop  offset="0.9997" style="stop-color:#F6FAFC"/>
</linearGradient>
<polygon fill-rule="evenodd" clip-rule="evenodd" fill="url(#SVGID_1_)" points="90.754,28.253 4.64,28.253 4.64,33.252 
	90.754,33.252 90.754,28.253 	"/>

	<linearGradient id="SVGID_2_" gradientUnits="userSpaceOnUse" x1="94.2324" y1="32.3369" x2="94.2324" y2="36.4362" gradientTransform="matrix(0.7366 -0.4211 0.4963 0.8682 -7.1626 122.9566)">
	<stop  offset="0.0051" style="stop-color:#4C5B75"/>
	<stop  offset="0.0323" style="stop-color:#616F86"/>
	<stop  offset="0.098" style="stop-color:#8E99AA"/>
	<stop  offset="0.1641" style="stop-color:#B4BCC7"/>
	<stop  offset="0.2298" style="stop-color:#D1D7DE"/>
	<stop  offset="0.2946" style="stop-color:#E5EAEF"/>
	<stop  offset="0.3584" style="stop-color:#F2F6F9"/>
	<stop  offset="0.42" style="stop-color:#F6FAFC"/>
	<stop  offset="0.4744" style="stop-color:#F2F6F8"/>
	<stop  offset="0.5308" style="stop-color:#E6E9EC"/>
	<stop  offset="0.5882" style="stop-color:#D3D5D7"/>
	<stop  offset="0.6461" style="stop-color:#B7B8BB"/>
	<stop  offset="0.704" style="stop-color:#949396"/>
	<stop  offset="0.72" style="stop-color:#89878B"/>
	<stop  offset="1" style="stop-color:#F6FAFC"/>
</linearGradient>
<polygon fill="url(#SVGID_2_)" points="108,98.748 52.393,130.619 50.609,127.492 106.217,95.621 	"/>
<linearGradient id="SVGID_3_" gradientUnits="userSpaceOnUse" x1="8.2554" y1="79.6572" x2="15.5132" y2="79.6572">
	<stop  offset="0.0051" style="stop-color:#4C5B75"/>
	<stop  offset="0.0323" style="stop-color:#616F86"/>
	<stop  offset="0.098" style="stop-color:#8E99AA"/>
	<stop  offset="0.1641" style="stop-color:#B4BCC7"/>
	<stop  offset="0.2298" style="stop-color:#D1D7DE"/>
	<stop  offset="0.2946" style="stop-color:#E5EAEF"/>
	<stop  offset="0.3584" style="stop-color:#F2F6F9"/>
	<stop  offset="0.42" style="stop-color:#F6FAFC"/>
	<stop  offset="0.4744" style="stop-color:#F2F6F8"/>
	<stop  offset="0.5308" style="stop-color:#E6E9EC"/>
	<stop  offset="0.5882" style="stop-color:#D3D5D7"/>
	<stop  offset="0.6461" style="stop-color:#B7B8BB"/>
	<stop  offset="0.704" style="stop-color:#949396"/>
	<stop  offset="0.72" style="stop-color:#89878B"/>
	<stop  offset="1" style="stop-color:#F6FAFC"/>
</linearGradient>
<polygon fill-rule="evenodd" clip-rule="evenodd" fill="url(#SVGID_3_)" points="8.255,139.996 8.255,19.319 15.513,19.319 
	15.513,139.996 8.255,139.996 	"/>
<linearGradient id="SVGID_4_" gradientUnits="userSpaceOnUse" x1="17.5854" y1="120.2305" x2="77.8105" y2="170.7653">
	<stop  offset="0.0051" style="stop-color:#4C5B75"/>
	<stop  offset="0.1372" style="stop-color:#5D6B83"/>
	<stop  offset="0.3988" style="stop-color:#8A95A6"/>
	<stop  offset="0.4788" style="stop-color:#99A3B2"/>
	<stop  offset="0.503" style="stop-color:#ADB7C4"/>
	<stop  offset="0.9997" style="stop-color:#F6FAFC"/>
</linearGradient>
<polygon fill-rule="evenodd" clip-rule="evenodd" fill="url(#SVGID_4_)" points="94.396,139.996 1,139.996 1,151 94.396,151 
	94.396,139.996 	"/>
<linearGradient id="SVGID_5_" gradientUnits="userSpaceOnUse" x1="79.8574" y1="79.6572" x2="87.1143" y2="79.6572">
	<stop  offset="0.0051" style="stop-color:#4C5B75"/>
	<stop  offset="0.0323" style="stop-color:#616F86"/>
	<stop  offset="0.098" style="stop-color:#8E99AA"/>
	<stop  offset="0.1641" style="stop-color:#B4BCC7"/>
	<stop  offset="0.2298" style="stop-color:#D1D7DE"/>
	<stop  offset="0.2946" style="stop-color:#E5EAEF"/>
	<stop  offset="0.3584" style="stop-color:#F2F6F9"/>
	<stop  offset="0.42" style="stop-color:#F6FAFC"/>
	<stop  offset="0.4744" style="stop-color:#F2F6F8"/>
	<stop  offset="0.5308" style="stop-color:#E6E9EC"/>
	<stop  offset="0.5882" style="stop-color:#D3D5D7"/>
	<stop  offset="0.6461" style="stop-color:#B7B8BB"/>
	<stop  offset="0.704" style="stop-color:#949396"/>
	<stop  offset="0.72" style="stop-color:#89878B"/>
	<stop  offset="1" style="stop-color:#F6FAFC"/>
</linearGradient>
<polygon fill-rule="evenodd" clip-rule="evenodd" fill="url(#SVGID_5_)" points="79.857,139.996 79.857,19.319 87.114,19.319 
	87.114,139.996 79.857,139.996 	"/>
<linearGradient id="SVGID_6_" gradientUnits="userSpaceOnUse" x1="3.1445" y1="2.8022" x2="20.6805" y2="17.5167">
	<stop  offset="0.0051" style="stop-color:#4C5B75"/>
	<stop  offset="0.1372" style="stop-color:#5D6B83"/>
	<stop  offset="0.3988" style="stop-color:#8A95A6"/>
	<stop  offset="0.4788" style="stop-color:#99A3B2"/>
	<stop  offset="0.503" style="stop-color:#ADB7C4"/>
	<stop  offset="0.9997" style="stop-color:#F6FAFC"/>
</linearGradient>
<polygon fill-rule="evenodd" clip-rule="evenodd" fill="url(#SVGID_6_)" points="19.168,1 4.656,1 4.656,19.319 19.168,19.319 
	19.168,1 	"/>
<linearGradient id="SVGID_7_" gradientUnits="userSpaceOnUse" x1="13.4614" y1="-20.395" x2="74.9106" y2="31.167">
	<stop  offset="0.0051" style="stop-color:#4C5B75"/>
	<stop  offset="0.1372" style="stop-color:#5D6B83"/>
	<stop  offset="0.3988" style="stop-color:#8A95A6"/>
	<stop  offset="0.4788" style="stop-color:#99A3B2"/>
	<stop  offset="0.503" style="stop-color:#ADB7C4"/>
	<stop  offset="0.9997" style="stop-color:#F6FAFC"/>
</linearGradient>
<polygon fill-rule="evenodd" clip-rule="evenodd" fill="url(#SVGID_7_)" points="76.258,4.688 19.168,4.688 19.168,12.003 
	76.258,12.003 76.258,4.688 	"/>
<linearGradient id="SVGID_8_" gradientUnits="userSpaceOnUse" x1="74.7461" y1="2.8018" x2="92.2828" y2="17.5168">
	<stop  offset="0.0051" style="stop-color:#4C5B75"/>
	<stop  offset="0.1372" style="stop-color:#5D6B83"/>
	<stop  offset="0.3988" style="stop-color:#8A95A6"/>
	<stop  offset="0.4788" style="stop-color:#99A3B2"/>
	<stop  offset="0.503" style="stop-color:#ADB7C4"/>
	<stop  offset="0.9997" style="stop-color:#F6FAFC"/>
</linearGradient>
<polygon fill-rule="evenodd" clip-rule="evenodd" fill="url(#SVGID_8_)" points="90.771,1 76.258,1 76.258,19.319 90.771,19.319 
	90.771,1 	"/>

<linearGradient id="SVGID_9_" gradientUnits="userSpaceOnUse" x1="-1220.7358" y1="62.4121" x2="-1220.7358" y2="66.4329" gradientTransform="matrix(0.0581 -0.0332 1.0269 1.7964 57.5604 -30.1376)">
	<stop  offset="0.0051" style="stop-color:#4C5B75"/>
	<stop  offset="0.0323" style="stop-color:#616F86"/>
	<stop  offset="0.098" style="stop-color:#8E99AA"/>
	<stop  offset="0.1641" style="stop-color:#B4BCC7"/>
	<stop  offset="0.2298" style="stop-color:#D1D7DE"/>
	<stop  offset="0.2946" style="stop-color:#E5EAEF"/>
	<stop  offset="0.3584" style="stop-color:#F2F6F9"/>
	<stop  offset="0.42" style="stop-color:#F6FAFC"/>
	<stop  offset="0.4744" style="stop-color:#F2F6F8"/>
	<stop  offset="0.5308" style="stop-color:#E6E9EC"/>
	<stop  offset="0.5882" style="stop-color:#D3D5D7"/>
	<stop  offset="0.6461" style="stop-color:#B7B8BB"/>
	<stop  offset="0.704" style="stop-color:#949396"/>
	<stop  offset="0.72" style="stop-color:#89878B"/>
	<stop  offset="1" style="stop-color:#F6FAFC"/>
</linearGradient>
<polygon fill="url(#SVGID_9_)" points="56.78,128.104 52.393,130.619 48.703,124.146 53.092,121.633 	"/>

<g class="stroke">
	<polyline points="94.396,139.996 94.396,151 1,151 
		1,139.996 	"/>
	
		<line x1="15.513" y1="19.319" x2="15.513" y2="139.996"/>
	<line fill="none" stroke="#BA3252" stroke- stroke-miterlimit="10" x1="8.255" y1="19.319" x2="8.255" y2="139.996"/>
	
		<rect x="4.656" y="1"  />
	<line x1="76.258" y1="4.688" x2="19.168" y2="4.688"/>
	
		<line x1="19.168" y1="12.003" x2="76.258" y2="12.003"/>
	
		<rect x="76.258" y="1" fill-rule="evenodd" clip-rule="evenodd"  />
	
		<line x1="87.114" y1="110.719" x2="87.114" y2="139.996"/>
	
		<line x1="87.114" y1="106.568" x2="87.114" y2="110.719"/>
	
		<line x1="87.114" y1="19.319" x2="87.114" y2="106.568"/>
	
		<line x1="79.857" y1="19.319" x2="79.857" y2="139.996"/>
	<line x1="1" y1="139.996" x2="94.396" y2="139.996"/>
	<polyline points="8.255,33.252 4.64,33.252 
		4.64,28.253 8.255,28.253 	"/>
	
		<line x1="79.857" y1="33.252" x2="15.513" y2="33.252"/>
	<polyline points="87.114,28.253 90.754,28.253 
		90.754,33.252 87.114,33.252 	"/>
	
		<line x1="15.513" y1="28.253" x2="79.857" y2="28.253"/>
</g>

<path class="bag" d="M31.999,87.114c2.117,2.933,10.044,14.157,10.248,14.298h10.011c1.299-0.156,6.528-8.055,9.323-12.389
	c0.498-0.787,0.923-1.457,1.235-1.941c0.317-0.508,0.513-0.812,0.53-0.837c0.933-1.294,1.797-2.317,2.263-3.85
	c0.459-1.566,0.777-2.917,0.949-4.515c0.327-2.86,0.155-5.687,0.064-8.555c-0.588-7.104-1.479-14.159-2.344-21.23
	c-0.475-3.892-0.999-7.759-1.455-11.65c-0.041-0.295-0.148-0.459-0.295-0.564l-1.308-8.251h-1.486l0.687,8.562h-0.009
	c-1.398,0.229-2.778,0.458-4.168,0.695c-1.756,0.295-3.612,0.665-5.385,0.731c-4.201,0.146-8.369,0.251-12.512-0.583
	c-1.07-0.212-2.125-0.441-3.172-0.679l0.696-8.727h-1.488l-1.316,8.299c-0.4,0.213-0.588,0.754-0.702,1.354
	c-0.123,0.638-0.156,1.342-0.262,1.802c-1.577,6.906-3.072,13.837-3.938,20.869c-0.818,6.816-2.026,14.928,0.637,21.484
	c0.736,1.77,1.299,3.605,2.689,4.981C31.517,86.444,31.705,86.695,31.999,87.114z"/>
	
<g opacity="0.3">
	<polygon points="62.529,35.881 62.75,37.283 60.503,37.283 60.422,36.192 59.735,27.63 61.222,27.63 	"/>
	<path d="M62.75,87.057C48.097,79.446,42.165,91.81,36.919,66.9c1.479,8.906-4.545,18.143-4.765,20.059
		c0.024,0.025,0.048,0.05,0.073,0.065l-0.229,0.09c2.117,2.933,10.044,14.157,10.248,14.298h10.011
		c1.299-0.156,6.528-8.055,9.323-12.389c0.498-0.787,0.923-1.457,1.235-1.941L62.75,87.057z"/>
	<path d="M54.464,57.726c-0.548,0.711-1.282,1.401-1.546,2.268c-0.71,2.337-1.421,4.671-2.123,7.008
		c-1.357-1.37-2.713-2.73-4.079-4.09c-0.998-1.009-1.364-2.753-1.905-4.041c0.711-0.713,1.431-1.417,2.141-2.128
		c0.27-0.263-0.646-1.444-0.816-1.73c-0.711-1.262-2.141-2.793-1.96-4.284c0.482-3.992,0.97-7.981,1.453-11.97
		c0.737,4.176,1.48,8.356,2.216,12.535c0.417,2.359,0.833,4.712,1.25,7.062c0.287,1.614,0.997,1.747,2.459,2.698
		c1.252-6.434,2.493-12.864,3.735-19.297c0.229,2.467,0.467,4.933,0.694,7.407c0.195,2.089-0.326,4.287-0.563,6.358
		C55.297,56.594,55.133,56.841,54.464,57.726z"/>
	<polygon points="35.873,27.63 35.177,36.357 35.104,37.283 32.857,37.283 33.069,35.929 34.385,27.63 	"/>
</g>

<g class="stroke">
	<path d="M31.999,87.114
		c2.117,2.933,10.044,14.157,10.248,14.298h10.011c1.299-0.156,6.528-8.055,9.323-12.389c0.498-0.787,0.923-1.457,1.235-1.941
		c0.317-0.508,0.513-0.812,0.53-0.837c0.933-1.294,1.797-2.317,2.263-3.85c0.459-1.566,0.777-2.917,0.949-4.515
		c0.327-2.86,0.155-5.687,0.064-8.555c-0.588-7.104-1.479-14.159-2.344-21.23c-0.475-3.892-0.999-7.759-1.455-11.65
		c-0.041-0.295-0.148-0.459-0.295-0.564l-1.308-8.251h-1.486l0.687,8.562h-0.009c-1.398,0.229-2.778,0.458-4.168,0.695
		c-1.756,0.295-3.612,0.665-5.385,0.731c-4.201,0.146-8.369,0.251-12.512-0.583c-1.07-0.212-2.125-0.441-3.172-0.679l0.696-8.727
		h-1.488l-1.316,8.299c-0.4,0.213-0.588,0.754-0.702,1.354c-0.123,0.638-0.156,1.342-0.262,1.802
		c-1.577,6.906-3.072,13.837-3.938,20.869c-0.818,6.816-2.026,14.928,0.637,21.484c0.736,1.77,1.299,3.605,2.689,4.981
		C31.517,86.444,31.705,86.695,31.999,87.114z"/>
	<polyline points="60.422,36.192 60.503,37.283 
		62.75,37.283 		"/>
	<polyline points="35.177,36.357 35.104,37.283 
		32.857,37.283 32.367,37.283 		"/>
</g>

<linearGradient id="SVGID_10_" gradientUnits="userSpaceOnUse" x1="38.9893" y1="105.6309" x2="56.4033" y2="105.6309">
	<stop  offset="0.0051" style="stop-color:#4C5B75"/>
	<stop  offset="0.0323" style="stop-color:#616F86"/>
	<stop  offset="0.098" style="stop-color:#8E99AA"/>
	<stop  offset="0.1641" style="stop-color:#B4BCC7"/>
	<stop  offset="0.2298" style="stop-color:#D1D7DE"/>
	<stop  offset="0.2946" style="stop-color:#E5EAEF"/>
	<stop  offset="0.3584" style="stop-color:#F2F6F9"/>
	<stop  offset="0.42" style="stop-color:#F6FAFC"/>
	<stop  offset="0.4744" style="stop-color:#F2F6F8"/>
	<stop  offset="0.5308" style="stop-color:#E6E9EC"/>
	<stop  offset="0.5882" style="stop-color:#D3D5D7"/>
	<stop  offset="0.6461" style="stop-color:#B7B8BB"/>
	<stop  offset="0.704" style="stop-color:#949396"/>
	<stop  offset="0.72" style="stop-color:#89878B"/>
	<stop  offset="1" style="stop-color:#F6FAFC"/>
</linearGradient>
<rect x="38.989" y="99.306" fill-rule="evenodd" clip-rule="evenodd" fill="url(#SVGID_10_)"  />
<linearGradient id="SVGID_11_" gradientUnits="userSpaceOnUse" x1="58.8359" y1="122.7031" x2="37.1223" y2="104.1415">
	<stop  offset="0.0051" style="stop-color:#4C5B75"/>
	<stop  offset="0.1372" style="stop-color:#5D6B83"/>
	<stop  offset="0.3988" style="stop-color:#8A95A6"/>
	<stop  offset="0.4788" style="stop-color:#99A3B2"/>
	<stop  offset="0.503" style="stop-color:#ADB7C4"/>
	<stop  offset="0.9997" style="stop-color:#F6FAFC"/>
</linearGradient>
<polygon fill="url(#SVGID_11_)" points="31.115,111.955 47.697,128.582 64.279,111.955 "/>

<g class="stroke">
	<polygon points="31.115,111.955 47.697,128.582 
		64.279,111.955 	"/>
	<polyline points="38.989,111.955 38.989,99.306 
		56.403,99.306 56.403,111.955 	"/>
	<line x1="79.857" y1="114.877" x2="56.78" y2="128.104"/>
	<polyline points="87.114,106.566 106.217,95.621 
		108,98.748 87.156,110.695 	"/>
	<line x1="54.997" y1="124.977" x2="79.91" y2="110.698"/>
	<polyline points="53.652,122.615 56.78,128.104 
		52.393,130.619 49.947,126.329 	"/>
</g>
</svg>
