<?xml version="1.0" encoding="utf-8"?>
<!-- Generator: Adobe Illustrator 15.1.0, SVG Export Plug-In . SVG Version: 6.00 Build 0)  -->
<!DOCTYPE svg PUBLIC "-//W3C//DTD SVG 1.1//EN" "http://www.w3.org/Graphics/SVG/1.1/DTD/svg11.dtd">
<svg version="1.1" id="Layer_1" xmlns="http://www.w3.org/2000/svg" preserveAspectRatio="none"  x="0px" y="0px"
       viewBox="0 0 202 77" xmlns:agg="http://www.example.com">

<agg:params>
	<agg:param type="C" name="color" description="Color" cssAttributes="fill" classes="color"/>
	<agg:param type="F" name="saturation" description="Saturation" min="0" max="1" cssAttributes="opacity" classes="color"/>
</agg:params>	 

<style type="text/css" >
   <![CDATA[

	.stroke,.thin,.thick{
		stroke-linecap:butt;
		stroke-linejoin:round;
		stroke: black;
		fill:none;
	}

	.stroke{stroke-width:0.5;}

	.thin {stroke-width:0.25;}

	.thick {stroke-width:0.75;}
	
	.color {
		fill:#3664BF;
		opacity:0.2;
	}

      ]]>
</style>
	 
<linearGradient id="SVGID_1_" gradientUnits="userSpaceOnUse" x1="173.8857" y1="30.0562" x2="173.8857" y2="43.8378">
	<stop  offset="0.0051" style="stop-color:#4C5B75"/>
	<stop  offset="0.0323" style="stop-color:#616F86"/>
	<stop  offset="0.098" style="stop-color:#8E99AA"/>
	<stop  offset="0.1641" style="stop-color:#B4BCC7"/>
	<stop  offset="0.2298" style="stop-color:#D1D7DE"/>
	<stop  offset="0.2946" style="stop-color:#E5EAEF"/>
	<stop  offset="0.3584" style="stop-color:#F2F6F9"/>
	<stop  offset="0.42" style="stop-color:#F6FAFC"/>
	<stop  offset="0.4744" style="stop-color:#F2F6F8"/>
	<stop  offset="0.5308" style="stop-color:#E6E9EC"/>
	<stop  offset="0.5882" style="stop-color:#D3D5D7"/>
	<stop  offset="0.6461" style="stop-color:#B7B8BB"/>
	<stop  offset="0.704" style="stop-color:#949396"/>
	<stop  offset="0.72" style="stop-color:#89878B"/>
	<stop  offset="1" style="stop-color:#F6FAFC"/>
</linearGradient>
<polygon fill-rule="evenodd" clip-rule="evenodd" fill="url(#SVGID_1_)" points="189.295,30.13 158.477,30.13 158.477,43.772 
	189.295,43.772 189.295,30.13 "/>
<line fill="none" x1="198.686" y1="43.772" x2="158.477" y2="43.772"/>
<linearGradient id="SVGID_2_" gradientUnits="userSpaceOnUse" x1="123.3945" y1="23.0376" x2="123.3945" y2="49.2642">
	<stop  offset="0.0051" style="stop-color:#4C5B75"/>
	<stop  offset="0.0323" style="stop-color:#616F86"/>
	<stop  offset="0.098" style="stop-color:#8E99AA"/>
	<stop  offset="0.1641" style="stop-color:#B4BCC7"/>
	<stop  offset="0.2298" style="stop-color:#D1D7DE"/>
	<stop  offset="0.2946" style="stop-color:#E5EAEF"/>
	<stop  offset="0.3584" style="stop-color:#F2F6F9"/>
	<stop  offset="0.42" style="stop-color:#F6FAFC"/>
	<stop  offset="0.4744" style="stop-color:#F2F6F8"/>
	<stop  offset="0.5308" style="stop-color:#E6E9EC"/>
	<stop  offset="0.5882" style="stop-color:#D3D5D7"/>
	<stop  offset="0.6461" style="stop-color:#B7B8BB"/>
	<stop  offset="0.704" style="stop-color:#949396"/>
	<stop  offset="0.72" style="stop-color:#89878B"/>
	<stop  offset="1" style="stop-color:#F6FAFC"/>
</linearGradient>
<polyline fill="url(#SVGID_2_)" points="148.359,23.144 98.429,23.144 98.429,49.176 148.359,49.176 148.359,23.144 "/>
<linearGradient id="SVGID_3_" gradientUnits="userSpaceOnUse" x1="67.8418" y1="28.8223" x2="67.8418" y2="38.5004">
	<stop  offset="0.0051" style="stop-color:#4C5B75"/>
	<stop  offset="0.0323" style="stop-color:#616F86"/>
	<stop  offset="0.098" style="stop-color:#8E99AA"/>
	<stop  offset="0.1641" style="stop-color:#B4BCC7"/>
	<stop  offset="0.2298" style="stop-color:#D1D7DE"/>
	<stop  offset="0.2946" style="stop-color:#E5EAEF"/>
	<stop  offset="0.3584" style="stop-color:#F2F6F9"/>
	<stop  offset="0.42" style="stop-color:#F6FAFC"/>
	<stop  offset="0.4744" style="stop-color:#F2F6F8"/>
	<stop  offset="0.5308" style="stop-color:#E6E9EC"/>
	<stop  offset="0.5882" style="stop-color:#D3D5D7"/>
	<stop  offset="0.6461" style="stop-color:#B7B8BB"/>
	<stop  offset="0.704" style="stop-color:#949396"/>
	<stop  offset="0.72" style="stop-color:#89878B"/>
	<stop  offset="1" style="stop-color:#F6FAFC"/>
</linearGradient>
<polygon fill-rule="evenodd" clip-rule="evenodd" fill="url(#SVGID_3_)" points="65.296,28.924 70.389,28.924 70.389,38.612 
	65.296,38.612 65.296,28.924 "/>
<linearGradient id="SVGID_4_" gradientUnits="userSpaceOnUse" x1="94.9189" y1="71.0098" x2="53.6054" y2="51.7449">
	<stop  offset="0" style="stop-color:#7A869A"/>
	<stop  offset="0.4788" style="stop-color:#99A3B2"/>
	<stop  offset="0.4909" style="stop-color:#A7B3C4"/>
	<stop  offset="1" style="stop-color:#D9DFE5"/>
</linearGradient>
<polygon fill-rule="evenodd" clip-rule="evenodd" fill="url(#SVGID_4_)" points="182.682,63.148 1,63.148 1,76 182.682,76 
	182.682,63.148 "/>
<linearGradient id="SVGID_5_" gradientUnits="userSpaceOnUse" x1="84.4082" y1="23.2979" x2="84.4082" y2="63.395">
	<stop  offset="0.0051" style="stop-color:#4C5B75"/>
	<stop  offset="0.0323" style="stop-color:#616F86"/>
	<stop  offset="0.098" style="stop-color:#8E99AA"/>
	<stop  offset="0.1641" style="stop-color:#B4BCC7"/>
	<stop  offset="0.2298" style="stop-color:#D1D7DE"/>
	<stop  offset="0.2946" style="stop-color:#E5EAEF"/>
	<stop  offset="0.3584" style="stop-color:#F2F6F9"/>
	<stop  offset="0.42" style="stop-color:#F6FAFC"/>
	<stop  offset="1" style="stop-color:#89878B"/>
</linearGradient>
<polygon fill-rule="evenodd" clip-rule="evenodd" fill="url(#SVGID_5_)" points="98.429,23.144 70.389,23.144 70.389,63.148 
	98.429,63.148 98.429,23.144 "/>
<linearGradient id="SVGID_6_" gradientUnits="userSpaceOnUse" x1="153.418" y1="14.8501" x2="153.418" y2="56.7894">
	<stop  offset="0.0051" style="stop-color:#4C5B75"/>
	<stop  offset="0.0323" style="stop-color:#616F86"/>
	<stop  offset="0.098" style="stop-color:#8E99AA"/>
	<stop  offset="0.1641" style="stop-color:#B4BCC7"/>
	<stop  offset="0.2298" style="stop-color:#D1D7DE"/>
	<stop  offset="0.2946" style="stop-color:#E5EAEF"/>
	<stop  offset="0.3584" style="stop-color:#F2F6F9"/>
	<stop  offset="0.42" style="stop-color:#F6FAFC"/>
	<stop  offset="0.4744" style="stop-color:#F2F6F8"/>
	<stop  offset="0.5308" style="stop-color:#E6E9EC"/>
	<stop  offset="0.5882" style="stop-color:#D3D5D7"/>
	<stop  offset="0.6461" style="stop-color:#B7B8BB"/>
	<stop  offset="0.704" style="stop-color:#949396"/>
	<stop  offset="0.72" style="stop-color:#89878B"/>
	<stop  offset="1" style="stop-color:#F6FAFC"/>
</linearGradient>
<polygon fill-rule="evenodd" clip-rule="evenodd" fill="url(#SVGID_6_)" points="148.359,56.954 158.477,56.954 158.477,14.972 
	148.359,14.972 148.359,56.954 "/>
<linearGradient id="SVGID_7_" gradientUnits="userSpaceOnUse" x1="145.4648" y1="29.3501" x2="104.4526" y2="10.2258">
	<stop  offset="0" style="stop-color:#7A869A"/>
	<stop  offset="0.4788" style="stop-color:#99A3B2"/>
	<stop  offset="0.4909" style="stop-color:#A7B3C4"/>
	<stop  offset="1" style="stop-color:#D9DFE5"/>
</linearGradient>
<polygon fill-rule="evenodd" clip-rule="evenodd" fill="url(#SVGID_7_)" points="148.359,23.144 148.359,14.972 98.429,23.144 
	148.359,23.144 "/>
<linearGradient id="SVGID_8_" gradientUnits="userSpaceOnUse" x1="116.0625" y1="61.7012" x2="97.6425" y2="51.0664">
	<stop  offset="0" style="stop-color:#7A869A"/>
	<stop  offset="0.4788" style="stop-color:#99A3B2"/>
	<stop  offset="0.4909" style="stop-color:#A7B3C4"/>
	<stop  offset="1" style="stop-color:#D9DFE5"/>
</linearGradient>
<polygon fill-rule="evenodd" clip-rule="evenodd" fill="url(#SVGID_8_)" points="115.227,60.051 104.314,60.051 104.314,44.894 
	101.206,44.894 101.206,63.148 115.227,63.148 "/>
<linearGradient id="SVGID_9_" gradientUnits="userSpaceOnUse" x1="160.1865" y1="61.7012" x2="141.7666" y2="51.0664">
	<stop  offset="0" style="stop-color:#7A869A"/>
	<stop  offset="0.4788" style="stop-color:#99A3B2"/>
	<stop  offset="0.4909" style="stop-color:#A7B3C4"/>
	<stop  offset="1" style="stop-color:#D9DFE5"/>
</linearGradient>
<polygon fill-rule="evenodd" clip-rule="evenodd" fill="url(#SVGID_9_)" points="159.35,60.051 148.438,60.051 148.438,44.894 
	145.33,44.894 145.33,63.148 159.35,63.148 "/>
<line fill="none" x1="158.477" y1="43.772" x2="186.584" y2="43.772"/>
<linearGradient id="SVGID_10_" gradientUnits="userSpaceOnUse" x1="194.3535" y1="26.937" x2="194.3535" y2="46.8213">
	<stop  offset="0.0051" style="stop-color:#4C5B75"/>
	<stop  offset="0.0323" style="stop-color:#616F86"/>
	<stop  offset="0.098" style="stop-color:#8E99AA"/>
	<stop  offset="0.1641" style="stop-color:#B4BCC7"/>
	<stop  offset="0.2298" style="stop-color:#D1D7DE"/>
	<stop  offset="0.2946" style="stop-color:#E5EAEF"/>
	<stop  offset="0.3584" style="stop-color:#F2F6F9"/>
	<stop  offset="0.42" style="stop-color:#F6FAFC"/>
	<stop  offset="0.4744" style="stop-color:#F2F6F8"/>
	<stop  offset="0.5308" style="stop-color:#E6E9EC"/>
	<stop  offset="0.5882" style="stop-color:#D3D5D7"/>
	<stop  offset="0.6461" style="stop-color:#B7B8BB"/>
	<stop  offset="0.704" style="stop-color:#949396"/>
	<stop  offset="0.72" style="stop-color:#89878B"/>
	<stop  offset="1" style="stop-color:#F6FAFC"/>
</linearGradient>
<rect x="189.295" y="27.033" fill-rule="evenodd" clip-rule="evenodd" fill="url(#SVGID_10_)"  />
<linearGradient id="SVGID_11_" gradientUnits="userSpaceOnUse" x1="165.4863" y1="24.8701" x2="179.5742" y2="24.8701">
	<stop  offset="0.0051" style="stop-color:#4C5B75"/>
	<stop  offset="0.0323" style="stop-color:#616F86"/>
	<stop  offset="0.098" style="stop-color:#8E99AA"/>
	<stop  offset="0.1641" style="stop-color:#B4BCC7"/>
	<stop  offset="0.2298" style="stop-color:#D1D7DE"/>
	<stop  offset="0.2946" style="stop-color:#E5EAEF"/>
	<stop  offset="0.3584" style="stop-color:#F2F6F9"/>
	<stop  offset="0.42" style="stop-color:#F6FAFC"/>
	<stop  offset="0.4744" style="stop-color:#F2F6F8"/>
	<stop  offset="0.5308" style="stop-color:#E6E9EC"/>
	<stop  offset="0.5882" style="stop-color:#D3D5D7"/>
	<stop  offset="0.6461" style="stop-color:#B7B8BB"/>
	<stop  offset="0.704" style="stop-color:#949396"/>
	<stop  offset="0.72" style="stop-color:#89878B"/>
	<stop  offset="1" style="stop-color:#F6FAFC"/>
</linearGradient>
<polygon fill-rule="evenodd" clip-rule="evenodd" fill="url(#SVGID_11_)" points="179.574,30.13 179.574,12.665 165.486,12.665 
	165.486,30.13 172.529,37.075 "/>
<linearGradient id="SVGID_12_" gradientUnits="userSpaceOnUse" x1="162.3789" y1="7.623" x2="182.6816" y2="7.623">
	<stop  offset="0.0051" style="stop-color:#4C5B75"/>
	<stop  offset="0.0323" style="stop-color:#616F86"/>
	<stop  offset="0.098" style="stop-color:#8E99AA"/>
	<stop  offset="0.1641" style="stop-color:#B4BCC7"/>
	<stop  offset="0.2298" style="stop-color:#D1D7DE"/>
	<stop  offset="0.2946" style="stop-color:#E5EAEF"/>
	<stop  offset="0.3584" style="stop-color:#F2F6F9"/>
	<stop  offset="0.42" style="stop-color:#F6FAFC"/>
	<stop  offset="0.4744" style="stop-color:#F2F6F8"/>
	<stop  offset="0.5308" style="stop-color:#E6E9EC"/>
	<stop  offset="0.5882" style="stop-color:#D3D5D7"/>
	<stop  offset="0.6461" style="stop-color:#B7B8BB"/>
	<stop  offset="0.704" style="stop-color:#949396"/>
	<stop  offset="0.72" style="stop-color:#89878B"/>
	<stop  offset="1" style="stop-color:#F6FAFC"/>
</linearGradient>
<rect x="162.379" y="2.582" fill-rule="evenodd" clip-rule="evenodd" fill="url(#SVGID_12_)"  />
<linearGradient id="SVGID_13_" gradientUnits="userSpaceOnUse" x1="-112.1235" y1="41.9717" x2="-84.9307" y2="41.9717" gradientTransform="matrix(4.489659e-011 -1 1 4.489659e-011 20.0483 -64.6328)">
	<stop  offset="0.0051" style="stop-color:#4C5B75"/>
	<stop  offset="0.0323" style="stop-color:#616F86"/>
	<stop  offset="0.098" style="stop-color:#8E99AA"/>
	<stop  offset="0.1641" style="stop-color:#B4BCC7"/>
	<stop  offset="0.2298" style="stop-color:#D1D7DE"/>
	<stop  offset="0.2946" style="stop-color:#E5EAEF"/>
	<stop  offset="0.3584" style="stop-color:#F2F6F9"/>
	<stop  offset="0.42" style="stop-color:#F6FAFC"/>
	<stop  offset="0.4744" style="stop-color:#F2F6F8"/>
	<stop  offset="0.5308" style="stop-color:#E6E9EC"/>
	<stop  offset="0.5882" style="stop-color:#D3D5D7"/>
	<stop  offset="0.6461" style="stop-color:#B7B8BB"/>
	<stop  offset="0.704" style="stop-color:#949396"/>
	<stop  offset="0.72" style="stop-color:#89878B"/>
	<stop  offset="1" style="stop-color:#F6FAFC"/>
</linearGradient>
<rect x="58.744" y="20.298" fill="url(#SVGID_13_)"  />
<linearGradient id="SVGID_14_" gradientUnits="userSpaceOnUse" x1="-119.748" y1="19.0967" x2="-77.3081" y2="19.0967" gradientTransform="matrix(4.489659e-011 -1 1 4.489659e-011 20.0483 -64.6328)">
	<stop  offset="0.0051" style="stop-color:#4C5B75"/>
	<stop  offset="0.0323" style="stop-color:#616F86"/>
	<stop  offset="0.098" style="stop-color:#8E99AA"/>
	<stop  offset="0.1641" style="stop-color:#B4BCC7"/>
	<stop  offset="0.2298" style="stop-color:#D1D7DE"/>
	<stop  offset="0.2946" style="stop-color:#E5EAEF"/>
	<stop  offset="0.3584" style="stop-color:#F2F6F9"/>
	<stop  offset="0.42" style="stop-color:#F6FAFC"/>
	<stop  offset="0.4744" style="stop-color:#F2F6F8"/>
	<stop  offset="0.5308" style="stop-color:#E6E9EC"/>
	<stop  offset="0.5882" style="stop-color:#D3D5D7"/>
	<stop  offset="0.6461" style="stop-color:#B7B8BB"/>
	<stop  offset="0.704" style="stop-color:#949396"/>
	<stop  offset="0.72" style="stop-color:#89878B"/>
	<stop  offset="1" style="stop-color:#F6FAFC"/>
</linearGradient>
<path fill="url(#SVGID_14_)" d="M19.546,12.675h32.644l6.555,5.973v1.65v27.193v1.635l-6.555,5.989H19.546
	C19.546,40.966,19.546,26.837,19.546,12.675z"/>
<linearGradient id="SVGID_15_" gradientUnits="userSpaceOnUse" x1="-121.751" y1="-8.0059" x2="-75.0449" y2="-8.0059" gradientTransform="matrix(4.489659e-011 -1 1 4.489659e-011 20.0483 -64.6328)">
	<stop  offset="0.0051" style="stop-color:#4C5B75"/>
	<stop  offset="0.0171" style="stop-color:#616F86"/>
	<stop  offset="0.046" style="stop-color:#8E99AA"/>
	<stop  offset="0.0751" style="stop-color:#B4BCC7"/>
	<stop  offset="0.104" style="stop-color:#D1D7DE"/>
	<stop  offset="0.1326" style="stop-color:#E5EAEF"/>
	<stop  offset="0.1607" style="stop-color:#F2F6F9"/>
	<stop  offset="0.1878" style="stop-color:#F6FAFC"/>
	<stop  offset="0.3085" style="stop-color:#F2F6F8"/>
	<stop  offset="0.4335" style="stop-color:#E6E9EC"/>
	<stop  offset="0.5606" style="stop-color:#D3D5D7"/>
	<stop  offset="0.689" style="stop-color:#B7B8BB"/>
	<stop  offset="0.8173" style="stop-color:#949396"/>
	<stop  offset="0.8528" style="stop-color:#89878B"/>
</linearGradient>
<path opacity="0.5" fill="url(#SVGID_15_)" d="M15.144,10.339c1.467,0,2.935,0,4.402,0c0,0.735,0,46.123,0,46.856
	c-1.467,0-2.935,0-4.402,0c-5.852,0-10.605-4.736-10.605-10.608c0-8.539,0-17.083,0-25.638C4.539,15.095,9.292,10.339,15.144,10.339
	z"/>
<g>
	<polyline opacity="0.3" points="19.546,15.917 48.371,15.917 51.107,14.292 50.555,14.292 19.546,14.292 	"/>
	<polyline opacity="0.3" points="19.546,20.516 48.371,20.516 51.107,18.89 50.555,18.89 19.546,18.89 	"/>
	<polyline opacity="0.3" points="19.546,27.4 48.371,27.4 51.107,25.774 50.555,25.774 19.546,25.774 	"/>
	<polyline opacity="0.3" points="19.546,35.519 48.371,35.519 51.107,33.894 50.555,33.894 19.546,33.894 	"/>
	<polyline opacity="0.3" points="19.546,43.639 48.371,43.639 51.107,42.014 50.555,42.014 19.546,42.014 	"/>
	<polyline opacity="0.3" points="19.546,50.523 48.371,50.523 51.107,48.898 50.555,48.898 19.546,48.898 	"/>
	<polyline opacity="0.3" points="19.546,54.357 48.371,54.357 51.107,52.733 50.555,52.733 19.546,52.733 	"/>
</g>
<linearGradient id="SVGID_16_" gradientUnits="userSpaceOnUse" x1="31.7197" y1="62.6445" x2="19.2622" y2="55.4521">
	<stop  offset="0" style="stop-color:#7A869A"/>
	<stop  offset="0.4788" style="stop-color:#99A3B2"/>
	<stop  offset="0.4909" style="stop-color:#A7B3C4"/>
	<stop  offset="1" style="stop-color:#D9DFE5"/>
</linearGradient>
<polygon fill-rule="evenodd" clip-rule="evenodd" fill="url(#SVGID_16_)" points="31.429,63.148 31.429,60.051 24.415,60.051 
	24.415,51.911 21.307,51.911 21.307,63.148 "/>
<linearGradient id="SVGID_17_" gradientUnits="userSpaceOnUse" x1="54.8447" y1="62.6445" x2="42.3872" y2="55.4521">
	<stop  offset="0" style="stop-color:#7A869A"/>
	<stop  offset="0.4788" style="stop-color:#99A3B2"/>
	<stop  offset="0.4909" style="stop-color:#A7B3C4"/>
	<stop  offset="1" style="stop-color:#D9DFE5"/>
</linearGradient>
<polygon fill-rule="evenodd" clip-rule="evenodd" fill="url(#SVGID_17_)" points="54.553,63.148 54.553,60.051 47.539,60.051 
	47.539,51.911 44.431,51.911 44.431,63.148 "/>
	
<path class="color" d="M189.293,27.032v3.098h-9.719V12.666h3.107V2.582h-20.303v10.084h3.107V30.13h-7.01V14.972h-10.119
	l-49.929,8.171h-28.04v5.78h-5.093v-8.626h-6.552v-1.649l-6.555-5.973H19.546c0-1.394,0-2.24,0-2.335c-1.467,0-2.935,0-4.402,0
	c-5.852,0-10.605,4.755-10.605,10.609c0,8.556,0,17.099,0,25.638c0,5.872,4.753,10.608,10.605,10.608c1.467,0,2.935,0,4.402,0
	c0-0.089,0-0.839,0-2.08h1.761v8.033H1V76h181.682V63.148H159.35v-3.098h-10.912v-3.097h10.039V43.772h28.105h2.711v3.098h10.119
	V27.032H189.293z M31.429,63.148v-3.098h-7.014v-4.936h20.016v8.033H31.429z M54.553,63.148v-3.098h-7.014v-4.936h4.65l6.555-5.989
	v-1.635h6.552v-8.879h5.093v24.537H54.553z M98.429,63.148V49.176h2.777v13.972H98.429z M115.225,63.148v-3.098h-10.91V49.176
	h41.016v13.972H115.225z"/>
	
<g>
	<polygon fill-rule="evenodd" clip-rule="evenodd" fill="#606060" points="114.433,60.051 110.134,60.051 110.134,58.14 
		114.433,58.14 114.433,60.051 	"/>
	<polygon fill-rule="evenodd" clip-rule="evenodd" fill="#606060" points="156.088,60.051 151.789,60.051 151.789,58.14 
		156.088,58.14 156.088,60.051 	"/>
	<polygon fill-rule="evenodd" clip-rule="evenodd" fill="#606060" points="199.412,42.982 201,43.377 201,45.684 199.412,46.079 
		199.412,42.982 	"/>
	<polygon fill-rule="evenodd" clip-rule="evenodd" fill="#606060" points="199.412,35.205 201,35.6 201,38.302 199.412,38.698 
		199.412,35.205 	"/>
	<polygon fill-rule="evenodd" clip-rule="evenodd" fill="#606060" points="199.412,27.823 201,28.219 201,30.921 199.412,31.316 
		199.412,27.823 	"/>
	<polygon fill-rule="evenodd" clip-rule="evenodd" fill="#606060" points="189.295,42.982 187.773,43.377 187.773,45.684 
		189.295,46.079 189.295,42.982 	"/>
	<polygon fill-rule="evenodd" clip-rule="evenodd" fill="#606060" points="189.295,35.205 187.773,35.6 187.773,38.302 
		189.295,38.698 189.295,35.205 	"/>
	<polygon fill-rule="evenodd" clip-rule="evenodd" fill="#606060" points="189.295,27.823 187.773,28.219 187.773,30.921 
		189.295,31.316 189.295,27.823 	"/>
	<polygon fill-rule="evenodd" clip-rule="evenodd" fill="#606060" points="178.383,2.582 178.779,1 181.094,1 181.887,2.582 
		178.383,2.582 	"/>
	<polygon fill-rule="evenodd" clip-rule="evenodd" fill="#606060" points="170.977,2.582 171.373,1 173.688,1 174.084,2.582 
		170.977,2.582 	"/>
	<polygon fill-rule="evenodd" clip-rule="evenodd" fill="#606060" points="163.172,2.582 163.568,1 166.281,1 166.678,2.582 
		163.172,2.582 	"/>
	<polygon fill-rule="evenodd" clip-rule="evenodd" fill="#606060" points="178.383,12.665 178.779,14.181 181.094,14.181 
		181.887,12.665 178.383,12.665 	"/>
	<polygon fill-rule="evenodd" clip-rule="evenodd" fill="#606060" points="170.977,12.665 171.373,14.181 173.688,14.181 
		174.084,12.665 170.977,12.665 	"/>
	<polygon fill-rule="evenodd" clip-rule="evenodd" fill="#606060" points="163.172,12.665 163.568,14.181 166.281,14.181 
		166.678,12.665 163.172,12.665 	"/>
	<polygon fill-rule="evenodd" clip-rule="evenodd" fill="#606060" points="30.636,60.051 26.337,60.051 26.337,58.14 30.636,58.14 
		30.636,60.051 	"/>
	<polygon fill-rule="evenodd" clip-rule="evenodd" fill="#606060" points="53.76,60.051 49.461,60.051 49.461,58.14 53.76,58.14 
		53.76,60.051 	"/>
</g>

<g class="stroke">
	<polyline points="115.227,63.148 115.227,60.051 104.314,60.051 104.314,44.894 101.206,44.894 101.206,63.148 	"/>
	<polyline points="148.359,44.894 145.25,44.894 145.25,63.148 	"/>
	<polyline points="159.27,63.148 159.27,60.051 148.359,60.051 148.359,56.954 	"/>
	<path d="M47.539,55.115h4.65l6.555-5.989v-1.635h6.552V20.298h-6.552v-1.65
		l-6.555-5.973H19.546c0-1.395,0-2.241,0-2.336c-1.467,0-2.935,0-4.402,0c-5.852,0-10.605,4.755-10.605,10.61
		c0,8.556,0,17.099,0,25.638c0,5.872,4.753,10.608,10.605,10.608c1.467,0,2.935,0,4.402,0c0-0.089,0-0.839,0-2.08h1.76"/>
	<line x1="24.416" y1="55.115" x2="44.431" y2="55.115"/>
	<line stroke-linecap="round" stroke-linejoin="round" x1="52.188" y1="52.651" x2="52.188" y2="15.13"/>
	<line x1="58.744" y1="47.491" x2="58.744" y2="20.298"/>
	<line x1="19.546" y1="55.115" x2="19.546" y2="12.675"/>
	<rect x="1" y="63.148"  />
	<polyline fill-rule="evenodd" clip-rule="evenodd" points="70.389,63.148 70.389,23.144 98.429,23.144 98.429,63.148 	"/>
	<rect x="148.359" y="14.972" fill-rule="evenodd" clip-rule="evenodd"  />
	<line x1="98.429" y1="23.144" x2="148.359" y2="14.972"/>
	<line x1="98.429" y1="23.144" x2="148.359" y2="23.144"/>
	<line fill="none" stroke="#000000" stroke- x1="104.314" y1="49.176" x2="145.33" y2="49.176"/>
	<line fill="none" stroke="#000000" stroke- x1="98.429" y1="49.176" x2="101.206" y2="49.176"/>
	<rect x="162.379" y="2.582"  />
	<rect x="189.295" y="27.033"  />
	<polyline fill="none" stroke="#000000" stroke- points="165.486,12.665 165.486,30.13 172.479,37.125 
			179.523,30.079 179.523,12.665 		"/>
	<line x1="158.477" y1="43.772" x2="189.295" y2="43.772"/>
	<line x1="165.486" y1="30.13" x2="158.477" y2="30.13"/>
	<line x1="179.574" y1="30.13" x2="189.295" y2="30.13"/>
	<line x1="162.379" y1="7.624" x2="182.682" y2="7.624"/>
	<line x1="194.354" y1="27.033" x2="194.354" y2="46.87"/>
	<polyline points="21.307,63.148 21.307,51.911 24.415,51.911 24.415,60.051 31.429,60.051 31.429,63.148 		"/>
	<polyline points="44.431,63.148 44.431,51.911 47.539,51.911 47.539,60.051 54.553,60.051 54.553,63.148 		"/>
</g>
</svg>
