<?xml version="1.0" encoding="utf-8"?>
<!-- Generator: Adobe Illustrator 15.1.0, SVG Export Plug-In . SVG Version: 6.00 Build 0)  -->
<!DOCTYPE svg PUBLIC "-//W3C//DTD SVG 1.1//EN" "http://www.w3.org/Graphics/SVG/1.1/DTD/svg11.dtd">
<svg version="1.1" id="Layer_1" xmlns="http://www.w3.org/2000/svg" preserveAspectRatio="none"   x="0px" y="0px"
	   viewBox="0 0 95 102" xmlns:agg="http://www.example.com" xml:space="preserve">
	 
<agg:params>
	<agg:param type="C" name="color" description="Color" cssAttributes="fill" classes="color"/>
	<agg:param type="C" name="strokeColor" description="Stroke Color" cssAttributes="stroke" classes="color,stroked"/>
</agg:params>

<style type="text/css" >
   <![CDATA[

	.color,.stroked,.dashed{
		stroke-width:1;
		stroke-linecap:round;
		stroke-linejoin:round;
		stroke: #000000;
	}
	
	.color {
		fill:   #A1BFE2;

	}
	
	.stroked,.dashed {
		fill:none;
	}
	
	.dashed {
		stroke-dasharray:4,4;
	}

      ]]>
</style>	
	 
<polygon class="color" points="17.943,1 17.943,101 76.922,101 76.922,66.896
	93.865,66.896 93.865,32.995 76.922,32.995 76.922,1 17.943,1 "/>
	
<g class="stroked">	
	<polyline points="77.023,101 77.023,66.963 93.934,66.963 "/>
	<path d="M47.5,66.946c0-11.427,12.615-17.019,12.615-17.019v0.017c0,0-12.615-5.592-12.615-17.019"/>
	<line x1="1" y1="49.945" x2="47.5" y2="49.945"/>
	<line x1="47.5" y1="73.328" x2="47.5" y2="26.527"/>
	<line x1="22.137" y1="20.163" x2="72.863" y2="20.163"/>
	<line x1="22.137" y1="79.727" x2="72.863" y2="79.727"/>
	<line x1="34.818" y1="73.328" x2="60.182" y2="73.328"/>
	<line x1="34.818" y1="26.527" x2="60.182" y2="26.527"/>
</g>
</svg>
