<?xml version="1.0" encoding="utf-8"?>
<!-- Generator: Adobe Illustrator 15.1.0, SVG Export Plug-In . SVG Version: 6.00 Build 0)  -->
<!DOCTYPE svg PUBLIC "-//W3C//DTD SVG 1.1//EN" "http://www.w3.org/Graphics/SVG/1.1/DTD/svg11.dtd">
<svg version="1.1" id="Layer_1" xmlns="http://www.w3.org/2000/svg" preserveAspectRatio="none"   x="0px" y="0px"
	   viewBox="0 0 100 97" xml:space="preserve" xmlns:agg="http://www.example.com">

	   <agg:params>
	   	<agg:param type="C" name="color" description="Color" cssAttributes="fill" classes="color"/>
	   	<agg:param type="C" name="strokeColor" description="Stroke Color" cssAttributes="stroke" classes="color,stroked"/>
	   </agg:params>
	 
<style type="text/css" >
   <![CDATA[

	.color,.stroked,.dashed{
		stroke-width:1;
		stroke-linecap:round;
		stroke-linejoin:round;
		stroke: #000000;
	}
	
	.color {
		fill:   #A1BFE2;

	}
	
	.stroked,.dashed {
		fill:none;
	}
	
	.dashed {
		stroke-dasharray:4,4;
	}

      ]]>
</style>
	 
<path class="color" d="M76.515,14.188
	L88.185,1H11.849l11.659,13.177l-0.009-0.012C9.963,22.985,1,38.365,1,55.863c0,16.503,7.663,31.122,19.924,40.131L78.757,96
	C91.024,86.991,99,72.369,99,55.863c0-17.49-8.956-32.864-22.481-41.687L76.515,14.188z"/>
	
<g class="stroked">
	<path d="M23.508,14.177
		l7.382,8.343l-9.547,11.113"/>
	<path d="M78.67,33.653
		L69.143,22.52l7.372-8.331"/>
	<line x1="50" y1="68.792" x2="50" y2="84.94"/>
	<line x1="50" y1="42.97" x2="50" y2="26.823"/>
	<line x1="37.249" y1="55.881" x2="21.302" y2="55.881"/>
	<line x1="62.75" y1="55.881" x2="78.697" y2="55.881"/>
	<ellipse cx="49.999" cy="55.863" rx="12.751" ry="12.898"/>
</g>

<path class="dashed stroked" d="M21.343,33.632
	c-4.675,6.159-7.454,13.867-7.454,22.231c0,20.176,16.167,36.53,36.11,36.53s36.112-16.354,36.112-36.53
	c0-8.355-2.774-16.056-7.441-22.21"/>
</svg>
