<?xml version="1.0" encoding="utf-8"?>
<!-- Generator: Adobe Illustrator 15.1.0, SVG Export Plug-In . SVG Version: 6.00 Build 0)  -->
<!DOCTYPE svg PUBLIC "-//W3C//DTD SVG 1.1//EN" "http://www.w3.org/Graphics/SVG/1.1/DTD/svg11.dtd">
<svg version="1.1" id="Layer_1" xmlns="http://www.w3.org/2000/svg" preserveAspectRatio="none"   x="0px" y="0px"
	   viewBox="0 0 42 102" xmlns:agg="http://www.example.com" xml:space="preserve">

<agg:params>
	<agg:param type="C" name="color" description="Color" cssAttributes="fill" classes="color"/>
	<agg:param type="C" name="strokeColor" description="Stroke Color" cssAttributes="stroke" classes="color,stroked"/>
</agg:params>

<style type="text/css" >
   <![CDATA[

	.color,.stroked,.dashed{
		stroke-width:1;
		stroke-linecap:round;
		stroke-linejoin:round;
		stroke: #000000;
	}
	
	.color {
		fill:   #A1BFE2;

	}
	
	.stroked,.dashed {
		fill:none;
	}
	
	.dashed {
		stroke-dasharray:2,2;
	}

      ]]>
</style>
	 
<polygon class="color" points="41,1 41,101 17.835,101 17.835,84.159 8.374,84.159
	8.374,90.458 13.626,90.458 13.626,101 1,101 1,90.458 6.286,90.458 6.286,82.037 17.835,82.037 17.835,31.01 12.583,36.77 
	12.583,57.821 17.835,63.613 17.835,67.823 9.417,59.403 9.417,35.22 17.835,26.8 17.835,1 41,1 "/>

<g class="dashed stroked">
	<line x1="18.912" y1="84.227" x2="39.923" y2="84.227"/>
	<line x1="18.912" y1="68.362" x2="39.923" y2="68.362"/>
</g>

<g class="stroked">
	<line x1="29.418" y1="38.892" x2="29.418" y2="36.77"/>
	<line x1="26.185" y1="39.531" x2="25.377" y2="37.578"/>
	<line x1="23.458" y1="41.351" x2="21.977" y2="39.868"/>
	<line x1="21.64" y1="44.079" x2="19.687" y2="43.271"/>
	<line x1="21" y1="47.312" x2="18.879" y2="47.312"/>
	<line x1="21.64" y1="50.546" x2="19.687" y2="51.354"/>
	<line x1="23.458" y1="53.273" x2="21.977" y2="54.755"/>
	<line x1="26.185" y1="55.093" x2="25.377" y2="57.046"/>
	<line x1="29.418" y1="55.732" x2="29.418" y2="57.854"/>
	<line x1="32.65" y1="55.093" x2="33.458" y2="57.046"/>
	<line x1="35.377" y1="53.273" x2="36.859" y2="54.755"/>
	<line x1="37.195" y1="50.546" x2="39.149" y2="51.354"/>
	<line x1="37.835" y1="47.312" x2="39.957" y2="47.312"/>
	<line x1="37.195" y1="44.079" x2="39.149" y2="43.271"/>
	<line x1="35.377" y1="41.351" x2="36.859" y2="39.868"/>
	<line x1="32.65" y1="39.531" x2="33.458" y2="37.578"/>
	<polyline points="24.165,32.56 17.835,26.261 25.209,26.261 17.835,1 "/>
	<polyline points="34.67,32.56 41,26.261 33.626,26.261 41,1 "/>
	<polyline points="41,1 41,101 
		17.835,101 17.835,84.159 8.374,84.159 8.374,90.458 13.626,90.458 13.626,101 1,101 1,90.458 6.286,90.458 6.286,82.037 
		17.835,82.037 17.835,67.823 9.417,59.403 9.417,35.22 17.835,26.8 17.835,1 41,1 "/>
	<polyline points="17.835,31.01 12.583,36.77 12.583,57.821 17.835,63.613 17.835,31.01 "/>
	<circle cx="29.418" cy="47.312" r="8.42"/>
</g>
</svg>
