<?xml version="1.0" encoding="utf-8"?>
<!-- Generator: Adobe Illustrator 15.1.0, SVG Export Plug-In . SVG Version: 6.00 Build 0)  -->
<!DOCTYPE svg PUBLIC "-//W3C//DTD SVG 1.1//EN" "http://www.w3.org/Graphics/SVG/1.1/DTD/svg11.dtd">
<svg version="1.1" id="Layer_1" xmlns="http://www.w3.org/2000/svg" preserveAspectRatio="none"   x="0px" y="0px"
	   viewBox="0 0 72 100" xml:space="preserve" xmlns:agg="http://www.example.com">

	 	 	   <agg:params>
	 	 	   	<agg:param type="C" name="color" description="Color" cssAttributes="fill" classes="color"/>
	 	 	   	<agg:param type="C" name="strokeColor" description="Stroke Color" cssAttributes="stroke" classes="color,stroked"/>
	 	 	   </agg:params>
	 
<style type="text/css" >
   <![CDATA[

	.color,.stroked,.dashed{
		stroke-width:1;
		stroke-linecap:round;
		stroke-linejoin:round;
		stroke: #000000;
	}
	
	.color {
		fill:   #A1BFE2;

	}
	
	.stroked,.dashed {
		fill:none;
	}
	
	.dashed {
		stroke-dasharray:1,2;
	}

      ]]>
</style>
	 
<g class="color">
	<polygon  points="58.543,99 58.543,94.883 71,94.883 71,99 58.543,99 	"/>
	<polygon  points="7.13,5.116 7.13,66.268 27.695,86.652 21.565,86.652 21.565,90.768 50.435,90.768 50.435,86.652 44.107,86.652 64.871,66.268 
		64.871,5.116 48.26,5.116 48.26,1 23.542,1 23.542,5.116 7.13,5.116 	"/>
	<polygon  points="1,99 1,94.883 13.26,94.883 13.26,99 1,99 	"/>
</g>
<g class="stroked">
	<line x1="27.695" y1="86.652" x2="44.107" y2="86.652"/>
	<line x1="23.542" y1="5.116" x2="48.26" y2="5.116"/>
	<polyline points="64.871,94.883 64.871,66.268 7.13,66.268 7.13,94.883"/>
</g>
</svg>
