<?xml version="1.0" encoding="utf-8"?>
<!-- Generator: Adobe Illustrator 15.1.0, SVG Export Plug-In . SVG Version: 6.00 Build 0)  -->
<!DOCTYPE svg PUBLIC "-//W3C//DTD SVG 1.1//EN" "http://www.w3.org/Graphics/SVG/1.1/DTD/svg11.dtd">
<svg version="1.1" id="Layer_1" xmlns="http://www.w3.org/2000/svg" preserveAspectRatio="none"   x="0px" y="0px"
	   viewBox="0 0 73 102" xmlns:agg="http://www.example.com" xml:space="preserve">
	 
<agg:params>
	<agg:param type="C" name="color" description="Color" cssAttributes="fill" classes="color"/>
	<agg:param type="C" name="strokeColor" description="Stroke Color" cssAttributes="stroke" classes="color,stroked"/>
</agg:params>

<style type="text/css" >
   <![CDATA[

	.color,.stroked,.dashed{
		stroke-width:1;
		stroke-linecap:round;
		stroke-linejoin:round;
		stroke: #000000;
	}
	
	.color {
		fill:   #A1BFE2;

	}
	
	.stroked,.dashed {
		fill:none;
	}
	
	.dashed {
		stroke-dasharray:4,4;
	}

      ]]>
</style>	
	 
	 
<path class="color" d="M72,51.05c0-12.461-6.425-23.414-16.138-29.749l3.487-7.809
	L72,13.458L71.9,1H1v12.492h12.551l3.468,7.886C7.372,27.724,1,38.64,1,51.05c0,12.418,6.38,23.34,16.037,29.684l-3.519,7.741H1
	v12.492h70.934L71.9,88.475H59.383l-3.455-7.718C65.604,74.416,72,63.482,72,51.05z"/>
	
<g class="stroked">	
	<line x1="5.173" y1="51" x2="67.762" y2="51"/>
	<line x1="14.319" y1="73.086" x2="58.582" y2="28.915"/>
	<line x1="36.45" y1="82.246" x2="36.45" y2="19.754"/>
	<line x1="58.582" y1="73.086" x2="14.319" y2="28.915"/>
</g>
</svg>
