<?xml version="1.0" encoding="utf-8"?>
<!-- Generator: Adobe Illustrator 15.1.0, SVG Export Plug-In . SVG Version: 6.00 Build 0)  -->
<!DOCTYPE svg PUBLIC "-//W3C//DTD SVG 1.1//EN" "http://www.w3.org/Graphics/SVG/1.1/DTD/svg11.dtd">
<svg version="1.1" id="Layer_1" xmlns="http://www.w3.org/2000/svg" preserveAspectRatio="none"   x="0px" y="0px"
	   viewBox="0 0 100 207" enable-background="new 0 0 100 207" xml:space="preserve" xmlns:agg="http://www.example.com">

	   <agg:params>
	   	<agg:param type="C" name="color" description="Color" cssAttributes="fill" classes="color"/>
	   	<agg:param type="C" name="strokeColor" description="Stroke Color" cssAttributes="stroke" classes="color,stroked"/>
	   </agg:params>
	 
<style type="text/css" >
   <![CDATA[

	.color,.stroked,.dashed{
		stroke-width:1;
		stroke-linecap:round;
		stroke-linejoin:round;
		stroke: #000000;
	}
	
	.color {
		fill:   #A1BFE2;

	}
	
	.stroked,.dashed {
		fill:none;
	}
	
	.dashed {
		stroke-dasharray:1,2;
	}

      ]]>
</style>
	 
<g class="color">
	<path d="M80.405,16.785v-5.262
		l5.303,2.665H99V1H85.708l-5.303,2.666h-5.234v2.596h-5.303V3.666H38.051v2.596H1v7.926h37.051v2.597l7.989,7.858v5.261H22.143
		v7.858H11.605v2.666h10.537L46.04,82.453h-0.099l-2.686,2.666l2.686,2.596l-2.686,2.665l2.686,2.598l-2.686,2.664l2.686,2.598
		l-2.686,2.663l2.686,2.598l-2.686,2.665l2.686,2.596h-7.89v2.666h7.89v5.261H22.044v2.598c0,35.988-0.218,56.853,9.942,72.518
		l-1.854,3.673h-7.989v2.598h-2.617v5.262h2.617V206h63.565v-2.665h2.687v-5.262h-2.687v-2.598h-7.92l-1.885-3.734
		c10.123-15.657,9.904-36.516,9.904-72.46v-2.594H61.85v-5.261h8.019v2.598h21.143v-7.859H69.868v2.596H61.85l2.617-2.596
		L61.85,103.5l2.617-2.598l-2.617-2.663l2.617-2.598l-2.617-2.664l2.617-2.598l-2.617-2.665l2.617-2.596l-2.617-2.666h0.099
		l23.76-42.025h10.605v-2.666H85.708v-7.858h-23.76v-5.261l7.92-7.858v-2.597h5.303v2.597H80.405z M24.729,119.285h21.212v13.118
		C36.607,132.157,29.22,127.527,24.729,119.285z M51.343,195.476H32.748l1.348-2.665l17.247-0.002V195.476z M56.646,195.476v-2.667
		l17.176-0.002l1.35,2.669H56.646z M83.12,119.285c-4.491,8.239-11.938,12.872-21.271,13.118v-13.118H83.12z"/>
	<polygon points="11.605,50.952 16.909,40.428 22.143,50.952 11.605,50.952"/>
	<polygon points="85.708,50.952 91.011,40.428 96.313,50.952 85.708,50.952"/>
</g>

<g class="stroked">
	<line x1="46.04" y1="103.5" x2="51.343" y2="103.5"/>
	<line x1="46.04" y1="98.239" x2="51.343" y2="98.239"/>
	<line x1="46.04" y1="92.978" x2="51.343" y2="92.978"/>
	<line x1="56.645" y1="103.5" x2="61.947" y2="103.5"/>
	<line x1="56.645" y1="98.239" x2="61.947" y2="98.239"/>
	<line x1="56.645" y1="92.978" x2="61.947" y2="92.978"/>
	<line x1="46.04" y1="87.715" x2="61.948" y2="87.715"/>
	<line fill-rule="evenodd" clip-rule="evenodd" x1="75.903" y1="191.741" x2="56.646" y2="153.452"/>
	<polyline points="56.646,158.713 56.646,158.713 73.821,192.807"/>
	<polyline points="51.343,108.721 51.343,90.38 56.646,90.38 56.646,108.721"/>
	<polyline points="34.096,192.811 32.748,195.476 51.343,158.713"/>
	<path d="M32.748,195.476"/>
	<line x1="51.343" y1="153.452" x2="31.986" y2="191.803"/>
	<line x1="22.143" y1="198.073" x2="85.708" y2="198.073"/>
	<line x1="19.525" y1="200.739" x2="88.395" y2="200.739"/>
	<line x1="22.143" y1="203.335" x2="85.708" y2="203.335"/>
	<polyline points="38.051,16.785 53.96,24.644 69.868,16.785"/>
	<line x1="38.051" y1="6.262" x2="38.051" y2="14.188"/>
	<line x1="69.868" y1="6.262" x2="69.868" y2="14.188"/>
	<line x1="75.171" y1="6.262" x2="75.171" y2="14.188"/>
	<line x1="80.405" y1="3.666" x2="80.405" y2="11.523"/>
	<line x1="46.04" y1="24.644" x2="61.948" y2="24.644"/>
	<line x1="46.04" y1="29.904" x2="61.948" y2="29.904"/>
	<line x1="22.143" y1="37.763" x2="85.708" y2="37.763"/>
	<line x1="46.04" y1="82.453" x2="61.948" y2="82.453"/>
	<line x1="45.941" y1="116.688" x2="61.85" y2="116.688"/>
	<line x1="45.941" y1="119.285" x2="61.85" y2="119.285"/>
	<line x1="24.729" y1="119.285" x2="22.044" y2="119.285"/>
	<line x1="83.12" y1="119.285" x2="85.808" y2="119.285"/>
	<line x1="51.343" y1="111.427" x2="51.343" y2="116.688"/>
	<line x1="56.646" y1="111.427" x2="56.646" y2="116.688"/>
	<line x1="51.343" y1="119.285" x2="51.343" y2="195.476"/>
	<line x1="56.646" y1="119.285" x2="56.646" y2="195.476"/>
	<line x1="45.941" y1="108.761" x2="61.85" y2="108.761"/>
	<line x1="45.941" y1="111.427" x2="61.85" y2="111.427"/>
	<line x1="30.131" y1="195.476" x2="32.748" y2="195.476"/>
	<line x1="75.171" y1="195.476" x2="77.788" y2="195.476"/>
	<line x1="22.143" y1="40.428" x2="85.708" y2="40.428"/>
</g>

</svg>
