<?xml version="1.0" encoding="utf-8"?>
<!-- Generator: Adobe Illustrator 15.1.0, SVG Export Plug-In . SVG Version: 6.00 Build 0)  -->
<!DOCTYPE svg PUBLIC "-//W3C//DTD SVG 1.1//EN" "http://www.w3.org/Graphics/SVG/1.1/DTD/svg11.dtd">
<svg version="1.1" xmlns="http://www.w3.org/2000/svg" preserveAspectRatio="none"  xmlns:xlink="http://www.w3.org/1999/xlink" x="0px" y="0px" 
	  xmlns:agg="http://www.example.com" xml:space="preserve">
	 
<agg:params>
	<agg:param type="C" name="color" description="Color" cssAttributes="fill" classes="color"/>
	<agg:param type="F" name="saturation" description="Saturation" min="0" max="1" cssAttributes="opacity" classes="color"/>
</agg:params>	
	 
<style type="text/css" >
   <![CDATA[

	.stroke,.thin,.thick{
		stroke-linecap:butt;
		stroke-linejoin:round;
		stroke: black;
		fill:none;
		opacity:0.5;
	}

	.stroke{stroke-width:0.5;}

	.thin {stroke-width:0.25;}

	.thick {stroke-width:0.75;}
	
	.color {
		fill:#3664BF;
		opacity:0.2;
	}

      ]]>
</style>
	 
<linearGradient id="SVGID_1_" gradientUnits="userSpaceOnUse" x1="58.5928" y1="91.4199" x2="38.0244" y2="55.7945">
	<stop  offset="0.0051" style="stop-color:#4C5B75"/>
	<stop  offset="0.1372" style="stop-color:#5D6B83"/>
	<stop  offset="0.3988" style="stop-color:#8A95A6"/>
	<stop  offset="0.4788" style="stop-color:#99A3B2"/>
	<stop  offset="0.503" style="stop-color:#ADB7C4"/>
	<stop  offset="0.9997" style="stop-color:#F6FAFC"/>
</linearGradient>
<polygon fill-rule="evenodd" clip-rule="evenodd" fill="url(#SVGID_1_)" points="47.149,50.526 49.469,50.526 49.469,96.688 
	47.149,96.688 47.149,50.526 	"/>
<linearGradient id="SVGID_2_" gradientUnits="userSpaceOnUse" x1="16.728" y1="91.4199" x2="-3.8403" y2="55.7945">
	<stop  offset="0.0051" style="stop-color:#4C5B75"/>
	<stop  offset="0.1372" style="stop-color:#5D6B83"/>
	<stop  offset="0.3988" style="stop-color:#8A95A6"/>
	<stop  offset="0.4788" style="stop-color:#99A3B2"/>
	<stop  offset="0.503" style="stop-color:#ADB7C4"/>
	<stop  offset="0.9997" style="stop-color:#F6FAFC"/>
</linearGradient>
<polygon fill-rule="evenodd" clip-rule="evenodd" fill="url(#SVGID_2_)" points="5.284,50.526 7.604,50.526 7.604,96.688 
	5.284,96.688 5.284,50.526 	"/>
<linearGradient id="SVGID_3_" gradientUnits="userSpaceOnUse" x1="65.501" y1="49.2266" x2="70.735" y2="54.4606">
	<stop  offset="0.0051" style="stop-color:#4C5B75"/>
	<stop  offset="0.0323" style="stop-color:#616F86"/>
	<stop  offset="0.098" style="stop-color:#8E99AA"/>
	<stop  offset="0.1641" style="stop-color:#B4BCC7"/>
	<stop  offset="0.2298" style="stop-color:#D1D7DE"/>
	<stop  offset="0.2946" style="stop-color:#E5EAEF"/>
	<stop  offset="0.3584" style="stop-color:#F2F6F9"/>
	<stop  offset="0.42" style="stop-color:#F6FAFC"/>
	<stop  offset="0.4744" style="stop-color:#F2F6F8"/>
	<stop  offset="0.5308" style="stop-color:#E6E9EC"/>
	<stop  offset="0.5882" style="stop-color:#D3D5D7"/>
	<stop  offset="0.6461" style="stop-color:#B7B8BB"/>
	<stop  offset="0.704" style="stop-color:#949396"/>
	<stop  offset="0.72" style="stop-color:#89878B"/>
	<stop  offset="1" style="stop-color:#F6FAFC"/>
</linearGradient>
<polygon fill-rule="evenodd" clip-rule="evenodd" fill="url(#SVGID_3_)" points="90.65,24.412 95.619,29.389 45.626,79.314 
	40.638,74.328 90.65,24.412 	"/>
<linearGradient id="SVGID_4_" gradientUnits="userSpaceOnUse" x1="105.5527" y1="9.5029" x2="110.7143" y2="14.6645">
	<stop  offset="0.0051" style="stop-color:#4C5B75"/>
	<stop  offset="0.0323" style="stop-color:#616F86"/>
	<stop  offset="0.098" style="stop-color:#8E99AA"/>
	<stop  offset="0.1641" style="stop-color:#B4BCC7"/>
	<stop  offset="0.2298" style="stop-color:#D1D7DE"/>
	<stop  offset="0.2946" style="stop-color:#E5EAEF"/>
	<stop  offset="0.3584" style="stop-color:#F2F6F9"/>
	<stop  offset="0.42" style="stop-color:#F6FAFC"/>
	<stop  offset="0.4744" style="stop-color:#F2F6F8"/>
	<stop  offset="0.5308" style="stop-color:#E6E9EC"/>
	<stop  offset="0.5882" style="stop-color:#D3D5D7"/>
	<stop  offset="0.6461" style="stop-color:#B7B8BB"/>
	<stop  offset="0.704" style="stop-color:#949396"/>
	<stop  offset="0.72" style="stop-color:#89878B"/>
	<stop  offset="1" style="stop-color:#F6FAFC"/>
</linearGradient>
<polygon fill-rule="evenodd" clip-rule="evenodd" fill="url(#SVGID_4_)" points="100.541,14.555 105.465,19.483 115.355,9.579 
	110.436,4.317 100.541,14.555 	"/>

<linearGradient id="SVGID_5_" gradientUnits="userSpaceOnUse" x1="109.5215" y1="1.915" x2="118.0931" y2="10.4866">
	<stop  offset="0.0051" style="stop-color:#4C5B75"/>
	<stop  offset="0.0323" style="stop-color:#616F86"/>
	<stop  offset="0.098" style="stop-color:#8E99AA"/>
	<stop  offset="0.1641" style="stop-color:#B4BCC7"/>
	<stop  offset="0.2298" style="stop-color:#D1D7DE"/>
	<stop  offset="0.2946" style="stop-color:#E5EAEF"/>
	<stop  offset="0.3584" style="stop-color:#F2F6F9"/>
	<stop  offset="0.42" style="stop-color:#F6FAFC"/>
	<stop  offset="0.4744" style="stop-color:#F2F6F8"/>
	<stop  offset="0.5308" style="stop-color:#E6E9EC"/>
	<stop  offset="0.5882" style="stop-color:#D3D5D7"/>
	<stop  offset="0.6461" style="stop-color:#B7B8BB"/>
	<stop  offset="0.704" style="stop-color:#949396"/>
	<stop  offset="0.72" style="stop-color:#89878B"/>
	<stop  offset="1" style="stop-color:#F6FAFC"/>
</linearGradient>
<polygon fill-rule="evenodd" clip-rule="evenodd" fill="url(#SVGID_5_)" points="110.436,1 119,9.579 117.014,11.237 
	108.777,2.658 110.436,1 	"/>
<linearGradient id="SVGID_6_" gradientUnits="userSpaceOnUse" x1="34.2515" y1="76.2754" x2="42.5242" y2="84.5481">
	<stop  offset="0.0051" style="stop-color:#4C5B75"/>
	<stop  offset="0.0323" style="stop-color:#616F86"/>
	<stop  offset="0.098" style="stop-color:#8E99AA"/>
	<stop  offset="0.1641" style="stop-color:#B4BCC7"/>
	<stop  offset="0.2298" style="stop-color:#D1D7DE"/>
	<stop  offset="0.2946" style="stop-color:#E5EAEF"/>
	<stop  offset="0.3584" style="stop-color:#F2F6F9"/>
	<stop  offset="0.42" style="stop-color:#F6FAFC"/>
	<stop  offset="0.4744" style="stop-color:#F2F6F8"/>
	<stop  offset="0.5308" style="stop-color:#E6E9EC"/>
	<stop  offset="0.5882" style="stop-color:#D3D5D7"/>
	<stop  offset="0.6461" style="stop-color:#B7B8BB"/>
	<stop  offset="0.704" style="stop-color:#949396"/>
	<stop  offset="0.72" style="stop-color:#89878B"/>
	<stop  offset="1" style="stop-color:#F6FAFC"/>
</linearGradient>
<polygon fill-rule="evenodd" clip-rule="evenodd" fill="url(#SVGID_6_)" points="35.601,69.293 45.626,79.314 37.178,87.537 
	27.365,77.588 35.601,69.293 	"/>
<linearGradient id="SVGID_7_" gradientUnits="userSpaceOnUse" x1="105.6973" y1="36.6602" x2="91.0999" y2="11.3767">
	<stop  offset="0.0051" style="stop-color:#4C5B75"/>
	<stop  offset="0.1372" style="stop-color:#5D6B83"/>
	<stop  offset="0.3988" style="stop-color:#8A95A6"/>
	<stop  offset="0.4788" style="stop-color:#99A3B2"/>
	<stop  offset="0.503" style="stop-color:#ADB7C4"/>
	<stop  offset="0.9997" style="stop-color:#F6FAFC"/>
</linearGradient>
<polygon fill-rule="evenodd" clip-rule="evenodd" fill="url(#SVGID_7_)" points="97.229,11.237 87.053,21.142 98.887,32.707 
	98.887,35.313 105.465,35.313 105.465,32.707 105.465,19.483 	"/>
<linearGradient id="SVGID_8_" gradientUnits="userSpaceOnUse" x1="41.8013" y1="77.6641" x2="20.4297" y2="40.6474">
	<stop  offset="0.0051" style="stop-color:#4C5B75"/>
	<stop  offset="0.1372" style="stop-color:#5D6B83"/>
	<stop  offset="0.3988" style="stop-color:#8A95A6"/>
	<stop  offset="0.4788" style="stop-color:#99A3B2"/>
	<stop  offset="0.503" style="stop-color:#ADB7C4"/>
	<stop  offset="0.9997" style="stop-color:#F6FAFC"/>
</linearGradient>
<polygon fill-rule="evenodd" clip-rule="evenodd" fill="url(#SVGID_8_)" points="31.672,83.512 23.104,83.512 3.319,54.791 
	3.319,50.526 51.408,50.526 51.408,54.791 31.672,83.512 	"/>
<linearGradient id="SVGID_9_" gradientUnits="userSpaceOnUse" x1="34.4585" y1="61.6523" x2="20.2705" y2="37.078">
	<stop  offset="0.0051" style="stop-color:#4C5B75"/>
	<stop  offset="0.1372" style="stop-color:#5D6B83"/>
	<stop  offset="0.3988" style="stop-color:#8A95A6"/>
	<stop  offset="0.4788" style="stop-color:#99A3B2"/>
	<stop  offset="0.503" style="stop-color:#ADB7C4"/>
	<stop  offset="0.9997" style="stop-color:#F6FAFC"/>
</linearGradient>
<polygon fill-rule="evenodd" clip-rule="evenodd" fill="url(#SVGID_9_)" points="1,48.204 53.729,48.204 53.729,50.526 1,50.526 
	1,48.204 	"/>
<linearGradient id="SVGID_10_" gradientUnits="userSpaceOnUse" x1="13.998" y1="95.4082" x2="-8.6855" y2="56.1191">
	<stop  offset="0.0051" style="stop-color:#4C5B75"/>
	<stop  offset="0.1372" style="stop-color:#5D6B83"/>
	<stop  offset="0.3988" style="stop-color:#8A95A6"/>
	<stop  offset="0.4788" style="stop-color:#99A3B2"/>
	<stop  offset="0.503" style="stop-color:#ADB7C4"/>
	<stop  offset="0.9997" style="stop-color:#F6FAFC"/>
</linearGradient>
<polygon fill-rule="evenodd" clip-rule="evenodd" fill="url(#SVGID_10_)" points="1,50.526 4.313,50.526 4.313,101 1,101 1,50.526 
		"/>
<linearGradient id="SVGID_11_" gradientUnits="userSpaceOnUse" x1="63.4326" y1="95.3984" x2="40.7598" y2="56.1279">
	<stop  offset="0.0051" style="stop-color:#4C5B75"/>
	<stop  offset="0.1372" style="stop-color:#5D6B83"/>
	<stop  offset="0.3988" style="stop-color:#8A95A6"/>
	<stop  offset="0.4788" style="stop-color:#99A3B2"/>
	<stop  offset="0.503" style="stop-color:#ADB7C4"/>
	<stop  offset="0.9997" style="stop-color:#F6FAFC"/>
</linearGradient>
<polygon fill-rule="evenodd" clip-rule="evenodd" fill="url(#SVGID_11_)" points="50.462,50.526 53.729,50.526 53.729,101 
	50.462,101 50.462,50.526 	"/>
<linearGradient id="SVGID_12_" gradientUnits="userSpaceOnUse" x1="29.1885" y1="86.4658" x2="25.5854" y2="80.2252">
	<stop  offset="0.0051" style="stop-color:#4C5B75"/>
	<stop  offset="0.1372" style="stop-color:#5D6B83"/>
	<stop  offset="0.3988" style="stop-color:#8A95A6"/>
	<stop  offset="0.4788" style="stop-color:#99A3B2"/>
	<stop  offset="0.503" style="stop-color:#ADB7C4"/>
	<stop  offset="0.9997" style="stop-color:#F6FAFC"/>
</linearGradient>
<polygon fill-rule="evenodd" clip-rule="evenodd" fill="url(#SVGID_12_)" points="22.189,82.186 32.584,82.186 32.584,84.506 
	22.189,84.506 22.189,82.186 	"/>
<linearGradient id="SVGID_13_" gradientUnits="userSpaceOnUse" x1="34.4585" y1="61.6523" x2="20.2705" y2="37.078">
	<stop  offset="0.0051" style="stop-color:#4C5B75"/>
	<stop  offset="0.1372" style="stop-color:#5D6B83"/>
	<stop  offset="0.3988" style="stop-color:#8A95A6"/>
	<stop  offset="0.4788" style="stop-color:#99A3B2"/>
	<stop  offset="0.503" style="stop-color:#ADB7C4"/>
	<stop  offset="0.9997" style="stop-color:#F6FAFC"/>
</linearGradient>

<rect x="1" y="48.204" fill-rule="evenodd" clip-rule="evenodd" fill="url(#SVGID_13_)"  />

<path class="color" d="M119,9.579L110.436,1l-1.658,1.658l1.625,1.693l-9.86,10.203l-3.313-3.317l-10.176,9.905l3.474,3.394
	L53.729,61.263V50.526v-2.322H1v2.322V101h3.313V56.234l0.971,1.409v39.044h2.32V61.012L22.19,82.186h-0.001v2.32h10.395v-1.627
	l4.594,4.658l8.448-8.223l-6.562-6.56l8.085-11.766v6.841l-6.511,6.498l4.988,4.986l1.523-1.521v18.894h2.32V75.477l0.993-0.991V101
	h3.267V71.223l41.827-41.771l3.331,3.255v2.606h6.578v-2.606V19.483l9.891-9.904l-2.478-2.65l4.136,4.308L119,9.579z M49.469,65.514
	v-7.901l0.993-1.444v8.355L49.469,65.514z"/>

<g class="stroke">

	<rect x="1" y="48.204"  />

	<polyline points="100.541,14.555 
	105.465,19.483 115.355,9.579 110.436,4.317 100.541,14.555 	"/>
	
	<polygon points="
	110.436,1 119,9.579 117.014,11.237 108.777,2.658 110.436,1 		"/>

	<polygon points="
	97.229,11.237 87.053,21.142 98.887,32.707 98.887,35.313 105.465,35.313 105.465,32.707 105.465,19.483 		"/>

	<line x1="4.289" y1="56.199" x2="22.189" y2="82.186"/>

	<line x1="32.584" y1="82.186" x2="50.44" y2="56.199"/>

	<rect x="22.189" y="82.186"  />
	<polyline points="7.58,60.977 7.58,96.688 
		5.307,96.688 5.307,57.677 		"/>
	
	<line x1="47.173" y1="67.875" x2="47.173" y2="60.954"/>
	<polyline points="49.445,75.331 49.445,96.688 
		47.173,96.688 47.173,77.592 		"/>
	
	<line x1="49.445" y1="57.677" x2="49.445" y2="65.537"/>

	<line x1="110.436" y1="4.317" x2="100.541" y2="14.555"/>

	<line x1="115.355" y1="9.579" x2="105.465" y2="19.483"/>

	<line x1="50.462" y1="64.522" x2="40.638" y2="74.328"/>

	<line x1="90.65" y1="24.412" x2="53.729" y2="61.263"/>
	<polyline points="50.462,74.319 37.178,87.537 
		32.584,82.186 		"/>
	
	<line x1="95.619" y1="29.389" x2="53.729" y2="71.069"/>
	
	<line x1="45.626" y1="79.314" x2="39.064" y2="72.755"/>

	
	<line x1="53.729" y1="61.263" x2="53.729" y2="50.526"/>

	<polyline points="
	50.462,50.526 50.462,101 53.729,101 53.729,61.263 		"/>

	<polyline points="
	1.023,50.526 1.023,101 4.289,101 4.289,50.526 		"/>
</g>

</svg>
