<?xml version="1.0" encoding="utf-8"?>
<!-- Generator: Adobe Illustrator 15.0.0, SVG Export Plug-In . SVG Version: 6.00 Build 0)  -->
<!DOCTYPE svg PUBLIC "-//W3C//DTD SVG 1.1//EN" "http://www.w3.org/Graphics/SVG/1.1/DTD/svg11.dtd">
<svg version="1.1" id="_x30_" xmlns:agg="http://www.example.com"
	 xmlns="http://www.w3.org/2000/svg" preserveAspectRatio="none"   x="0px" y="0px" 
	  viewBox="0 0 43.986 43.984" enable-background="new 0 0 43.986 43.984" xml:space="preserve">
<agg:params>
	<agg:param type="C" name="color" description="Color" cssAttributes="fill" classes="color"/>
	<agg:param type="C" name="strokeColor" description="Stroke Color" cssAttributes="stroke" classes="color,stroked"/>
</agg:params>
<style type="text/css" >
<![CDATA[

	.color,.stroked,.dashed{
		stroke-width:0.5;
		stroke-linecap:round;
		stroke-linejoin:round;
		stroke: #000000;
	}
	
	.color {
		fill:   #A1BFE2;

	}
	
	.stroked,.dashed{
		fill:none;
	}
	
	.dashed {
		stroke-dasharray:1.4173,1.4173;
	}

      ]]>
</style>
<path class="color" d="M26.178,41.639
	c-0.583,1.245-7.79,1.245-8.372,0C12.423,30.142,7.041,18.645,1.658,7.147C0.796,5.306,4.069,4.015,5.265,3.59
	c1.79-0.636,3.616-1.021,5.48-1.328c3.738-0.616,7.465-0.844,11.246-0.844c3.779,0,7.505,0.229,11.243,0.844
	c1.864,0.307,3.688,0.693,5.478,1.327c1.197,0.425,4.475,1.716,3.613,3.558C36.943,18.645,31.56,30.142,26.178,41.639z"/>
<path class="stroked" d="M42.326,7.147
	c-1.122,2.396-7.84,3.504-9.696,3.787c-3.538,0.539-7.066,0.747-10.638,0.747c-3.57,0-7.096-0.208-10.631-0.746
	c-1.857-0.283-8.582-1.392-9.703-3.788"/>
</svg>
