<?xml version="1.0" encoding="utf-8"?>
<!-- Generator: Adobe Illustrator 15.0.0, SVG Export Plug-In . SVG Version: 6.00 Build 0)  -->
<!DOCTYPE svg PUBLIC "-//W3C//DTD SVG 1.1//EN" "http://www.w3.org/Graphics/SVG/1.1/DTD/svg11.dtd">
<svg version="1.1" id="_x30_" xmlns:agg="http://www.example.com"
	 xmlns="http://www.w3.org/2000/svg" preserveAspectRatio="none"   x="0px" y="0px" 
	  viewBox="10.875 1.152 55.518 20.528" enable-background="new 10.875 1.152 55.518 20.528" xml:space="preserve"
	>
<agg:params>
	<agg:param type="C" name="color" description="Color" cssAttributes="fill" classes="color"/>
	<agg:param type="C" name="strokeColor" description="Stroke Color" cssAttributes="stroke" classes="color,stroked"/>
</agg:params>
<style type="text/css" >
   <![CDATA[

	.color,.stroked,.dashed{
		stroke-width:0.5;
		stroke-linecap:round;
		stroke-linejoin:round;
		stroke: #000000;
	}
	
	.color {
		fill:   #A1BFE2;

	}
	
	.stroked,.dashed{
		fill:none;
	}
	
	.dashed {
		stroke-dasharray:1.4173,1.4173;
	}

      ]]>
</style>
<rect class="color" x="12.293" y="2.569"  />
<g class="stroked">
	<circle cx="38.567" cy="9.374" r="3.913"/>
	<line x1="40.449" y1="5.943" x2="41.481" y2="11.984"/>
	<line x1="35.642" y1="11.984" x2="36.685" y2="5.943"/>
	<line x1="29.741" y1="2.569" x2="29.741" y2="20.262"/>
	<line x1="47.358" y1="2.569" x2="47.358" y2="20.262"/>
	<line x1="29.741" y1="15.84" x2="47.358" y2="15.84"/>
	<line x1="24.829" y1="12.267" x2="28.217" y2="12.267"/>
	<line x1="49.052" y1="12.267" x2="52.44" y2="12.267"/>
	<line x1="24.829" y1="10.054" x2="28.217" y2="10.054"/>
	<line x1="49.052" y1="10.054" x2="52.44" y2="10.054"/>
	<line x1="24.829" y1="11.246" x2="28.217" y2="11.246"/>
	<line x1="49.052" y1="11.246" x2="52.44" y2="11.246"/>
	<line x1="12.293" y1="2.569" x2="29.741" y2="20.262"/>
	<line x1="12.293" y1="20.262" x2="29.741" y2="2.569"/>
	<line x1="64.976" y1="2.569" x2="47.358" y2="20.262"/>
</g>
</svg>
