<?xml version="1.0" encoding="utf-8"?>
<!-- Generator: Adobe Illustrator 15.0.0, SVG Export Plug-In . SVG Version: 6.00 Build 0)  -->
<!DOCTYPE svg PUBLIC "-//W3C//DTD SVG 1.1//EN" "http://www.w3.org/Graphics/SVG/1.1/DTD/svg11.dtd">
<svg version="1.1" id="Default" xmlns="http://www.w3.org/2000/svg" preserveAspectRatio="none"  xmlns:agg="http://www.example.com"  x="0px" y="0px"
	   viewBox="4.678 43.276 60.344 26.054" enable-background="new 4.678 43.276 60.344 26.054"
	 xml:space="preserve">

<agg:params>
	<agg:param type="C" name="color" description="Color" cssAttributes="fill" classes="color"/>
	<agg:param type="C" name="strokeColor" description="Stroke Color" cssAttributes="stroke" classes="color,stroked"/>
</agg:params>	 
	 
<style type="text/css" >
   <![CDATA[

	.color,.stroked{
		stroke-width:0.5;
		stroke-linecap:round;
		stroke-linejoin:round;
		stroke: #000000;
	}
	
	.color {
		fill:   #A1BFE2;

	}
	
	.stroked {
		fill:none;
	}
      ]]>
</style>

<g class="color">
	<path d="M55.82,54.057
		c3.814,0,5.939,4.403,3.565,7.39c-0.132-0.218-0.264-0.441-0.4-0.659c-0.502,0.725-1.085,1.167-1.917,1.455
		c0.075,0.228,0.152,0.452,0.233,0.68c-1.03,0.349-1.927,0.349-2.957,0c0.081-0.228,0.157-0.452,0.233-0.68
		c-0.832-0.289-1.42-0.73-1.917-1.455c-0.137,0.218-0.269,0.441-0.406,0.659C49.886,58.46,52.011,54.057,55.82,54.057z"/>
	<path d="M59.386,61.447
		c0.832,1.354,1.659,2.703,2.485,4.063h-3.688c-0.294-0.862-0.588-1.729-0.882-2.586c-0.082-0.228-0.158-0.452-0.233-0.68
		c0.832-0.289,1.415-0.73,1.917-1.455C59.122,61.005,59.253,61.229,59.386,61.447z"/>
	<path d="M54.577,62.243
		c-0.076,0.228-0.152,0.452-0.233,0.68c-0.294,0.856-0.588,1.724-0.888,2.586h-3.683c0.827-1.359,1.654-2.708,2.48-4.063
		c0.137-0.218,0.269-0.441,0.406-0.659C53.157,61.513,53.745,61.954,54.577,62.243z"/>
	<polygon points="
		63.605,65.509 63.605,67.914 6.095,67.914 6.095,65.509 12.673,65.509 24.648,65.509 49.774,65.509 53.457,65.509 58.183,65.509 
		61.871,65.509 "/>
	<path d="M23.669,61.649
		c0.324,1.284,0.654,2.572,0.979,3.86H12.673c0.33-1.085,0.665-2.176,0.989-3.261c0.03-0.097,0.056-0.188,0.086-0.285
		c3.256,0.974,6.761,0.614,9.743-1.008C23.553,61.188,23.608,61.417,23.669,61.649z"/>
	<path d="M26.393,49.583
		c0.806,1.446,1.222,3.109,1.182,4.773c-0.036,1.659-0.533,3.317-1.43,4.716c-0.645,1.01-1.497,1.887-2.475,2.577
		c-0.061-0.234-0.117-0.461-0.178-0.694c-2.982,1.623-6.487,1.982-9.743,1.008c-0.03,0.097-0.056,0.188-0.086,0.285
		c-0.213-0.122-0.426-0.254-0.629-0.391c-1.364-0.928-2.439-2.247-3.266-3.688c-1.228,0-2.45,0-3.672,0V44.694
		c4.047,0,8.1,0,12.147,0c1.669,0.015,3.317,0.492,4.742,1.349C24.405,46.901,25.591,48.133,26.393,49.583z"/>
	<circle cx="55.822" cy="58.613" r="1.834"/>
	<circle cx="18.115" cy="54.691" r="2.911"/>
</g>

<g class="stroked">
	<line x1="55.684" y1="60.441" x2="17.897" y2="57.593"/>
	<line x1="18.499" y1="51.805" x2="56.063" y2="56.794"/>
	<line x1="52.911" y1="58.612" x2="58.733" y2="58.612"/>
	<line x1="55.822" y1="61.524" x2="55.822" y2="55.702"/>
	<line x1="18.115" y1="56.525" x2="18.115" y2="52.855"/>
	<line x1="21.785" y1="54.69" x2="22.987" y2="54.69"/>
	<line x1="13.245" y1="54.69" x2="14.446" y2="54.69"/>
	<line x1="18.115" y1="59.563" x2="18.115" y2="58.36"/>
	<line x1="18.115" y1="51.021" x2="18.115" y2="49.819"/>
	<line x1="16.281" y1="54.69" x2="19.887" y2="54.69"/>
</g>
</svg>
