<?xml version="1.0" encoding="utf-8"?>
<!-- Generator: Adobe Illustrator 15.0.0, SVG Export Plug-In . SVG Version: 6.00 Build 0)  -->
<!DOCTYPE svg PUBLIC "-//W3C//DTD SVG 1.1//EN" "http://www.w3.org/Graphics/SVG/1.1/DTD/svg11.dtd">
<svg version="1.1" id="_x30_" xmlns:agg="http://www.example.com"
	 xmlns="http://www.w3.org/2000/svg" preserveAspectRatio="none"   x="0px" y="0px" 
	  viewBox="0 0 43.984 43.986" enable-background="new 0 0 43.984 43.986" xml:space="preserve">
<agg:params>
	<agg:param type="C" name="color" description="Color" cssAttributes="fill" classes="color"/>
	<agg:param type="C" name="strokeColor" description="Stroke Color" cssAttributes="stroke" classes="color,stroked"/>
</agg:params>

<style type="text/css" >
   <![CDATA[

	.color,.stroked,.dashed{
		stroke-width:0.5;
		stroke-linecap:round;
		stroke-linejoin:round;
		stroke: #000000;
	}
	
	.color {
		fill:   #A1BFE2;

	}
	
	.stroked,.dashed{
		fill:none;
	}
	
	.dashed {
		stroke-dasharray:1.4173,1.4173;
	}

      ]]>
</style>

<path class="color" d="M10.385,41.416
	c7.633,0,15.266,0,22.9,0c0-8.339,0-16.679,0-25.018c0-6.323-5.128-11.449-11.451-11.449c-6.324,0-11.45,5.126-11.45,11.449
	C10.385,24.737,10.385,33.077,10.385,41.416z"/>
<path class="dashed stroked" d="M10.385,16.398
		c-0.001,6.323,5.126,11.45,11.45,11.45c6.323,0,11.451-5.126,11.451-11.45"/>
<path class="dashed stroked" d="M30.453,8.86
		c-4.561-3.903-11.362-3.62-15.584,0.648c-4.221,4.268-4.429,11.072-0.478,15.59"/>
<g class="stroked">
	<line x1="21.835" y1="7.231" x2="21.835" y2="2.569"/>
	<line x1="12.582" y1="16.398" x2="8.191" y2="16.398"/>
	<line x1="31.245" y1="16.398" x2="35.794" y2="16.398"/>
	<line x1="19.639" y1="16.398" x2="14.935" y2="16.398"/>
	<line x1="24.187" y1="16.398" x2="28.737" y2="16.398"/>
	<line x1="21.835" y1="14.067" x2="21.835" y2="9.406"/>
	<line x1="21.835" y1="18.574" x2="21.835" y2="23.391"/>
	<line x1="21.835" y1="36.91" x2="21.835" y2="41.416"/>
	<line x1="21.835" y1="27.897" x2="21.835" y2="32.558"/>
</g>
</svg>
