<?xml version="1.0" encoding="utf-8"?>
<!-- Generator: Adobe Illustrator 15.1.0, SVG Export Plug-In . SVG Version: 6.00 Build 0)  -->
<!DOCTYPE svg PUBLIC "-//W3C//DTD SVG 1.1//EN" "http://www.w3.org/Graphics/SVG/1.1/DTD/svg11.dtd">
<svg version="1.1" id="Layer_1" xmlns:agg="http://www.example.com"
	 xmlns="http://www.w3.org/2000/svg" preserveAspectRatio="none"   x="0px" y="0px" 
	  viewBox="0 14.007 43.984 29.979" enable-background="new 0 14.007 43.984 29.979" xml:space="preserve">
<agg:params>
	<agg:param type="C" name="color" description="Color" cssAttributes="fill" classes="color"/>
	<agg:param type="C" name="strokeColor" description="Stroke Color" cssAttributes="stroke" classes="color,stroked"/>
</agg:params>
<style type="text/css" >
<![CDATA[

	.color,.stroked{
		stroke-width:0.5;
		stroke-linecap:round;
		stroke-linejoin:round;
		stroke: #000000;
	}
	
	.color {
		fill:   #A1BFE2;

	}
	
	.stroked{
		fill:none;
	}
	
	.black
	{
		fill: black;
	}
]]>
</style>
<g class="stroked">
	<line x1="27.024" y1="42.622" x2="16.846" y2="42.622"/>
	<line x1="16.846" y1="35.858" x2="27.024" y2="35.858"/>
	<line x1="16.846" y1="28.989" x2="27.024" y2="28.989"/>
	<line x1="18.488" y1="39.239" x2="25.383" y2="39.239"/>
	<line x1="18.488" y1="32.37" x2="25.383" y2="32.37"/>
	<line x1="18.488" y1="25.608" x2="25.383" y2="25.608"/>
</g>
<polyline class="color" points="
	32.168,22.228 27.024,22.228 27.024,22.228 27.024,42.621 42.015,42.621 42.454,41.776 42.015,40.93 42.454,40.086 42.015,39.241 
	42.454,38.395 42.015,37.551 42.454,36.705 42.015,35.86 42.454,35.015 42.015,34.17 42.454,33.325 42.015,32.479 42.454,31.635 
	42.015,30.79 42.454,29.944 42.015,29.099 35.559,29.099 35.559,22.228 32.168,22.228 "/>
<polygon class="color" points="
	1.417,28.989 1.855,28.144 1.417,27.299 1.855,26.454 1.417,25.608 1.855,24.763 1.417,23.919 1.855,23.073 1.417,22.228 
	16.846,22.228 16.846,42.621 16.846,42.621 8.202,42.621 8.202,28.989 "/>
<path class="color" d="
	M23.302,15.425l-0.107,3.313h-2.518l-0.106-3.313c-5.003,0.449-8.867,3.319-8.867,6.803h20.464
	C32.168,18.744,28.304,15.874,23.302,15.425z"/>
</svg>
