<?xml version="1.0" encoding="utf-8"?>
<!-- Generator: Adobe Illustrator 15.1.0, SVG Export Plug-In . SVG Version: 6.00 Build 0)  -->
<!DOCTYPE svg PUBLIC "-//W3C//DTD SVG 1.1//EN" "http://www.w3.org/Graphics/SVG/1.1/DTD/svg11.dtd">
<svg version="1.1" id="_x30_" xmlns:agg="http://www.example.com"
	 xmlns="http://www.w3.org/2000/svg" preserveAspectRatio="none"   x="0px" y="0px" 
	  viewBox="0 0 43.984 43.986" enable-background="new 0 0 43.984 43.986" xml:space="preserve">
<agg:params>
	<agg:param type="C" name="color" description="Color" cssAttributes="fill" classes="color"/>
	<agg:param  type="C" classes="color,stroked" name="strokeColor" description="Stroke Color" cssAttributes="stroke"/>
</agg:params>
<style type="text/css" >
<![CDATA[

	.color,.stroked,.dashed{
		stroke-width:0.5;
		stroke-linecap:round;
		stroke-linejoin:round;
		stroke: #000000;
	}
	
	.color {
		fill:   #A1BFE2;

	}
	
	.stroked,.dashed{
		fill:none;
	}
	
	.dashed {
		stroke-dasharray:1.4173,1.4173;
	}

      ]]>
</style>
<g class="stroked">
	<polyline points="12.743,29.177 5.56,21.992 12.758,14.795 "/>
	<polyline points="29.191,31.227 21.992,38.426 14.779,31.212 "/>
	<polyline points="31.205,14.773 38.425,21.992 31.244,29.174 "/>
	<polyline points="14.778,12.774 21.992,5.559 29.176,12.743 "/>
	<line x1="1.419" y1="21.992" x2="5.56" y2="21.992"/>
	<line x1="21.992" y1="5.559" x2="21.992" y2="1.417"/>
	<line x1="38.425" y1="21.992" x2="42.568" y2="21.992"/>
	<line x1="21.992" y1="38.426" x2="21.992" y2="42.567"/>
	<line x1="29.207" y1="16.848" x2="33.281" y2="12.707"/>
	<line x1="12.707" y1="33.281" x2="16.849" y2="29.139"/>
	<line x1="33.281" y1="31.211" x2="29.207" y2="27.135"/>
	<line x1="16.849" y1="14.777" x2="12.775" y2="10.703"/>
	<line x1="3.49" y1="25.063" x2="5.56" y2="25.063"/>
	<line x1="39.494" y1="23.994" x2="39.494" y2="26.065"/>
	<line x1="38.425" y1="25.063" x2="40.496" y2="25.063"/>
	<polygon points="10.704,31.211 14.778,27.135 14.778,31.211 10.704,31.211 "/>
	<polygon points="31.279,33.281 27.137,29.207 31.279,29.207 31.279,33.281 "/>
	<polygon points="27.137,14.777 31.279,10.635 31.279,14.777 27.137,14.777 "/>
	<polygon points="14.778,16.848 10.704,12.707 14.778,12.707 14.778,16.848 "/>
</g>
</svg>
