<?xml version="1.0" encoding="utf-8"?>
<!-- Generator: Adobe Illustrator 15.1.0, SVG Export Plug-In . SVG Version: 6.00 Build 0)  -->
<!DOCTYPE svg PUBLIC "-//W3C//DTD SVG 1.1//EN" "http://www.w3.org/Graphics/SVG/1.1/DTD/svg11.dtd">
<svg version="1.1" id="Layer_1" xmlns="http://www.w3.org/2000/svg" preserveAspectRatio="none"  x="0px" y="0px"
       viewBox="0 0 252 57">
	 
<style type="text/css" >
<![CDATA[

	.stroked,.color{
		stroke-width:0.1;
		stroke-linecap:round;
		stroke-linejoin:round;
		stroke:black;
	}
	
	.color {
		fill: #E5E5E5;
	}
	
	.stroked {
		fill:none;
	}
		]]>

</style>
	 
<polygon fill="#FAFAFA" points="31,13.5 31,9.5 29.5,9.5 29.5,1 28.5,1 28.5,9.5 27,9.5 
	27,13.5 25.5,13.5 25.5,18 11.5,18 11.5,22 10,22 10,24.5 6,24.5 6,37.5 32,37.5 32,18 32,13.5 "/>
<polyline class="stroked" points="32,18 32,13.5 31,13.5 31,9.5 29.5,9.5 29.5,1 28.5,1 28.5,9.5 27,9.5 27,13.5 25.5,13.5 25.5,18 "/>
<polygon opacity="0.03" points="6,30 32,21.5 32,37.5 6,37.5 6,32 "/>
<polygon opacity="0.03" points="6,31.5 32,23.5 32,37.5 6,37.5 6,32.5 "/>
<polygon opacity="0.03" points="6,34 32,25.5 32,37.5 6,37.5 6,34 "/>
<polyline class="stroked" points="10,24.5 10,22 11.5,22 11.5,18 32,18 32,37.5 6,37.5 6,24.5 10,24.5 "/>
<polygon fill="#333333" points="12.5,18 12.5,15.5 18,15.5 19,18 12.5,18 "/>
<path d="M9,32.5V31h20.5v1.5h-1V35H10v-2.5H9L9,32.5z M22,22h3.5v-1.5H22V22L22,22zM17.5,22H21v-1.5h-3.5V22L17.5,22z M13,22h3.5v-1.5H13V22L13,22z"/>
<polygon fill="#666666" points="227.5,36.5 246,36.5 246,35 227.5,35 227.5,36.5 "/>
<line class="stroked" x1="28.5" y1="9.5" x2="29.5" y2="9.5"/>
<line class="stroked" x1="27" y1="13.5" x2="31" y2="13.5"/>
<polygon fill="#333333" points="2.5,35 1,45.5 246,45.5 251,32.5 221.001,32.5 213.5,35 2.5,35 "/>
<path fill="#7F0000" d="M1,45.5L5,56h246c0,0-3.211-3.064-4-5.5s-1-5-1-5H1L1,45.5z"/>
<polygon fill="#FFFFFF" points="246,45.5 1,45.5 1.143,44.5 246.385,44.5 "/>
</svg>
