<?xml version="1.0" encoding="utf-8"?>
<!-- Generator: Adobe Illustrator 15.1.0, SVG Export Plug-In . SVG Version: 6.00 Build 0)  -->
<!DOCTYPE svg PUBLIC "-//W3C//DTD SVG 1.1//EN" "http://www.w3.org/Graphics/SVG/1.1/DTD/svg11.dtd">
<svg version="1.1" id="Layer_1" xmlns="http://www.w3.org/2000/svg" preserveAspectRatio="none"   x="0px" y="0px"
	   viewBox="0 0 52 42" xmlns:agg="http://www.example.com" xml:space="preserve">
	 
<agg:params>
	<agg:param type="C" name="color" description="Color" cssAttributes="fill" classes="color"/>
	<agg:param type="C" name="strokeColor" description="Stroke Color" cssAttributes="stroke" classes="color,stroked"/>
</agg:params>
	 
<style type="text/css" >
<![CDATA[

	.color,.stroked,.dashed{
		stroke-width:0.5;
		stroke-linecap:round;
		stroke-linejoin:round;
		stroke: #000000;
	}
	
	.color {
		fill:   #A1BFE2;

	}
	
	.stroked,.dashed{
		fill:none;
	}
	
	.dashed {
		stroke-dasharray:1.4173,1.4173;
	}
]]>
</style>
	 
<polygon class="color" points="6.306,37.007 6.145,36.528 5.18,35.41 4.537,34.451 4.215,33.334 3.894,32.216 3.572,33.334
	3.251,34.451 2.608,35.41 1.643,36.528 1.322,36.848 1.161,37.326 1,37.806 1,38.125 1.161,39.243 1.804,40.201 2.769,40.84 
	3.894,41 4.859,40.84 5.823,40.201 6.466,39.243 6.627,38.125 6.627,37.806 6.466,37.326 "/>
<path class="color" d="M36,1c-8.28,0-15,6.72-15,15c0,0.346,0.016,0.688,0.041,1.027L1.322,22.401l0.643,2.395L24.1,18.872
	c-0.222-0.921-0.35-1.88-0.35-2.872c0-6.77,5.49-12.25,12.25-12.25S48.25,9.23,48.25,16c0,1.77-0.37,3.45-1.05,4.96l-22.888,0.003
	L3.251,29.587l0.643,2.395l20.951-5.972C27.592,29.069,31.569,31,36,31c8.28,0,15-6.72,15-15S44.28,1,36,1z"/>
</svg>
