<?xml version="1.0" encoding="utf-8"?>
<!-- Generator: Adobe Illustrator 15.1.0, SVG Export Plug-In . SVG Version: 6.00 Build 0)  -->
<!DOCTYPE svg PUBLIC "-//W3C//DTD SVG 1.1//EN" "http://www.w3.org/Graphics/SVG/1.1/DTD/svg11.dtd">
<svg version="1.1" id="Layer_1" xmlns="http://www.w3.org/2000/svg" preserveAspectRatio="none"   x="0px" y="0px"
	   viewBox="0 0 60 35.836" xmlns:agg="http://www.example.com" xml:space="preserve">
	 
<agg:params>
	<agg:param type="C" name="color" description="Color" cssAttributes="fill" classes="color"/>
	<agg:param type="C" name="strokeColor" description="Stroke Color" cssAttributes="stroke" classes="color,stroked"/>
</agg:params>

<style type="text/css" >
<![CDATA[

	.color,.stroked,.dashed{
		stroke-width:0.5;
		stroke-linecap:round;
		stroke-linejoin:round;
		stroke: #000000;
	}
	
	.color {
		fill:   #A1BFE2;

	}
	
	.stroked,.dashed{
		fill:none;
	}
	
	.dashed {
		stroke-dasharray:1.4173,1.4173;
	}
]]>
</style>
	 
<polygon class="color" points="
	1,34.85 1,16.217 3.475,16.217 3.475,11.559 10.589,11.559 10.589,25.534 13.064,25.534 13.064,23.204 15.539,23.204 
	14.301,20.875 14.301,19.633 15.539,17.304 23.891,17.304 25.128,19.633 25.128,20.875 23.891,23.204 26.365,23.204 26.365,25.534 
	27.603,25.534 27.603,16.217 32.397,16.217 32.397,30.191 33.634,30.191 33.634,16.217 38.429,16.217 38.429,26.621 40.904,26.621 
	40.904,21.962 48.173,21.962 48.173,14.975 50.493,14.975 50.493,5.658 51.731,5.658 51.731,1 52.968,1 52.968,5.658 54.205,5.658 
	54.205,1 55.443,1 55.443,5.658 56.525,5.658 56.525,16.217 59,16.217 59,34.85 1,34.85 	"/>

</svg>
