<?xml version="1.0" encoding="utf-8"?>
<!-- Generator: Adobe Illustrator 15.1.0, SVG Export Plug-In . SVG Version: 6.00 Build 0)  -->
<!DOCTYPE svg PUBLIC "-//W3C//DTD SVG 1.1//EN" "http://www.w3.org/Graphics/SVG/1.1/DTD/svg11.dtd">
<svg version="1.1" id="Default" xmlns="http://www.w3.org/2000/svg" preserveAspectRatio="none"  x="0px" y="0px"
       viewBox="0 0 202 142">

<style type="text/css" >
<![CDATA[

	.stroked,.white{
		stroke-width:0.25;
		stroke-linecap:round;
		stroke-linejoin:round;
		fill:none;
	}
	
	.color {
		fill: #996633;
	}
	
	.stroked {
		stroke:black;
	}
	
	.white {
		stroke:white;
	}

		]]>
</style>
	 
<g class="stroked">
	<line x1="67.305" y1="114.756" x2="89.47" y2="114.756"/>
	<line x1="69.673" y1="95.201" x2="87.152" y2="95.201"/>
	<line x1="71.587" y1="80.356" x2="85.188" y2="80.356"/>
	<line x1="73.149" y1="68.603" x2="84.03" y2="68.603"/>
	<polygon points="92.997,141 70.026,114.756 87.152,95.201 73.905,80.357 84.03,68.603 		"/>
	<polygon points="66.55,141 89.47,114.756 72.393,95.201 85.188,80.357 75.466,68.603 		"/>
	<polygon points="90.276,141 67.306,114.756 84.835,95.201 71.588,80.357 81.712,68.603 		"/>
	<polygon points="64.182,141 87.152,114.756 69.673,95.201 82.871,80.357 73.149,68.603 		"/>
</g>
<g class="stroked">
	<line x1="10.383" y1="100.786" x2="43.831" y2="100.786"/>
	<line x1="13.867" y1="71" x2="39.999" y2="71"/>
	<line x1="16.555" y1="48.173" x2="37.311" y2="48.173"/>
	<polygon points="48.859,140.583 13.868,100.787 40,71 20.388,48.174 35.369,30.803 		"/>
	<polygon points="8.84,140.583 43.832,100.787 17.7,71 37.311,48.174 22.329,30.803 		"/>
	<line x1="18.497" y1="30.803" x2="35.369" y2="30.803"/>
	<polygon points="45.026,140.583 10.383,100.787 36.167,71 16.555,48.174 31.537,30.803 		"/>
	<polygon points="5.406,140.583 40,100.787 13.868,71 33.479,48.174 18.497,30.803 		"/>
</g>
<g class="stroked">
	<line x1="160.607" y1="126.104" x2="166.615" y2="126.104"/>
	<line x1="161.384" y1="120.896" x2="165.785" y2="120.896"/>
	<line x1="161.789" y1="117.25" x2="165.423" y2="117.25"/>
	<polygon points="168.22,141 160.607,132.562 166.615,126.104 162.212,120.895 165.423,117.25 		"/>
	<polygon points="159.779,141 167.391,132.562 161.383,126.104 165.786,120.895 162.576,117.25 		"/>
	<polygon points="167.391,141 159.779,132.562 165.786,126.104 161.384,120.895 164.595,117.25 		"/>
	<polygon points="159.002,141 166.614,132.562 160.606,126.104 165.009,120.895 161.798,117.25 		"/>
</g>
<g class="stroked">
	<line x1="115.812" y1="124.906" x2="129.381" y2="124.906"/>
	<line x1="117.417" y1="112.459" x2="127.827" y2="112.459"/>
	<line x1="118.195" y1="103.188" x2="126.998" y2="103.188"/>
	<line x1="119.007" y1="95.949" x2="126.222" y2="95.949"/>
	<polygon points="131.399,141 117.418,124.906 127.827,112.459 119.8,103.188 126.222,95.949 		"/>
	<polygon points="114.984,141 129.38,124.906 118.609,112.459 126.998,103.188 120.577,95.949 		"/>
	<polygon points="129.795,141 115.812,124.906 126.584,112.459 118.195,103.188 124.616,95.949 		"/>
	<polygon points="113.793,141 127.827,124.906 117.417,112.459 125.393,103.188 119.023,95.949 		"/>
</g>
<polygon fill="#424242" points="4.173,3.004 2.196,6.21 1,1 	"/>
<path fill="#A8A8A8" d="M31.154,30.799C21.431,22.686,11.806,14.444,2.196,6.21l1.978-3.206L5.407,1
	c29.643,26.223,59.405,52.565,92.041,74.728c32.635,22.17,68.135,40.158,103.553,57.617l-1.166,2.042
	c-35.681-16.876-71.452-34.291-104.425-55.931C72.978,64.734,51.833,48.061,31.154,30.799z"/>
<path opacity="0.3" d="M96.432,77.595c32.801,21.898,68.437,39.606,103.982,56.778l-0.579,1.013
	c-35.681-16.876-71.452-34.291-104.425-55.931C72.978,64.734,51.833,48.061,31.154,30.799C21.431,22.686,11.806,14.444,2.196,6.21
	l1.602-2.602C33.65,29.589,63.624,55.69,96.432,77.595z"/>
	
</svg>
