<?xml version="1.0" encoding="utf-8"?>
<!-- Generator: Adobe Illustrator 15.1.0, SVG Export Plug-In . SVG Version: 6.00 Build 0)  -->
<!DOCTYPE svg PUBLIC "-//W3C//DTD SVG 1.1//EN" "http://www.w3.org/Graphics/SVG/1.1/DTD/svg11.dtd">
<svg version="1.1" id="Default" xmlns="http://www.w3.org/2000/svg" preserveAspectRatio="none"  x="0px" y="0px"
       viewBox="0 0 202 125">
	 
<style type="text/css" >
<![CDATA[

	.stroked,.color{
		stroke-width:0.25;
		stroke-linecap:round;
		stroke-linejoin:round;
		stroke:black;
	}
	
	.color {
		fill: #E5E5E5;
	}
	
	.stroked {
		fill:none;
	}
		]]>

</style>
	 
<g class="stroked">
	<polyline points="9.772,10.444 15.138,18.995 26.238,19.911 31.815,28.556 42.215,28.941 48.076,37.96 58.607,38.553 64.599,47.312 75,48.124 80.992,56.882 
		91.82,57.693 97.751,66.561 108.519,67.217 114.204,76.065 124.604,76.45 130.596,85.25 141.538,86.201 147.098,94.974 
		157.899,95.607 163.447,104.388 174.418,105.104 180.2,114.003 190.6,114.388"/>
	<polyline points="1,5.401 2.583,11.766 192.611,121.18 198.218,118.788 188.039,118.547 182.453,109.724 171.811,109.218 165.992,100.26 155.371,99.737 
		149.328,90.68 138.599,90.035 132.992,81.277 122.212,80.646 116.658,71.896 105.815,71.28 100.314,62.5 89.38,61.71 
		83.388,52.909 72.988,52.097 66.996,43.339 56.211,42.526 50.799,34.032 39.564,33.059 34.276,24.533 23.383,23.771 17.744,15.027 
		7.305,14.484 1,5.401"/>
	<polyline points="74.186,116.78 64.984,96.444 64.984,94.436 74.186,74.484 74.186,72.476 64.984,52.097 74.186,52.097 64.984,72.476
		64.984,74.484 74.186,94.436 74.186,96.444 64.984,116.78"/>
</g>

<g class="color">
	<polygon points="3.396,1 200.615,114.814 198.218,118.788 1,5.401 3.396,1 	"/>
	<polygon points="63.401,43.339 64.984,43.339 64.984,124 63.401,124 63.401,43.339 	"/>
	<polygon points="74.186,43.339 75.77,43.339 75.77,124 74.186,124 74.186,43.339 	"/>
	<polygon points="74.186,50.516 74.186,52.097 64.984,52.097 64.984,50.516 74.186,50.516 	"/>
	<polygon points="74.186,72.476 74.186,74.484 64.984,74.484 64.984,72.476 74.186,72.476 	"/>
	<polygon points="74.186,94.436 74.186,96.444 64.984,96.444 64.984,94.436 74.186,94.436 	"/>
	<polygon points="74.186,116.78 74.186,118.403 64.984,118.403 64.984,116.78 74.186,116.78 	"/>
</g>
</svg>
