<?xml version="1.0" encoding="utf-8"?>
<!-- Generator: Adobe Illustrator 15.1.0, SVG Export Plug-In . SVG Version: 6.00 Build 0)  -->
<!DOCTYPE svg PUBLIC "-//W3C//DTD SVG 1.1//EN" "http://www.w3.org/Graphics/SVG/1.1/DTD/svg11.dtd">
<svg version="1.1" id="Layer_1" xmlns="http://www.w3.org/2000/svg" preserveAspectRatio="none"  xmlns:xlink="http://www.w3.org/1999/xlink" x="0px" y="0px"
	   viewBox="0 0 102 102" xmlns:agg="http://www.example.com">

<agg:params>
	<agg:param type="C" name="color" description="Color" cssAttributes="fill" classes="color"/>
	<agg:param type="F" name="saturation" description="Saturation" min="0" max="1" cssAttributes="opacity" classes="color"/>
</agg:params>
	 
<style type="text/css" >
<![CDATA[

	.stroked,.color{
		stroke-width:0.3;
		stroke-linecap:round;
		stroke-linejoin:round;
		stroke:black;
	}
	
	.color {
		fill: #CCCC33;
	}
	
	.stroked {
		fill:none;
	}
		]]>

</style>
	 
<polygon class="color" points="101,55.587 97.389,49.997 97.389,49.008 92.963,45.425
	94.395,45.798 94.796,45.209 93.76,44.072 96.213,44.809 96.587,44.193 94.99,42.304 99.796,43.792 100.599,42.588 95.598,37.988 
	95.197,36.999 89.924,34.716 91.613,34.806 91.8,34.191 90.396,33.201 93.191,33.201 93.405,32.613 91.374,31.252 96.213,31.409 
	96.587,29.992 90.597,26.996 90.195,26.007 84.651,25.153 85.996,24.803 85.996,24.188 84.548,23.619 87.013,23.011 87.013,22.209 
	84.637,21.457 89.607,20.39 89.607,19 83,17.395 82.412,16.806 76.789,17.307 77.999,16.592 77.999,16.004 76.267,15.895 
	78.587,14.613 78.4,13.811 76.158,13.67 80.406,11.404 80.005,10.013 73.212,10.387 72.41,9.799 67.166,11.833 68.211,10.789 
	67.997,10.2 66.294,10.495 68.211,8.596 67.81,8.007 65.573,8.535 69.201,5.199 68.398,3.996 62.006,6.001 60.989,5.601 
	56.403,9.146 57.191,7.793 56.79,7.205 55.337,7.88 56.604,5.601 56.203,5.199 53.898,6.198 56.604,1.99 55.586,1 49.998,4.611 
	49.008,4.611 45.425,9.038 45.798,7.606 45.21,7.205 44.072,8.241 44.809,5.788 44.193,5.413 42.305,7.01 43.792,2.204 
	42.589,1.401 37.988,6.403 37,6.804 34.717,12.075 34.807,10.387 34.191,10.2 33.202,11.604 33.202,8.81 32.613,8.596 
	31.253,10.627 31.41,5.788 29.992,5.413 26.997,11.404 26.007,11.805 25.154,17.35 24.803,16.004 24.188,16.004 23.619,17.452 
	23.011,14.988 22.209,14.988 21.457,17.363 20.39,12.394 19,12.394 17.396,19 16.807,19.588 17.308,25.21 16.593,24 16.005,24 
	15.896,25.733 14.614,23.412 13.812,23.6 13.67,25.842 11.404,21.594 10.013,21.995 10.388,28.788 9.8,29.59 11.833,34.833 
	10.789,33.79 10.201,34.003 10.496,35.706 8.596,33.79 8.007,34.191 8.536,36.427 5.199,32.8 3.996,33.603 6.001,39.994 
	5.601,41.01 9.146,45.596 7.793,44.809 7.205,45.209 7.88,46.664 5.601,45.396 5.012,45.798 6.24,48.129 1.99,45.396 1,46.414 
	4.611,52.002 4.611,52.992 9.038,56.575 7.606,56.202 7.205,56.791 8.241,57.928 5.788,57.192 5.413,57.807 7.01,59.696 
	2.204,58.208 1.401,59.412 6.403,64.012 6.804,65.001 12.078,67.284 10.388,67.194 10.201,67.809 11.604,68.798 8.81,68.798 
	8.596,69.387 10.627,70.747 5.788,70.591 5.413,72.008 11.404,75.004 11.806,75.993 17.35,76.846 16.005,77.197 16.005,77.812 
	17.453,78.381 14.988,78.989 14.988,79.792 17.364,80.543 12.394,81.609 12.394,83 19,84.604 19.588,85.193 25.211,84.692 
	24.001,85.407 24.001,85.996 25.734,86.104 23.413,87.386 23.6,88.189 25.842,88.33 21.594,90.596 21.995,91.987 28.789,91.612 
	29.591,92.201 34.836,90.166 33.79,91.211 34.004,91.799 35.707,91.504 33.79,93.404 34.191,93.993 36.428,93.464 32.8,96.801 
	33.603,98.004 39.994,95.998 41.012,96.399 45.597,92.854 44.809,94.206 45.21,94.794 46.664,94.12 45.397,96.399 45.798,96.801 
	48.248,95.575 45.397,100.01 46.414,101 52.003,97.389 52.993,97.389 56.575,92.962 56.203,94.394 56.79,94.794 57.928,93.758 
	57.191,96.212 57.808,96.587 59.696,94.989 58.208,99.796 59.412,100.599 64.012,95.597 65.001,95.196 67.285,89.923 
	67.194,91.612 67.997,91.799 68.799,90.638 68.799,93.003 69.602,93.404 70.744,91.495 70.591,96.212 72.009,96.587 75.004,90.596 
	75.994,90.195 76.847,84.651 77.198,85.996 77.813,85.996 78.381,84.548 78.989,87.012 79.791,87.012 80.543,84.636 81.61,89.606 
	83,89.606 84.605,83 85.194,82.411 84.693,76.789 85.408,78 85.996,78 86.105,76.267 87.387,78.588 88.189,78.4 88.331,76.158 
	90.597,80.406 91.988,80.005 91.613,73.211 92.201,72.409 90.167,67.167 91.212,68.21 91.8,67.996 91.505,66.294 93.405,68.21 
	93.994,67.809 93.465,65.572 96.802,69.2 98.005,68.397 96,62.006 96.4,60.989 92.854,56.403 94.208,57.192 94.796,56.791 
	94.121,55.336 96.4,56.603 96.988,56.202 95.761,53.87 100.011,56.603 	"/>
<path opacity="0.5" d="M55.337,7.88l1.453-0.675l0.401,0.588l-0.789,1.353l-0.519,0.401c-0.346-0.042-0.695-0.072-1.043-0.105
	L54.598,9.21L55.337,7.88z M12.839,68.798c-0.227-0.484-0.447-0.972-0.655-1.468l-0.107-0.046l-1.69-0.09L10.2,67.809l1.405,0.989
	H12.839z M11.502,36.721c0.168-0.461,0.345-0.919,0.531-1.373l-0.2-0.514l-1.045-1.044L10.2,34.003l0.295,1.703L11.502,36.721z
	 M7.204,56.791l1.037,1.137l1.328,0.398c-0.086-0.501-0.167-1.004-0.235-1.511l-0.297-0.241l-1.431-0.373L7.204,56.791z
	 M85.996,24.188l-1.449-0.569L83,24v0.28c0.197,0.236,0.396,0.47,0.589,0.71v0l1.061,0.163l1.346-0.35V24.188z M43.722,9.857
	c0.397-0.069,0.795-0.138,1.197-0.194l0.506-0.625l0.373-1.431L45.21,7.205l-1.138,1.036l-0.467,1.559L43.722,9.857z
	 M66.294,10.495l-1.105,1.096l0.152,0.234c0.313,0.116,0.625,0.231,0.935,0.354l0.89-0.346l1.046-1.045L67.997,10.2L66.294,10.495z
	 M90.409,65.188l-0.088,0.058c-0.143,0.395-0.288,0.788-0.441,1.178l0.288,0.743l1.045,1.044l0.588-0.214l-0.295-1.702
	L90.409,65.188z M91.8,34.191l-1.405-0.99h-1.404l-0.09,0.386c0.131,0.285,0.267,0.567,0.392,0.855l0.63,0.273l1.689,0.09
	L91.8,34.191z M77.999,16.004l-1.732-0.109l-1.262,0.697l0.087,0.376c0.239,0.168,0.48,0.333,0.715,0.507v-0.081l0.982-0.088
	l1.21-0.715V16.004z M94.796,45.209l-1.037-1.137l-1.558-0.467l-0.094,0.187c0.066,0.364,0.134,0.726,0.189,1.094l0.667,0.54
	l1.431,0.373L94.796,45.209z M94.796,56.791l-0.675-1.454l-1.331-0.74l-0.201,0.209c-0.031,0.374-0.062,0.749-0.104,1.119
	l0.37,0.478l1.353,0.789L94.796,56.791z M56.849,92.623l-0.274,0.339l-0.373,1.432l0.587,0.401l1.137-1.036l0.415-1.382
	C57.848,92.466,57.35,92.551,56.849,92.623z M47.341,92.899c-0.534-0.045-1.064-0.099-1.593-0.163l-0.152,0.118l-0.788,1.352
	l0.401,0.588l1.454-0.675L47.341,92.899z M67.399,89.658l-0.115,0.265l-0.09,1.689l0.803,0.187l0.802-1.161v-1.618
	C68.336,89.24,67.871,89.455,67.399,89.658z M7.204,45.209l0.676,1.454l1.242,0.69c0.049-0.524,0.107-1.046,0.173-1.565
	l-0.149-0.193l-1.353-0.788L7.204,45.209z M16.614,26.991c0.248-0.354,0.499-0.707,0.758-1.052l-0.065-0.728L16.592,24h-0.588
	l-0.109,1.732l0.697,1.263L16.614,26.991z M85.279,75.034c-0.218,0.313-0.434,0.627-0.66,0.934l0.074,0.821L85.408,78h0.588
	l0.109-1.732l-0.697-1.263L85.279,75.034z M76.959,83.921l-0.113,0.73l0.351,1.345h0.615l0.568-1.448l-0.369-1.497
	C77.665,83.345,77.315,83.638,76.959,83.921z M26.845,85.49c-0.395-0.273-0.786-0.551-1.168-0.839l-0.465,0.041l-1.21,0.715v0.588
	l1.732,0.109L26.845,85.49z M16.004,77.812l1.449,0.569l1.287-0.317c-0.313-0.377-0.623-0.759-0.925-1.146l-0.465-0.072
	l-1.346,0.351V77.812z M25.03,18.15l0.124-0.801l-0.35-1.345h-0.616l-0.568,1.448l0.378,1.532
	C24.338,18.702,24.682,18.423,25.03,18.15z M34.514,12.542l0.202-0.466l0.089-1.689L34.19,10.2l-0.99,1.404v1.404l0.185,0.042
	C33.759,12.877,34.134,12.703,34.514,12.542z M35.706,91.504l0.937-0.928c-0.484-0.175-0.965-0.36-1.442-0.552l-0.366,0.142
	l-1.046,1.045l0.214,0.588L35.706,91.504z"/>
<path opacity="0.25" d="M12.394,70.805l-1.767-0.058l-2.031-1.36l0.214-0.589h4.03c0.26,0.553,0.529,1.101,0.81,1.642l-0.24-0.037
	L12.394,70.805z M19.588,79.39l0.28-0.025c-0.387-0.424-0.761-0.86-1.128-1.302l-3.751,0.926v0.802l2.376,0.752L19,80.192
	L19.588,79.39z M52.993,8.81l-0.376,0.472c0.747,0.031,1.487,0.09,2.224,0.161L54.598,9.21l2.006-3.61l-0.401-0.401l-2.304,0.999
	l-0.905,1.409V8.81z M73.988,15.389l-0.791,0.308c0.643,0.407,1.273,0.833,1.894,1.272l-0.087-0.376l3.583-1.979L78.4,13.811
	l-2.243-0.141l-1.769,0.943L73.988,15.389z M64.012,10.789l-0.542,0.384c0.631,0.199,1.253,0.422,1.872,0.652l-0.152-0.234
	l3.022-2.995L67.81,8.007l-2.236,0.528l-1.375,1.264L64.012,10.789z M37.988,91.211l0.167-0.118
	c-0.509-0.162-1.013-0.334-1.513-0.517l-2.853,2.828l0.401,0.588l2.236-0.529l1.375-1.263L37.988,91.211z M9.612,60l0.306,0.132
	c-0.131-0.597-0.246-1.2-0.35-1.806l-3.781-1.134l-0.375,0.615l1.597,1.889l1.586,0.491L9.612,60z M82.412,22.61l-0.808,0.072
	c0.48,0.519,0.942,1.056,1.396,1.599V24l4.012-0.99v-0.802l-2.376-0.752L83,21.808L82.412,22.61z M93.191,52.992l-0.464-0.37
	c-0.025,0.733-0.076,1.46-0.138,2.184l0.201-0.209l3.61,2.006l0.588-0.401L95.76,53.87l-1.366-0.878H93.191z M49.008,93.19
	l0.14-0.177c-0.606-0.024-1.208-0.064-1.806-0.115l-1.945,3.5l0.401,0.401l2.449-1.226l0.76-1.182V93.19z M28.013,86.61
	l0.322-0.125c-0.503-0.322-1-0.654-1.49-0.994l-3.432,1.896l0.187,0.803l2.243,0.141l1.77-0.944L28.013,86.61z M8.81,49.008
	l0.182,0.146c0.028-0.604,0.074-1.203,0.13-1.799l-3.522-1.958l-0.589,0.401l1.228,2.332l1.367,0.878H8.81z M41.814,8.596L42,9.612
	l-0.275,0.634c0.659-0.146,1.326-0.272,1.996-0.388l-0.117-0.058l1.204-4.012l-0.615-0.375L42.304,7.01L41.814,8.596z
	 M70.805,89.606l-0.401-1.017l0.063-0.405c-0.548,0.291-1.105,0.568-1.667,0.835v3.982l0.802,0.401l1.143-1.91L70.805,89.606z
	 M80.192,83l-0.802-0.589l-0.048-0.536c-0.435,0.402-0.879,0.792-1.33,1.176l0.977,3.961h0.802l0.752-2.375L80.192,83z
	 M92.201,64.199l-0.989-0.187l-0.318-0.449c-0.177,0.567-0.371,1.127-0.573,1.682l0.088-0.057l2.996,3.022l0.589-0.401
	l-0.529-2.237L92.201,64.199z M87.387,74.389l-0.776-0.401l-0.236-0.606c-0.352,0.561-0.72,1.11-1.096,1.653l0.128-0.03
	l1.979,3.584l0.802-0.188l0.141-2.243L87.387,74.389z M60.187,93.404L60,92.388l0.166-0.383c-0.604,0.136-1.211,0.259-1.824,0.371
	l-1.15,3.835l0.616,0.375l1.889-1.598L60.187,93.404z M88.591,31.597l-0.724-0.112c0.366,0.688,0.707,1.392,1.035,2.103l0.09-0.386
	h4.199l0.214-0.588l-2.031-1.36l-1.767-0.057L88.591,31.597z M92.389,42l-0.708-0.307c0.16,0.693,0.299,1.394,0.427,2.099
	l0.094-0.187l4.012,1.204l0.374-0.616l-1.597-1.889l-1.585-0.491L92.389,42z M31.196,12.394l0.401,1.016l-0.087,0.561
	c0.617-0.321,1.244-0.625,1.875-0.919l-0.184-0.042V8.81l-0.588-0.214l-1.361,2.031L31.196,12.394z M14.614,27.611l0.776,0.401
	l0.196,0.504c0.332-0.516,0.676-1.023,1.028-1.525l-0.021,0.005l-1.979-3.584L13.812,23.6l-0.141,2.243L14.614,27.611z M21.808,19
	l0.802,0.588l0.065,0.535c0.431-0.391,0.874-0.769,1.322-1.139l-0.986-3.997h-0.802l-0.752,2.375L21.808,19z M9.8,37.801
	l0.989,0.188l0.185,0.261c0.166-0.514,0.343-1.023,0.529-1.528L8.596,33.79l-0.589,0.401l0.529,2.236L9.8,37.801z"/>
<path opacity="0.7" d="M29.59,92.201l-0.802-0.588l-1.177-4.227l0.401-0.775L29.59,92.201
	L29.59,92.201z M19.588,85.193V79.39L19,80.192v4.413L19.588,85.193L19.588,85.193z M11.805,75.993l1.604-5.59l-1.016,0.401
	l-0.99,4.199L11.805,75.993L11.805,75.993z M65.001,95.196L60,92.388l0.188,1.016l3.825,2.193L65.001,95.196L65.001,95.196z
	 M52.993,97.389l-3.986-4.199v1.203l2.997,2.996H52.993L52.993,97.389z M41.011,96.399l-3.023-5.188l-0.187,0.989l2.192,3.797
	L41.011,96.399L41.011,96.399z M85.194,82.412H79.39L80.192,83h4.413L85.194,82.412L85.194,82.412z M75.994,90.195l-5.59-1.605
	l0.401,1.017l4.199,0.989L75.994,90.195L75.994,90.195z M92.201,72.409l-5.59,1.578l0.776,0.401l4.226-1.177L92.201,72.409
	L92.201,72.409z M97.389,49.008l-4.198,3.984h1.204l2.995-2.995V49.008L97.389,49.008z M96.4,60.989l-5.188,3.022l0.989,0.187
	L96,62.006L96.4,60.989L96.4,60.989z M90.195,26.007l-1.604,5.59l1.016-0.401l0.99-4.199L90.195,26.007L90.195,26.007z
	 M95.197,36.999L92.389,42l1.016-0.188l2.193-3.824L95.197,36.999L95.197,36.999z M82.412,16.806v5.804L83,21.808v-4.413
	L82.412,16.806L82.412,16.806z M72.41,9.799l1.578,5.59l0.401-0.776l-1.177-4.226L72.41,9.799L72.41,9.799z M49.007,4.611
	l3.986,4.199V7.606l-2.996-2.996H49.007L49.007,4.611z M60.989,5.601l3.022,5.188l0.187-0.989l-2.193-3.798L60.989,5.601
	L60.989,5.601z M36.999,6.804L42,9.612l-0.187-1.016l-3.825-2.193L36.999,6.804L36.999,6.804z M26.007,11.805l5.59,1.604
	l-0.401-1.016l-4.199-0.99L26.007,11.805L26.007,11.805z M16.807,19.588h5.803L21.808,19h-4.413L16.807,19.588L16.807,19.588z
	 M9.799,29.59l5.59-1.578l-0.776-0.401l-4.226,1.177L9.799,29.59L9.799,29.59z M5.6,41.01l5.188-3.022l-0.989-0.188l-3.798,2.193
	L5.6,41.01L5.6,41.01z M4.611,52.992l4.199-3.984H7.606l-2.995,2.995V52.992L4.611,52.992z M6.803,65.001L9.612,60l-1.016,0.187
	l-2.193,3.825L6.803,65.001L6.803,65.001z"/>
<path opacity="0.2" fill="#FFFFFF" d="M71.813,51c0-3.096-0.681-6.032-1.894-8.672
	l16.076-9.125l-0.99-1.792L68.975,40.51c-3.294-5.631-9.156-9.577-15.982-10.226V11.805h-2.006v18.382
	c-6.985,0.004-13.161,3.454-16.933,8.736l-15.856-9.333l-1.203,1.818l16.032,9.101c-1.802,3.081-2.84,6.663-2.84,10.489
	c0,3.097,0.682,6.032,1.894,8.673l-16.076,9.125l0.99,1.792l16.032-9.101c3.294,5.632,9.156,9.577,15.981,10.226v18.479h1.979
	V71.813c0.004,0,0.009,0,0.013,0c6.991,0,13.172-3.451,16.946-8.737l15.856,9.333l1.203-1.818L68.975,61.49
	C70.776,58.409,71.813,54.827,71.813,51z M51,69.601c-10.273,0-18.602-8.328-18.602-18.602c0-10.272,8.328-18.601,18.602-18.601
	S69.602,40.727,69.602,51C69.602,61.273,61.273,69.601,51,69.601z"/>
<circle opacity="0.5" stroke="#000000" stroke- fill="none" cx="51" cy="51" r="41.854"/>
<path opacity="0.3" d="M35.616,89.922c-1.903-0.752-3.736-1.64-5.491-2.652l3.975-6.809
	l3.498,2.066L35.616,89.922z M19.279,63.768l-1.047-3.911l-7.678,1.926c0.53,1.993,1.203,3.927,2.008,5.792L19.279,63.768z
	 M17.02,51.014H9.145c0.001,2.077,0.158,4.118,0.451,6.114l7.424-1.79V51.014z M23.604,71.592L21.538,67.9l-6.809,3.974
	c1.037,1.798,2.203,3.512,3.487,5.129L23.604,71.592z M17.02,46.276l1.212-4.132l-7.678-1.926
	c-0.507,1.905-0.878,3.864-1.112,5.865L17.02,46.276z M29.995,77.982l-3.085-2.892l-5.505,5.505c1.447,1.447,3,2.786,4.646,4.009
	L29.995,77.982z M24.017,29.995l2.892-3.085l-5.505-5.505c-1.447,1.447-2.786,3-4.009,4.646L24.017,29.995z M46.275,84.979
	l-4.132-1.212l-1.925,7.677c1.904,0.507,3.863,0.877,5.864,1.112L46.275,84.979z M77.983,72.004L75.09,75.09l5.504,5.505
	c1.447-1.446,2.787-3,4.01-4.646L77.983,72.004z M38.011,19.279l4.132-1.047l-1.925-7.677c-2.001,0.532-3.943,1.208-5.814,2.018
	L38.011,19.279z M19.471,37.598l2.066-3.498l-6.81-3.975c-1.012,1.754-1.899,3.588-2.652,5.491L19.471,37.598z M30.408,23.604
	l3.692-2.065l-3.975-6.809c-1.798,1.037-3.512,2.203-5.129,3.487L30.408,23.604z M82.527,64.402L80.461,67.9l6.81,3.974
	c1.012-1.754,1.899-3.588,2.652-5.491L82.527,64.402z M63.768,82.721l-3.912,1.047l1.925,7.677c1.994-0.53,3.928-1.203,5.793-2.008
	L63.768,82.721z M61.781,10.555c-1.905-0.506-3.863-0.877-5.864-1.112l-0.194,7.577l4.132,1.212L61.781,10.555z M71.591,78.396
	L67.9,80.462l3.974,6.809c1.798-1.037,3.512-2.203,5.129-3.487L71.591,78.396z M84.979,55.725l-1.212,4.132l7.679,1.926
	c0.506-1.905,0.878-3.864,1.112-5.865L84.979,55.725z M71.874,14.729c-1.754-1.012-3.588-1.899-5.491-2.652l-1.982,7.395
	l3.499,2.066L71.874,14.729z M84.979,51.014h7.875c0-0.005,0-0.01,0-0.015c0-2.082-0.157-4.127-0.451-6.127l-7.425,1.79V51.014z
	 M72.005,24.018l3.085,2.893l5.505-5.505c-1.447-1.447-3.001-2.786-4.646-4.009L72.005,24.018z M57.127,92.403l-1.789-7.423h-4.353
	v7.874c0.004,0,0.009,0,0.014,0C53.082,92.854,55.126,92.696,57.127,92.403z M50.986,17.021V9.146
	c-2.078,0.001-4.118,0.158-6.114,0.451l1.789,7.423H50.986z M82.72,38.231l1.046,3.912l7.679-1.926
	c-0.53-1.994-1.203-3.928-2.009-5.792L82.72,38.231z M78.396,30.408l2.065,3.692l6.811-3.975c-1.038-1.799-2.204-3.512-3.488-5.129
	L78.396,30.408z"/>

</svg>
