<?xml version="1.0" encoding="utf-8"?>
<!-- Generator: Adobe Illustrator 15.1.0, SVG Export Plug-In . SVG Version: 6.00 Build 0)  -->
<!DOCTYPE svg PUBLIC "-//W3C//DTD SVG 1.1//EN" "http://www.w3.org/Graphics/SVG/1.1/DTD/svg11.dtd">
<svg version="1.1" id="Layer_1" xmlns="http://www.w3.org/2000/svg" preserveAspectRatio="none"  x="0px" y="0px"
       viewBox="0 0 202 102" xmlns:agg="http://www.example.com">
	 
<agg:params>
	<agg:param type="C" name="color" description="Color" cssAttributes="fill" classes="color"/>
	<agg:param type="F" name="saturation" description="Saturation" min="0" max="1" cssAttributes="opacity" classes="color"/>
</agg:params>	 

<style type="text/css" >
   <![CDATA[

	.stroke,.thin,.thick{
		stroke-linecap:butt;
		stroke-linejoin:round;
		stroke: black;
		fill:none;
	}

	.stroke{stroke-width:0.5;}

	.thin {stroke-width:0.25;}

	.thick {stroke-width:0.75;}
	
	.color {
		fill:#3664BF;
		opacity:0.2;
	}

      ]]>
</style>
	 
<g>
	<linearGradient id="SVGID_1_" gradientUnits="userSpaceOnUse" x1="154.0059" y1="2.5928" x2="162.4395" y2="2.5928">
		<stop  offset="0.0051" style="stop-color:#4C5B75"/>
		<stop  offset="0.0323" style="stop-color:#616F86"/>
		<stop  offset="0.098" style="stop-color:#8E99AA"/>
		<stop  offset="0.1641" style="stop-color:#B4BCC7"/>
		<stop  offset="0.2298" style="stop-color:#D1D7DE"/>
		<stop  offset="0.2946" style="stop-color:#E5EAEF"/>
		<stop  offset="0.3584" style="stop-color:#F2F6F9"/>
		<stop  offset="0.42" style="stop-color:#F6FAFC"/>
		<stop  offset="0.4744" style="stop-color:#F2F6F8"/>
		<stop  offset="0.5308" style="stop-color:#E6E9EC"/>
		<stop  offset="0.5882" style="stop-color:#D3D5D7"/>
		<stop  offset="0.6461" style="stop-color:#B7B8BB"/>
		<stop  offset="0.704" style="stop-color:#949396"/>
		<stop  offset="0.72" style="stop-color:#89878B"/>
		<stop  offset="1" style="stop-color:#F6FAFC"/>
	</linearGradient>
	<polygon fill-rule="evenodd" clip-rule="evenodd" fill="url(#SVGID_1_)" points="154.006,1 162.439,1 162.439,4.185 154.006,4.185 
		154.006,1 	"/>
	<linearGradient id="SVGID_2_" gradientUnits="userSpaceOnUse" x1="74.8965" y1="2.5928" x2="83.3311" y2="2.5928">
		<stop  offset="0.0051" style="stop-color:#4C5B75"/>
		<stop  offset="0.0323" style="stop-color:#616F86"/>
		<stop  offset="0.098" style="stop-color:#8E99AA"/>
		<stop  offset="0.1641" style="stop-color:#B4BCC7"/>
		<stop  offset="0.2298" style="stop-color:#D1D7DE"/>
		<stop  offset="0.2946" style="stop-color:#E5EAEF"/>
		<stop  offset="0.3584" style="stop-color:#F2F6F9"/>
		<stop  offset="0.42" style="stop-color:#F6FAFC"/>
		<stop  offset="0.4744" style="stop-color:#F2F6F8"/>
		<stop  offset="0.5308" style="stop-color:#E6E9EC"/>
		<stop  offset="0.5882" style="stop-color:#D3D5D7"/>
		<stop  offset="0.6461" style="stop-color:#B7B8BB"/>
		<stop  offset="0.704" style="stop-color:#949396"/>
		<stop  offset="0.72" style="stop-color:#89878B"/>
		<stop  offset="1" style="stop-color:#F6FAFC"/>
	</linearGradient>
	<polygon fill-rule="evenodd" clip-rule="evenodd" fill="url(#SVGID_2_)" points="74.896,1 83.331,1 83.331,4.185 74.896,4.185 
		74.896,1 	"/>
	<linearGradient id="SVGID_3_" gradientUnits="userSpaceOnUse" x1="115.4688" y1="2.5928" x2="123.9033" y2="2.5928">
		<stop  offset="0.0051" style="stop-color:#4C5B75"/>
		<stop  offset="0.0323" style="stop-color:#616F86"/>
		<stop  offset="0.098" style="stop-color:#8E99AA"/>
		<stop  offset="0.1641" style="stop-color:#B4BCC7"/>
		<stop  offset="0.2298" style="stop-color:#D1D7DE"/>
		<stop  offset="0.2946" style="stop-color:#E5EAEF"/>
		<stop  offset="0.3584" style="stop-color:#F2F6F9"/>
		<stop  offset="0.42" style="stop-color:#F6FAFC"/>
		<stop  offset="0.4744" style="stop-color:#F2F6F8"/>
		<stop  offset="0.5308" style="stop-color:#E6E9EC"/>
		<stop  offset="0.5882" style="stop-color:#D3D5D7"/>
		<stop  offset="0.6461" style="stop-color:#B7B8BB"/>
		<stop  offset="0.704" style="stop-color:#949396"/>
		<stop  offset="0.72" style="stop-color:#89878B"/>
		<stop  offset="1" style="stop-color:#F6FAFC"/>
	</linearGradient>
	<polygon fill-rule="evenodd" clip-rule="evenodd" fill="url(#SVGID_3_)" points="115.469,1 123.903,1 123.903,4.185 115.469,4.185 
		115.469,1 	"/>
	<linearGradient id="SVGID_4_" gradientUnits="userSpaceOnUse" x1="34.3252" y1="2.5928" x2="42.7593" y2="2.5928">
		<stop  offset="0.0051" style="stop-color:#4C5B75"/>
		<stop  offset="0.0323" style="stop-color:#616F86"/>
		<stop  offset="0.098" style="stop-color:#8E99AA"/>
		<stop  offset="0.1641" style="stop-color:#B4BCC7"/>
		<stop  offset="0.2298" style="stop-color:#D1D7DE"/>
		<stop  offset="0.2946" style="stop-color:#E5EAEF"/>
		<stop  offset="0.3584" style="stop-color:#F2F6F9"/>
		<stop  offset="0.42" style="stop-color:#F6FAFC"/>
		<stop  offset="0.4744" style="stop-color:#F2F6F8"/>
		<stop  offset="0.5308" style="stop-color:#E6E9EC"/>
		<stop  offset="0.5882" style="stop-color:#D3D5D7"/>
		<stop  offset="0.6461" style="stop-color:#B7B8BB"/>
		<stop  offset="0.704" style="stop-color:#949396"/>
		<stop  offset="0.72" style="stop-color:#89878B"/>
		<stop  offset="1" style="stop-color:#F6FAFC"/>
	</linearGradient>
	<polygon fill-rule="evenodd" clip-rule="evenodd" fill="url(#SVGID_4_)" points="34.325,1 42.759,1 42.759,4.185 34.325,4.185 
		34.325,1 	"/>
	<linearGradient id="SVGID_5_" gradientUnits="userSpaceOnUse" x1="38.9507" y1="47.3359" x2="142.9507" y2="107.6689">
		<stop  offset="0.0051" style="stop-color:#4C5B75"/>
		<stop  offset="0.1592" style="stop-color:#5D6B83"/>
		<stop  offset="0.4643" style="stop-color:#8A95A6"/>
		<stop  offset="0.5576" style="stop-color:#99A3B2"/>
		<stop  offset="0.5636" style="stop-color:#AEB7C4"/>
		<stop  offset="0.9997" style="stop-color:#F6FAFC"/>
	</linearGradient>
	<polygon fill-rule="evenodd" clip-rule="evenodd" fill="url(#SVGID_5_)" points="56.365,68.074 137.485,68.074 137.485,93.863 
		56.365,93.863 56.365,68.074 	"/>
	<linearGradient id="SVGID_6_" gradientUnits="userSpaceOnUse" x1="101" y1="67.5" x2="101" y2="-60.816">
		<stop  offset="0.0051" style="stop-color:#4C5B75"/>
		<stop  offset="0.0323" style="stop-color:#616F86"/>
		<stop  offset="0.098" style="stop-color:#8E99AA"/>
		<stop  offset="0.1641" style="stop-color:#B4BCC7"/>
		<stop  offset="0.2298" style="stop-color:#D1D7DE"/>
		<stop  offset="0.2946" style="stop-color:#E5EAEF"/>
		<stop  offset="0.3584" style="stop-color:#F2F6F9"/>
		<stop  offset="0.42" style="stop-color:#F6FAFC"/>
		<stop  offset="0.4744" style="stop-color:#F2F6F8"/>
		<stop  offset="0.5308" style="stop-color:#E6E9EC"/>
		<stop  offset="0.5882" style="stop-color:#D3D5D7"/>
		<stop  offset="0.6461" style="stop-color:#B7B8BB"/>
		<stop  offset="0.704" style="stop-color:#949396"/>
		<stop  offset="0.72" style="stop-color:#89878B"/>
		<stop  offset="1" style="stop-color:#F6FAFC"/>
	</linearGradient>
	<polygon fill-rule="evenodd" clip-rule="evenodd" fill="url(#SVGID_6_)" points="1,35.124 201,35.124 201,39.099 192.565,39.099 
		180.108,68.074 17.457,68.074 1,47.432 1,35.124 	"/>
	
		<polygon fill-rule="evenodd" clip-rule="evenodd" fill="#4C4C4C" stroke="#000000" stroke- stroke-linecap="square" stroke-miterlimit="10" points="
		1,33.136 201,33.136 201,35.124 1,35.124 1,33.136 	"/>
	<linearGradient id="SVGID_7_" gradientUnits="userSpaceOnUse" x1="101" y1="4" x2="101" y2="126.5826">
		<stop  offset="0.0051" style="stop-color:#4C5B75"/>
		<stop  offset="0.0323" style="stop-color:#616F86"/>
		<stop  offset="0.098" style="stop-color:#8E99AA"/>
		<stop  offset="0.1641" style="stop-color:#B4BCC7"/>
		<stop  offset="0.2298" style="stop-color:#D1D7DE"/>
		<stop  offset="0.2946" style="stop-color:#E5EAEF"/>
		<stop  offset="0.3584" style="stop-color:#F2F6F9"/>
		<stop  offset="0.42" style="stop-color:#F6FAFC"/>
		<stop  offset="0.4744" style="stop-color:#F2F6F8"/>
		<stop  offset="0.5308" style="stop-color:#E6E9EC"/>
		<stop  offset="0.5882" style="stop-color:#D3D5D7"/>
		<stop  offset="0.6461" style="stop-color:#B7B8BB"/>
		<stop  offset="0.704" style="stop-color:#949396"/>
		<stop  offset="0.72" style="stop-color:#89878B"/>
		<stop  offset="1" style="stop-color:#F6FAFC"/>
	</linearGradient>
	<polygon fill-rule="evenodd" clip-rule="evenodd" fill="url(#SVGID_7_)" points="1,33.136 1,30.766 13.458,30.766 21.892,4.185 
		176.108,4.185 188.542,30.766 201,30.766 201,33.136 1,33.136 	"/>
	<linearGradient id="SVGID_8_" gradientUnits="userSpaceOnUse" x1="40.208" y1="61.0391" x2="72.2064" y2="81.372">
		<stop  offset="0.0051" style="stop-color:#4C5B75"/>
		<stop  offset="0.1592" style="stop-color:#5D6B83"/>
		<stop  offset="0.4643" style="stop-color:#8A95A6"/>
		<stop  offset="0.5576" style="stop-color:#99A3B2"/>
		<stop  offset="0.5636" style="stop-color:#AEB7C4"/>
		<stop  offset="0.9997" style="stop-color:#F6FAFC"/>
	</linearGradient>
	<polygon fill-rule="evenodd" clip-rule="evenodd" fill="url(#SVGID_8_)" points="47.131,68.074 51.153,78.371 63.587,78.371 
		67.61,68.074 47.131,68.074 	"/>
	<linearGradient id="SVGID_9_" gradientUnits="userSpaceOnUse" x1="119.5225" y1="61.0391" x2="151.5225" y2="81.373">
		<stop  offset="0.0051" style="stop-color:#4C5B75"/>
		<stop  offset="0.1592" style="stop-color:#5D6B83"/>
		<stop  offset="0.4643" style="stop-color:#8A95A6"/>
		<stop  offset="0.5576" style="stop-color:#99A3B2"/>
		<stop  offset="0.5636" style="stop-color:#AEB7C4"/>
		<stop  offset="0.9997" style="stop-color:#F6FAFC"/>
	</linearGradient>
	<polygon fill-rule="evenodd" clip-rule="evenodd" fill="url(#SVGID_9_)" points="126.445,68.074 130.468,78.371 142.901,78.371 
		146.925,68.074 126.445,68.074 	"/>
</g>
<g>
	<linearGradient id="SVGID_10_" gradientUnits="userSpaceOnUse" x1="30.7563" y1="16.5728" x2="44.7563" y2="29.9063">
		<stop  offset="0.0051" style="stop-color:#4C5B75"/>
		<stop  offset="0.1592" style="stop-color:#5D6B83"/>
		<stop  offset="0.4643" style="stop-color:#8A95A6"/>
		<stop  offset="0.5576" style="stop-color:#99A3B2"/>
		<stop  offset="0.5636" style="stop-color:#AEB7C4"/>
		<stop  offset="0.9997" style="stop-color:#F6FAFC"/>
	</linearGradient>
	<circle fill-rule="evenodd" clip-rule="evenodd" fill="url(#SVGID_10_)" cx="38.554" cy="24" r="5.185"/>
	<linearGradient id="SVGID_11_" gradientUnits="userSpaceOnUse" x1="93.207" y1="16.5728" x2="107.207" y2="29.9063">
		<stop  offset="0.0051" style="stop-color:#4C5B75"/>
		<stop  offset="0.1592" style="stop-color:#5D6B83"/>
		<stop  offset="0.4643" style="stop-color:#8A95A6"/>
		<stop  offset="0.5576" style="stop-color:#99A3B2"/>
		<stop  offset="0.5636" style="stop-color:#AEB7C4"/>
		<stop  offset="0.9997" style="stop-color:#F6FAFC"/>
	</linearGradient>
	<circle fill-rule="evenodd" clip-rule="evenodd" fill="url(#SVGID_11_)" cx="101.005" cy="24" r="5.185"/>
	<linearGradient id="SVGID_12_" gradientUnits="userSpaceOnUse" x1="155.6592" y1="16.5728" x2="169.6592" y2="29.9063">
		<stop  offset="0.0051" style="stop-color:#4C5B75"/>
		<stop  offset="0.1592" style="stop-color:#5D6B83"/>
		<stop  offset="0.4643" style="stop-color:#8A95A6"/>
		<stop  offset="0.5576" style="stop-color:#99A3B2"/>
		<stop  offset="0.5636" style="stop-color:#AEB7C4"/>
		<stop  offset="0.9997" style="stop-color:#F6FAFC"/>
	</linearGradient>
	<circle fill-rule="evenodd" clip-rule="evenodd" fill="url(#SVGID_12_)" cx="163.458" cy="24" r="5.185"/>
	<linearGradient id="SVGID_13_" gradientUnits="userSpaceOnUse" x1="12.1411" y1="42.104" x2="26.1424" y2="55.4388">
		<stop  offset="0.0051" style="stop-color:#4C5B75"/>
		<stop  offset="0.1592" style="stop-color:#5D6B83"/>
		<stop  offset="0.4643" style="stop-color:#8A95A6"/>
		<stop  offset="0.5576" style="stop-color:#99A3B2"/>
		<stop  offset="0.5636" style="stop-color:#AEB7C4"/>
		<stop  offset="0.9997" style="stop-color:#F6FAFC"/>
	</linearGradient>
	<circle fill-rule="evenodd" clip-rule="evenodd" fill="url(#SVGID_13_)" cx="19.941" cy="49.532" r="5.185"/>
	<linearGradient id="SVGID_14_" gradientUnits="userSpaceOnUse" x1="62.7178" y1="42.105" x2="76.7178" y2="55.4385">
		<stop  offset="0.0051" style="stop-color:#4C5B75"/>
		<stop  offset="0.1592" style="stop-color:#5D6B83"/>
		<stop  offset="0.4643" style="stop-color:#8A95A6"/>
		<stop  offset="0.5576" style="stop-color:#99A3B2"/>
		<stop  offset="0.5636" style="stop-color:#AEB7C4"/>
		<stop  offset="0.9997" style="stop-color:#F6FAFC"/>
	</linearGradient>
	<circle fill-rule="evenodd" clip-rule="evenodd" fill="url(#SVGID_14_)" cx="70.516" cy="49.532" r="5.185"/>
	<linearGradient id="SVGID_15_" gradientUnits="userSpaceOnUse" x1="113.2939" y1="42.1055" x2="127.2939" y2="55.439">
		<stop  offset="0.0051" style="stop-color:#4C5B75"/>
		<stop  offset="0.1592" style="stop-color:#5D6B83"/>
		<stop  offset="0.4643" style="stop-color:#8A95A6"/>
		<stop  offset="0.5576" style="stop-color:#99A3B2"/>
		<stop  offset="0.5636" style="stop-color:#AEB7C4"/>
		<stop  offset="0.9997" style="stop-color:#F6FAFC"/>
	</linearGradient>
	<circle fill-rule="evenodd" clip-rule="evenodd" fill="url(#SVGID_15_)" cx="121.092" cy="49.532" r="5.185"/>
	<linearGradient id="SVGID_16_" gradientUnits="userSpaceOnUse" x1="163.8691" y1="42.105" x2="177.8691" y2="55.4385">
		<stop  offset="0.0051" style="stop-color:#4C5B75"/>
		<stop  offset="0.1592" style="stop-color:#5D6B83"/>
		<stop  offset="0.4643" style="stop-color:#8A95A6"/>
		<stop  offset="0.5576" style="stop-color:#99A3B2"/>
		<stop  offset="0.5636" style="stop-color:#AEB7C4"/>
		<stop  offset="0.9997" style="stop-color:#F6FAFC"/>
	</linearGradient>
	<circle fill-rule="evenodd" clip-rule="evenodd" fill="url(#SVGID_16_)" cx="171.667" cy="49.532" r="5.185"/>
</g>
<g>
	<polygon fill-rule="evenodd" clip-rule="evenodd" fill="#7F7F7F" points="30.361,71.997 40.807,71.997 40.807,73.26 30.361,73.26 
		30.361,71.997 	"/>
	<polygon fill-rule="evenodd" clip-rule="evenodd" fill="#7F7F7F" points="30.361,84.121 40.807,84.121 40.807,85.384 
		30.361,85.384 30.361,84.121 	"/>
	<polygon fill-rule="evenodd" clip-rule="evenodd" fill="#999999" points="30.361,81.62 40.807,80.786 40.807,82.049 30.361,82.883 
		30.361,81.62 	"/>
	<polygon fill-rule="evenodd" clip-rule="evenodd" fill="#999999" points="30.361,78.286 40.807,77.453 40.807,79.118 
		30.361,79.952 30.361,78.286 	"/>
	<polygon fill-rule="evenodd" clip-rule="evenodd" fill="#999999" points="30.361,74.926 40.807,74.095 40.807,75.761 
		30.361,76.593 30.361,74.926 	"/>
	<linearGradient id="SVGID_17_" gradientUnits="userSpaceOnUse" x1="30.3608" y1="83.502" x2="40.8066" y2="83.502">
		<stop  offset="0.0051" style="stop-color:#4C5B75"/>
		<stop  offset="0.0323" style="stop-color:#616F86"/>
		<stop  offset="0.098" style="stop-color:#8E99AA"/>
		<stop  offset="0.1641" style="stop-color:#B4BCC7"/>
		<stop  offset="0.2298" style="stop-color:#D1D7DE"/>
		<stop  offset="0.2946" style="stop-color:#E5EAEF"/>
		<stop  offset="0.3584" style="stop-color:#F2F6F9"/>
		<stop  offset="0.42" style="stop-color:#F6FAFC"/>
		<stop  offset="0.4744" style="stop-color:#F2F6F8"/>
		<stop  offset="0.5308" style="stop-color:#E6E9EC"/>
		<stop  offset="0.5882" style="stop-color:#D3D5D7"/>
		<stop  offset="0.6461" style="stop-color:#B7B8BB"/>
		<stop  offset="0.704" style="stop-color:#949396"/>
		<stop  offset="0.72" style="stop-color:#89878B"/>
		<stop  offset="1" style="stop-color:#F6FAFC"/>
	</linearGradient>
	<polygon fill-rule="evenodd" clip-rule="evenodd" fill="url(#SVGID_17_)" points="30.361,81.62 40.807,83.716 40.807,85.384 
		30.361,83.312 30.361,81.62 	"/>
	<linearGradient id="SVGID_18_" gradientUnits="userSpaceOnUse" x1="30.3608" y1="80.168" x2="40.8066" y2="80.168">
		<stop  offset="0.0051" style="stop-color:#4C5B75"/>
		<stop  offset="0.0323" style="stop-color:#616F86"/>
		<stop  offset="0.098" style="stop-color:#8E99AA"/>
		<stop  offset="0.1641" style="stop-color:#B4BCC7"/>
		<stop  offset="0.2298" style="stop-color:#D1D7DE"/>
		<stop  offset="0.2946" style="stop-color:#E5EAEF"/>
		<stop  offset="0.3584" style="stop-color:#F2F6F9"/>
		<stop  offset="0.42" style="stop-color:#F6FAFC"/>
		<stop  offset="0.4744" style="stop-color:#F2F6F8"/>
		<stop  offset="0.5308" style="stop-color:#E6E9EC"/>
		<stop  offset="0.5882" style="stop-color:#D3D5D7"/>
		<stop  offset="0.6461" style="stop-color:#B7B8BB"/>
		<stop  offset="0.704" style="stop-color:#949396"/>
		<stop  offset="0.72" style="stop-color:#89878B"/>
		<stop  offset="1" style="stop-color:#F6FAFC"/>
	</linearGradient>
	<polygon fill-rule="evenodd" clip-rule="evenodd" fill="url(#SVGID_18_)" points="30.361,78.286 40.807,80.786 40.807,82.049 
		30.361,79.952 30.361,78.286 	"/>
	<linearGradient id="SVGID_19_" gradientUnits="userSpaceOnUse" x1="30.3608" y1="77.2363" x2="40.8066" y2="77.2363">
		<stop  offset="0.0051" style="stop-color:#4C5B75"/>
		<stop  offset="0.0323" style="stop-color:#616F86"/>
		<stop  offset="0.098" style="stop-color:#8E99AA"/>
		<stop  offset="0.1641" style="stop-color:#B4BCC7"/>
		<stop  offset="0.2298" style="stop-color:#D1D7DE"/>
		<stop  offset="0.2946" style="stop-color:#E5EAEF"/>
		<stop  offset="0.3584" style="stop-color:#F2F6F9"/>
		<stop  offset="0.42" style="stop-color:#F6FAFC"/>
		<stop  offset="0.4744" style="stop-color:#F2F6F8"/>
		<stop  offset="0.5308" style="stop-color:#E6E9EC"/>
		<stop  offset="0.5882" style="stop-color:#D3D5D7"/>
		<stop  offset="0.6461" style="stop-color:#B7B8BB"/>
		<stop  offset="0.704" style="stop-color:#949396"/>
		<stop  offset="0.72" style="stop-color:#89878B"/>
		<stop  offset="1" style="stop-color:#F6FAFC"/>
	</linearGradient>
	<polygon fill-rule="evenodd" clip-rule="evenodd" fill="url(#SVGID_19_)" points="30.361,75.354 40.807,77.453 40.807,79.118 
		30.361,76.593 30.361,75.354 	"/>
	<linearGradient id="SVGID_20_" gradientUnits="userSpaceOnUse" x1="30.3608" y1="73.8789" x2="40.8066" y2="73.8789">
		<stop  offset="0.0051" style="stop-color:#4C5B75"/>
		<stop  offset="0.0323" style="stop-color:#616F86"/>
		<stop  offset="0.098" style="stop-color:#8E99AA"/>
		<stop  offset="0.1641" style="stop-color:#B4BCC7"/>
		<stop  offset="0.2298" style="stop-color:#D1D7DE"/>
		<stop  offset="0.2946" style="stop-color:#E5EAEF"/>
		<stop  offset="0.3584" style="stop-color:#F2F6F9"/>
		<stop  offset="0.42" style="stop-color:#F6FAFC"/>
		<stop  offset="0.4744" style="stop-color:#F2F6F8"/>
		<stop  offset="0.5308" style="stop-color:#E6E9EC"/>
		<stop  offset="0.5882" style="stop-color:#D3D5D7"/>
		<stop  offset="0.6461" style="stop-color:#B7B8BB"/>
		<stop  offset="0.704" style="stop-color:#949396"/>
		<stop  offset="0.72" style="stop-color:#89878B"/>
		<stop  offset="1" style="stop-color:#F6FAFC"/>
	</linearGradient>
	<polygon fill-rule="evenodd" clip-rule="evenodd" fill="url(#SVGID_20_)" points="30.361,71.997 40.807,74.095 40.807,75.761 
		30.361,73.688 30.361,71.997 	"/>
	<linearGradient id="SVGID_21_" gradientUnits="userSpaceOnUse" x1="22.0488" y1="96.7314" x2="47.6738" y2="91.7314">
		<stop  offset="0.0051" style="stop-color:#4C5B75"/>
		<stop  offset="0.0323" style="stop-color:#616F86"/>
		<stop  offset="0.098" style="stop-color:#8E99AA"/>
		<stop  offset="0.1641" style="stop-color:#B4BCC7"/>
		<stop  offset="0.2298" style="stop-color:#D1D7DE"/>
		<stop  offset="0.2946" style="stop-color:#E5EAEF"/>
		<stop  offset="0.3584" style="stop-color:#F2F6F9"/>
		<stop  offset="0.42" style="stop-color:#F6FAFC"/>
		<stop  offset="0.4744" style="stop-color:#F2F6F8"/>
		<stop  offset="0.5308" style="stop-color:#E6E9EC"/>
		<stop  offset="0.5882" style="stop-color:#D3D5D7"/>
		<stop  offset="0.6461" style="stop-color:#B7B8BB"/>
		<stop  offset="0.704" style="stop-color:#949396"/>
		<stop  offset="0.72" style="stop-color:#89878B"/>
		<stop  offset="1" style="stop-color:#F6FAFC"/>
	</linearGradient>
	<polygon fill-rule="evenodd" clip-rule="evenodd" fill="url(#SVGID_21_)" points="25.125,101 29.561,86.32 41.994,86.32 
		46.018,101 25.125,101 	"/>
	<linearGradient id="SVGID_22_" gradientUnits="userSpaceOnUse" x1="27.1372" y1="85.2207" x2="44.0059" y2="85.2207">
		<stop  offset="0.0051" style="stop-color:#4C5B75"/>
		<stop  offset="0.0323" style="stop-color:#616F86"/>
		<stop  offset="0.098" style="stop-color:#8E99AA"/>
		<stop  offset="0.1641" style="stop-color:#B4BCC7"/>
		<stop  offset="0.2298" style="stop-color:#D1D7DE"/>
		<stop  offset="0.2946" style="stop-color:#E5EAEF"/>
		<stop  offset="0.3584" style="stop-color:#F2F6F9"/>
		<stop  offset="0.42" style="stop-color:#F6FAFC"/>
		<stop  offset="0.4744" style="stop-color:#F2F6F8"/>
		<stop  offset="0.5308" style="stop-color:#E6E9EC"/>
		<stop  offset="0.5882" style="stop-color:#D3D5D7"/>
		<stop  offset="0.6461" style="stop-color:#B7B8BB"/>
		<stop  offset="0.704" style="stop-color:#949396"/>
		<stop  offset="0.72" style="stop-color:#89878B"/>
		<stop  offset="1" style="stop-color:#F6FAFC"/>
	</linearGradient>
	<polygon fill-rule="evenodd" clip-rule="evenodd" fill="url(#SVGID_22_)" points="27.137,84.121 44.006,84.121 44.006,86.32 
		27.137,86.32 27.137,84.121 	"/>
	<linearGradient id="SVGID_23_" gradientUnits="userSpaceOnUse" x1="27.1372" y1="72.248" x2="44.0059" y2="72.248">
		<stop  offset="0.0051" style="stop-color:#4C5B75"/>
		<stop  offset="0.0323" style="stop-color:#616F86"/>
		<stop  offset="0.098" style="stop-color:#8E99AA"/>
		<stop  offset="0.1641" style="stop-color:#B4BCC7"/>
		<stop  offset="0.2298" style="stop-color:#D1D7DE"/>
		<stop  offset="0.2946" style="stop-color:#E5EAEF"/>
		<stop  offset="0.3584" style="stop-color:#F2F6F9"/>
		<stop  offset="0.42" style="stop-color:#F6FAFC"/>
		<stop  offset="0.4744" style="stop-color:#F2F6F8"/>
		<stop  offset="0.5308" style="stop-color:#E6E9EC"/>
		<stop  offset="0.5882" style="stop-color:#D3D5D7"/>
		<stop  offset="0.6461" style="stop-color:#B7B8BB"/>
		<stop  offset="0.704" style="stop-color:#949396"/>
		<stop  offset="0.72" style="stop-color:#89878B"/>
		<stop  offset="1" style="stop-color:#F6FAFC"/>
	</linearGradient>
	<polygon fill-rule="evenodd" clip-rule="evenodd" fill="url(#SVGID_23_)" points="27.137,71.236 44.006,71.236 44.006,73.26 
		27.137,73.26 27.137,71.236 	"/>
	<linearGradient id="SVGID_24_" gradientUnits="userSpaceOnUse" x1="29.561" y1="60.3828" x2="42.0181" y2="60.3828">
		<stop  offset="0.0051" style="stop-color:#4C5B75"/>
		<stop  offset="0.0323" style="stop-color:#616F86"/>
		<stop  offset="0.098" style="stop-color:#8E99AA"/>
		<stop  offset="0.1641" style="stop-color:#B4BCC7"/>
		<stop  offset="0.2298" style="stop-color:#D1D7DE"/>
		<stop  offset="0.2946" style="stop-color:#E5EAEF"/>
		<stop  offset="0.3584" style="stop-color:#F2F6F9"/>
		<stop  offset="0.42" style="stop-color:#F6FAFC"/>
		<stop  offset="0.4744" style="stop-color:#F2F6F8"/>
		<stop  offset="0.5308" style="stop-color:#E6E9EC"/>
		<stop  offset="0.5882" style="stop-color:#D3D5D7"/>
		<stop  offset="0.6461" style="stop-color:#B7B8BB"/>
		<stop  offset="0.704" style="stop-color:#949396"/>
		<stop  offset="0.72" style="stop-color:#89878B"/>
		<stop  offset="1" style="stop-color:#F6FAFC"/>
	</linearGradient>
	<path fill-rule="evenodd" clip-rule="evenodd" fill="url(#SVGID_24_)" d="M42.018,58.543c0-4.976-2.789-9.011-6.229-9.011
		s-6.229,4.035-6.229,9.011v12.691h12.433C41.994,71.234,42.018,58.774,42.018,58.543z"/>
</g>
<g>
	<polygon fill-rule="evenodd" clip-rule="evenodd" fill="#7F7F7F" points="154.25,71.997 164.695,71.997 164.695,73.26 
		154.25,73.26 154.25,71.997 	"/>
	<polygon fill-rule="evenodd" clip-rule="evenodd" fill="#7F7F7F" points="154.25,84.121 164.695,84.121 164.695,85.384 
		154.25,85.384 154.25,84.121 	"/>
	<polygon fill-rule="evenodd" clip-rule="evenodd" fill="#999999" points="154.25,81.62 164.695,80.786 164.695,82.049 
		154.25,82.883 154.25,81.62 	"/>
	<polygon fill-rule="evenodd" clip-rule="evenodd" fill="#999999" points="154.25,78.286 164.695,77.453 164.695,79.118 
		154.25,79.952 154.25,78.286 	"/>
	<polygon fill-rule="evenodd" clip-rule="evenodd" fill="#999999" points="154.25,74.926 164.695,74.095 164.695,75.761 
		154.25,76.593 154.25,74.926 	"/>
	<linearGradient id="SVGID_25_" gradientUnits="userSpaceOnUse" x1="154.25" y1="83.502" x2="164.6953" y2="83.502">
		<stop  offset="0.0051" style="stop-color:#4C5B75"/>
		<stop  offset="0.0323" style="stop-color:#616F86"/>
		<stop  offset="0.098" style="stop-color:#8E99AA"/>
		<stop  offset="0.1641" style="stop-color:#B4BCC7"/>
		<stop  offset="0.2298" style="stop-color:#D1D7DE"/>
		<stop  offset="0.2946" style="stop-color:#E5EAEF"/>
		<stop  offset="0.3584" style="stop-color:#F2F6F9"/>
		<stop  offset="0.42" style="stop-color:#F6FAFC"/>
		<stop  offset="0.4744" style="stop-color:#F2F6F8"/>
		<stop  offset="0.5308" style="stop-color:#E6E9EC"/>
		<stop  offset="0.5882" style="stop-color:#D3D5D7"/>
		<stop  offset="0.6461" style="stop-color:#B7B8BB"/>
		<stop  offset="0.704" style="stop-color:#949396"/>
		<stop  offset="0.72" style="stop-color:#89878B"/>
		<stop  offset="1" style="stop-color:#F6FAFC"/>
	</linearGradient>
	<polygon fill-rule="evenodd" clip-rule="evenodd" fill="url(#SVGID_25_)" points="154.25,81.62 164.695,83.716 164.695,85.384 
		154.25,83.312 154.25,81.62 	"/>
	<linearGradient id="SVGID_26_" gradientUnits="userSpaceOnUse" x1="154.25" y1="80.168" x2="164.6953" y2="80.168">
		<stop  offset="0.0051" style="stop-color:#4C5B75"/>
		<stop  offset="0.0323" style="stop-color:#616F86"/>
		<stop  offset="0.098" style="stop-color:#8E99AA"/>
		<stop  offset="0.1641" style="stop-color:#B4BCC7"/>
		<stop  offset="0.2298" style="stop-color:#D1D7DE"/>
		<stop  offset="0.2946" style="stop-color:#E5EAEF"/>
		<stop  offset="0.3584" style="stop-color:#F2F6F9"/>
		<stop  offset="0.42" style="stop-color:#F6FAFC"/>
		<stop  offset="0.4744" style="stop-color:#F2F6F8"/>
		<stop  offset="0.5308" style="stop-color:#E6E9EC"/>
		<stop  offset="0.5882" style="stop-color:#D3D5D7"/>
		<stop  offset="0.6461" style="stop-color:#B7B8BB"/>
		<stop  offset="0.704" style="stop-color:#949396"/>
		<stop  offset="0.72" style="stop-color:#89878B"/>
		<stop  offset="1" style="stop-color:#F6FAFC"/>
	</linearGradient>
	<polygon fill-rule="evenodd" clip-rule="evenodd" fill="url(#SVGID_26_)" points="154.25,78.286 164.695,80.786 164.695,82.049 
		154.25,79.952 154.25,78.286 	"/>
	<linearGradient id="SVGID_27_" gradientUnits="userSpaceOnUse" x1="154.25" y1="77.2363" x2="164.6953" y2="77.2363">
		<stop  offset="0.0051" style="stop-color:#4C5B75"/>
		<stop  offset="0.0323" style="stop-color:#616F86"/>
		<stop  offset="0.098" style="stop-color:#8E99AA"/>
		<stop  offset="0.1641" style="stop-color:#B4BCC7"/>
		<stop  offset="0.2298" style="stop-color:#D1D7DE"/>
		<stop  offset="0.2946" style="stop-color:#E5EAEF"/>
		<stop  offset="0.3584" style="stop-color:#F2F6F9"/>
		<stop  offset="0.42" style="stop-color:#F6FAFC"/>
		<stop  offset="0.4744" style="stop-color:#F2F6F8"/>
		<stop  offset="0.5308" style="stop-color:#E6E9EC"/>
		<stop  offset="0.5882" style="stop-color:#D3D5D7"/>
		<stop  offset="0.6461" style="stop-color:#B7B8BB"/>
		<stop  offset="0.704" style="stop-color:#949396"/>
		<stop  offset="0.72" style="stop-color:#89878B"/>
		<stop  offset="1" style="stop-color:#F6FAFC"/>
	</linearGradient>
	<polygon fill-rule="evenodd" clip-rule="evenodd" fill="url(#SVGID_27_)" points="154.25,75.354 164.695,77.453 164.695,79.118 
		154.25,76.593 154.25,75.354 	"/>
	<linearGradient id="SVGID_28_" gradientUnits="userSpaceOnUse" x1="154.25" y1="73.8789" x2="164.6953" y2="73.8789">
		<stop  offset="0.0051" style="stop-color:#4C5B75"/>
		<stop  offset="0.0323" style="stop-color:#616F86"/>
		<stop  offset="0.098" style="stop-color:#8E99AA"/>
		<stop  offset="0.1641" style="stop-color:#B4BCC7"/>
		<stop  offset="0.2298" style="stop-color:#D1D7DE"/>
		<stop  offset="0.2946" style="stop-color:#E5EAEF"/>
		<stop  offset="0.3584" style="stop-color:#F2F6F9"/>
		<stop  offset="0.42" style="stop-color:#F6FAFC"/>
		<stop  offset="0.4744" style="stop-color:#F2F6F8"/>
		<stop  offset="0.5308" style="stop-color:#E6E9EC"/>
		<stop  offset="0.5882" style="stop-color:#D3D5D7"/>
		<stop  offset="0.6461" style="stop-color:#B7B8BB"/>
		<stop  offset="0.704" style="stop-color:#949396"/>
		<stop  offset="0.72" style="stop-color:#89878B"/>
		<stop  offset="1" style="stop-color:#F6FAFC"/>
	</linearGradient>
	<polygon fill-rule="evenodd" clip-rule="evenodd" fill="url(#SVGID_28_)" points="154.25,71.997 164.695,74.095 164.695,75.761 
		154.25,73.688 154.25,71.997 	"/>
	<linearGradient id="SVGID_29_" gradientUnits="userSpaceOnUse" x1="145.9375" y1="96.7324" x2="171.5619" y2="91.7325">
		<stop  offset="0.0051" style="stop-color:#4C5B75"/>
		<stop  offset="0.0323" style="stop-color:#616F86"/>
		<stop  offset="0.098" style="stop-color:#8E99AA"/>
		<stop  offset="0.1641" style="stop-color:#B4BCC7"/>
		<stop  offset="0.2298" style="stop-color:#D1D7DE"/>
		<stop  offset="0.2946" style="stop-color:#E5EAEF"/>
		<stop  offset="0.3584" style="stop-color:#F2F6F9"/>
		<stop  offset="0.42" style="stop-color:#F6FAFC"/>
		<stop  offset="0.4744" style="stop-color:#F2F6F8"/>
		<stop  offset="0.5308" style="stop-color:#E6E9EC"/>
		<stop  offset="0.5882" style="stop-color:#D3D5D7"/>
		<stop  offset="0.6461" style="stop-color:#B7B8BB"/>
		<stop  offset="0.704" style="stop-color:#949396"/>
		<stop  offset="0.72" style="stop-color:#89878B"/>
		<stop  offset="1" style="stop-color:#F6FAFC"/>
	</linearGradient>
	<polygon fill-rule="evenodd" clip-rule="evenodd" fill="url(#SVGID_29_)" points="149.015,101 153.45,86.32 165.883,86.32 
		169.906,101 149.015,101 	"/>
	<linearGradient id="SVGID_30_" gradientUnits="userSpaceOnUse" x1="151.0264" y1="85.2207" x2="167.8945" y2="85.2207">
		<stop  offset="0.0051" style="stop-color:#4C5B75"/>
		<stop  offset="0.0323" style="stop-color:#616F86"/>
		<stop  offset="0.098" style="stop-color:#8E99AA"/>
		<stop  offset="0.1641" style="stop-color:#B4BCC7"/>
		<stop  offset="0.2298" style="stop-color:#D1D7DE"/>
		<stop  offset="0.2946" style="stop-color:#E5EAEF"/>
		<stop  offset="0.3584" style="stop-color:#F2F6F9"/>
		<stop  offset="0.42" style="stop-color:#F6FAFC"/>
		<stop  offset="0.4744" style="stop-color:#F2F6F8"/>
		<stop  offset="0.5308" style="stop-color:#E6E9EC"/>
		<stop  offset="0.5882" style="stop-color:#D3D5D7"/>
		<stop  offset="0.6461" style="stop-color:#B7B8BB"/>
		<stop  offset="0.704" style="stop-color:#949396"/>
		<stop  offset="0.72" style="stop-color:#89878B"/>
		<stop  offset="1" style="stop-color:#F6FAFC"/>
	</linearGradient>
	<polygon fill-rule="evenodd" clip-rule="evenodd" fill="url(#SVGID_30_)" points="151.026,84.121 167.895,84.121 167.895,86.32 
		151.026,86.32 151.026,84.121 	"/>
	<linearGradient id="SVGID_31_" gradientUnits="userSpaceOnUse" x1="151.0264" y1="72.248" x2="167.8945" y2="72.248">
		<stop  offset="0.0051" style="stop-color:#4C5B75"/>
		<stop  offset="0.0323" style="stop-color:#616F86"/>
		<stop  offset="0.098" style="stop-color:#8E99AA"/>
		<stop  offset="0.1641" style="stop-color:#B4BCC7"/>
		<stop  offset="0.2298" style="stop-color:#D1D7DE"/>
		<stop  offset="0.2946" style="stop-color:#E5EAEF"/>
		<stop  offset="0.3584" style="stop-color:#F2F6F9"/>
		<stop  offset="0.42" style="stop-color:#F6FAFC"/>
		<stop  offset="0.4744" style="stop-color:#F2F6F8"/>
		<stop  offset="0.5308" style="stop-color:#E6E9EC"/>
		<stop  offset="0.5882" style="stop-color:#D3D5D7"/>
		<stop  offset="0.6461" style="stop-color:#B7B8BB"/>
		<stop  offset="0.704" style="stop-color:#949396"/>
		<stop  offset="0.72" style="stop-color:#89878B"/>
		<stop  offset="1" style="stop-color:#F6FAFC"/>
	</linearGradient>
	<polygon fill-rule="evenodd" clip-rule="evenodd" fill="url(#SVGID_31_)" points="151.026,71.236 167.895,71.236 167.895,73.26 
		151.026,73.26 151.026,71.236 	"/>
	<linearGradient id="SVGID_32_" gradientUnits="userSpaceOnUse" x1="153.4502" y1="60.3828" x2="165.9072" y2="60.3828">
		<stop  offset="0.0051" style="stop-color:#4C5B75"/>
		<stop  offset="0.0323" style="stop-color:#616F86"/>
		<stop  offset="0.098" style="stop-color:#8E99AA"/>
		<stop  offset="0.1641" style="stop-color:#B4BCC7"/>
		<stop  offset="0.2298" style="stop-color:#D1D7DE"/>
		<stop  offset="0.2946" style="stop-color:#E5EAEF"/>
		<stop  offset="0.3584" style="stop-color:#F2F6F9"/>
		<stop  offset="0.42" style="stop-color:#F6FAFC"/>
		<stop  offset="0.4744" style="stop-color:#F2F6F8"/>
		<stop  offset="0.5308" style="stop-color:#E6E9EC"/>
		<stop  offset="0.5882" style="stop-color:#D3D5D7"/>
		<stop  offset="0.6461" style="stop-color:#B7B8BB"/>
		<stop  offset="0.704" style="stop-color:#949396"/>
		<stop  offset="0.72" style="stop-color:#89878B"/>
		<stop  offset="1" style="stop-color:#F6FAFC"/>
	</linearGradient>
	<path fill-rule="evenodd" clip-rule="evenodd" fill="url(#SVGID_32_)" d="M165.907,58.543c0-4.976-2.789-9.011-6.229-9.011
		s-6.229,4.035-6.229,9.011v12.691h12.433C165.883,71.234,165.907,58.774,165.907,58.543z"/>
</g>

<path class="color" d="M188.542,30.766L176.108,4.185h-13.669V1h-8.434v3.185h-30.103V1
	h-8.435v3.185H83.331V1h-8.435v3.185H42.759V1h-8.434v3.185H21.892l-8.434,26.581H1v2.37v1.987v0v12.308l16.457,20.643h12.104v3.16
	v0.002h-2.424v2.023h3.224v0.429l4.451,0.883l-4.451,0.354v0.429v1.238l5.267,1.273l-5.267,0.42v1.666l5.945,1.193l-5.945,0.475
	v1.263v0.429l4.081,0.81h-4.081h-3.224v2.199h2.424L25.125,101h20.892l-4.023-14.68h2.012v-2.199h-3.199v-0.405l-5.943-1.192
	l5.943-0.475v-1.263l-5.225-1.251l5.225-0.417v-1.665l-6.032-1.212l6.032-0.48v-1.666l-4.158-0.835h4.158h3.199v-2.023h-2.011
	c0.001-0.6,0.002-1.39,0.003-2.185c0-0.305,0.001-0.632,0.001-0.978h5.131l4.022,10.297h5.212v15.492h81.12V78.371h5.416
	l4.023-10.297h6.525v3.16v0.002h-2.424v2.023h3.224v0.429l4.45,0.883l-4.45,0.354v0.429v1.238l5.267,1.273l-5.267,0.42v1.666
	l5.945,1.193l-5.945,0.475v1.263v0.429l4.081,0.81h-4.081h-3.224v2.199h2.424L149.015,101h20.892l-4.023-14.68h2.012v-2.199h-3.199
	v-0.405l-5.943-1.192l5.943-0.475v-1.263l-5.225-1.251l5.225-0.417v-1.665l-6.032-1.212l6.032-0.48v-1.666l-4.158-0.835h4.158h3.199
	v-2.023h-2.011c0.001-0.646,0.002-1.517,0.004-2.371c0-0.25,0.001-0.517,0.001-0.791h14.22L192.565,39.1H201v0v-3.976v0v-1.987
	v-2.37H188.542z"/>

<g class="stroke">
	<polyline points="29.561,66.086 18.668,66.086 3.011,46.235 3.011,37.111 96.977,37.111 96.977,66.086"/>
	<line x1="96.977" y1="66.086" x2="42.004" y2="66.086"/>
	<polyline points="165.893,66.086 178.097,66.086 190.766,37.111 98.988,37.111 98.988,66.086"/>
	<line x1="98.988" y1="66.086" x2="153.45" y2="66.086"/>
	<polyline points="137.383,78.371 137.383,93.863 56.263,93.863 56.263,78.371"/>
	<polyline points="47.028,68.074 51.051,78.371 63.484,78.371 67.508,68.074"/>
	<polyline points="126.343,68.074 130.365,78.371 142.799,78.371 146.822,68.074"/>
	<polyline points="40.807,80.874 40.807,82.137 30.361,82.971 30.361,81.708 30.361,81.708 36.306,81.233"/>
	<polyline points="40.807,77.541 40.807,79.206 30.361,80.04 30.361,78.374 30.361,78.374 35.628,77.954"/>
	<polyline points="40.807,74.183 40.807,75.849 30.361,76.681 30.361,75.014 30.361,75.014 34.813,74.659"/>
	<polyline points="34.867,82.612 40.807,83.804 40.807,84.209"/>
	<line x1="36.397" y1="84.209" x2="30.361" y2="83.006"/>
	<polyline points="35.58,79.623 40.807,80.874 40.807,82.137 30.361,80.04 30.361,78.374 30.361,78.374 	"/>
	<polyline points="34.774,76.329 40.807,77.541 40.807,79.206 30.361,76.681 30.361,75.442 	"/>
	<polyline points="36.648,73.348 40.807,74.183 40.807,75.849 30.361,73.776 30.361,73.348 	"/>
	<polygon points="25.125,101.088 29.561,86.408 41.994,86.408 46.018,101.088 25.125,101.088 	"/>
	<polygon points="27.137,84.209 44.006,84.209 44.006,86.408 27.137,86.408 27.137,84.209 	"/>
	<polygon points="27.137,71.324 44.006,71.324 44.006,73.348 27.137,73.348 27.137,71.324 	"/>
	<path d="M42.018,58.631c0-4.976-2.789-9.011-6.229-9.011s-6.229,4.035-6.229,9.011v12.691h12.433
		C41.994,71.322,42.018,58.862,42.018,58.631z"/>
	<polyline points="164.695,80.874 164.695,82.137 154.25,82.971 154.25,81.708 154.25,81.708 160.195,81.233 	"/>
	<polyline points="164.695,77.541 164.695,79.206 154.25,80.04 154.25,78.374 154.25,78.374 159.518,77.954 	"/>
	<polyline points="164.695,74.183 164.695,75.849 154.25,76.681 154.25,75.014 154.25,75.014 158.701,74.659 	"/>
	<polyline points="158.756,82.612 164.695,83.804 164.695,84.209 	"/>
	<line x1="160.286" y1="84.209" x2="154.25" y2="83.006"/>
	<polyline points="159.469,79.623 164.695,80.874 164.695,82.137 154.25,80.04 154.25,78.374 154.25,78.374 	"/>
	<polyline points="158.663,76.329 164.695,77.541 164.695,79.206 154.25,76.681 154.25,75.442 	"/>
	<polyline points="160.537,73.348 164.695,74.183 164.695,75.849 154.25,73.776 154.25,73.348 	"/>
	<polygon points="149.015,101.088 153.45,86.408 165.883,86.408 169.906,101.088 149.015,101.088 	"/>
	<polygon points="151.026,84.209 167.895,84.209 167.895,86.408 151.026,86.408 151.026,84.209 	"/>
	<polygon points="151.026,71.324 167.895,71.324 167.895,73.348 151.026,73.348 151.026,71.324 	"/>
	<path d="M165.907,58.631c0-4.976-2.789-9.011-6.229-9.011s-6.229,4.035-6.229,9.011v12.691h12.433
		C165.883,71.322,165.907,58.862,165.907,58.631z"/>
	<circle cx="101.005" cy="24" r="5.185"/>
	<circle cx="163.458" cy="24" r="5.185"/>
	<circle cx="38.554" cy="24" r="5.185"/>
	<circle cx="19.941" cy="49.532" r="5.185"/>
	<circle cx="70.516" cy="49.532" r="5.185"/>
	<circle cx="121.092" cy="49.532" r="5.185"/>
	<circle cx="171.667" cy="49.532" r="5.185"/>
	<line x1="153.45" y1="68.074" x2="42" y2="68.074"/>
	<polyline points="29.561,68.074 17.457,68.074 1,47.432 1,35.124 1,35.124 201,35.124 201,39.099 192.565,39.099 180.108,68.074 165.889,68.074"/>
	<polygon points="1,33.136 1,30.766 13.458,30.766 21.892,4.185 176.108,4.185 188.542,30.766 201,30.766 201,33.136 1,33.136"/>
	<polyline points="34.325,4.185 34.325,1 42.759,1 42.759,4.185"/>
	<polyline points="74.896,4.185 74.896,1 83.33,1 83.33,4.185"/>
	<polyline points="115.469,4.185 115.469,1 123.902,1 123.902,4.185"/>
	<polyline points="154.006,4.185 154.006,1 162.439,1 162.439,4.185"/>
	<line x1="1" y1="33.136" x2="1" y2="35.124"/>
	<line x1="201" y1="33.136" x2="201" y2="35.124"/>
</g>
</svg>
