<?xml version="1.0" encoding="utf-8"?>
<!-- Generator: Adobe Illustrator 15.1.0, SVG Export Plug-In . SVG Version: 6.00 Build 0)  -->
<!DOCTYPE svg PUBLIC "-//W3C//DTD SVG 1.1//EN" "http://www.w3.org/Graphics/SVG/1.1/DTD/svg11.dtd">
<svg version="1.1" id="Layer_1" xmlns="http://www.w3.org/2000/svg" preserveAspectRatio="none"  xmlns:xlink="http://www.w3.org/1999/xlink" x="0px" y="0px"
	   viewBox="0 0 152 107.127"  xmlns:agg="http://www.example.com">
	 
<agg:params>
	<agg:param type="C" name="color" description="Color" cssAttributes="fill" classes="color"/>
</agg:params>

<style type="text/css" >
<![CDATA[

	.stroked,.dashed{
		stroke-width:0.5;
		stroke-linecap:round;
		stroke-linejoin:round;
		stroke: #000000;
	}
	
	.color {
		fill: #FFCC00;

	}
	
	.stroked,.dashed{
		fill:none;
	}
	
	.dashed {
		stroke-dasharray:1.4173,1.4173;
	}

      ]]>
</style>
	 
<polygon class="color" points="151,50.472 133.754,15.494 83.354,13.403 67.817,1 60.979,12.475 31.803,11.264 5.173,17.3
	5.173,23.334 10.91,23.271 6.079,23.622 12.659,28.753 11.223,28.753 11.223,31.176 15.463,31.176 15.463,52.894 15.106,53.797 
	3.362,53.797 3.362,83.044 1.839,87.914 104.407,87.914 132.402,53.365 "/>
<polygon opacity="0.7" points="79.922,61.529 79.922,82.167 63.583,82.167 63.583,64.07 
	55.721,65.293 45.431,25.757 33.618,25.428 30.902,23.047 10.915,23.271 6.083,23.622 12.664,28.753 43.62,28.753 43.62,31.176 
	48.147,52.894 48.765,52.894 48.765,56.507 18.513,56.507 11.228,72.805 11.048,72.805 6.988,87.299 3.366,87.299 3.366,83.044 
	1.843,87.914 104.412,87.914 132.407,53.365 "/>
<path opacity="0.1" d="M15.457,31.176h28.153l4.527,21.718h-32.68V31.176L15.457,31.176z
	 M7.595,72.805L15.1,53.797H3.355v33.501h3.622l4.06-14.494H7.595z M63.263,64.07v18.096h16.34V61.529L63.263,64.07z"/>
<path fill="#333333" d="M17.891,36.02h6.05L22.13,46.571h-4.239V36.02L17.891,36.02z
	 M25.752,36.02l-1.811,10.551h6.051V36.02H25.752L25.752,36.02z"/>
	 
<g id="wheel">
	<polygon points="58.207,81.074 51.368,81.074 57.94,79.336 57.086,75.347 50.067,77.199 56.231,73.646 54.227,69.933 
		48.158,73.466 53.098,68.537 49.963,65.668 45.062,70.569 48.528,64.548 45.091,62.534 41.501,68.66 43.391,61.68 39.402,60.559 
		37.426,67.854 37.426,60.246 33.438,60.246 33.438,67.986 31.424,60.559 27.445,61.68 29.373,68.793 25.735,62.534 22.022,64.548 
		25.526,70.56 20.597,65.668 17.767,68.537 22.639,73.447 16.608,69.933 14.633,73.646 20.834,77.217 13.778,75.347 12.62,79.336 
		19.238,81.074 12.62,81.074 12.62,85.337 19.106,85.337 12.62,87.037 13.778,91.026 21.642,88.947 14.633,93.04 16.608,96.449 
		22.706,92.946 17.767,97.875 20.597,101.018 25.26,96.355 22.022,101.863 25.735,104.152 29.249,98.046 27.445,104.732 
		31.424,105.852 33.438,98.425 33.438,106.127 37.426,106.127 37.426,98.559 39.402,105.852 43.391,104.732 41.615,98.179 
		45.091,104.152 48.528,101.863 45.329,96.346 49.963,101.018 53.098,97.875 48.091,92.917 54.227,96.449 56.231,93.04 
		49.251,88.966 57.086,91.026 57.94,87.037 51.502,85.337 58.207,85.337 	"/>
	<circle fill-rule="evenodd" clip-rule="evenodd" fill="#333333" stroke="#000000" stroke- stroke-linecap="square" stroke-miterlimit="10" cx="35.413" cy="83.187" r="21.861"/>
	<circle opacity="0.3" fill-rule="evenodd" clip-rule="evenodd" fill="#FFFFFF" cx="35.413" cy="83.187" r="9.32"/>
	<circle fill-rule="evenodd" clip-rule="evenodd" class="color" cx="35.413" cy="83.187" r="7.343"/>
	<path d="M32.637,77.764l1.495,4.118l-0.023,0.022l-4.117-1.494L32.637,77.764z M40.836,85.962l-4.119-1.495l-0.022,0.022
		l1.494,4.119L40.836,85.962z M29.99,85.962l4.118-1.495l0.022,0.022l-1.494,4.119L29.99,85.962z M38.188,77.764l-1.494,4.118
		l0.022,0.022l4.119-1.494L38.188,77.764z"/>
</g>

<use xlink:href="#wheel" transform="translate(71.642 0)"/>

<g class="stroked" opacity="0.3">
	<line x1="1" y1="47.785" x2="1" y2="87.299"/>
	<line x1="4.322" y1="47.785" x2="4.322" y2="87.299"/>
	<line x1="4.322" y1="51.098" x2="1" y2="51.098"/>
	<line x1="4.322" y1="54.385" x2="1" y2="54.385"/>
	<line x1="4.322" y1="57.67" x2="1" y2="57.67"/>
	<line x1="4.322" y1="83.958" x2="1" y2="83.958"/>
	<line x1="4.322" y1="80.672" x2="1" y2="80.672"/>
	<line x1="4.322" y1="77.387" x2="1" y2="77.387"/>
	<line x1="4.322" y1="74.1" x2="1" y2="74.1"/>
	<line x1="4.322" y1="70.815" x2="1" y2="70.815"/>
	<line x1="4.322" y1="67.529" x2="1" y2="67.529"/>
	<line x1="4.322" y1="64.243" x2="1" y2="64.243"/>
	<line x1="4.322" y1="60.957" x2="1" y2="60.957"/>
	<polyline points="145.566,39.451 64.195,45.34 54.255,12.196 	"/>
	<polyline points="83.357,13.405 95.023,22.718 119.225,29.369 124.37,32.079 124.37,32.079 122.271,36.923 99.88,34.501 60.244,22.143 
		57.198,18.818 60.979,12.475 	"/>
	<polygon points="114.986,27.563 121.653,21.527 132.231,24.853 135.565,34.501 114.986,27.563 	"/>
</g>
</svg>
