<?xml version="1.0" encoding="utf-8"?>
<!-- Generator: Adobe Illustrator 15.0.0, SVG Export Plug-In . SVG Version: 6.00 Build 0)  -->
<!DOCTYPE svg PUBLIC "-//W3C//DTD SVG 1.1//EN" "http://www.w3.org/Graphics/SVG/1.1/DTD/svg11.dtd">
<svg version="1.1" id="_x30_" xmlns:agg="http://www.example.com"
	 xmlns="http://www.w3.org/2000/svg" preserveAspectRatio="none"   x="0px" y="0px" 
	  viewBox="0 0 43.984 43.986" enable-background="new 0 0 43.984 43.986" xml:space="preserve">
	 
<agg:params>
	<agg:param type="C" name="color" description="Color" cssAttributes="fill" classes="color"/>
	<agg:param type="C" name="strokeColor" description="Stroke Color" cssAttributes="stroke" classes="color,stroked"/>
</agg:params>

<style type="text/css" >
   <![CDATA[

	.color,.stroked{
		stroke-width:1;
		stroke-linecap:round;
		stroke-linejoin:round;
		stroke: #000000;
	}
	
	.color {
		fill:   #A1BFE2;

	}
	
	.stroked {
		fill:none;
	}

      ]]>
</style>	 
	 
<polygon class="color" points="9.298,14.781 15.637,3.854
	28.331,3.854 34.685,14.781 28.331,25.695 15.637,25.695 "/>

<g class="stroked">
	<path fill="none" d="M24.696,20.279
		c-0.797,1.824-0.066,2.938,1.924,2.938c1.989,0,2.719-1.113,1.924-2.938c-0.643-1.469-1.283-2.938-1.924-4.408
		C25.978,17.341,25.337,18.81,24.696,20.279z"/>
	<path fill="none" d="M18.401,20.279
		c-0.796,1.824-0.068,2.938,1.923,2.938c1.989,0,2.719-1.113,1.923-2.938c-0.641-1.469-1.281-2.938-1.923-4.408
		C19.682,17.341,19.042,18.81,18.401,20.279z"/>
	<path fill="none" d="M21.549,11.884
		c-0.797,1.824-0.067,2.938,1.923,2.938s2.719-1.114,1.924-2.938c-0.642-1.468-1.283-2.937-1.924-4.406
		C22.831,8.947,22.188,10.416,21.549,11.884z"/>
	<path fill="none" d="M15.253,11.884
		c-0.795,1.824-0.067,2.938,1.924,2.938c1.988,0,2.719-1.114,1.923-2.938c-0.642-1.468-1.282-2.937-1.923-4.406
		C16.534,8.947,15.894,10.416,15.253,11.884z"/>
	<line fill="none" x1="18.467" y1="25.783" x2="18.467" y2="40.133"/>
	<line fill="none" x1="25.603" y1="25.783" x2="25.603" y2="40.133"/>
</g>
</svg>
