<?xml version="1.0" encoding="utf-8"?>
<!-- Generator: Adobe Illustrator 15.0.0, SVG Export Plug-In . SVG Version: 6.00 Build 0)  -->
<!DOCTYPE svg PUBLIC "-//W3C//DTD SVG 1.1//EN" "http://www.w3.org/Graphics/SVG/1.1/DTD/svg11.dtd">
<svg version="1.1" id="_x30_" xmlns="http://www.w3.org/2000/svg" preserveAspectRatio="none"   xmlns:agg="http://www.example.com" x="0px" y="0px"
	   viewBox="0 0 43.984 43.986" enable-background="new 0 0 43.984 43.986" xml:space="preserve">

<agg:params>
	<agg:param name="color" description="Color" type="C" cssAttributes="fill" classes="color"/>
	<agg:param name="strokeColor" description="Stroke Color" type="C" cssAttributes="stroke" classes="color,stroked"/>
</agg:params>

<style type="text/css" >
   <![CDATA[

	.color,.stroked{
		stroke-width:1;
		stroke-linecap:round;
		stroke-linejoin:round;
		stroke: #000000;
	}
	
	.color {
		fill:   #A1BFE2;

	}
	
	.stroked {
		fill:none;
	}

      ]]>
</style>	
	 
<rect x="11.705" y="1.418" class="color"  />
<g class="stroked">
	<path fill="none" d="M21.992,42.569
	c1.213,0,1.714-0.502,1.714-1.713c0-1.213-0.501-1.716-1.714-1.716s-1.715-0.503-1.715-1.714c0-1.213,0.502-1.715,1.715-1.715
	s1.714-0.503,1.714-1.715c0-1.213-0.501-1.715-1.714-1.715s-1.715-0.502-1.715-1.714c0-1.213,0.502-1.716,1.715-1.716
	s1.714-0.502,1.714-1.715c0-1.211-0.501-1.714-1.714-1.714s-1.715-0.503-1.715-1.716c0-1.211,0.502-1.713,1.715-1.713"/>
	<line fill="none" x1="21.992" y1="15.85" x2="21.992" y2="3.473"/>
	<circle fill="none" cx="21.992" cy="17.887" r="2.037"/>
</g>
</svg>
