<?xml version="1.0" encoding="utf-8"?>
<!-- Generator: Adobe Illustrator 15.1.0, SVG Export Plug-In . SVG Version: 6.00 Build 0)  -->
<!DOCTYPE svg PUBLIC "-//W3C//DTD SVG 1.1//EN" "http://www.w3.org/Graphics/SVG/1.1/DTD/svg11.dtd">
<svg version="1.1" id="_x30_" xmlns:agg="http://www.example.com"
	 xmlns="http://www.w3.org/2000/svg" preserveAspectRatio="none"   x="0px" y="0px" 
	  viewBox="0 9.585 39.063 13.829" enable-background="new 0 9.585 39.063 13.829" xml:space="preserve">
<agg:params>
	<agg:param type="C" name="color" description="Color" cssAttributes="fill" classes="color"/>
	<agg:param type="C" name="strokeColor" description="Stroke Color" cssAttributes="stroke" classes="color,stroked"/>
</agg:params>
<style type="text/css" >
<![CDATA[

	.color,.stroked,.dashed{
		stroke-width:0.5;
		stroke-linecap:round;
		stroke-linejoin:round;
		stroke: #000000;
	}
	
	.color {
		fill:   #A1BFE2;

	}
	
	.stroked,.dashed{
		fill:none;
	}
	
	.dashed {
		stroke-dasharray:1.4173,1.4173;
	}

      ]]>
</style>
<path class="color" d="
	M36.933,18.687h-5.855l-0.993-0.259h-2.137v-3.879h2.173l0.957-0.258h5.855c0.378,0,0.682-0.307,0.682-0.682
	c0-0.38-0.304-0.686-0.682-0.686h-5.855l-0.993-0.26h-2.137v-1.662H11.048v4.544H8.95l-1.032,0.258H2.102l0,0H2.101
	c-0.377,0-0.683,0.307-0.683,0.683c0,0.379,0.306,0.684,0.683,0.684h0.001l0,0h5.817l1.032,0.26h2.098v4.544h16.899v-1.661h2.173
	l0.957-0.26h5.855l0,0c0.378,0,0.682-0.306,0.682-0.685C37.615,18.994,37.311,18.687,36.933,18.687z"/>
<line class="stroked" x1="11.048" y1="15.547" x2="11.048" y2="17.431"/>
<line class="stroked" x1="27.948" y1="12.665" x2="27.948" y2="14.549"/>
<line class="stroked" x1="27.948" y1="18.428" x2="27.948" y2="20.314"/>
</svg>
