<?xml version="1.0" encoding="utf-8"?>
<!-- Generator: Adobe Illustrator 15.1.0, SVG Export Plug-In . SVG Version: 6.00 Build 0)  -->
<!DOCTYPE svg PUBLIC "-//W3C//DTD SVG 1.1//EN" "http://www.w3.org/Graphics/SVG/1.1/DTD/svg11.dtd">
<svg version="1.1" id="Layer_1" xmlns:agg="http://www.example.com"
	 xmlns="http://www.w3.org/2000/svg" preserveAspectRatio="none"   x="0px" y="0px" 
	  viewBox="0 -1.368 43.984 45.354" enable-background="new 0 -1.368 43.984 45.354" xml:space="preserve">
<agg:params>
	<agg:param type="C" name="color" description="Color" cssAttributes="fill" classes="color"/>
	<agg:param type="C" name="strokeColor" description="Stroke Color" cssAttributes="stroke" classes="color,stroked"/>
</agg:params>
<style type="text/css" >
<![CDATA[

	.color,.stroked,.dashed{
		stroke-width:0.5;
		stroke-linecap:round;
		stroke-linejoin:round;
		stroke: #000000;
	}
	
	.color {
		fill:   #A1BFE2;

	}
	
	.stroked,.dashed{
		fill:none;
	}
	
	.dashed {
		stroke-dasharray:1.4173,1.4173;
	}
]]>
</style>
<path class="color" d="M38.702,1.703c-4.183,0-8.363,0-12.546,0
	c-0.505,0-0.714-0.209-0.714-0.714c0-0.329,0-0.659,0-0.988c-0.951,0-1.903,0-2.855,0c0,14.753,0,27.67,0,42.423
	c0.952,0,1.904,0,2.855,0c0-0.329,0-0.659,0-0.986c0-0.507,0.209-0.716,0.714-0.716c4.183,0,8.363,0,12.546,0
	c1.971,0,3.569-1.596,3.569-3.568c0-11.238,0-20.643,0-31.881C42.271,3.302,40.673,1.703,38.702,1.703z M39.416,37.154
	c0,0.504-0.209,0.713-0.714,0.713c-4.42,0-8.84,0-13.26,0c0-11.713,0-21.594,0-33.308c4.42,0,8.84,0,13.26,0
	c0.505,0,0.714,0.209,0.714,0.714C39.416,16.511,39.416,25.916,39.416,37.154z"/>
<path class="color" d="M18.246,0.002c0,0.329,0,0.659,0,0.988
	c0,0.505-0.209,0.714-0.715,0.714c-4.183,0-8.364,0-12.545,0c-1.971,0-3.569,1.599-3.569,3.57c0,11.238,0,20.643,0,31.881
	c0,1.973,1.598,3.568,3.569,3.568c4.182,0,8.363,0,12.545,0c0.505,0,0.715,0.209,0.715,0.716c0,0.327,0,0.657,0,0.986
	c0.952,0,1.903,0,2.855,0c0-14.753,0-27.67,0-42.423C20.149,0.002,19.198,0.002,18.246,0.002z M18.246,37.867
	c-4.42,0-8.84,0-13.26,0c-0.504,0-0.713-0.209-0.713-0.713c0-11.238,0-20.643,0-31.881c0-0.504,0.209-0.714,0.713-0.714
	c4.42,0,8.84,0,13.26,0C18.246,16.273,18.246,26.154,18.246,37.867z"/>
</svg>
