<?xml version="1.0" encoding="utf-8"?>
<!-- Generator: Adobe Illustrator 15.0.0, SVG Export Plug-In . SVG Version: 6.00 Build 0)  -->
<!DOCTYPE svg PUBLIC "-//W3C//DTD SVG 1.1//EN" "http://www.w3.org/Graphics/SVG/1.1/DTD/svg11.dtd">
<svg version="1.1" id="_x30_" xmlns:agg="http://www.example.com"
	 xmlns="http://www.w3.org/2000/svg" preserveAspectRatio="none"   x="0px" y="0px" 
	  viewBox="0 0 43.984 43.986" enable-background="new 0 0 43.984 43.986" xml:space="preserve">
<agg:params>
	<agg:param type="C" name="color" description="Color" cssAttributes="fill" classes="color"/>
	<agg:param type="C" name="strokeColor" description="Stroke Color" cssAttributes="stroke" classes="color,stroked"/>
</agg:params>

<style type="text/css" >
   <![CDATA[

	.color,.stroked{
		stroke-width:1;
		stroke-linecap:round;
		stroke-linejoin:round;
		stroke: #000000;
	}
	
	.color {
		fill:   #A1BFE2;

	}
	
	.stroked {
		fill:none;
	}

      ]]>
</style>

<rect x="1.418" y="1.417" class="color"  />
<g class="stroked">
	<circle fill="none" cx="34.379" cy="36.56" r="4.279"/>
	<path fill="none" d="M15.148,31.65
		c-1.186,2.719,0.805,5.761,3.771,5.761c2.965,0,4.957-3.042,3.771-5.761c-1.258-2.881-2.516-5.762-3.771-8.642
		C17.662,25.888,16.406,28.769,15.148,31.65z"/>
	<path fill="none" d="M8.976,15.189
		c-1.188,2.719,0.805,5.762,3.771,5.762c2.965,0,4.957-3.043,3.77-5.762c-1.256-2.88-2.514-5.762-3.77-8.641
		C11.49,9.427,10.232,12.309,8.976,15.189z"/>
	<line fill="none" x1="34.336" y1="32.281" x2="34.336" y2="3.531"/>
</g>
</svg>
