<?xml version="1.0" encoding="utf-8"?>
<!-- Generator: Adobe Illustrator 15.1.0, SVG Export Plug-In . SVG Version: 6.00 Build 0)  -->
<!DOCTYPE svg PUBLIC "-//W3C//DTD SVG 1.1//EN" "http://www.w3.org/Graphics/SVG/1.1/DTD/svg11.dtd">
<svg version="1.1" id="Layer_1" xmlns="http://www.w3.org/2000/svg" preserveAspectRatio="none"  x="0px" y="0px"
       viewBox="0 0 152 172" xmlns:agg="http://www.example.com">
	 
<agg:params>
	<agg:param type="C" name="color" description="Color" cssAttributes="fill" classes="color"/>
</agg:params>

<style type="text/css" >
<![CDATA[

	.stroked,.dashed,.stroked_red{
		stroke-width:0.5;
		stroke-linecap:round;
		stroke-linejoin:round;
		stroke: #000000;
		fill:none;
	}
	
	.stroked_red{
		stroke: #FF0000;	
	}
	
	.color {
		fill: #F2E5CC;

	}
	
	.stroked,.dashed{
		fill:none;
	}
	
	.dashed {
		stroke-dasharray:1.4173,1.4173;
	}

      ]]>
</style>
	 
<path d="M12.53,155.355h34.958V171H12.53V155.355L12.53,155.355z M36.954,129.156h19.34
	l15.619-19.372L44.449,86.683l-7.495,7.456V129.156L36.954,129.156z"/>
<path fill="#4C4C4C" d="M4.721,158.399h4.088V171H4.721V158.399L4.721,158.399z
	 M19.292,158.399V171h4.088v-12.602H19.292L19.292,158.399z M34.91,155.355V171h3.721v-15.646H34.91L34.91,155.355z
	 M48.484,155.355V171h3.721v-15.646H48.484L48.484,155.355z"/>

<g class="stroked">		 
	<path d="M116.356,74.765c0,0-2.278-0.741-1.992-3.727c0.286-2.987,5.766-60.167,5.766-60.167s1.978,57.722,2.044,60.167
		c0.067,2.445-2.044,3.727-2.044,3.727"/>
	<polyline points="33.914,71.038 113.316,11.868 38.631,78.86 37.95,74.765 118.4,8.823 35.958,73.084 	"/>
</g>
		
<polygon fill="#333333" points="44.449,94.138 122.174,1 125.896,1 129.931,8.823 64.219,112.88 44.449,94.138 	"/>
<polygon fill="#191919" points="58.023,99.283 125.214,12.551 66.828,103.011 58.023,99.283 	"/>
<polygon fill="#333333" points="52.205,106.055 110.591,106.055 110.591,109.784 52.205,109.784 52.205,106.055 	"/>
<polygon fill="#7F7F7F" points="52.205,98.233 98.746,98.233 110.591,94.138 110.591,109.784 98.746,106.055 52.205,106.055 52.205,98.233 	"/>

<polygon fill="#7F7F7F" points="99.428,131.571 123.484,145.484 146.23,115.559 113.998,96.868 99.428,131.571 	"/>
<polygon fill="#666666" points="118.086,99.283 151,107.42 146.23,115.559 118.086,99.283 	"/>
<polygon fill="#666666" points="105.874,129.839 109.91,132.254 119.764,105.741 115.675,103.327 105.874,129.839 	"/>
<polygon fill="#666666" points="120.444,132.936 127.572,140.077 142.877,120.335 136.063,114.875 120.444,132.936 	"/>
<polygon fill="#999999" points="110.591,98.233 126.21,98.233 126.21,106.055 110.591,106.055 110.591,98.233 	"/>
<polygon fill="#CCCCCC" points="116.356,66.942 120.13,66.942 120.13,98.233 116.356,98.233 116.356,66.942 	"/>
<polygon fill="#4C4C4C" points="28.148,94.138 33.914,71.038 37.95,71.038 45.444,117.607 41.723,117.607 35.958,74.765 32.185,94.138 28.148,94.138 	"/>

<polygon class="color" points="5.717,94.138 52.205,94.138 52.205,152.625 5.717,152.625 5.717,94.138 "/>
<polygon opacity="0.15" points="39.679,94.138 36.954,117.607 52.205,117.607 52.205,94.138 "/>

<polygon opacity="0.05" points="5.717,135.615 52.205,111.149 52.205,152.625 5.717,152.625 5.717,135.615 	"/>
<polygon opacity="0.05" points="5.717,138.029 52.205,113.878 52.205,152.625 5.717,152.625 5.717,138.029 	"/>
<polygon opacity="0.05" points="5.717,141.757 52.205,117.292 52.205,152.625 5.717,152.625 5.717,141.757 	"/>
<polyline class="stroked" points="5.717,94.138 52.205,94.138 52.205,152.625 5.717,152.625 5.717,94.138 	"/>
	
<polygon fill="#333333" points="30.822,104.008 36.954,104.008 35.958,114.561 30.822,114.561 30.822,104.008 	"/>
<polygon fill="#333333" points="25.057,104.008 30.193,104.008 30.193,114.561 25.057,114.561 25.057,104.008 	"/>
<polygon fill="#333333" points="19.292,104.008 24.061,104.008 24.061,114.561 19.292,114.561 19.292,104.008 	"/>
<polygon fill="#665940" points="9.124,146.167 24.742,120.021 27.101,121.386 11.482,147.532 9.124,146.167 	"/>
<polygon fill="#333333" points="5.717,152.625 59.019,152.625 59.019,155.355 5.717,155.355 5.717,152.625 	"/>
<polygon fill="#333333" points="52.205,110.833 71.912,110.833 71.912,112.88 52.205,112.88 52.205,110.833 	"/>
<polygon fill="#333333" points="26.105,78.86 45.444,78.86 45.444,80.54 26.105,80.54 26.105,78.86 	"/>

<polygon points="17.614,116.609 36.954,116.609 36.954,121.386 17.614,121.386 17.614,116.609"/>

<polygon fill="#4C4C4C" points="1,145.851 31.87,145.851 31.87,158.399 1,158.399 1,145.851"/>
		
<g class="stroked_red">
	<polyline points="32.866,117.607 32.866,111.831 52.205,111.831 52.205,117.607 		"/>
	<line x1="32.866" y1="114.561" x2="52.205" y2="114.561"/>
	<line x1="38.631" y1="117.607" x2="38.631" y2="111.831"/>
	<line x1="46.44" y1="117.607" x2="46.44" y2="111.831"/>
	<polyline points="26.105,78.86 26.105,73.084 45.444,73.084 45.444,78.86 		"/>
	<line x1="26.105" y1="75.814" x2="45.444" y2="75.814"/>
	<line x1="32.185" y1="78.86" x2="32.185" y2="73.084"/>
	<line x1="39.679" y1="78.86" x2="39.679" y2="73.084"/>
	<polyline points="17.614,116.609 17.614,110.833 36.954,110.833 36.954,116.609 		"/>
	<line x1="17.614" y1="113.878" x2="36.954" y2="113.878"/>
	<line x1="23.379" y1="116.609" x2="23.379" y2="110.833"/>
	<line x1="31.188" y1="116.609" x2="31.188" y2="110.833"/>
	<polyline points="13.893,138.343 8.809,135.615 18.295,118.656 23.379,121.702 		"/>
	<line x1="11.167" y1="136.979" x2="21.021" y2="120.335"/>
	<line x1="16.618" y1="133.619" x2="11.482" y2="130.522"/>
	<line x1="20.654" y1="126.794" x2="15.57" y2="123.749"/>
	<polyline points="1,145.851 1,140.077 20.339,140.077 20.339,145.851 		"/>
	<line x1="1" y1="142.754" x2="20.339" y2="142.754"/>
	<line x1="6.765" y1="145.851" x2="6.765" y2="140.077"/>
	<line x1="14.574" y1="145.851" x2="14.574" y2="140.077"/>
	<polyline points="52.205,110.833 52.205,105.058 71.912,105.058 71.912,110.833 		"/>
	<line x1="52.205" y1="107.736" x2="71.912" y2="107.736"/>
	<line x1="58.337" y1="110.833" x2="58.337" y2="105.058"/>
	<line x1="66.147" y1="110.833" x2="66.147" y2="105.058"/>
	<polyline points="53.253,152.625 53.253,146.849 59.019,146.849 59.019,152.625 		"/>
	<line x1="53.253" y1="149.58" x2="59.019" y2="149.58"/>
</g>

</svg>
