<?xml version="1.0" encoding="utf-8"?>
<!-- Generator: Adobe Illustrator 13.0.0, SVG Export Plug-In . SVG Version: 6.00 Build 14948)  -->
<!DOCTYPE svg PUBLIC "-//W3C//DTD SVG 1.1//EN" "http://www.w3.org/Graphics/SVG/1.1/DTD/svg11.dtd">
<svg version="1.1" id="Default" xmlns:agg="http://www.example.com" xmlns="http://www.w3.org/2000/svg" preserveAspectRatio="none"  xmlns:xlink="http://www.w3.org/1999/xlink" x="-1.419px" y="-1.276px"
	   viewBox="-1.419 -1.276 62.366 47.026" enable-background="new -1.419 -1.276 62.366 47.026" xml:space="preserve">

    <agg:params>
        <agg:param name="state" description="State" type="state">
            <agg:state name="on" description="On">
                <agg:param attributes="visibility" ids="switch-left" value="visible"/>
                <agg:param attributes="visibility" ids="switch-right" value="hidden"/>
            </agg:state>
            <agg:state name="off" description="Off">
                <agg:param attributes="visibility" ids="switch-left" value="hidden"/>
                <agg:param attributes="visibility" ids="switch-right" value="visible"/>
            </agg:state>
        </agg:param>
    </agg:params>


<style type="text/css" >
   <![CDATA[

	.color,.stroked{
		stroke-width:0.3;
		stroke-linecap:round;
		stroke-linejoin:round;
		stroke: white;
	}
	
	.color {
		fill:   #A1BFE2;

	}
	
	.stroked {
		fill:none;
	}

      ]]>
</style>

<defs>
	<filter id="Multiply">
		<feBlend mode="multiply" in2="BackgroundImage" in="SourceGraphic"/>
	</filter>
</defs>

<g id="base">
	<radialGradient id="SVGID_1_" cx="48.167" cy="43.3823" r="72.0112" gradientUnits="userSpaceOnUse">
		<stop  offset="0.0051" style="stop-color:#666666"/>
		<stop  offset="0.1578" style="stop-color:#6A6A6A"/>
		<stop  offset="0.3197" style="stop-color:#777777"/>
		<stop  offset="0.4859" style="stop-color:#8C8C8C"/>
		<stop  offset="0.655" style="stop-color:#AAAAAA"/>
		<stop  offset="0.8262" style="stop-color:#D0D0D0"/>
		<stop  offset="0.9972" style="stop-color:#FEFEFE"/>
		<stop  offset="1" style="stop-color:#FFFFFF"/>
	</radialGradient>
	<polygon fill="url(#SVGID_1_)" points="42.179,0.142 40.758,2.591 52.099,22.231 40.758,41.872 18.088,41.872 16.668,44.332 
		42.179,44.332 54.938,22.231 	"/>
	<radialGradient id="SVGID_2_" cx="15.8345" cy="-0.6177" r="131.6884" gradientUnits="userSpaceOnUse">
		<stop  offset="0" style="stop-color:#E6E6E6"/>
		<stop  offset="0.0946" style="stop-color:#DADADA"/>
		<stop  offset="0.2637" style="stop-color:#BBBBBB"/>
		<stop  offset="0.4879" style="stop-color:#898989"/>
		<stop  offset="0.755" style="stop-color:#454545"/>
		<stop  offset="1" style="stop-color:#000000"/>
	</radialGradient>
	<polygon fill="url(#SVGID_2_)" points="16.668,0.142 3.909,22.231 16.668,44.332 18.088,41.872 6.749,22.231 18.088,2.591 
		40.758,2.591 42.179,0.142 	"/>
	<linearGradient id="SVGID_3_" gradientUnits="userSpaceOnUse" x1="18.5298" y1="3.1338" x2="41.5297" y2="43.467">
		<stop  offset="0.0051" style="stop-color:#F6FAFC"/>
		<stop  offset="0.1681" style="stop-color:#F2F6F8"/>
		<stop  offset="0.337" style="stop-color:#E6E9EC"/>
		<stop  offset="0.5087" style="stop-color:#D3D5D7"/>
		<stop  offset="0.6823" style="stop-color:#B7B8BB"/>
		<stop  offset="0.8557" style="stop-color:#949396"/>
		<stop  offset="0.9036" style="stop-color:#89878B"/>
	</linearGradient>
	<polygon fill="url(#SVGID_3_)" stroke="#FFFFFF" stroke- points="6.742,22.23 18.081,41.87 40.758,41.87 
		52.097,22.23 40.758,2.591 18.081,2.591 	"/>
	<path opacity="0.2" d="M13.002,22.815c0-9.39,7.61-17.01,17.01-17.01c4.545,0,8.663,1.796,11.713,4.704
		c-3.096-3.25-7.454-5.287-12.296-5.287c-9.4,0-17.01,7.62-17.01,17.01c0,4.844,2.035,9.207,5.287,12.305
		C14.797,31.484,13.002,27.362,13.002,22.815z"/>
	<path opacity="0.6" fill="#FFFFFF" d="M46.428,22.23c0,9.39-7.61,17.01-17.01,17.01c-4.545,0-8.663-1.796-11.713-4.704
		c3.096,3.25,7.454,5.287,12.296,5.287c9.4,0,17.01-7.62,17.01-17.01c0-4.844-2.035-9.207-5.287-12.305
		C44.633,13.561,46.428,17.683,46.428,22.23z"/>
	<path opacity="0.2" d="M38.072,22.376c0,4.695-3.805,8.505-8.505,8.505c-2.272,0-4.332-0.898-5.856-2.352
		c1.548,1.625,3.727,2.644,6.148,2.644c4.7,0,8.505-3.811,8.505-8.505c0-2.422-1.018-4.603-2.644-6.153
		C37.174,18.042,38.072,20.103,38.072,22.376z"/>
	<path opacity="0.75" fill="#FFFFFF" d="M21.359,22.668c0-4.695,3.805-8.505,8.505-8.505c2.272,0,4.332,0.898,5.856,2.352
		c-1.548-1.625-3.727-2.644-6.148-2.644c-4.7,0-8.505,3.811-8.505,8.505c0,2.422,1.018,4.603,2.644,6.153
		C22.256,27.003,21.359,24.942,21.359,22.668z"/>

	<g class="stroked">
		<line x1="42.179" y1="0.142" x2="40.758" y2="2.591"/>
		<line x1="54.938" y1="22.231" x2="52.099" y2="22.231"/>
		<line x1="42.179" y1="44.332" x2="40.758" y2="41.872"/>
		<line x1="16.668" y1="44.332" x2="18.088" y2="41.872"/>
		<line x1="3.909" y1="22.231" x2="6.749" y2="22.231"/>
		<line x1="16.668" y1="0.142" x2="18.088" y2="2.591"/>
	</g>
</g>

<g id="shadow">
	<defs>
		<path id="SVGID_4_" opacity="0.2" d="M42.179,0.142h-25.51l-12.76,22.09l12.76,22.1h25.51l12.76-22.1L42.179,0.142z"/>
	</defs>
	<clipPath id="SVGID_5_">
		<use xlink:href="#SVGID_4_"  overflow="visible"/>
	</clipPath>
	<linearGradient id="SVGID_6_" gradientUnits="userSpaceOnUse" x1="23.6919" y1="42.8203" x2="55.4419" y2="45.5703">
		<stop  offset="0" style="stop-color:#FFFFFF"/>
		<stop  offset="1" style="stop-color:#000000"/>
	</linearGradient>
	<polygon clip-path="url(#SVGID_5_)" fill="url(#SVGID_6_)" points="20.373,68.005 25.828,26.463 32.867,18.142 64.206,43.005"  opacity="0.2" filter="url(#Multiply)"/>
</g>

<g id="switch-left" visibility="visible">
	
		<linearGradient id="SVGID_7_" gradientUnits="userSpaceOnUse" x1="21.4468" y1="-7686.8081" x2="38.322" y2="-7686.8081" gradientTransform="matrix(4.489659e-011 -1 -1 -4.489659e-011 -7664.3965 52.3486)">
		<stop  offset="0.0051" style="stop-color:#0A1B38"/>
		<stop  offset="0.0446" style="stop-color:#38475E"/>
		<stop  offset="0.0891" style="stop-color:#647083"/>
		<stop  offset="0.137" style="stop-color:#8C95A4"/>
		<stop  offset="0.1874" style="stop-color:#ADB5BF"/>
		<stop  offset="0.2414" style="stop-color:#C7CED5"/>
		<stop  offset="0.2999" style="stop-color:#DCE2E7"/>
		<stop  offset="0.3656" style="stop-color:#EBEFF3"/>
		<stop  offset="0.4439" style="stop-color:#F3F8FA"/>
		<stop  offset="0.5685" style="stop-color:#F6FAFC"/>
		<stop  offset="0.6461" style="stop-color:#F2F6F8"/>
		<stop  offset="0.7275" style="stop-color:#E6E9EB"/>
		<stop  offset="0.8105" style="stop-color:#D2D4D7"/>
		<stop  offset="0.8947" style="stop-color:#B6B7BA"/>
		<stop  offset="0.9791" style="stop-color:#939195"/>
		<stop  offset="1" style="stop-color:#89878B"/>
	</linearGradient>
	<path fill="url(#SVGID_7_)" d="M28.99,16.605c-6.41-0.81-19.23-2.38-19.23-2.38v16.627c0,0,12.82-1.527,19.23-2.337
		c2.11-0.26,4.29-1.43,5.54-3.2c0.71-1.93,0.71-3.58,0-5.51C33.28,18.025,31.1,16.865,28.99,16.605z"/>
	
		<linearGradient id="multiply-up_2_" gradientUnits="userSpaceOnUse" x1="29.8096" y1="-7674.4106" x2="29.8096" y2="-7699.0771" gradientTransform="matrix(4.489659e-011 -1 -1 -4.489659e-011 -7664.3965 52.3486)">
		<stop  offset="0" style="stop-color:#F6FAFC"/>
		<stop  offset="0.3548" style="stop-color:#F4F8FA"/>
		<stop  offset="0.4906" style="stop-color:#EDF1F3"/>
		<stop  offset="0.5889" style="stop-color:#E2E5E7"/>
		<stop  offset="0.669" style="stop-color:#D1D4D6"/>
		<stop  offset="0.7382" style="stop-color:#BBBEC0"/>
		<stop  offset="0.7997" style="stop-color:#A0A3A4"/>
		<stop  offset="0.8556" style="stop-color:#808283"/>
		<stop  offset="0.9071" style="stop-color:#5A5C5D"/>
		<stop  offset="0.9536" style="stop-color:#313232"/>
		<stop  offset="0.9966" style="stop-color:#040404"/>
		<stop  offset="1" style="stop-color:#000000"/>
	</linearGradient>
	<path id="multiply-up" opacity="0.3"  filter="url(#Multiply)" fill="url(#multiply-up_2_)" d="M28.99,16.605c-6.41-0.81-19.23-2.38-19.23-2.38v16.627
		c0,0,12.82-1.527,19.23-2.337c2.11-0.26,4.29-1.43,5.54-3.2c0.71-1.93,0.71-3.58,0-5.51C33.28,18.025,31.1,16.865,28.99,16.605z"/>
	
		<radialGradient id="SVGID_8_" cx="24.1138" cy="-7679.4517" r="16.9007" gradientTransform="matrix(4.489659e-011 -1 -1 -4.489659e-011 -7664.3965 52.3486)" gradientUnits="userSpaceOnUse">
		<stop  offset="0.0051" style="stop-color:#F6FAFC"/>
		<stop  offset="1" style="stop-color:#89878B"/>
	</radialGradient>
	<ellipse fill="url(#SVGID_8_)" cx="8.476" cy="22.539" rx="8.476" ry="8.41"/>
	
		<radialGradient id="SVGID_9_" cx="23.8438" cy="-7666.52" r="15.6178" gradientTransform="matrix(4.489659e-011 -1 -1 -4.489659e-011 -7664.3965 52.3486)" gradientUnits="userSpaceOnUse">
		<stop  offset="0" style="stop-color:#F6FAFC"/>
		<stop  offset="1" style="stop-color:#89878B"/>
	</radialGradient>
	<circle fill="url(#SVGID_9_)" cx="8.475" cy="22.559" r="7.055"/>
	<g>
		<path fill="#FFFFFF" d="M16.809,22.531c0,4.597-3.718,8.327-8.333,8.403c0.048,0.001,0.094,0.007,0.143,0.007
			c4.681,0,8.476-3.766,8.476-8.411s-3.794-8.41-8.476-8.41c-0.048,0-0.095,0.006-0.143,0.007
			C13.09,14.205,16.809,17.934,16.809,22.531z"/>
		<path opacity="0.3" d="M1.565,22.552c0,3.847,3.081,6.969,6.909,7.047c-0.049,0.001-0.096,0.007-0.146,0.007
			c-3.896,0-7.055-3.159-7.055-7.055s3.159-7.055,7.055-7.055c0.049,0,0.097,0.006,0.146,0.007
			C4.646,15.583,1.565,18.705,1.565,22.552z"/>
		<path fill="#FFFFFF" d="M15.384,22.552c0,3.847-3.081,6.969-6.909,7.047c0.049,0.001,0.096,0.007,0.146,0.007
			c3.896,0,7.055-3.159,7.055-7.055s-3.159-7.055-7.055-7.055c-0.049,0-0.097,0.006-0.146,0.007
			C12.303,15.583,15.384,18.705,15.384,22.552z"/>
		<path opacity="0.75" fill="#FFFFFF" d="M34.53,25.315c0.71-1.93,0.71-3.58,0-5.51c-1.188-1.691-3.216-2.813-5.226-3.145v-0.055
			c2.11,0.26,4.29,1.42,5.54,3.2c0.71,1.93,0.71,3.58,0,5.51c-1.25,1.77-3.43,2.94-5.54,3.2V28.46
			C31.314,28.128,33.342,26.998,34.53,25.315z"/>
	</g>
</g>

<g id="switch-right" visibility="hidden">
	
		<linearGradient id="SVGID_10_" gradientUnits="userSpaceOnUse" x1="21.4468" y1="-7816.1587" x2="38.322" y2="-7816.1587" gradientTransform="matrix(0 -1 1 0 7853.2744 52.3486)">
		<stop  offset="0.0051" style="stop-color:#0A1B38"/>
		<stop  offset="0.0446" style="stop-color:#38475E"/>
		<stop  offset="0.0891" style="stop-color:#647083"/>
		<stop  offset="0.137" style="stop-color:#8C95A4"/>
		<stop  offset="0.1874" style="stop-color:#ADB5BF"/>
		<stop  offset="0.2414" style="stop-color:#C7CED5"/>
		<stop  offset="0.2999" style="stop-color:#DCE2E7"/>
		<stop  offset="0.3656" style="stop-color:#EBEFF3"/>
		<stop  offset="0.4439" style="stop-color:#F3F8FA"/>
		<stop  offset="0.5685" style="stop-color:#F6FAFC"/>
		<stop  offset="0.6461" style="stop-color:#F2F6F8"/>
		<stop  offset="0.7275" style="stop-color:#E6E9EB"/>
		<stop  offset="0.8105" style="stop-color:#D2D4D7"/>
		<stop  offset="0.8947" style="stop-color:#B6B7BA"/>
		<stop  offset="0.9791" style="stop-color:#939195"/>
		<stop  offset="1" style="stop-color:#89878B"/>
	</linearGradient>
	<path fill="url(#SVGID_10_)" d="M30.537,16.605c6.41-0.81,19.23-2.38,19.23-2.38v16.627c0,0-12.82-1.527-19.23-2.337
		c-2.109-0.26-4.289-1.43-5.539-3.2c-0.711-1.93-0.711-3.58,0-5.51C26.248,18.025,28.428,16.865,30.537,16.605z"/>
	
		<linearGradient id="multiply-up_3_" gradientUnits="userSpaceOnUse" x1="29.8096" y1="-7803.7603" x2="29.8096" y2="-7828.4272" gradientTransform="matrix(0 -1 1 0 7853.2744 52.3486)">
		<stop  offset="0" style="stop-color:#F6FAFC"/>
		<stop  offset="0.3548" style="stop-color:#F4F8FA"/>
		<stop  offset="0.4906" style="stop-color:#EDF1F3"/>
		<stop  offset="0.5889" style="stop-color:#E2E5E7"/>
		<stop  offset="0.669" style="stop-color:#D1D4D6"/>
		<stop  offset="0.7382" style="stop-color:#BBBEC0"/>
		<stop  offset="0.7997" style="stop-color:#A0A3A4"/>
		<stop  offset="0.8556" style="stop-color:#808283"/>
		<stop  offset="0.9071" style="stop-color:#5A5C5D"/>
		<stop  offset="0.9536" style="stop-color:#313232"/>
		<stop  offset="0.9966" style="stop-color:#040404"/>
		<stop  offset="1" style="stop-color:#000000"/>
	</linearGradient>
	<path id="multiply-up_1_" opacity="0.3"  filter="url(#Multiply)" fill="url(#multiply-up_3_)" d="M30.537,16.605c6.41-0.81,19.23-2.38,19.23-2.38v16.627
		c0,0-12.82-1.527-19.23-2.337c-2.109-0.26-4.289-1.43-5.539-3.2c-0.711-1.93-0.711-3.58,0-5.51
		C26.248,18.025,28.428,16.865,30.537,16.605z"/>
	
		<radialGradient id="SVGID_11_" cx="24.1138" cy="-7808.8022" r="16.9004" gradientTransform="matrix(0 -1 1 0 7853.2744 52.3486)" gradientUnits="userSpaceOnUse">
		<stop  offset="0.0051" style="stop-color:#F6FAFC"/>
		<stop  offset="1" style="stop-color:#89878B"/>
	</radialGradient>
	<ellipse fill="url(#SVGID_11_)" cx="51.052" cy="22.539" rx="8.476" ry="8.41"/>
	
		<radialGradient id="SVGID_12_" cx="23.8438" cy="-7795.8696" r="15.6178" gradientTransform="matrix(0 -1 1 0 7853.2744 52.3486)" gradientUnits="userSpaceOnUse">
		<stop  offset="0" style="stop-color:#F6FAFC"/>
		<stop  offset="1" style="stop-color:#89878B"/>
	</radialGradient>
	<circle fill="url(#SVGID_12_)" cx="51.053" cy="22.559" r="7.055"/>
	<g>
		<path fill="#FFFFFF" d="M42.719,22.531c0,4.597,3.718,8.327,8.333,8.403c-0.048,0.001-0.094,0.007-0.143,0.007
			c-4.681,0-8.475-3.766-8.475-8.411s3.794-8.41,8.475-8.41c0.049,0,0.095,0.006,0.143,0.007
			C46.438,14.205,42.719,17.934,42.719,22.531z"/>
		<path opacity="0.3" d="M57.962,22.552c0,3.847-3.081,6.969-6.909,7.047c0.049,0.001,0.097,0.007,0.146,0.007
			c3.896,0,7.055-3.159,7.055-7.055s-3.158-7.055-7.055-7.055c-0.049,0-0.097,0.006-0.146,0.007
			C54.881,15.583,57.962,18.705,57.962,22.552z"/>
		<path fill="#FFFFFF" d="M44.144,22.552c0,3.847,3.081,6.969,6.909,7.047c-0.049,0.001-0.096,0.007-0.146,0.007
			c-3.896,0-7.054-3.159-7.054-7.055s3.159-7.055,7.054-7.055c0.05,0,0.097,0.006,0.146,0.007
			C47.225,15.583,44.144,18.705,44.144,22.552z"/>
		<path opacity="0.75" fill="#FFFFFF" d="M24.998,25.315c-0.711-1.93-0.711-3.58,0-5.51c1.188-1.691,3.215-2.813,5.225-3.145v-0.055
			c-2.109,0.26-4.289,1.42-5.539,3.2c-0.711,1.93-0.711,3.58,0,5.51c1.25,1.77,3.43,2.94,5.539,3.2V28.46
			C28.213,28.128,26.186,26.998,24.998,25.315z"/>
	</g>
</g>
</svg>
