<?xml version="1.0" encoding="utf-8"?>
<!-- Generator: Adobe Illustrator 15.0.0, SVG Export Plug-In . SVG Version: 6.00 Build 0)  -->
<!DOCTYPE svg PUBLIC "-//W3C//DTD SVG 1.1//EN" "http://www.w3.org/Graphics/SVG/1.1/DTD/svg11.dtd">
<svg version="1.1" id="_x30_" xmlns:agg="http://www.example.com"
	 xmlns="http://www.w3.org/2000/svg" preserveAspectRatio="none"   x="0px" y="0px" 
	  viewBox="-17.4 13.044 41.848 18.323" enable-background="new -17.4 13.044 41.848 18.323" xml:space="preserve"
	>
<agg:params>
	<agg:param type="C" name="color" description="Color" cssAttributes="fill" classes="color"/>
	<agg:param type="C" name="strokeColor" description="Stroke Color" cssAttributes="stroke" classes="color,stroked"/>
</agg:params>
<style type="text/css" >
<![CDATA[

	.color,.stroked,.dashed{
		stroke-width:0.5;
		stroke-linecap:round;
		stroke-linejoin:round;
		stroke: #000000;
	}
	
	.color {
		fill:   #A1BFE2;

	}
	
	.stroked,.dashed{
		fill:none;
	}
	
	.dashed {
		stroke-dasharray:1.4173,1.4173;
	}

      ]]>
</style>

<path class="color" d="M10.129,24.628
	c0-4.825-4.092-8.156-8.201-9.438c-4.11,1.282-8.2,4.612-8.2,9.438c-3.237,0-6.474,0-9.711,0c0-3.208,1.903-5.89,4.406-7.614
	c2.516-1.734,5.641-2.552,8.65-2.552c3.235,0,6.472,0,9.709,0c3.008,0,6.135,0.818,8.651,2.552c2.5,1.725,4.404,4.406,4.404,7.614
	c1.064,0,2.128,0,3.192,0c-2.682,1.774-5.366,3.549-8.048,5.322c-2.684-1.773-5.365-3.548-8.049-5.322
	C7.998,24.628,9.063,24.628,10.129,24.628z"/>
<path class="stroked" d="M1.928,15.19 c-1.599-0.498-3.184-0.729-4.854-0.729"/>
	
</svg>
