<?xml version="1.0" encoding="utf-8"?>
<!-- Generator: Adobe Illustrator 15.1.0, SVG Export Plug-In . SVG Version: 6.00 Build 0)  -->
<!DOCTYPE svg PUBLIC "-//W3C//DTD SVG 1.1//EN" "http://www.w3.org/Graphics/SVG/1.1/DTD/svg11.dtd">
<svg version="1.1" id="Layer_1" xmlns="http://www.w3.org/2000/svg" preserveAspectRatio="none"   x="0px" y="0px"
	   viewBox="0 0 50 50" xmlns:agg="http://www.example.com" xml:space="preserve">
	 
<agg:params>
	<agg:param type="C" name="color" description="Color" cssAttributes="fill" classes="color"/>
	<agg:param type="C" name="strokeColor" description="Stroke Color" cssAttributes="stroke" classes="color,stroked"/>
</agg:params>

<style type="text/css" >
<![CDATA[

	.color,.stroked,.dashed{
		stroke-width:0.5;
		stroke-linecap:round;
		stroke-linejoin:round;
		stroke: #000000;
	}
	
	.color {
		fill:   #A1BFE2;

	}
	
	.stroked,.dashed{
		fill:none;
	}
	
	.dashed {
		stroke-dasharray:1.4173,1.4173;
	}
]]>
</style>
	 
<path class="color" d="M13.743,39.02
	c-0.357,2.689-0.548,5.376-0.575,8.089c1.467,0.785,2.975,1.409,4.567,1.892c1.899-1.938,3.664-3.973,5.313-6.127
	c1.31,0.144,2.596,0.144,3.906,0c1.649,2.154,3.414,4.189,5.313,6.127c1.592-0.482,3.101-1.106,4.567-1.892
	c-0.026-2.713-0.218-5.399-0.575-8.089c1.027-0.824,1.938-1.734,2.762-2.762c2.689,0.357,5.376,0.548,8.089,0.574
	c0.785-1.467,1.409-2.975,1.892-4.566c-1.938-1.898-3.973-3.664-6.127-5.313c0.145-1.31,0.145-2.596,0-3.906
	c2.154-1.649,4.189-3.414,6.127-5.313c-0.482-1.592-1.106-3.1-1.892-4.567c-2.713,0.027-5.399,0.218-8.089,0.576
	c-0.824-1.027-1.734-1.938-2.762-2.762c0.357-2.689,0.549-5.376,0.575-8.089C35.366,2.106,33.857,1.482,32.266,1
	c-1.898,1.938-3.663,3.972-5.313,6.126c-1.31-0.144-2.596-0.144-3.906,0C21.398,4.972,19.633,2.938,17.734,1
	c-1.592,0.482-3.1,1.106-4.567,1.892c0.027,2.713,0.218,5.399,0.575,8.089c-1.027,0.825-1.938,1.735-2.762,2.762
	c-2.69-0.357-5.376-0.549-8.089-0.576C2.106,14.634,1.482,16.142,1,17.734c1.938,1.899,3.972,3.664,6.126,5.313
	c-0.143,1.31-0.143,2.597,0,3.906C4.972,28.602,2.938,30.367,1,32.266c0.482,1.592,1.106,3.1,1.892,4.566
	c2.713-0.026,5.399-0.217,8.089-0.574C11.805,37.285,12.715,38.195,13.743,39.02z"/>
		
<g class="stroked">
	<path d="M42.873,23.047c-0.371-3.406-1.709-6.633-3.854-9.304"/>
	<path d="M39.02,36.258c2.145-2.672,3.482-5.899,3.854-9.305"/>
	<path d="M26.953,42.873c3.406-0.371,6.633-1.709,9.305-3.854"/>
	<path d="M13.743,39.02c2.671,2.145,5.899,3.482,9.304,3.854"/>
	<path d="M7.126,26.953c0.372,3.405,1.709,6.633,3.854,9.305"/>
	<path d="M10.981,13.743c-2.145,2.671-3.482,5.898-3.854,9.304"/>
	<path d="M23.047,7.126c-3.405,0.372-6.633,1.709-9.304,3.854"/>
	<path d="M36.258,10.98c-2.672-2.145-5.898-3.482-9.305-3.854"/>
	<circle cx="25" cy="25" r="7.192"/>
</g>
</svg>
