<?xml version="1.0" encoding="utf-8"?>
<!-- Generator: Adobe Illustrator 15.1.0, SVG Export Plug-In . SVG Version: 6.00 Build 0)  -->
<!DOCTYPE svg PUBLIC "-//W3C//DTD SVG 1.1//EN" "http://www.w3.org/Graphics/SVG/1.1/DTD/svg11.dtd">
<svg version="1.1" id="Layer_1" xmlns="http://www.w3.org/2000/svg" preserveAspectRatio="none"  x="0px" y="0px"
       viewBox="0 0 152 142.5" xmlns:agg="http://www.example.com">

<agg:params>
	<agg:param type="C" name="color" description="Color" cssAttributes="fill" classes="color"/>
</agg:params>

<style type="text/css" >
<![CDATA[

	.stroked,.dashed{
		stroke-width:0.5;
		stroke-linecap:round;
		stroke-linejoin:round;
		stroke: #000000;
	}
	
	.color {
		fill: #FFCC00;

	}
	
	.stroked,.dashed{
		fill:none;
	}
	
	.dashed {
		stroke-dasharray:1.4173,1.4173;
	}

      ]]>
</style>
	 
	<path d="M100.917,82.067h50.08v54.629l-3.005,3.299h-43.777l-3.297-3.299V82.067
		L100.917,82.067z M1,82.067v54.629l3.005,3.299h43.778l3.297-3.299V82.067H1L1,82.067z"/>
	<polygon class="color" points="146.491,7.016 151,7.016 151,1 1.003,1 1.003,7.016
		5.803,7.016 5.803,57.134 1.003,57.134 1.003,82.071 47.787,82.071 47.787,100.993 29.219,100.993 29.219,107.251 32.225,107.251 
		32.225,110.26 119.779,110.26 119.779,107.251 122.785,107.251 122.785,100.993 104.217,100.993 104.217,82.071 151,82.071 
		151,57.134 146.491,57.134 	"/>
	<polygon opacity="0.3" points="104.216,50.869 141.69,50.869 141.69,57.175 146.342,57.175 146.342,7.058 5.654,7.058 5.654,57.175 104.216,57.175 	"/>
	<path opacity="0.1" d="M141.542,7.058h4.8v25.229h-4.8V7.058L141.542,7.058z
		 M122.344,7.058v25.229h4.508V7.058H122.344L122.344,7.058z M102.856,7.058v25.229h4.508V7.058H102.856L102.856,7.058z
		 M83.367,7.058v25.229h4.508V7.058H83.367L83.367,7.058z M63.877,7.058v25.229h4.8V7.058H63.877L63.877,7.058z M44.34,7.058v25.229
		h4.8V7.058H44.34L44.34,7.058z M25.143,7.058v25.229h4.508V7.058H25.143L25.143,7.058z M5.654,7.058v25.229h4.509V7.058H5.654
		L5.654,7.058z"/>
	<polygon opacity="0.7" points="32.225,107.251 119.779,107.251 119.779,110.26 32.225,110.26 32.225,107.251 	"/>
	<path fill="#333333" d="M119.776,88.374h31.221V138.2l-3.005,3.3h-25.21l-3.005-3.3V88.374L119.776,88.374z M1,88.374V138.2l3.005,3.3h25.21l3.005-3.3V88.374H1L1,88.374z"/>
	<path fill="#4C4C4C" d="M122.781,96.186H147.7V138.2h-24.918V96.186L122.781,96.186z M4.005,96.186V138.2h25.21V96.186H4.005L4.005,96.186z"/>
	<polygon fill="#4C4C4C" points="107.219,26.078 138.391,26.078 141.688,50.967 104.214,50.967 107.219,26.078 	"/>
	<polygon fill="#191919" points="109.886,28.165 136.016,28.165 138.391,48.88 107.219,48.88 109.886,28.165 	"/>
	
	<polygon fill="#333333" points="52.583,61.642 99.414,61.642 99.414,103.997 52.583,103.997 52.583,61.642 	"/>
	<path fill="#191919" d="M54.086,63.146h43.826v18.921H54.086V63.146L54.086,63.146z
		 M54.086,83.571v18.921h43.826V83.571H54.086L54.086,83.571z"/>
	<path fill="#CCCCCC" d="M93.112,63.146h4.8v1.795h-4.8V63.146L93.112,63.146z
		 M54.086,63.146v1.795h4.8v-1.795H54.086L54.086,63.146z M54.086,100.649v1.844h4.8v-1.844H54.086L54.086,100.649z M93.112,100.649
		v1.844h4.8v-1.844H93.112L93.112,100.649z"/>
	<polygon fill="#7F7F7F" points="2.503,64.941 15.107,64.941 15.107,74.256 2.503,74.256 2.503,64.941 	"/>
	<polygon fill="#7F7F7F" points="136.889,64.941 149.493,64.941 149.493,74.256 136.889,74.256 136.889,64.941 	"/>
	<polygon fill="#FF6600" points="136.889,71.247 149.493,71.247 149.493,72.752 136.889,72.752 136.889,71.247 	"/>
	<polygon fill="#FF6600" points="2.503,71.247 15.107,71.247 15.107,72.752 2.503,72.752 2.503,71.247 	"/>
	<path opacity="0.2" d="M13.605,57.175H1.003v24.938h46.784V57.175h3.293V44.562H13.605V57.175z M23.668,69.933
		c-2.236,0-4.048-1.813-4.048-4.048c0-2.235,1.812-4.048,4.048-4.048s4.048,1.813,4.048,4.048
		C27.716,68.12,25.904,69.933,23.668,69.933z M141.691,57.175v-6.307h-37.474v31.244H151V57.175H141.691z M128.335,69.933
		c-2.236,0-4.048-1.813-4.048-4.048c0-2.235,1.812-4.048,4.048-4.048s4.048,1.813,4.048,4.048
		C132.384,68.12,130.572,69.933,128.335,69.933z"/>
		
	<g class="stroked" opacity="0.5">
		<polyline points="35.517,57.153 35.517,38.523 1,38.523 1,57.153 		"/>
		<line x1="18.114" y1="38.523" x2="18.114" y2="57.153"/>
		<line x1="35.517" y1="47.838" x2="1" y2="47.838"/>
		<polyline points="150.997,57.153 150.997,38.523 116.479,38.523 116.479,57.153 		"/>
		<line x1="133.883" y1="38.523" x2="133.883" y2="57.153"/>
		<line x1="150.997" y1="47.838" x2="116.479" y2="47.838"/>
		<line x1="105.716" y1="47.838" x2="46.28" y2="47.838"/>
		<line x1="66.108" y1="38.523" x2="66.108" y2="57.153"/>
		<polyline points="105.716,57.153 105.716,38.523 46.28,38.523 46.28,57.153 		"/>
		<line x1="85.888" y1="57.153" x2="85.888" y2="38.523"/>
		<line x1="37.021" y1="55.649" x2="37.021" y2="118.09"/>
		<line x1="44.826" y1="55.649" x2="44.826" y2="118.09"/>
		<line x1="37.021" y1="61.957" x2="44.826" y2="61.957"/>
		<line x1="37.021" y1="68.263" x2="44.826" y2="68.263"/>
		<line x1="37.021" y1="74.28" x2="44.826" y2="74.28"/>
		<line x1="37.021" y1="80.587" x2="44.826" y2="80.587"/>
		<line x1="37.021" y1="86.893" x2="44.826" y2="86.893"/>
		<line x1="37.021" y1="93.201" x2="44.826" y2="93.201"/>
		<line x1="37.021" y1="99.508" x2="44.826" y2="99.508"/>
		<line x1="44.826" y1="111.783" x2="37.021" y2="111.783"/>
		<line x1="107.219" y1="55.649" x2="107.219" y2="118.09"/>
		<line x1="114.976" y1="55.649" x2="114.976" y2="118.09"/>
		<line x1="107.219" y1="61.957" x2="114.976" y2="61.957"/>
		<line x1="107.219" y1="68.263" x2="114.976" y2="68.263"/>
		<line x1="107.219" y1="74.28" x2="114.976" y2="74.28"/>
		<line x1="107.219" y1="80.587" x2="114.976" y2="80.587"/>
		<line x1="107.219" y1="86.893" x2="114.976" y2="86.893"/>
		<line x1="107.219" y1="93.201" x2="114.976" y2="93.201"/>
		<line x1="107.219" y1="99.508" x2="114.976" y2="99.508"/>
		<line x1="114.976" y1="111.783" x2="107.219" y2="111.783"/>
		<line x1="141.69" y1="57.175" x2="104.216" y2="57.175"/>
	</g>
</svg>
