<?xml version="1.0" encoding="utf-8"?>
<!-- Generator: Adobe Illustrator 15.1.0, SVG Export Plug-In . SVG Version: 6.00 Build 0)  -->
<!DOCTYPE svg PUBLIC "-//W3C//DTD SVG 1.1//EN" "http://www.w3.org/Graphics/SVG/1.1/DTD/svg11.dtd">
<svg version="1.1" id="Layer_1" xmlns="http://www.w3.org/2000/svg" preserveAspectRatio="none"  xmlns:agg="http://www.example.com" xmlns:xlink="http://www.w3.org/1999/xlink" x="0px" y="0px"
	   viewBox="0 0 250 220" xml:space="preserve">
	 
<agg:params>
	<agg:param type="C" name="color" description="Color" cssAttributes="fill" classes="color"/>
	<agg:param type="F" name="saturation" description="Saturation" min="0" max="1" cssAttributes="opacity" classes="color"/>
</agg:params>

<style type="text/css" >
   <![CDATA[

	.stroke{
		stroke-width:0.3;
		stroke-linecap:round;
		stroke-linejoin:round;
		stroke: black;
		fill:none;
	}
	
	.color {
		fill:#3664BF;
		opacity:0.2;
	}

      ]]>
</style>

<defs>
	<path id="tankBoundary" d="M231.818,10H220V0h-30v10H60V0H30v10
		H18.182C8.141,10,0,43.579,0,85c0,41.422,8.141,75,18.182,75H30v10h0l-5,50h40l-4.926-50H60v-10h130v10l-5,50h40l-4.926-50H220v-10
		h11.818C241.859,160,250,126.422,250,85C250,43.579,241.859,10,231.818,10z"/>
</defs>
	 
<linearGradient id="tankBody" gradientUnits="userSpaceOnUse" x1="280.9297" y1="-121.6895" x2="430.9297" y2="-121.6895" gradientTransform="matrix(4.489659e-011 -1 -1 -4.489659e-011 3.3105 440.9297)">
	<stop  offset="0" style="stop-color:#767676"/>
	<stop  offset="0.06" style="stop-color:#919191"/>
	<stop  offset="0.14" style="stop-color:#B1B1B1"/>
	<stop  offset="0.21" style="stop-color:#CECECE"/>
	<stop  offset="0.28" style="stop-color:#E4E4E4"/>
	<stop  offset="0.35" style="stop-color:#F6F6F6"/>
	<stop  offset="0.42" style="stop-color:#FEFEFF"/>
	<stop  offset="0.47" style="stop-color:#F6F6F6"/>
	<stop  offset="0.53" style="stop-color:#E7E7E7"/>
	<stop  offset="0.58" style="stop-color:#D2D1D1"/>
	<stop  offset="0.64" style="stop-color:#B7B7B7"/>
	<stop  offset="0.7" style="stop-color:#989898"/>
	<stop  offset="0.72" style="stop-color:#8B8B8B"/>
	<stop  offset="1" style="stop-color:#FDFDFD"/>
</linearGradient>

<path id="tankBody" fill="url(#tankBody)" d="M0,85c0,41.421,8.14,75,18.182,75h213.636C241.859,160,250,126.421,250,85
	c0-41.422-8.141-75-18.182-75H18.182C8.14,10,0,43.578,0,85z"/>
	
<linearGradient id="tankSupport"  x1="355.9297" y1="3.3101" x2="355.9297" y2="-246.6899" gradientTransform="matrix(0 -1 -1 0 3.3105 440.9297)">
	<stop  offset="0" style="stop-color:#757575"/>
	<stop  offset="0.03" style="stop-color:#959595"/>
	<stop  offset="0.06" style="stop-color:#BABABA"/>
	<stop  offset="0.1" style="stop-color:#D7D7D7"/>
	<stop  offset="0.13" style="stop-color:#EBEBEB"/>
	<stop  offset="0.17" style="stop-color:#F8F8F8"/>
	<stop  offset="0.2" style="stop-color:#FCFCFC"/>
	<stop  offset="0.9" style="stop-color:#FFFFFF"/>
	<stop  offset="1" style="stop-color:#B0B0B0"/>
</linearGradient>

<path fill="none" stroke="#000000" stroke- stroke-linecap="round" stroke-linejoin="round" d="M0,85
	c0,41.421,8.14,75,18.182,75h213.636C241.859,160,250,126.421,250,85c0-41.422-8.141-75-18.182-75H18.182C8.14,10,0,43.578,0,85z"
	/>

<g id="support">	
	<linearGradient id="supportGradient1" gradientUnits="userSpaceOnUse" x1="45" y1="170" x2="45" y2="0">
		<stop  offset="0.0051" style="stop-color:#A6A6A6"/>
		<stop  offset="0.0575" style="stop-color:#BABABA"/>
		<stop  offset="0.15" style="stop-color:#D7D7D7"/>
		<stop  offset="0.242" style="stop-color:#EBEBEB"/>
		<stop  offset="0.3326" style="stop-color:#F8F8F8"/>
		<stop  offset="0.42" style="stop-color:#FCFCFC"/>
		<stop  offset="0.4749" style="stop-color:#F8F8F8"/>
		<stop  offset="0.5318" style="stop-color:#EBEBEB"/>
		<stop  offset="0.5897" style="stop-color:#D7D7D7"/>
		<stop  offset="0.6481" style="stop-color:#BABABA"/>
		<stop  offset="0.7066" style="stop-color:#959595"/>
		<stop  offset="0.72" style="stop-color:#8B8B8B"/>
		<stop  offset="1" style="stop-color:#FCFCFC"/>
	</linearGradient>
	<rect x="30" fill="url(#supportGradient1)"  />
	<linearGradient id="supportGradient2" gradientUnits="userSpaceOnUse" x1="205" y1="220" x2="205" y2="170">
		<stop  offset="0.0051" style="stop-color:#757575"/>
		<stop  offset="0.0225" style="stop-color:#797979"/>
		<stop  offset="0.2218" style="stop-color:#9E9E9E"/>
		<stop  offset="0.4213" style="stop-color:#BBBBBB"/>
		<stop  offset="0.6185" style="stop-color:#CFCFCF"/>
		<stop  offset="0.8127" style="stop-color:#DCDCDC"/>
		<stop  offset="1" style="stop-color:#E0E0E0"/>
	</linearGradient>
	<polygon fill="url(#supportGradient2)" points="65,220 25,220 30,170 60.074,170"/>
</g>

<use xlink:href="#support" x="160"/>

<use xlink:href="#tankBoundary" class="color"/>
		
<g class="stroke">
	<line x1="190" y1="10" x2="190" y2="160"/>
	<line x1="220" y1="10" x2="220" y2="160"/>
	<line x1="60" y1="10" x2="60" y2="160"/>
	<line x1="30" y1="10" x2="30" y2="160"/>
	<line x1="30" y1="170" x2="60" y2="170"/>
	<line x1="190" y1="170" x2="220" y2="170"/>
	<use xlink:href="#tankBoundary"/>
</g>

</svg>
