<?xml version="1.0" encoding="utf-8"?>
<!-- Generator: Adobe Illustrator 19.0.0, SVG Export Plug-In . SVG Version: 6.00 Build 0)  -->
<svg version="1.1" id="图层_1" xmlns="http://www.w3.org/2000/svg" xmlns:xlink="http://www.w3.org/1999/xlink" x="0px" y="0px"
	 viewBox="0 0 50 40" style="enable-background:new 0 0 50 40;" xml:space="preserve">
<style type="text/css">
	.st0{fill:#FF0000;}
</style>
<g id="XMLID_1_">
	<g id="XMLID_29_">
		<path id="XMLID_30_" class="st0" d="M4.7,24.4c1.9,0,3.4,1.5,3.4,3.4s-1.5,3.4-3.4,3.4s-3.4-1.5-3.4-3.4S2.9,24.4,4.7,24.4
			 M4.7,23.4c-2.4,0-4.4,2-4.4,4.4c0,2.4,2,4.4,4.4,4.4s4.4-2,4.4-4.4C9.1,25.3,7.1,23.4,4.7,23.4L4.7,23.4z"/>
	</g>
</g>
<g id="XMLID_8_">
	<g id="XMLID_24_">
		<path id="XMLID_25_" class="st0" d="M45.4,24.4c1.9,0,3.4,1.5,3.4,3.4s-1.5,3.4-3.4,3.4s-3.4-1.5-3.4-3.4S43.6,24.4,45.4,24.4
			 M45.4,23.4c-2.4,0-4.4,2-4.4,4.4c0,2.4,2,4.4,4.4,4.4s4.4-2,4.4-4.4C49.8,25.3,47.8,23.4,45.4,23.4L45.4,23.4z"/>
	</g>
</g>
<rect id="XMLID_6_" x="6.3" y="15.4" transform="matrix(0.866 0.5 -0.5 0.866 11.3578 -10.744)" class="st0" width="38.8" height="0.9"/>
</svg>
