<?xml version="1.0" encoding="utf-8"?>
<!-- Generator: Adobe Illustrator 19.0.0, SVG Export Plug-In . SVG Version: 6.00 Build 0)  -->
<svg version="1.1" id="图层_1" xmlns="http://www.w3.org/2000/svg" xmlns:xlink="http://www.w3.org/1999/xlink" x="0px" y="0px"
	 viewBox="0 0 40 40" style="enable-background:new 0 0 40 40;" xml:space="preserve">
<style type="text/css">
	.st0{fill:#FF0000;}
	.st1{fill:none;stroke:#FF0000;stroke-width:2;stroke-linecap:round;stroke-miterlimit:10;}
</style>
<g>
	<path class="st0" d="M20,0.8c10.6,0,19.3,8.6,19.3,19.3S30.6,39.3,20,39.3S0.8,30.6,0.8,20S9.4,0.8,20,0.8 M20,0C9,0,0,9,0,20
		s9,20,20,20s20-9,20-20S31,0,20,0L20,0z"/>
</g>
<line class="st1" x1="20" y1="6" x2="20" y2="17.1"/>
<line class="st1" x1="6.3" y1="17.1" x2="34.3" y2="17.1"/>
<line class="st1" x1="11.6" y1="23.8" x2="29.8" y2="23.8"/>
<line class="st1" x1="15" y1="30.1" x2="25.8" y2="30.1"/>
</svg>
