<?xml version="1.0" encoding="utf-8"?>
<!-- Generator: Adobe Illustrator 19.0.0, SVG Export Plug-In . SVG Version: 6.00 Build 0)  -->
<svg version="1.1" id="图层_1" xmlns="http://www.w3.org/2000/svg" xmlns:xlink="http://www.w3.org/1999/xlink" x="0px" y="0px"
	 viewBox="0 0 60 40" style="enable-background:new 0 0 60 40;" xml:space="preserve">
<style type="text/css">
	.st0{fill:#0000FF;}
</style>
<g id="XMLID_227_">
	<path id="XMLID_242_" class="st0" d="M20,0.8c10.6,0,19.3,8.6,19.3,19.3S30.6,39.3,20,39.3S0.8,30.6,0.8,20S9.4,0.8,20,0.8 M20,0
		C9,0,0,9,0,20s9,20,20,20s20-9,20-20S31,0,20,0L20,0z"/>
</g>
<g id="XMLID_229_">
	<path id="XMLID_246_" class="st0" d="M40,0.8c10.6,0,19.3,8.6,19.3,19.3S50.6,39.3,40,39.3S20.8,30.6,20.8,20S29.4,0.8,40,0.8
		 M40,0C29,0,20,9,20,20s9,20,20,20s20-9,20-20S51,0,40,0L40,0z"/>
</g>
</svg>
