<?xml version="1.0" encoding="utf-8"?>
<!-- Generator: Adobe Illustrator 19.0.0, SVG Export Plug-In . SVG Version: 6.00 Build 0)  -->
<svg version="1.1" id="图层_1" xmlns="http://www.w3.org/2000/svg" xmlns:xlink="http://www.w3.org/1999/xlink" x="0px" y="0px"
	 viewBox="29 -15 60 30" style="enable-background:new 29 -15 60 30;" xml:space="preserve">
<style type="text/css">
	.st0{fill:#FF0000;}
	.st1{fill:#FFFFFF;}
</style>
<rect id="XMLID_2_" x="35.6" y="0.7" class="st0" width="47.7" height="0.8"/>
<g id="XMLID_11_">
	<path id="XMLID_18_" class="st0" d="M76.4-8l10.9,9.2l-10.9,9.2V-8 M75.2-10.4v23.2L89,1.1L75.2-10.4L75.2-10.4z"/>
</g>
<rect id="XMLID_10_" x="74.8" y="-10.4" class="st1" width="1.8" height="11.2"/>
<rect id="XMLID_3_" x="74.8" y="1.6" class="st1" width="1.8" height="11.2"/>
<g id="XMLID_9_">
	<path id="XMLID_21_" class="st0" d="M71.1-8L82,1.1l-10.9,9.2V-8 M69.9-10.4v23.2L83.7,1.1L69.9-10.4L69.9-10.4z"/>
</g>
<rect id="XMLID_1_" x="69.5" y="-10.4" class="st1" width="1.9" height="11.2"/>
<rect id="XMLID_6_" x="69.5" y="1.6" class="st1" width="1.9" height="11.2"/>
<g id="XMLID_14_">
	<path id="XMLID_15_" class="st0" d="M41.6-8v18.3L30.7,1.1L41.6-8 M42.8-10.4L29,1.1l13.8,11.6V-10.4L42.8-10.4z"/>
</g>
<rect id="XMLID_13_" x="41.4" y="-10.4" class="st1" width="1.8" height="11.2"/>
<rect id="XMLID_12_" x="41.4" y="1.6" class="st1" width="1.8" height="11.2"/>
<g id="XMLID_7_">
	<path id="XMLID_8_" class="st0" d="M46.9-8v18.3L36,1.1L46.9-8 M48.1-10.4L34.3,1.1l13.8,11.6V-10.4L48.1-10.4z"/>
</g>
<rect id="XMLID_5_" x="46.7" y="-10.4" class="st1" width="1.9" height="11.2"/>
<rect id="XMLID_4_" x="46.7" y="1.6" class="st1" width="1.9" height="11.2"/>
</svg>
