<?xml version="1.0" encoding="utf-8"?>
<!-- Generator: Adobe Illustrator 19.0.0, SVG Export Plug-In . SVG Version: 6.00 Build 0)  -->
<svg version="1.1" id="图层_1" xmlns="http://www.w3.org/2000/svg" xmlns:xlink="http://www.w3.org/1999/xlink" x="0px" y="0px"
	 viewBox="0 0 50 40" style="enable-background:new 0 0 50 40;" xml:space="preserve">
<style type="text/css">
	.st0{fill:#FF0000;}
</style>
<g id="XMLID_2_">
	<g id="XMLID_22_">
		<path id="XMLID_23_" class="st0" d="M5.2,23.9c2.3,0,4.2,1.9,4.2,4.2s-1.9,4.2-4.2,4.2S1,30.4,1,28.1S2.9,23.9,5.2,23.9 M5.2,22.9
			c-2.9,0-5.2,2.3-5.2,5.2s2.3,5.2,5.2,5.2s5.2-2.3,5.2-5.2S8.1,22.9,5.2,22.9L5.2,22.9z"/>
	</g>
</g>
<g id="XMLID_6_">
	<g id="XMLID_34_">
		<path id="XMLID_35_" class="st0" d="M44.8,23.9c2.3,0,4.2,1.9,4.2,4.2s-1.9,4.2-4.2,4.2s-4.2-1.9-4.2-4.2S42.4,23.9,44.8,23.9
			 M44.8,22.9c-2.9,0-5.2,2.3-5.2,5.2s2.3,5.2,5.2,5.2S50,31,50,28.1S47.7,22.9,44.8,22.9L44.8,22.9z"/>
	</g>
</g>
<rect id="XMLID_12_" x="3.3" y="15.9" transform="matrix(0.8984 0.4392 -0.4392 0.8984 9.557 -8.4321)" class="st0" width="39.4" height="1"/>
<g id="XMLID_3_">
	<path id="XMLID_20_" class="st0" d="M14.6,7l22,10.8l-4.2,8.6l-22-10.8L14.6,7 M14.2,5.7L9.1,16.1l23.8,11.6L38,17.3L14.2,5.7
		L14.2,5.7z"/>
</g>
</svg>
