<?xml version="1.0" encoding="utf-8"?>
<!-- Generator: Adobe Illustrator 19.0.0, SVG Export Plug-In . SVG Version: 6.00 Build 0)  -->
<svg version="1.1" id="图层_1" xmlns="http://www.w3.org/2000/svg" xmlns:xlink="http://www.w3.org/1999/xlink" x="0px" y="0px"
	 viewBox="0 0 50 50" style="enable-background:new 0 0 50 50;" xml:space="preserve">
<style type="text/css">
	.st0{fill:#F7B52C;}
	.st1{fill:none;stroke:#F7B52C;stroke-width:0.75;stroke-miterlimit:10;}
	.st2{fill:none;stroke:#0DAC67;stroke-width:0.75;stroke-miterlimit:10;}
	.st3{fill:#0DAC67;}
	.st4{fill:none;stroke:#E51373;stroke-width:0.75;stroke-miterlimit:10;}
	.st5{fill:#E51373;}
</style>
<g id="XMLID_23_">
	<g id="XMLID_46_">
		<path id="XMLID_47_" class="st0" d="M9.5,14.6l16.1,10.5L9.5,35.6V14.6 M8.7,13.2V37L27,25.1L8.7,13.2L8.7,13.2z"/>
	</g>
</g>
<circle id="XMLID_22_" class="st1" cx="14" cy="25.1" r="13.4"/>
<circle id="XMLID_19_" class="st2" cx="35.5" cy="36.1" r="13.4"/>
<rect id="XMLID_17_" x="35.2" y="36.1" class="st3" width="0.7" height="13.2"/>
<rect id="XMLID_16_" x="30.3" y="25.2" transform="matrix(-0.7071 0.7071 -0.7071 -0.7071 74.938 32.6464)" class="st3" width="0.7" height="13.4"/>
<rect id="XMLID_15_" x="39.9" y="25.1" transform="matrix(0.7071 0.7071 -0.7071 0.7071 34.3479 -19.1477)" class="st3" width="0.7" height="13.5"/>
<circle id="XMLID_12_" class="st4" cx="35.6" cy="14" r="13.4"/>
<rect id="XMLID_6_" x="35.3" y="14" class="st5" width="0.7" height="13.2"/>
<rect id="XMLID_4_" x="30.5" y="3.1" transform="matrix(-0.7071 0.7071 -0.7071 -0.7071 59.4942 -5.1511)" class="st5" width="0.7" height="13.4"/>
<rect id="XMLID_3_" x="40" y="3" transform="matrix(0.7071 0.7071 -0.7071 0.7071 18.7538 -25.6949)" class="st5" width="0.7" height="13.5"/>
<line id="XMLID_8_" class="st4" x1="52.1" y1="-0.4" x2="22.9" y2="50.7"/>
</svg>
