<?xml version="1.0" encoding="utf-8"?>
<!-- Generator: Adobe Illustrator 19.0.0, SVG Export Plug-In . SVG Version: 6.00 Build 0)  -->
<svg version="1.1" id="图层_1" xmlns="http://www.w3.org/2000/svg" xmlns:xlink="http://www.w3.org/1999/xlink" x="0px" y="0px"
	 viewBox="0 0 40 40" style="enable-background:new 0 0 40 40;" xml:space="preserve">
<style type="text/css">
	.st0{fill:#FF0000;}
</style>
<g id="XMLID_1_">
	<g id="XMLID_26_">
		<path id="XMLID_27_" class="st0" d="M3.5,32.8c1.5,0,2.7,1.2,2.7,2.7S5,38.3,3.5,38.3S0.7,37,0.7,35.5S2,32.8,3.5,32.8 M3.5,32
			C1.6,32,0,33.6,0,35.5C0,37.4,1.6,39,3.5,39S7,37.4,7,35.5C7,33.6,5.4,32,3.5,32L3.5,32z"/>
	</g>
</g>
<g id="XMLID_3_">
	<g id="XMLID_5_">
		<path id="XMLID_7_" class="st0" d="M3.5,0.8C5,0.8,6.2,2,6.2,3.5S5,6.2,3.5,6.2S0.7,5,0.7,3.5S2,0.8,3.5,0.8 M3.5,0
			C1.6,0,0,1.6,0,3.5C0,5.4,1.6,7,3.5,7S7,5.4,7,3.5C7,1.6,5.4,0,3.5,0L3.5,0z"/>
	</g>
</g>
<g id="XMLID_8_">
	<g id="XMLID_21_">
		<path id="XMLID_22_" class="st0" d="M36.5,32.8c1.5,0,2.7,1.2,2.7,2.7s-1.2,2.7-2.7,2.7s-2.7-1.2-2.7-2.7S35,32.8,36.5,32.8
			 M36.5,32c-1.9,0-3.5,1.6-3.5,3.5c0,1.9,1.6,3.5,3.5,3.5c1.9,0,3.5-1.6,3.5-3.5C40,33.6,38.4,32,36.5,32L36.5,32z"/>
	</g>
</g>
<rect id="XMLID_6_" x="6.8" y="35.2" class="st0" width="26.3" height="0.7"/>
</svg>
