<?xml version="1.0" encoding="utf-8"?>
<!-- Generator: Adobe Illustrator 19.0.0, SVG Export Plug-In . SVG Version: 6.00 Build 0)  -->
<svg version="1.1" id="图层_1" xmlns="http://www.w3.org/2000/svg" xmlns:xlink="http://www.w3.org/1999/xlink" x="0px" y="0px"
	 viewBox="0 -10 60 60" style="enable-background:new 0 -10 60 60;" xml:space="preserve">
<style type="text/css">
	.st0{fill:none;stroke:#00FF00;stroke-width:0.75;stroke-miterlimit:10;}
	.st1{fill:none;stroke:#00FF00;stroke-width:0.75;stroke-linecap:round;stroke-miterlimit:10;}
</style>
<path class="st0" d="M28.8-5.9v9.2c0,0,5.2,1.1,5.2,5.2s-5.2,4-5.2,4s-7-0.3-7-2C21.8,5.4,35,5,35,12.9c0,5.1-2.1,6-5.4,6
	c0,0-7.8,0.4-7.8-2.8S35,12.2,35,18.9c0,0-0.4,5.8-6.1,5.8s-7.1-1.3-7.1-2.1c0-4.3,13.2-3.5,13.2,4c0,0-0.5,3.3-6.1,3.3v6.8"/>
<line class="st0" x1="23.3" y1="37.1" x2="34.7" y2="37.1"/>
<line class="st0" x1="24.2" y1="41.9" x2="33.8" y2="41.9"/>
<line class="st0" x1="24" y1="46.1" x2="34" y2="46.1"/>
<line class="st1" x1="19.7" y1="35.9" x2="35.6" y2="-7.3"/>
<line class="st1" x1="35.6" y1="-7.3" x2="32.8" y2="-4.5"/>
<line class="st1" x1="35.6" y1="-7.3" x2="35.6" y2="-3.6"/>
</svg>
