<?xml version="1.0" encoding="utf-8"?>
<!-- Generator: Adobe Illustrator 19.0.0, SVG Export Plug-In . SVG Version: 6.00 Build 0)  -->
<svg version="1.1" id="图层_1" xmlns="http://www.w3.org/2000/svg" xmlns:xlink="http://www.w3.org/1999/xlink" x="0px" y="0px"
	 viewBox="0 0 40 50" style="enable-background:new 0 0 40 50;" xml:space="preserve">
<style type="text/css">
	.st0{fill:#FF0000;}
</style>
<g id="XMLID_1_">
	<g id="XMLID_32_">
		<path id="XMLID_33_" class="st0" d="M3.5,43c1.5,0,2.7,1.2,2.7,2.7S5,48.4,3.5,48.4s-2.7-1.2-2.7-2.7S2,43,3.5,43 M3.5,42.2
			c-1.9,0-3.5,1.6-3.5,3.5c0,1.9,1.6,3.5,3.5,3.5S7,47.6,7,45.7C7,43.8,5.4,42.2,3.5,42.2L3.5,42.2z"/>
	</g>
</g>
<g id="XMLID_3_">
	<g id="XMLID_27_">
		<path id="XMLID_28_" class="st0" d="M3.5,0.7C5,0.7,6.2,2,6.2,3.5S5,6.2,3.5,6.2S0.7,5,0.7,3.5S2,0.7,3.5,0.7 M3.5,0
			C1.6,0,0,1.6,0,3.5S1.6,7,3.5,7S7,5.4,7,3.5S5.4,0,3.5,0L3.5,0z"/>
	</g>
</g>
<g id="XMLID_4_">
	<g id="XMLID_7_">
		<path id="XMLID_9_" class="st0" d="M27.5,12.7c1.5,0,2.7,1.2,2.7,2.7s-1.2,2.7-2.7,2.7s-2.7-1.2-2.7-2.7S26,12.7,27.5,12.7
			 M27.5,12c-1.9,0-3.5,1.6-3.5,3.5s1.6,3.5,3.5,3.5s3.5-1.6,3.5-3.5S29.4,12,27.5,12L27.5,12z"/>
	</g>
</g>
<g id="XMLID_8_">
	<g id="XMLID_22_">
		<path id="XMLID_23_" class="st0" d="M36.5,43c1.5,0,2.7,1.2,2.7,2.7s-1.2,2.7-2.7,2.7s-2.7-1.2-2.7-2.7S35,43,36.5,43 M36.5,42.2
			c-1.9,0-3.5,1.6-3.5,3.5c0,1.9,1.6,3.5,3.5,3.5c1.9,0,3.5-1.6,3.5-3.5C40,43.8,38.4,42.2,36.5,42.2L36.5,42.2z"/>
	</g>
</g>
<rect id="XMLID_6_" x="6.8" y="45.4" class="st0" width="26.3" height="0.7"/>
</svg>
