<?xml version="1.0" encoding="utf-8"?>
<!-- Generator: Adobe Illustrator 19.0.0, SVG Export Plug-In . SVG Version: 6.00 Build 0)  -->
<svg version="1.1" id="图层_1" xmlns="http://www.w3.org/2000/svg" xmlns:xlink="http://www.w3.org/1999/xlink" x="0px" y="0px"
	 viewBox="0 0 50 40" style="enable-background:new 0 0 50 40;" xml:space="preserve">
<style type="text/css">
	.st0{fill:#FFFFFF;stroke:#FF0000;stroke-width:0.75;stroke-miterlimit:10;}
	.st1{fill:#FFFFFF;}
	.st2{fill:#FF0000;}
	.st3{fill:#FF0000;stroke:#FF0000;stroke-width:0.75;stroke-miterlimit:10;}
</style>
<line id="XMLID_204_" class="st0" x1="0" y1="-0.1" x2="31.5" y2="31.4"/>
<line id="XMLID_152_" class="st0" x1="18.5" y1="31.4" x2="50" y2="-0.1"/>
<g id="XMLID_141_">
	<path id="XMLID_233_" class="st1" d="M25,39.6C14.2,39.6,5.4,30.8,5.4,20S14.2,0.4,25,0.4S44.6,9.2,44.6,20S35.8,39.6,25,39.6z"/>
	<path id="XMLID_230_" class="st2" d="M25,0.8c10.6,0,19.3,8.6,19.3,19.3S35.6,39.3,25,39.3S5.8,30.6,5.8,20S14.4,0.8,25,0.8 M25,0
		C14,0,5,9,5,20s9,20,20,20s20-9,20-20S36,0,25,0L25,0z"/>
</g>
<rect id="XMLID_142_" x="8.8" y="8.8" class="st3" width="32.2" height="21.9"/>
</svg>
