<?xml version="1.0" encoding="utf-8"?>
<!-- Generator: Adobe Illustrator 19.0.0, SVG Export Plug-In . SVG Version: 6.00 Build 0)  -->
<svg version="1.1" id="图层_1" xmlns="http://www.w3.org/2000/svg" xmlns:xlink="http://www.w3.org/1999/xlink" x="0px" y="0px"
	 viewBox="0 0 50 30" style="enable-background:new 0 0 50 30;" xml:space="preserve">
<style type="text/css">
	.st0{fill:#FF0000;}
</style>
<g id="XMLID_1_">
	<g id="XMLID_27_">
		<path id="XMLID_28_" class="st0" d="M6,12.6c1.9,0,3.4,1.5,3.4,3.4S7.9,19.4,6,19.4S2.7,17.9,2.7,16S4.2,12.6,6,12.6 M6,11.6
			c-2.4,0-4.4,2-4.4,4.4s2,4.4,4.4,4.4s4.4-2,4.4-4.4S8.4,11.6,6,11.6L6,11.6z"/>
	</g>
</g>
<g id="XMLID_8_">
	<g id="XMLID_22_">
		<path id="XMLID_23_" class="st0" d="M45.6,12.6c1.9,0,3.4,1.5,3.4,3.4s-1.5,3.4-3.4,3.4s-3.4-1.5-3.4-3.4S43.8,12.6,45.6,12.6
			 M45.6,11.6c-2.4,0-4.4,2-4.4,4.4s2,4.4,4.4,4.4s4.4-2,4.4-4.4S48,11.6,45.6,11.6L45.6,11.6z"/>
	</g>
</g>
<rect id="XMLID_6_" x="10.2" y="15.4" class="st0" width="31.8" height="0.9"/>
<rect id="XMLID_7_" x="0.8" y="9.7" class="st0" width="0.9" height="12.5"/>
</svg>
