<?xml version="1.0" encoding="utf-8"?>
<!-- Generator: Adobe Illustrator 19.0.0, SVG Export Plug-In . SVG Version: 6.00 Build 0)  -->
<svg version="1.1" id="图层_1" xmlns="http://www.w3.org/2000/svg" xmlns:xlink="http://www.w3.org/1999/xlink" x="0px" y="0px"
	 viewBox="0 0 50 30" style="enable-background:new 0 0 50 30;" xml:space="preserve">
<style type="text/css">
	.st0{fill:#FF0000;}
</style>
<g id="XMLID_1_">
	<g id="XMLID_26_">
		<path id="XMLID_27_" class="st0" d="M4.4,12.6c1.9,0,3.4,1.5,3.4,3.4s-1.5,3.4-3.4,3.4S1,17.8,1,16S2.5,12.6,4.4,12.6 M4.4,11.6
			C2,11.6,0,13.6,0,16s2,4.4,4.4,4.4s4.4-2,4.4-4.4S6.8,11.6,4.4,11.6L4.4,11.6z"/>
	</g>
</g>
<g id="XMLID_8_">
	<g id="XMLID_21_">
		<path id="XMLID_22_" class="st0" d="M45.6,12.6c1.9,0,3.4,1.5,3.4,3.4s-1.5,3.4-3.4,3.4s-3.4-1.5-3.4-3.4S43.8,12.6,45.6,12.6
			 M45.6,11.6c-2.4,0-4.4,2-4.4,4.4s2,4.4,4.4,4.4s4.4-2,4.4-4.4S48,11.6,45.6,11.6L45.6,11.6z"/>
	</g>
</g>
<rect id="XMLID_6_" x="8.5" y="15.5" class="st0" width="32.8" height="0.9"/>
</svg>
