<?xml version="1.0" encoding="utf-8"?>
<!-- Generator: Adobe Illustrator 19.0.0, SVG Export Plug-In . SVG Version: 6.00 Build 0)  -->
<svg version="1.1" id="图层_1" xmlns="http://www.w3.org/2000/svg" xmlns:xlink="http://www.w3.org/1999/xlink" x="0px" y="0px"
	 viewBox="0 0 50 50" style="enable-background:new 0 0 50 50;" xml:space="preserve">
<style type="text/css">
	.st0{fill:#FFFFFF;}
	.st1{fill:#F7B52C;}
	.st2{fill:none;stroke:#F7B52C;stroke-width:0.75;stroke-miterlimit:10;}
	.st3{fill:none;stroke:#0DAC67;stroke-width:0.75;stroke-miterlimit:10;}
	.st4{fill:#20A464;}
	.st5{fill:none;}
	.st6{fill:#5C5D5D;}
	.st7{fill:none;stroke:#E51373;stroke-width:0.75;stroke-miterlimit:10;}
	.st8{fill:#E51373;}
</style>
<g id="XMLID_16_">
	<polygon id="XMLID_28_" class="st0" points="13.4,23.3 31.8,35.3 13.4,47.3 	"/>
	<path id="XMLID_24_" class="st1" d="M13.8,24l17.3,11.3L13.8,46.7V24 M13,22.6V48l19.5-12.7L13,22.6L13,22.6z"/>
</g>
<circle id="XMLID_26_" class="st2" cx="18.6" cy="35.3" r="14.2"/>
<circle id="XMLID_1_" class="st3" cx="18.5" cy="14.8" r="14.3"/>
<rect id="XMLID_5_" x="18.1" y="14.8" class="st4" width="0.8" height="14.1"/>
<rect id="XMLID_10_" x="13" y="3" transform="matrix(-0.7071 0.7071 -0.7071 -0.7071 30.0295 7.9262)" class="st4" width="0.8" height="14.3"/>
<rect id="XMLID_11_" x="23.2" y="3" transform="matrix(0.7071 0.7071 -0.7071 0.7071 14.1423 -13.6831)" class="st4" width="0.8" height="14.4"/>
<line id="XMLID_9_" class="st5" x1="18.6" y1="15.1" x2="28.5" y2="5.2"/>
<line id="XMLID_7_" class="st6" x1="18.6" y1="14.8" x2="28.5" y2="4.8"/>
<circle id="XMLID_21_" class="st7" cx="33.6" cy="28.6" r="14.3"/>
<rect id="XMLID_20_" x="33.2" y="28.6" class="st8" width="0.8" height="14.1"/>
<rect id="XMLID_14_" x="28.1" y="16.9" transform="matrix(-0.7071 0.7071 -0.7071 -0.7071 65.5777 20.9599)" class="st8" width="0.8" height="14.3"/>
<rect id="XMLID_13_" x="38.3" y="16.9" transform="matrix(0.7071 0.7071 -0.7071 0.7071 28.3716 -20.2775)" class="st8" width="0.8" height="14.4"/>
</svg>
