<?xml version="1.0" encoding="utf-8"?>
<!-- Generator: Adobe Illustrator 19.0.0, SVG Export Plug-In . SVG Version: 6.00 Build 0)  -->
<svg version="1.1" id="图层_1" xmlns="http://www.w3.org/2000/svg" xmlns:xlink="http://www.w3.org/1999/xlink" x="0px" y="0px"
	 viewBox="0 0 40 40" style="enable-background:new 0 0 40 40;" xml:space="preserve">
<style type="text/css">
	.st0{fill:#1D09E3;}
	.st1{fill:none;stroke:#1D09E3;stroke-width:0.75;stroke-miterlimit:10;}
</style>
<g>
	<g>
		<path class="st0" d="M20,1.8c6.2,0,11.3,5,11.3,11.3s-5,11.3-11.3,11.3S8.8,19.2,8.8,13S13.8,1.8,20,1.8 M20,1C13.4,1,8,6.4,8,13
			s5.4,12,12,12s12-5.4,12-12S26.6,1,20,1L20,1z"/>
	</g>
	<line class="st1" x1="20" y1="13" x2="28.1" y2="4.9"/>
	<line class="st1" x1="20" y1="13" x2="11.7" y2="4.7"/>
	<line class="st1" x1="20" y1="13" x2="20" y2="24.5"/>
</g>
<g>
	<g>
		<path class="st0" d="M12,15.8c6.2,0,11.3,5,11.3,11.3s-5,11.3-11.3,11.3S0.8,33.2,0.8,27S5.8,15.8,12,15.8 M12,15
			C5.4,15,0,20.4,0,27s5.4,12,12,12s12-5.4,12-12S18.6,15,12,15L12,15z"/>
	</g>
	<line class="st1" x1="12" y1="27" x2="20.1" y2="18.9"/>
	<line class="st1" x1="12" y1="27" x2="3.7" y2="18.7"/>
	<line class="st1" x1="12" y1="27" x2="12" y2="38.5"/>
</g>
<g>
	<g>
		<path class="st0" d="M28.4,15.8c6.1,0,11,4.9,11,11s-4.9,11-11,11s-11-4.9-11-11S22.3,15.8,28.4,15.8 M28.4,15
			c-6.5,0-11.8,5.3-11.8,11.8s5.3,11.8,11.8,11.8s11.8-5.3,11.8-11.8S34.9,15,28.4,15L28.4,15z"/>
	</g>
</g>
<g>
	<path class="st0" d="M29.6,22.2l5.5,12.3H23.3L29.6,22.2 M29.7,20.5l-7.6,14.8h14.3L29.7,20.5L29.7,20.5z"/>
</g>
</svg>
