<?xml version="1.0" encoding="utf-8"?>
<!-- Generator: Adobe Illustrator 19.0.0, SVG Export Plug-In . SVG Version: 6.00 Build 0)  -->
<svg version="1.1" id="图层_1" xmlns="http://www.w3.org/2000/svg" xmlns:xlink="http://www.w3.org/1999/xlink" x="0px" y="0px"
	 viewBox="0 0 60 30" style="enable-background:new 0 0 60 30;" xml:space="preserve">
<style type="text/css">
	.st0{fill:#FF0000;}
</style>
<g id="XMLID_2_">
	<g id="XMLID_26_">
		<path id="XMLID_27_" class="st0" d="M5.2,11.5c2.3,0,4.2,1.9,4.2,4.2S7.6,20,5.2,20S1,18.1,1,15.8S2.9,11.5,5.2,11.5 M5.2,10.5
			c-2.9,0-5.2,2.3-5.2,5.2S2.3,21,5.2,21s5.2-2.3,5.2-5.2S8.1,10.5,5.2,10.5L5.2,10.5z"/>
	</g>
</g>
<g id="XMLID_8_">
	<g id="XMLID_31_">
		<path id="XMLID_32_" class="st0" d="M54.8,11.5c2.3,0,4.2,1.9,4.2,4.2S57.1,20,54.8,20s-4.2-1.9-4.2-4.2S52.4,11.5,54.8,11.5
			 M54.8,10.5c-2.9,0-5.2,2.3-5.2,5.2s2.3,5.2,5.2,5.2s5.2-2.3,5.2-5.2S57.7,10.5,54.8,10.5L54.8,10.5z"/>
	</g>
</g>
<rect id="XMLID_6_" x="10.2" y="15.2" class="st0" width="39.4" height="1"/>
<g id="XMLID_7_">
	<path id="XMLID_17_" class="st0" d="M42.8,11v9.5H18.3V11H42.8 M43.8,10H17.3v11.5h26.5V10L43.8,10z"/>
</g>
</svg>
