<?xml version="1.0" encoding="utf-8"?>
<!-- Generator: Adobe Illustrator 19.0.0, SVG Export Plug-In . SVG Version: 6.00 Build 0)  -->
<svg version="1.1" id="图层_1" xmlns="http://www.w3.org/2000/svg" xmlns:xlink="http://www.w3.org/1999/xlink" x="0px" y="0px"
	 viewBox="0 0 50 50" style="enable-background:new 0 0 50 50;" xml:space="preserve">
<style type="text/css">
	.st0{fill:#FFFFFF;}
	.st1{fill:#F7B52C;}
	.st2{fill:none;stroke:#F7B52C;stroke-width:0.75;stroke-miterlimit:10;}
	.st3{fill:none;stroke:#E51373;stroke-width:0.75;stroke-miterlimit:10;}
	.st4{fill:#E51373;}
	.st5{fill:none;stroke:#0DAC67;stroke-width:0.75;stroke-miterlimit:10;}
	.st6{fill:#0DAC67;}
</style>
<g id="XMLID_19_">
	<polygon id="XMLID_39_" class="st0" points="8.9,23.6 26.1,34.8 8.9,46 	"/>
	<path id="XMLID_36_" class="st1" d="M9.3,24.3l16.1,10.5L9.3,45.3V24.3 M8.6,22.9v23.7l18.2-11.9L8.6,22.9L8.6,22.9z"/>
</g>
<circle id="XMLID_26_" class="st2" cx="13.8" cy="34.8" r="13.3"/>
<circle id="XMLID_17_" class="st3" cx="13.8" cy="15.6" r="13.4"/>
<rect id="XMLID_16_" x="13.4" y="15.6" class="st4" width="0.7" height="13.2"/>
<rect id="XMLID_15_" x="8.6" y="4.6" transform="matrix(-0.7071 0.7071 -0.7071 -0.7071 23.3442 12.913)" class="st4" width="0.7" height="13.3"/>
<rect id="XMLID_12_" x="18.2" y="4.6" transform="matrix(0.7071 0.7071 -0.7071 0.7071 13.4459 -9.7905)" class="st4" width="0.7" height="13.4"/>
<circle id="XMLID_8_" class="st5" cx="36.2" cy="25.7" r="13.4"/>
<rect id="XMLID_6_" x="31.2" y="14.5" transform="matrix(-0.7095 0.7047 -0.7047 -0.7095 68.8123 13.7652)" class="st6" width="0.7" height="13.2"/>
<rect id="XMLID_4_" x="36" y="25" class="st6" width="13.3" height="0.7"/>
<rect id="XMLID_3_" x="35.5" y="25.4" class="st6" width="0.7" height="13.4"/>
<line id="XMLID_23_" class="st3" x1="30.8" y1="-0.5" x2="1.6" y2="50.5"/>
</svg>
