<?xml version="1.0" encoding="utf-8"?>
<!-- Generator: Adobe Illustrator 19.0.0, SVG Export Plug-In . SVG Version: 6.00 Build 0)  -->
<svg version="1.1" id="图层_1" xmlns="http://www.w3.org/2000/svg" xmlns:xlink="http://www.w3.org/1999/xlink" x="0px" y="0px"
	 viewBox="0 0 50 50" style="enable-background:new 0 0 50 50;" xml:space="preserve">
<style type="text/css">
	.st0{fill:none;stroke:#F7B52C;stroke-width:0.75;stroke-miterlimit:10;}
	.st1{fill:#F7B52C;}
	.st2{fill:none;stroke:#E51373;stroke-width:0.75;stroke-miterlimit:10;}
	.st3{fill:#E51373;}
	.st4{fill:#4635BF;}
	.st5{fill:none;stroke:#4635BF;stroke-width:0.75;stroke-miterlimit:10;}
</style>
<circle id="XMLID_22_" class="st0" cx="19.3" cy="35.2" r="14.3"/>
<rect id="XMLID_19_" x="18.9" y="35.2" class="st1" width="0.8" height="14.1"/>
<rect id="XMLID_17_" x="13.8" y="23.5" transform="matrix(-0.7071 0.7071 -0.7071 -0.7071 45.8838 42.2765)" class="st1" width="0.8" height="14.3"/>
<rect id="XMLID_15_" x="24" y="23.5" transform="matrix(0.7071 0.7071 -0.7071 0.7071 28.8468 -8.2658)" class="st1" width="0.8" height="14.4"/>
<circle id="XMLID_12_" class="st2" cx="34.4" cy="31.6" r="14.3"/>
<rect id="XMLID_8_" x="34" y="31.6" class="st3" width="0.8" height="14.1"/>
<rect id="XMLID_6_" x="28.9" y="19.8" transform="matrix(-0.7071 0.7071 -0.7071 -0.7071 69.0513 25.3457)" class="st3" width="0.8" height="14.3"/>
<rect id="XMLID_3_" x="39.1" y="19.8" transform="matrix(0.7071 0.7071 -0.7071 0.7071 30.6735 -20.0103)" class="st3" width="0.8" height="14.4"/>
<g id="XMLID_2_">
	<g id="XMLID_29_">
		<path id="XMLID_30_" class="st4" d="M14.6,3.4l17.3,11.3L14.6,26V3.4 M13.8,2v25.4l19.5-12.7L13.8,2L13.8,2z"/>
	</g>
</g>
<circle id="XMLID_4_" class="st5" cx="19.4" cy="14.7" r="14.2"/>
</svg>
