<?xml version="1.0" encoding="utf-8"?>
<!-- Generator: Adobe Illustrator 19.0.0, SVG Export Plug-In . SVG Version: 6.00 Build 0)  -->
<svg version="1.1" id="图层_1" xmlns="http://www.w3.org/2000/svg" xmlns:xlink="http://www.w3.org/1999/xlink" x="0px" y="0px"
	 viewBox="0 0 50 50" style="enable-background:new 0 0 50 50;" xml:space="preserve">
<style type="text/css">
	.st0{fill:#F7B52C;}
	.st1{fill:none;stroke:#F7B52C;stroke-width:0.75;stroke-miterlimit:10;}
	.st2{fill:none;stroke:#E51373;stroke-width:0.75;stroke-miterlimit:10;}
	.st3{fill:#E51373;}
	.st4{fill:none;stroke:#4635BF;stroke-width:0.75;stroke-miterlimit:10;}
	.st5{fill:#4635BF;}
</style>
<g id="XMLID_17_">
	<path id="XMLID_33_" class="st0" d="M14,24l17.3,11.3L14,46.7V24 M13.3,22.6V48l19.5-12.7L13.3,22.6L13.3,22.6z"/>
</g>
<circle id="XMLID_26_" class="st1" cx="18.9" cy="35.3" r="14.2"/>
<circle id="XMLID_16_" class="st2" cx="18.8" cy="14.8" r="14.3"/>
<rect id="XMLID_15_" x="18.4" y="14.8" class="st3" width="0.8" height="14.1"/>
<rect id="XMLID_12_" x="13.3" y="3" transform="matrix(-0.7071 0.7071 -0.7071 -0.7071 30.4823 7.7387)" class="st3" width="0.8" height="14.3"/>
<rect id="XMLID_8_" x="23.5" y="3" transform="matrix(0.7071 0.7071 -0.7071 0.7071 14.22 -13.8707)" class="st3" width="0.8" height="14.4"/>
<circle id="XMLID_6_" class="st4" cx="33.8" cy="28.6" r="14.3"/>
<rect id="XMLID_4_" x="33.5" y="28.6" class="st5" width="0.8" height="14.1"/>
<rect id="XMLID_3_" x="28.3" y="16.9" transform="matrix(-0.7071 0.7071 -0.7071 -0.7071 66.0305 20.7723)" class="st5" width="0.8" height="14.3"/>
<rect id="XMLID_2_" x="38.5" y="16.9" transform="matrix(0.7071 0.7071 -0.7071 0.7071 28.4493 -20.465)" class="st5" width="0.8" height="14.4"/>
</svg>
