<?xml version="1.0" encoding="utf-8"?>
<!-- Generator: Adobe Illustrator 19.0.0, SVG Export Plug-In . SVG Version: 6.00 Build 0)  -->
<svg version="1.1" id="图层_1" xmlns="http://www.w3.org/2000/svg" xmlns:xlink="http://www.w3.org/1999/xlink" x="0px" y="0px"
	 viewBox="0 0 50 50" style="enable-background:new 0 0 50 50;" xml:space="preserve">
<style type="text/css">
	.st0{fill:#F7B52C;}
	.st1{fill:none;stroke:#F7B52C;stroke-width:0.75;stroke-miterlimit:10;}
	.st2{fill:none;stroke:#0DAC67;stroke-width:0.75;stroke-miterlimit:10;}
	.st3{fill:#0DAC67;}
	.st4{fill:none;stroke:#E51373;stroke-width:0.75;stroke-miterlimit:10;}
	.st5{fill:#E51373;}
</style>
<g id="XMLID_7_">
	<g id="XMLID_30_">
		<path id="XMLID_31_" class="st0" d="M31.5,14.4l16.1,10.5L31.5,35.4V14.4 M30.7,13v23.8L49,24.9L30.7,13L30.7,13z"/>
	</g>
</g>
<circle id="XMLID_4_" class="st1" cx="36" cy="24.9" r="13.4"/>
<circle id="XMLID_1_" class="st2" cx="16.7" cy="35.9" r="13.4"/>
<rect id="XMLID_5_" x="16.3" y="35.9" class="st3" width="0.7" height="13.2"/>
<rect id="XMLID_10_" x="11.5" y="24.9" transform="matrix(-0.7071 0.7071 -0.7071 -0.7071 42.667 45.5838)" class="st3" width="0.7" height="13.4"/>
<rect id="XMLID_11_" x="21.1" y="24.9" transform="matrix(0.7071 0.7071 -0.7071 0.7071 28.6852 -5.9065)" class="st3" width="0.7" height="13.5"/>
<circle id="XMLID_21_" class="st4" cx="16.8" cy="13.8" r="13.4"/>
<rect id="XMLID_20_" x="16.5" y="13.8" class="st5" width="0.7" height="13.2"/>
<rect id="XMLID_14_" x="11.6" y="2.8" transform="matrix(-0.7071 0.7071 -0.7071 -0.7071 27.2231 7.7863)" class="st5" width="0.7" height="13.4"/>
<rect id="XMLID_13_" x="21.2" y="2.8" transform="matrix(0.7071 0.7071 -0.7071 0.7071 13.0911 -12.4537)" class="st5" width="0.7" height="13.5"/>
<line id="XMLID_8_" class="st4" x1="33.3" y1="-0.6" x2="4.1" y2="50.5"/>
</svg>
