<?xml version="1.0" encoding="utf-8"?>
<!-- Generator: Adobe Illustrator 19.0.0, SVG Export Plug-In . SVG Version: 6.00 Build 0)  -->
<svg version="1.1" id="图层_1" xmlns="http://www.w3.org/2000/svg" xmlns:xlink="http://www.w3.org/1999/xlink" x="0px" y="0px"
	 viewBox="0 0 30 50" style="enable-background:new 0 0 30 50;" xml:space="preserve">
<style type="text/css">
	.st0{fill:#FF0000;}
</style>
<g id="XMLID_2_">
	<path id="XMLID_19_" class="st0" d="M15,0.8c7.9,0,14.3,6.4,14.3,14.3S22.9,29.3,15,29.3S0.8,22.9,0.8,15S7.1,0.8,15,0.8 M15,0
		C6.7,0,0,6.7,0,15s6.7,15,15,15s15-6.7,15-15S23.3,0,15,0L15,0z"/>
</g>
<g id="XMLID_6_">
	<path id="XMLID_15_" class="st0" d="M15,20.8c7.9,0,14.3,6.4,14.3,14.3S22.9,49.3,15,49.3S0.8,42.9,0.8,35S7.1,20.8,15,20.8 M15,20
		C6.7,20,0,26.7,0,35s6.7,15,15,15s15-6.7,15-15S23.3,20,15,20L15,20z"/>
</g>
</svg>
