<?xml version="1.0" encoding="utf-8"?>
<!-- Generator: Adobe Illustrator 19.0.0, SVG Export Plug-In . SVG Version: 6.00 Build 0)  -->
<svg version="1.1" id="图层_1" xmlns="http://www.w3.org/2000/svg" xmlns:xlink="http://www.w3.org/1999/xlink" x="0px" y="0px"
	 viewBox="0 0 40 50" style="enable-background:new 0 0 40 50;" xml:space="preserve">
<style type="text/css">
	.st0{fill:none;stroke:#E51373;stroke-width:0.75;stroke-miterlimit:10;}
	.st1{fill:none;stroke:#F7B52C;stroke-width:0.75;stroke-miterlimit:10;}
	.st2{fill:#F7B52C;}
	.st3{fill:#E51373;}
	.st4{fill:none;stroke:#1D2088;stroke-width:0.75;stroke-miterlimit:10;}
</style>
<circle id="XMLID_26_" class="st0" cx="21.1" cy="30" r="12"/>
<circle id="XMLID_1_" class="st1" cx="21" cy="12.6" r="12.1"/>
<rect id="XMLID_5_" x="20.7" y="12.6" class="st2" width="0.7" height="11.9"/>
<rect id="XMLID_10_" x="16.3" y="2.6" transform="matrix(-0.7071 0.7071 -0.7071 -0.7071 34.5903 3.0283)" class="st2" width="0.7" height="12.1"/>
<rect id="XMLID_11_" x="25" y="2.6" transform="matrix(0.7071 0.7071 -0.7071 0.7071 13.5772 -15.3422)" class="st2" width="0.7" height="12.2"/>
<rect id="XMLID_7_" x="20.6" y="30" class="st3" width="0.7" height="11.9"/>
<rect id="XMLID_6_" x="16.3" y="20" transform="matrix(-0.7071 0.7071 -0.7071 -0.7071 46.7743 32.7958)" class="st3" width="0.7" height="12.1"/>
<rect id="XMLID_4_" x="24.9" y="20" transform="matrix(0.7071 0.7071 -0.7071 0.7071 25.8645 -10.1922)" class="st3" width="0.7" height="12.2"/>
<line id="XMLID_2_" class="st4" x1="33.1" y1="32.4" x2="25.9" y2="53.5"/>
</svg>
