<?xml version="1.0" encoding="utf-8"?>
<!-- Generator: Adobe Illustrator 19.0.0, SVG Export Plug-In . SVG Version: 6.00 Build 0)  -->
<svg version="1.1" id="图层_1" xmlns="http://www.w3.org/2000/svg" xmlns:xlink="http://www.w3.org/1999/xlink" x="0px" y="0px"
	 viewBox="-459 261 40 40" style="enable-background:new -459 261 40 40;" xml:space="preserve">
<style type="text/css">
	.st0{fill:#D3001A;}
	.st1{enable-background:new    ;}
	.st2{fill:#F2DA00;}
	.st3{fill:#00E2ED;}
</style>
<g id="XMLID_1_">
	<path id="XMLID_43_" class="st0" d="M-419.7,261.8v38.5h-38.5v-38.5H-419.7 M-419,261h-40v40h40V261L-419,261z"/>
</g>
<g class="st1">
	<path class="st2" d="M-426.1,275.3c1-0.1,1.4-0.3,1.4-0.7c0-0.5-0.5-1.9-1.2-3.5h-4.2c-0.2,0.3-1.1,2.8-1.1,3.3
		c0,0.6,0.5,0.7,1.5,0.9v0.3h-4.1v-0.3c1.3-0.3,1.5-0.4,2.2-2l3.9-9.2l0.2-0.1l1.2,3.3c0.8,2.3,1.6,4.5,2.3,6.2
		c0.5,1.3,0.7,1.5,1.9,1.7v0.3h-4.1V275.3z M-427.9,265.7c-0.7,1.6-1.4,3.3-2,4.8h3.8L-427.9,265.7L-427.9,265.7z"/>
</g>
<g class="st1">
	<path class="st3" d="M-456,275c1.6-0.1,1.7-0.4,1.7-1.8v-7.2c0-1.4-0.1-1.7-1.6-1.8V264h4.4c2.5,0,3.5,0.9,3.5,2.5
		c0,1.6-1.5,2.3-2.3,2.5v0c1.6,0.2,3.1,1.2,3.1,2.9c0,1.2-0.6,2.1-1.7,2.7c-0.9,0.5-2.1,0.6-3.4,0.6h-3.6V275z M-452,268.9
		c2,0,2.8-0.8,2.8-2.3c0-0.8-0.3-2.3-2.9-2.3c-0.6,0-0.9,0-1,0c-0.1,0-0.2,0.1-0.2,0.4v4.1H-452z M-453.3,269.3v4
		c0,1.2,0.2,1.5,1.7,1.5c1.8,0,3.2-0.7,3.2-2.7s-1.4-2.9-3.5-2.9H-453.3z"/>
</g>
<g class="st1">
	<path class="st0" d="M-422,294.5c-0.3,1-0.7,2.4-0.9,3c-0.6,0.1-2.3,0.5-3.6,0.5c-4.7,0-6.7-3-6.7-5.7c0-3.6,3-6.1,7.1-6.1
		c1.8,0,2.9,0.4,3.4,0.5c0.1,0.9,0.2,1.8,0.3,2.8l-0.3,0.1c-0.5-2.1-1.7-2.9-4.1-2.9c-3.6,0-5.2,2.4-5.2,5.2c0,3.5,2.1,5.8,5.3,5.8
		c2.5,0,3.5-1.4,4.4-3.2L-422,294.5z"/>
</g>
</svg>
