<?xml version="1.0" encoding="utf-8"?>
<!-- Generator: Adobe Illustrator 15.0.0, SVG Export Plug-In . SVG Version: 6.00 Build 0)  -->
<!DOCTYPE svg PUBLIC "-//W3C//DTD SVG 1.1//EN" "http://www.w3.org/Graphics/SVG/1.1/DTD/svg11.dtd">
<svg version="1.1" id="_x30_" xmlns:agg="http://www.example.com"
	 xmlns="http://www.w3.org/2000/svg" preserveAspectRatio="none"   x="0px" y="0px" 
	  viewBox="0 3.031 43.791 24.749" enable-background="new 0 3.031 43.791 24.749" xml:space="preserve">
<agg:params>
	<agg:param type="C" name="color" description="Color" cssAttributes="fill" classes="color"/>
	<agg:param type="C" name="strokeColor" description="Stroke Color" cssAttributes="stroke" classes="color,stroked"/>
</agg:params>
<style type="text/css" >
<![CDATA[

	.color,.stroked,.dashed{
		stroke-width:0.5;
		stroke-linecap:round;
		stroke-linejoin:round;
		stroke: #000000;
	}
	
	.color {
		fill:   #A1BFE2;

	}
	
	.stroked,.dashed{
		fill:none;
	}
	
	.dashed {
		stroke-dasharray:1.4173,1.4173;
	}

      ]]>
</style>
<path class="color" d="M19.468,24.523
	c-2.511-0.07-4.837,2.017-7.308,1.84c-1.236-0.088-2.507-0.742-2.699-1.749c-0.192-1.006,0.698-2.364,0.82-3.711
	c0.122-1.347-0.523-2.684-1.321-2.535c-0.798,0.146-1.751,1.776-2.933,2.355C4.844,21.3,3.432,20.825,2.59,19.96
	c-0.842-0.867-1.113-2.121-1.168-3.558c-0.111-2.87,0.641-6.454,2.568-6.416c0.964,0.018,2.222,0.941,3.531,1.246
	s2.668-0.01,2.855-0.959c0.186-0.95-0.801-2.537-0.823-3.703C9.53,5.404,10.47,4.658,11.553,4.488
	c2.169-0.34,4.909,1.625,7.43,1.478c2.527,1.503,5.519,2.343,8.464,2.237c2.344,2.086,5.432,3.489,8.596,3.528
	c1.57,2.131,4.55,1.748,6.331,3.531c-1.966,1.665-4.714,2.142-6.464,4.14c-3.162,0.089-6.288,1.197-8.928,2.93
	C24.307,21.879,21.579,22.922,19.468,24.523z"/>
</svg>
