<?xml version="1.0" encoding="utf-8"?>
<!-- Generator: Adobe Illustrator 15.1.0, SVG Export Plug-In . SVG Version: 6.00 Build 0)  -->
<!DOCTYPE svg PUBLIC "-//W3C//DTD SVG 1.1//EN" "http://www.w3.org/Graphics/SVG/1.1/DTD/svg11.dtd">
<svg version="1.1" id="Layer_1" xmlns="http://www.w3.org/2000/svg" preserveAspectRatio="none"  xmlns:xlink="http://www.w3.org/1999/xlink" x="0px" y="0px"
	   viewBox="0 0 152 110" xmlns:agg="http://www.example.com">

<agg:params>
	<agg:param type="C" name="color" description="Color" cssAttributes="fill" classes="color"/>
</agg:params>

<style type="text/css" >
   <![CDATA[

	.stroke,.thin,.thick{
		stroke-linecap:butt;
		stroke-linejoin:round;
		stroke: black;
		fill:none;
		opacity:0.35;
	}

	.stroke{stroke-width:0.5;}

	.thin {stroke-width:0.25;}

	.thick {stroke-width:0.75;}
	
	.color {
		fill:#2088B7;
		opacity:1;
	}

      ]]>
</style>	
	 
<polygon fill="#E5E5E5" points="4.262,4.332 66.063,4.332 66.063,1 92.522,1 92.522,4.634 138.072,4.634 138.072,64.176 4.262,64.176 "/>
<polygon fill="#7F7F7F" points="4.262,24.139 138.072,24.139 138.072,58.18 4.262,58.18 4.262,24.139 "/>
<polygon fill="#4C4C4C" points="43.288,47.035 108.712,47.035 108.712,58.18 43.288,58.18 43.288,47.035 "/>
<polygon fill="#4C4C4C" points="43.589,32.315 108.712,32.315 108.712,30.499 43.589,30.499 43.589,32.315 "/>
<polygon fill="#CCCCCC" points="96.388,25.653 112.579,25.653 112.579,56.666 96.388,56.666 96.388,25.653 "/>
<polygon fill="#CCCCCC" points="39.361,46.126 60.384,46.126 60.384,57.574 39.361,57.574 39.361,46.126 "/>
<polygon fill="#B2B2B2" points="60.686,42.795 96.388,42.795 96.388,55.151 60.686,55.151 60.686,42.795 "/>
<polygon fill="#B2B2B2" points="41.777,28.984 54.705,28.984 54.705,46.126 41.777,46.126 41.777,28.984 "/>
<polygon fill="#999999" points="104.484,25.653 110.223,25.653 110.223,56.666 105.39,56.666 106.9,53.334 106.9,37.101 104.484,25.653 "/>
<polygon fill="#999999" points="47.517,28.984 42.684,28.984 42.684,57.574 47.517,57.574 45.1,53.334 45.1,37.101 47.517,28.984 "/>
<polygon class="color" points="4.262,64.176 138.072,64.176 138.072,109 4.262,109 4.262,64.176 "/>
<polygon fill="#E5E5E5" points="4.262,86.165 138.072,86.165 138.072,89.435 4.262,89.435 4.262,86.165 "/>
<polygon fill="#E5E5E5" points="4.262,79.501 138.072,79.501 138.072,82.833 4.262,82.833 4.262,79.501 "/>
<polygon fill="#E5E5E5" points="147.677,58.18 151,53.334 151,37.101 147.677,23.835 105.39,23.835 108.712,37.101 108.712,53.334 105.39,58.18 147.677,58.18 "/>
<polygon fill="#E5E5E5" points="4.262,58.18 1,53.334 1,37.101 4.262,23.835 46.61,23.835 43.288,37.101 43.288,53.334 46.61,58.18 4.262,58.18 "/>
<polygon fill="#D9D9D9" points="85.877,79.501 84.065,66.6 120.07,66.6 118.318,79.501 85.877,79.501 "/>
<polygon fill="#F2F2F2" points="84.065,66.6 85.877,61.451 118.318,61.451 120.07,66.6 84.065,66.6 "/>
<polygon fill="#CCCCCC" points="84.971,65.691 86.179,62.36 118.016,62.36 119.224,65.691 84.971,65.691 "/>
<polygon fill="#333333" points="86.784,65.691 87.689,62.36 116.505,62.36 117.412,65.691 86.784,65.691 "/>
<polygon fill="#F2F2F2" points="1,37.101 4.262,23.835 46.61,23.835 43.288,37.101 1,37.101 "/>
<polygon fill="#F2F2F2" points="151,37.101 147.677,23.835 105.39,23.835 108.712,37.101 151,37.101 "/>
<polygon points="3.356,36.192 6.376,24.744 43.892,24.744 40.871,36.192 3.356,36.192 "/>
<polygon points="148.583,36.192 145.624,24.744 108.41,24.744 111.068,36.192 148.583,36.192 "/>

<g fill="none" stroke="#FFFFFF" stroke->
	<line  x1="120.07" y1="32.315" x2="131.488" y2="26.864"/>
	<line x1="122.487" y1="34.678" x2="136.32" y2="28.076"/>
	<line x1="131.488" y1="33.77" x2="138.072" y2="30.801"/>
	<line x1="12.357" y1="32.315" x2="23.775" y2="26.864"/>
	<line x1="14.774" y1="34.678" x2="28.91" y2="28.076"/>
	<line x1="23.775" y1="33.77" x2="30.359" y2="30.801"/>
</g>

<polygon fill="#CCCCCC" points="4.262,58.18 1,53.334 43.288,53.334 46.61,58.18 4.262,58.18 "/>
<polygon fill="#CCCCCC" points="147.677,58.18 151,53.334 108.712,53.334 105.39,58.18 147.677,58.18 "/>
<polygon points="39.965,50.063 38.817,50.063 38.817,45.217 39.965,45.217 39.965,45.824 39.663,45.824 39.663,49.458 39.965,49.458 39.965,50.063 "/>
<polygon points="148.282,45.217 149.49,45.217 149.49,50.063 148.282,50.063 148.282,49.458 148.886,49.458 148.886,45.824 148.282,45.824 148.282,45.217 "/>
<polygon fill="#7F7F7F" points="68.781,10.025 89.804,10.025 89.804,21.473 68.781,21.473 68.781,10.025 "/>
<polygon fill="#4C4C4C" points="13.264,9.419 29.514,9.419 29.514,20.564 13.264,20.564 13.264,9.419 "/>
<polygon fill="#E5E5E5" points="46.61,40.433 63.102,40.433 63.102,43.704 46.61,43.704 46.61,40.433 "/>
<polygon fill="#E5E5E5" points="51.685,26.562 66.969,26.562 66.969,40.433 51.685,40.433 51.685,26.562 "/>
<polygon fill="#CCCCCC" points="112.881,10.025 133.904,10.025 133.904,16.627 112.881,16.627 112.881,10.025 "/>

<g class="stroke">
	<polyline points="138.072,58.18 138.072,109 4.262,109 4.262,58.18 	"/>
	<polyline points="85.877,79.501 84.065,66.6 85.877,61.451 118.318,61.451 120.07,66.6 118.318,79.501 85.877,79.501 	"/>
	<polyline points="147.677,58.18 151,53.334 151,37.101 147.677,23.835 105.39,23.835 108.712,37.101 108.712,53.334 105.39,58.18 147.677,58.18 	"/>
	<polyline points="4.262,58.18 1,53.334 1,37.101 4.262,23.835 46.61,23.835 43.288,37.101 43.288,53.334 46.61,58.18 4.262,58.18 	"/>
	<line x1="92.522" y1="4.634" x2="92.522" y2="24.139"/>
	<line x1="66.063" y1="4.332" x2="66.063" y2="24.139"/>
	<line x1="84.918" y1="64.176" x2="4.262" y2="64.176"/>
	<line x1="138.072" y1="64.176" x2="119.245" y2="64.176"/>
	<polyline points="4.262,23.835 4.262,4.332 4.262,4.332 66.063,4.332 66.063,1 92.522,1 92.522,4.634 138.072,4.634 138.072,23.835 	"/>
	<line x1="46.534" y1="24.139" x2="105.466" y2="24.139"/>
	<polyline points="106.427,56.666 96.388,56.666 96.388,25.653 96.388,25.653 105.845,25.653 	"/>
	<polyline points="43.288,46.126 60.384,46.126 60.384,57.574 46.195,57.574 	"/>
	<polyline points="96.388,55.151 60.686,55.151 60.686,43.704 	"/>
	<line x1="63.102" y1="42.795" x2="96.388" y2="42.795"/>
	<line x1="54.705" y1="43.704" x2="54.705" y2="46.126"/>
	<line x1="45.32" y1="28.984" x2="51.685" y2="28.984"/>
	<polygon points="46.61,40.433 63.102,40.433 63.102,43.704 46.61,43.704 46.61,40.433 	"/>
	<polyline points="51.685,40.433 51.685,26.562 51.685,26.562 66.969,26.562 66.969,40.433 63.102,40.433 	"/>
	<ellipse cx="59.357" cy="33.498" rx="5.411" ry="5.422"/>
</g>
</svg>
