<?xml version="1.0" encoding="utf-8"?>
<!-- Generator: Adobe Illustrator 15.1.0, SVG Export Plug-In . SVG Version: 6.00 Build 0)  -->
<!DOCTYPE svg PUBLIC "-//W3C//DTD SVG 1.1//EN" "http://www.w3.org/Graphics/SVG/1.1/DTD/svg11.dtd">
<svg version="1.1" id="_x30_" xmlns:agg="http://www.example.com"
	 xmlns="http://www.w3.org/2000/svg" preserveAspectRatio="none"   x="0px" y="0px" 
	  viewBox="0 6.542 43.984 30.513" enable-background="new 0 6.542 43.984 30.513" xml:space="preserve">
<agg:params>
	<agg:param type="C" name="color" description="Color" cssAttributes="fill" classes="color"/>
	<agg:param type="C" name="strokeColor" description="Stroke Color" cssAttributes="stroke" classes="color,stroked"/>
</agg:params>
<style type="text/css" >
<![CDATA[

	.color,.stroked,.dashed{
		stroke-width:0.5;
		stroke-linecap:round;
		stroke-linejoin:round;
		stroke: #000000;
	}
	
	.color {
		fill:   #A1BFE2;

	}
	
	.stroked,.dashed{
		fill:none;
	}
	
	.dashed {
		stroke-dasharray:1.4173,1.4173;
	}

      ]]>
</style>

<path  class="color" d="M37.207,21.769
	c-0.008-3.918-1.81-7.478-4.729-10.002C29.567,9.25,25.779,7.952,21.966,7.96c-3.809,0.008-7.588,1.318-10.488,3.842
	c-2.913,2.536-4.705,6.106-4.697,10.028c0.008,3.918,1.811,7.478,4.729,10.002c2.91,2.517,6.699,3.814,10.512,3.807
	c3.809-0.007,7.589-1.317,10.488-3.842C35.423,29.26,37.215,25.691,37.207,21.769z"/>
<path class="stroked" d="M1.418,21.83c2.573,0,5.146,0,7.718,0
	c0-1.984,0.912-3.805,2.387-5.089c1.472-1.282,3.394-1.948,5.328-1.948c1.935,0,3.857,0.666,5.33,1.948
	c1.475,1.285,2.386,3.105,2.386,5.089c0,1.421-1.152,2.572-2.573,2.572s-2.572-1.151-2.572-2.572c0-1.984,0.912-3.805,2.386-5.089
	c1.472-1.282,3.395-1.948,5.329-1.948c1.934,0,3.856,0.666,5.328,1.948c1.475,1.285,2.386,3.105,2.386,5.089
	c2.573,0,5.146,0,7.719,0"/>
	
</svg>
