<?xml version="1.0" encoding="utf-8"?>
<!-- Generator: Adobe Illustrator 15.0.0, SVG Export Plug-In . SVG Version: 6.00 Build 0)  -->
<!DOCTYPE svg PUBLIC "-//W3C//DTD SVG 1.1//EN" "http://www.w3.org/Graphics/SVG/1.1/DTD/svg11.dtd">
<svg version="1.1" id="_x30_" xmlns:agg="http://www.example.com"
	 xmlns="http://www.w3.org/2000/svg" preserveAspectRatio="none"   x="0px" y="0px" 
	  viewBox="0 0 92.969 17.873" enable-background="new 0 0 92.969 17.873" xml:space="preserve">
<agg:params>
	<agg:param type="C" name="color" description="Color" cssAttributes="fill" classes="color"/>
	<agg:param type="C" name="strokeColor" description="Stroke Color" cssAttributes="stroke" classes="color,stroked"/>
</agg:params>
<style type="text/css" >
<![CDATA[

	.color,.stroked,.dashed{
		stroke-width:0.5;
		stroke-linecap:round;
		stroke-linejoin:round;
		stroke: #000000;
	}
	
	.color {
		fill:   #A1BFE2;

	}
	
	.stroked,.dashed{
		fill:none;
	}
	
	.dashed {
		stroke-dasharray:1.4173,1.4173;
	}

      ]]>
</style>
<rect class="color" x="1.417" y="1.417"  />
<g class="stroked">
	<line x1="5.143" y1="16.456" x2="5.143" y2="1.417"/>
	<line x1="8.898" y1="16.456" x2="8.898" y2="1.417"/>
	<line x1="12.653" y1="16.456" x2="12.653" y2="1.417"/>
	<line x1="16.407" y1="16.456" x2="16.407" y2="1.417"/>
	<line x1="20.162" y1="16.456" x2="20.162" y2="1.417"/>
	<line x1="23.916" y1="16.456" x2="23.916" y2="1.417"/>
	<line x1="27.671" y1="16.456" x2="27.671" y2="1.417"/>
	<line x1="31.425" y1="16.456" x2="31.425" y2="1.417"/>
	<line x1="61.464" y1="16.456" x2="61.464" y2="1.417"/>
	<line x1="35.181" y1="16.456" x2="35.181" y2="1.417"/>
	<line x1="38.935" y1="16.456" x2="38.935" y2="1.417"/>
	<line x1="42.691" y1="16.456" x2="42.691" y2="1.417"/>
	<line x1="46.445" y1="16.456" x2="46.445" y2="1.417"/>
	<line x1="50.201" y1="16.456" x2="50.201" y2="1.417"/>
	<line x1="53.955" y1="16.456" x2="53.955" y2="1.417"/>
	<line x1="57.708" y1="16.456" x2="57.708" y2="1.417"/>
	<line x1="65.22" y1="16.456" x2="65.22" y2="1.417"/>
	<line x1="68.974" y1="16.456" x2="68.974" y2="1.417"/>
	<line x1="72.728" y1="16.456" x2="72.728" y2="1.417"/>
	<line x1="76.484" y1="16.456" x2="76.484" y2="1.417"/>
	<line x1="80.238" y1="16.456" x2="80.238" y2="1.417"/>
	<line x1="83.992" y1="16.456" x2="83.992" y2="1.417"/>
	<line x1="87.748" y1="16.456" x2="87.748" y2="1.417"/>
</g>
</svg>
