<?xml version="1.0" encoding="utf-8"?>
<!-- Generator: Adobe Illustrator 15.1.0, SVG Export Plug-In . SVG Version: 6.00 Build 0)  -->
<!DOCTYPE svg PUBLIC "-//W3C//DTD SVG 1.1//EN" "http://www.w3.org/Graphics/SVG/1.1/DTD/svg11.dtd">
<svg version="1.1" id="_x30_" xmlns:agg="http://www.example.com"
	 xmlns="http://www.w3.org/2000/svg" preserveAspectRatio="none"   x="0px" y="0px" 
	  viewBox="0 0 62.925 17.873" enable-background="new 0 0 62.925 17.873" xml:space="preserve">
<agg:params>
	<agg:param type="C" name="color" description="Color" cssAttributes="fill" classes="color"/>
	<agg:param  type="C" classes="color,stroked" name="strokeColor" description="Stroke Color" cssAttributes="stroke"/>
</agg:params>

<style type="text/css" >
<![CDATA[

	.color,.stroked,.dashed{
		stroke-width:0.5;
		stroke-linecap:round;
		stroke-linejoin:round;
		stroke: #000000;
	}
	
	.color {
		fill:   #A1BFE2;

	}
	
	.stroked,.dashed{
		fill:none;
	}
	
	.dashed {
		stroke-dasharray:1.4173,1.4173;
	}

      ]]>
</style>

<rect class="color" x="1.417" y="1.417"  />

<g class="stroked">
	<line x1="5.143" y1="16.457" x2="5.143" y2="1.417"/>
	<line x1="8.909" y1="16.457" x2="8.909" y2="1.417"/>
	<line x1="12.634" y1="16.457" x2="12.634" y2="1.417"/>
	<line x1="16.4" y1="16.457" x2="16.4" y2="1.417"/>
	<line x1="20.166" y1="15.515" x2="20.166" y2="1.417"/>
	<line x1="23.931" y1="14.572" x2="23.931" y2="1.417"/>
	<line x1="27.658" y1="13.64" x2="27.658" y2="1.417"/>
	<line x1="31.462" y1="12.697" x2="31.462" y2="1.417"/>
	<line x1="35.188" y1="11.755" x2="35.188" y2="1.417"/>
	<line x1="38.956" y1="10.812" x2="38.956" y2="1.417"/>
	<line x1="42.678" y1="9.88" x2="42.678" y2="1.417"/>
	<line x1="46.446" y1="8.938" x2="46.446" y2="1.417"/>
	<line x1="50.209" y1="8.938" x2="50.209" y2="1.417"/>
	<line x1="53.975" y1="8.938" x2="53.975" y2="1.417"/>
	<line x1="57.704" y1="8.938" x2="57.704" y2="1.417"/>
	<line x1="46.446" y1="8.938" x2="61.506" y2="8.938"/>
	<line x1="16.4" y1="16.457" x2="46.446" y2="8.938"/>
</g>

</svg>
