<?xml version="1.0" encoding="utf-8"?>
<!-- Generator: Adobe Illustrator 15.1.0, SVG Export Plug-In . SVG Version: 6.00 Build 0)  -->
<!DOCTYPE svg PUBLIC "-//W3C//DTD SVG 1.1//EN" "http://www.w3.org/Graphics/SVG/1.1/DTD/svg11.dtd">
<svg version="1.1" id="Layer_1" xmlns="http://www.w3.org/2000/svg" preserveAspectRatio="none"   x="0px" y="0px"
	   viewBox="0 0 52 35" xmlns:agg="http://www.example.com" xml:space="preserve">
	 
<agg:params>
		<agg:param type="C" name="color" description="Color" cssAttributes="fill" classes="color"/>

	<agg:param type="C" name="strokeColor" description="Stroke Color" cssAttributes="stroke" classes="color,stroked"/>
</agg:params>
	 
<style type="text/css" >
<![CDATA[

	.color{
		stroke-width:0.5;
		stroke-linecap:round;
		stroke-linejoin:round;
		stroke: #000000;
		fill:   #A1BFE2;
	}
]]>
</style>
	 
<polygon class="color" points="45.534,34 48.2,30.412 51,34 45.534,34 "/>
<path class="color" d="M35.5,1H6c0,0,0,0-0.001,0C3.238,1,1,3.238,1,6v26.5h4V6c0-0.552,0.448-1,1-1h4.899h19.701h4.897c0,0,0.001,0,0.002,0
	c0.552,0,1,0.448,1,1v0l0,0v26.5h4V6C40.5,3.239,38.263,1,35.5,1z"/>
</svg>
