<?xml version="1.0" encoding="utf-8"?>
<!-- Generator: Adobe Illustrator 15.1.0, SVG Export Plug-In . SVG Version: 6.00 Build 0)  -->
<!DOCTYPE svg PUBLIC "-//W3C//DTD SVG 1.1//EN" "http://www.w3.org/Graphics/SVG/1.1/DTD/svg11.dtd">
<svg version="1.1" id="Layer_2" xmlns="http://www.w3.org/2000/svg" preserveAspectRatio="none"   x="0px" y="0px"
	   viewBox="0 0 43.984 43.986" enable-background="new 0 0 43.984 43.986" xml:space="preserve"
     xmlns:agg="http://www.example.com">

	 <agg:params>
	       <agg:param type="C" name="color" description="Color" cssAttributes="fill" classes="color"/>
	       <agg:param type="C" name="strokeColor" description="Stroke Color" cssAttributes="stroke" classes="color,stroked"/>
	 </agg:params>


<style type="text/css" >
<![CDATA[

	.color,.stroked,.dashed{
		stroke-width:0.5;
		stroke-linecap:round;
		stroke-linejoin:round;
		stroke: #000000;
	}
	
	.color {
		fill:   #A1BFE2;

	}
	
	.stroked,.dashed{
		fill:none;
	}
	
	.dashed {
		stroke-dasharray:1.4173,1.4173;
	}

      ]]>
</style>

<g class="stroked">
	<circle cx="4.69" cy="3.964" r="1.669"/>
	<circle cx="4.695" cy="17.311" r="1.67"/>
	<path d="M7.94,25.595 c0,1.791-1.453,3.244-3.245,3.244c-1.792,0-3.244-1.453-3.244-3.244s1.453-3.244,3.244-3.244v-3.371"/>
	<circle cx="4.695" cy="40.368" r="1.67"/>
	<path d="M1.45,32.084 c0-1.791,1.453-3.244,3.245-3.244c1.792,0,3.244,1.453,3.244,3.244s-1.453,3.244-3.244,3.244v3.371"/>
	<circle cx="17.442" cy="3.964" r="1.669"/>
	<circle cx="17.447" cy="17.311" r="1.67"/>
	<path d="M20.691,25.595 c0,1.791-1.453,3.244-3.245,3.244c-1.792,0-3.244-1.453-3.244-3.244s1.453-3.244,3.244-3.244v-3.371"/>
	<circle cx="17.447" cy="40.368" r="1.67"/>
	<path d="M14.202,32.084 c0-1.791,1.453-3.244,3.245-3.244c1.792,0,3.244,1.453,3.244,3.244s-1.453,3.244-3.244,3.244v3.371"/>
	<circle cx="30.193" cy="3.964" r="1.67"/>
	<circle cx="30.198" cy="17.311" r="1.67"/>
	<path d="M33.443,25.595 c0,1.791-1.453,3.244-3.245,3.244s-3.244-1.453-3.244-3.244s1.452-3.244,3.244-3.244v-3.371"/>
	<circle cx="30.198" cy="40.368" r="1.67"/>
	<path d="M26.953,32.084 c0-1.791,1.453-3.244,3.245-3.244s3.244,1.453,3.244,3.244s-1.452,3.244-3.244,3.244v3.371"/>
	<polyline points="12.785,10.291 40.88,10.291 42.439,5.718 "/>
</g>	
	
</svg>
