<?xml version="1.0" encoding="utf-8"?>
<!-- Generator: Adobe Illustrator 15.1.0, SVG Export Plug-In . SVG Version: 6.00 Build 0)  -->
<!DOCTYPE svg PUBLIC "-//W3C//DTD SVG 1.1//EN" "http://www.w3.org/Graphics/SVG/1.1/DTD/svg11.dtd">
<svg version="1.1" id="Layer_1" xmlns="http://www.w3.org/2000/svg" preserveAspectRatio="none"   x="0px" y="0px"
	   viewBox="0 0 60 48" xmlns:agg="http://www.example.com" xml:space="preserve">

<agg:params>
	<agg:param type="C" name="color" description="Color" cssAttributes="fill" classes="color"/>
	<agg:param type="C" name="strokeColor" description="Stroke Color" cssAttributes="stroke" classes="color,stroked"/>
</agg:params>
	 
<style type="text/css" >
<![CDATA[

	.color,.stroked,.dashed{
		stroke-width:0.5;
		stroke-linecap:round;
		stroke-linejoin:round;
		stroke: #000000;
	}
	
	.color {
		fill:   #A1BFE2;

	}
	
	.stroked,.dashed{
		fill:none;
	}
	
	.dashed {
		stroke-dasharray:1.4173,1.4173;
	}
]]>
</style>
	 
<path class="color" d="M25.782,25.734
	c3.349,7.211,6.541,14.055,9.89,21.266c-7.714,0-15.429,0-23.143,0c-3.349-7.211-6.541-14.055-9.89-21.266
	C-2.717,14.198,5.706,1,18.425,1c7.714,0,15.429,0,23.144,0c13.743,0,22.064,15.182,14.67,26.767
	C48.845,39.352,31.571,38.199,25.782,25.734z"/>
	
<g class="stroked">
	<path d="M41.568,1C28.849,1,20.426,14.198,25.782,25.734"/>
	<circle cx="41.567" cy="18.404" r="8.653"/>
	<circle cx="41.567" cy="18.404" r="13"/>
	<circle cx="41.568" cy="18.404" r="4.307"/>
</g>
</svg>
