<?xml version="1.0" encoding="utf-8"?>
<!-- Generator: Adobe Illustrator 15.0.0, SVG Export Plug-In . SVG Version: 6.00 Build 0)  -->
<!DOCTYPE svg PUBLIC "-//W3C//DTD SVG 1.1//EN" "http://www.w3.org/Graphics/SVG/1.1/DTD/svg11.dtd">
<svg version="1.1" id="_x30_" xmlns:agg="http://www.example.com"
	 xmlns="http://www.w3.org/2000/svg" preserveAspectRatio="none"   x="0px" y="0px" 
	  viewBox="0 -0.004 61.111 29.453" enable-background="new 0 -0.004 61.111 29.453" xml:space="preserve">
<agg:params>
	<agg:param type="C" name="color" description="Color" cssAttributes="fill" classes="color"/>
	<agg:param type="C" name="strokeColor" description="Stroke Color" cssAttributes="stroke" classes="color,stroked"/>
</agg:params>
<style type="text/css" >
<![CDATA[

	.color,.stroked,.dashed{
		stroke-width:0.5;
		stroke-linecap:round;
		stroke-linejoin:round;
		stroke: #000000;
	}
	
	.color {
		fill:   #A1BFE2;

	}
	
	.stroked,.dashed{
		fill:none;
	}
	
	.dashed {
		stroke-dasharray:1.4173,1.4173;
	}

      ]]>
</style>
<path class="color" d="M11.739,26.906
	c0,0.473,0,0.944,0,1.417c-3.319,0-6.64,0-9.958,0c0-7.591,0-15.182,0-22.773c3.318,0,6.639,0,9.958,0c0,0.47,0,0.937,0,1.405
	c1.466,0.042,2.964,0.214,4.371,0.018c1.867-0.259,3.574-1.164,5.251-2.137c1.674-0.974,3.318-2.016,5.128-2.684
	c1.812-0.668,3.787-0.964,5.636-0.545c1.85,0.417,3.57,1.55,5.193,2.52c6.439,0,12.878,0,19.317,0
	c1.692-0.184,3.171,1.144,3.171,2.848s-1.479,3.031-3.171,2.847c-4.06,0-8.12,0-12.18,0c1.515,0.164,2.635,1.482,2.553,3
	c-0.081,1.522-1.337,2.71-2.86,2.71c-1.04,0-2.078,0-3.117,0c1.572-0.169,2.984,0.969,3.155,2.54
	c0.169,1.574-0.968,2.986-2.54,3.155c-0.952,0-1.901,0-2.854,0c1.583,0,2.864,1.283,2.864,2.865s-1.281,2.864-2.864,2.864
	c-3.237,0.378-5.031,0.664-6.835,0.84c-1.803,0.178-3.616,0.248-5.426,0.209c-1.812-0.038-3.62-0.186-5.412-0.429
	c-1.793-0.242-3.569-0.581-5.37-0.678C14.421,26.828,13.077,26.887,11.739,26.906z"/>
<line class="stroked" x1="11.739" y1="6.955" x2="11.739" y2="26.906"/>
</svg>
