<?xml version="1.0" encoding="utf-8"?>
<!-- Generator: Adobe Illustrator 15.1.0, SVG Export Plug-In . SVG Version: 6.00 Build 0)  -->
<!DOCTYPE svg PUBLIC "-//W3C//DTD SVG 1.1//EN" "http://www.w3.org/Graphics/SVG/1.1/DTD/svg11.dtd">
<svg version="1.1" id="Layer_1" xmlns="http://www.w3.org/2000/svg" preserveAspectRatio="none"   x="0px" y="0px"
	   viewBox="0 0 62 52" xmlns:agg="http://www.example.com" xml:space="preserve">
	 
<agg:params>
	<agg:param type="C" name="color" description="Color" cssAttributes="fill" classes="color"/>
	<agg:param type="C" name="strokeColor" description="Stroke Color" cssAttributes="stroke" classes="color,stroked"/>
</agg:params>
	 
<style type="text/css" >
<![CDATA[

	.color,.stroked,.dashed{
		stroke-width:0.5;
		stroke-linecap:round;
		stroke-linejoin:round;
		stroke: #000000;
	}
	
	.color {
		fill:   #A1BFE2;

	}
	
	.stroked,.dashed{
		fill:none;
	}
	
	.dashed {
		stroke-dasharray:1.4173,1.4173;
	}
]]>
</style>
	 

	<path class="color" d="M19.738,34.128
		c-6.366,6.118-16.951,1.543-16.862-7.289c0.089-8.831,10.763-13.192,17.004-6.947C13.587,13.595,7.293,7.297,1,1
		c7.896,0,15.791,0,23.687,0c0.628,0.629,1.256,1.257,1.885,1.886c0.117-0.004,0.234-0.006,0.351-0.006c7.895,0,16.201,0,24.097,0
		c5.501,0,9.962,4.462,9.962,9.967c0,5.504-4.461,9.967-9.962,9.967c-1.373,0-3.157,0-4.53,0c3.721,3.723,7.853,7.447,11.574,11.17
		C64.338,40.264,59.893,51,51.019,51c-7.896,0-16.202,0-24.097,0C18.143,51,13.657,40.463,19.738,34.128z"/>

<g class="stroked">
	<line x1="46.488" y1="22.814" x2="26.922" y2="22.814"/>
	<path d="M26.922,51c5.502,0,9.961-4.463,9.961-9.967
		c0-5.505-4.459-9.967-9.961-9.967c-2.573,0-5.045,0.995-6.901,2.779"/>
	<line x1="19.881" y1="19.892" x2="33.965" y2="33.984"/>
	<line x1="31.049" y1="31.066" x2="26.922" y2="31.066"/>
	<path d="M19.881,19.892c3.946,3.947,3.881,10.369-0.143,14.236"/>
	<path d="M20.021,33.846c-0.096,0.092-0.19,0.186-0.283,0.282"/>
	<ellipse cx="26.922" cy="12.847" rx="9.964" ry="9.967"/>
</g>
	
</svg>
