<?xml version="1.0" encoding="utf-8"?>
<!-- Generator: Adobe Illustrator 15.0.0, SVG Export Plug-In . SVG Version: 6.00 Build 0)  -->
<!DOCTYPE svg PUBLIC "-//W3C//DTD SVG 1.1//EN" "http://www.w3.org/Graphics/SVG/1.1/DTD/svg11.dtd">
<svg version="1.1" id="_x30_" xmlns:agg="http://www.example.com"
	 xmlns="http://www.w3.org/2000/svg" preserveAspectRatio="none"   x="0px" y="0px" 
	  viewBox="0 0 43.984 43.986" enable-background="new 0 0 43.984 43.986" xml:space="preserve">
<agg:params>
	<agg:param type="C" name="color" description="Color" cssAttributes="fill" classes="color"/>
	<agg:param type="C" name="strokeColor" description="Stroke Color" cssAttributes="stroke" classes="color,stroked"/>
</agg:params>
<style type="text/css" >
   <![CDATA[

	.color,.stroked{
		stroke-width:1;
		stroke-linecap:round;
		stroke-linejoin:round;
		stroke: #000000;
	}
	
	.color {
		fill:   #A1BFE2;

	}
	
	.stroked {
		fill:none;
	}

      ]]>
</style>
	
	<polygon class="color" points="7.312,10.324 36.621,10.324 36.621,33.714 7.312,33.714 7.312,10.324 	"/>

<g class="stroked">	
	<line x1="7.312" y1="22.089" x2="1.418" y2="22.089"/>
	<line x1="36.621" y1="22.089" x2="42.515" y2="22.089"/>
	<line x1="36.621" y1="33.714" x2="33.662" y2="10.324"/>
	<line x1="33.662" y1="33.714" x2="30.844" y2="10.324"/>
	<line x1="30.844" y1="33.714" x2="27.907" y2="10.324"/>
	<line x1="27.907" y1="33.714" x2="24.925" y2="10.324"/>
	<line x1="24.925" y1="33.714" x2="21.967" y2="10.324"/>
	<line x1="21.967" y1="33.714" x2="19.007" y2="10.324"/>
	<line x1="19.007" y1="33.714" x2="16.049" y2="10.324"/>
	<line x1="16.049" y1="33.714" x2="13.23" y2="10.324"/>
	<line x1="13.23" y1="33.714" x2="10.271" y2="10.324"/>
	<line x1="10.271" y1="33.714" x2="7.312" y2="10.324"/>
</g>
</svg>
