<?xml version="1.0" encoding="utf-8"?>
<!-- Generator: Adobe Illustrator 15.1.0, SVG Export Plug-In . SVG Version: 6.00 Build 0)  -->
<!DOCTYPE svg PUBLIC "-//W3C//DTD SVG 1.1//EN" "http://www.w3.org/Graphics/SVG/1.1/DTD/svg11.dtd">
<svg version="1.1" id="Default" xmlns="http://www.w3.org/2000/svg" preserveAspectRatio="none"  x="0px" y="0px"
       viewBox="0 0 102 112" xmlns:agg="http://www.example.com">
	 
<agg:params>
	<agg:param type="C" name="color" description="Color" cssAttributes="fill" classes="color"/>
	<agg:param type="F" name="saturation" description="Saturation" min="0" max="1" cssAttributes="opacity" classes="color"/>
</agg:params>
	 
<style type="text/css" >
   <![CDATA[

	.stroke,.thin,.thick{
		stroke-linecap:butt;
		stroke-linejoin:round;
		stroke: black;
		fill:none;
		opacity:0.5;
	}

	.stroke{stroke-width:0.5;}

	.thin {stroke-width:0.25;}

	.thick {stroke-width:0.75;}
	
	.color {
		fill:#3664BF;
		opacity:0.2;
	}

      ]]>
</style>
	 
<linearGradient id="cyl" gradientUnits="userSpaceOnUse" x1="76.0811" y1="28.7363" x2="98.7622" y2="28.7363">
	<stop  offset="0" style="stop-color:#4C5B75"/>
	<stop  offset="0.0323" style="stop-color:#616F86"/>
	<stop  offset="0.098" style="stop-color:#8E99AA"/>
	<stop  offset="0.1641" style="stop-color:#B4BCC7"/>
	<stop  offset="0.2298" style="stop-color:#D1D7DE"/>
	<stop  offset="0.2946" style="stop-color:#E5EAEF"/>
	<stop  offset="0.3584" style="stop-color:#F2F6F9"/>
	<stop  offset="0.42" style="stop-color:#F6FAFC"/>
	<stop  offset="0.4744" style="stop-color:#F2F6F8"/>
	<stop  offset="0.5308" style="stop-color:#E6E9EC"/>
	<stop  offset="0.5882" style="stop-color:#D3D5D7"/>
	<stop  offset="0.6461" style="stop-color:#B7B8BB"/>
	<stop  offset="0.704" style="stop-color:#949396"/>
	<stop  offset="0.72" style="stop-color:#89878B"/>
	<stop  offset="1" style="stop-color:#F6FAFC"/>
</linearGradient>
<linearGradient id="flat" gradientUnits="userSpaceOnUse" x1="16.8818" y1="13.2124" x2="89.7667" y2="99.7632">
	<stop  offset="0" style="stop-color:#757575"/>
	<stop  offset="0.0583" style="stop-color:#959595"/>
	<stop  offset="0.132" style="stop-color:#BABABA"/>
	<stop  offset="0.2058" style="stop-color:#D7D7D7"/>
	<stop  offset="0.2788" style="stop-color:#EBEBEB"/>
	<stop  offset="0.3507" style="stop-color:#F8F8F8"/>
	<stop  offset="0.42" style="stop-color:#FCFCFC"/>
	<stop  offset="0.5262" style="stop-color:#F8F8F8"/>
	<stop  offset="0.6362" style="stop-color:#EBEBEB"/>
	<stop  offset="0.748" style="stop-color:#D7D7D7"/>
	<stop  offset="0.8611" style="stop-color:#BABABA"/>
	<stop  offset="0.9741" style="stop-color:#959595"/>
	<stop  offset="1" style="stop-color:#8B8B8B"/>
</linearGradient>

<path fill="url(#cyl)" d="M76.081,1v55.472h22.681V1H76.081z M95.383,11.378c-0.928,0.657-1.931,0.963-3.005,1.224
	c-1.674,0.406-3.339,0.556-5.055,0.556c-1.717,0-3.383-0.15-5.059-0.557c-1.074-0.261-2.076-0.566-3.003-1.224
	c-0.465-0.33-0.98-0.813-0.98-1.473c0-0.661,0.515-1.144,0.981-1.474c0.929-0.658,1.932-0.963,3.005-1.224
	c1.675-0.406,3.34-0.556,5.055-0.556c1.717,0,3.383,0.15,5.059,0.557c1.073,0.261,2.075,0.566,3.002,1.224
	c0.466,0.33,0.98,0.813,0.98,1.474S95.849,11.048,95.383,11.378z"/>
<path fill="url(#flat)" d="M100.162,51.886c-1.987,0-3.973,0-5.959,0c0-10.584,0-21.168,0-31.752c-4.798,0-9.596,0-14.394,0
	c-6.449-4.546-13.883-7.502-21.693-8.625c-1.572-3.148-3.144-6.297-4.716-9.446c-1.534,0-3.067,0-4.6,0
	c-1.582,3.141-3.163,6.281-4.744,9.421c-8.44,1.184-16.438,4.505-23.233,9.649c-3.332-1.13-6.664-2.261-9.995-3.391
	c-1.087,1.084-2.175,2.169-3.263,3.254c1.14,3.341,2.28,6.683,3.42,10.024C0.864,44.531-1.758,62.235,4.015,78.097
	c5.772,15.862,19.158,27.742,35.594,31.587c16.436,3.845,33.703-0.862,45.914-12.517C97.733,85.513,103.238,68.483,100.162,51.886z
	 M13.918,24.269c-0.883,0.893-2.323,0.9-3.216,0.017c-0.893-0.883-0.901-2.323-0.018-3.216c0.883-0.893,2.323-0.9,3.216-0.017
	C14.794,21.937,14.802,23.376,13.918,24.269z M51.031,8.806c-1.256,0-2.274-1.018-2.274-2.274c0-1.256,1.018-2.274,2.274-2.274
	s2.274,1.018,2.274,2.274C53.305,7.788,52.287,8.806,51.031,8.806z"/>
<path class="color" d="M100.162,51.886c-0.467,0-0.933,0-1.399,0V1H76.081v16.747
	c-5.522-3.203-11.62-5.325-17.965-6.237c-1.572-3.148-3.144-6.297-4.716-9.446c-1.534,0-3.067,0-4.6,0
	c-1.582,3.141-3.163,6.281-4.744,9.421c-8.44,1.184-16.438,4.505-23.233,9.649c-3.332-1.13-6.664-2.261-9.995-3.391
	c-1.087,1.084-2.175,2.169-3.263,3.254c1.14,3.341,2.28,6.683,3.42,10.024C0.864,44.531-1.758,62.235,4.015,78.097
	c5.772,15.862,19.158,27.742,35.594,31.587c16.436,3.845,33.703-0.862,45.914-12.517C97.733,85.513,103.238,68.483,100.162,51.886z
	 M13.918,24.269c-0.883,0.893-2.323,0.9-3.216,0.017c-0.893-0.883-0.901-2.323-0.018-3.216c0.883-0.893,2.323-0.9,3.216-0.017
	C14.794,21.937,14.802,23.376,13.918,24.269z M51.031,8.806c-1.256,0-2.274-1.018-2.274-2.274c0-1.256,1.018-2.274,2.274-2.274
	s2.274,1.018,2.274,2.274C53.305,7.788,52.287,8.806,51.031,8.806z M95.383,11.378c-0.928,0.657-1.931,0.963-3.005,1.224
	c-1.674,0.406-3.339,0.556-5.055,0.556c-1.717,0-3.383-0.15-5.059-0.557c-1.074-0.261-2.076-0.566-3.003-1.224
	c-0.465-0.33-0.98-0.813-0.98-1.473c0-0.661,0.515-1.144,0.981-1.474c0.929-0.658,1.932-0.963,3.005-1.224
	c1.675-0.406,3.34-0.556,5.055-0.556c1.717,0,3.383,0.15,5.059,0.557c1.073,0.261,2.075,0.566,3.002,1.224
	c0.466,0.33,0.98,0.813,0.98,1.474S95.849,11.048,95.383,11.378z"/>
	
<g opacity="0.5" fill="none" stroke="black" stroke->
	<polyline points="60.357,40.361 66.057,25.152 74.784,30.13"/>
	<polyline points="71.717,51.69 69.556,47.77 81.977,37.304"/>
	<polyline points="73.683,63.215 73.683,58.864 89.603,55.806"/>
	<polyline points="69.556,74.112 71.717,70.388 87.008,75.837"/>
	<polyline points="45.97,99.552 48.8,83.677 53.164,83.677"/>
	<polyline points="66.057,96.965 60.357,81.717 64.288,79.561"/>
	<polyline points="27.416,91.712 37.872,79.561 41.606,81.717"/>
	<polyline points="20.223,84.539 14.995,75.837 30.247,70.388"/>
	<polyline points="12.36,66.037 12.36,55.806 28.281,58.864"/>
	<polyline points="14.994,46.045 20.222,37.304 32.448,47.771"/>
	<polyline points="37.676,42.557 27.18,30.13 36.143,25.152"/>
	<polyline points="48.8,38.401 45.97,22.525 56.229,22.525"/>
</g>

<g opacity="0.5" fill="none" stroke="white" stroke->
	<polyline points="74.784,30.13 64.288,42.557 60.357,40.361"/>
	<polyline points="81.977,37.304 87.009,46.045 71.717,51.69 "/>
	<polyline points="89.603,55.806 89.603,66.037 73.683,63.215"/>
	<polyline points="64.288,79.561 74.784,91.712 66.057,96.966 "/>
	<polyline points="87.009,75.836 81.977,84.539 69.556,74.112"/>
	<polyline points="53.163,83.676 56.229,99.552 45.97,99.552"/>
	<polyline points="41.606,81.717 36.143,96.965 27.416,91.712"/>
	<polyline points="30.246,70.388 32.448,74.308 20.222,84.539"/>
	<polyline points="28.281,58.864 28.281,63.214 12.36,66.037"/>
	<polyline points="32.448,47.77 30.246,51.69 14.994,46.045"/>
	<polyline points="36.143,25.152 41.606,40.361 37.676,42.557"/>
	<polyline points="56.229,22.525 53.163,38.401 48.8,38.401"/>
</g>

<g>
	<circle opacity="0.75" cx="51" cy="61" r="9.113"/>
	<path opacity="0.5" d="M64.66,60.981c0.012,7.545-6.096,13.67-13.641,13.678c-7.545,0.013-13.67-6.096-13.679-13.641
		c-0.012-7.545,6.096-13.67,13.641-13.678C58.527,47.328,64.652,53.436,64.66,60.981z M60.113,61.102
		c0.058-5.036-3.979-9.16-9.011-9.214c-5.036-0.058-9.16,3.979-9.214,9.011c-0.058,5.036,3.979,9.161,9.011,9.214
		C55.935,70.171,60.059,66.133,60.113,61.102z"/>
	<path opacity="0.5" fill="#FFFFFF" d="M51.002,42.752c10.075,0,18.246,8.17,18.246,18.25c-0.004,10.076-8.171,18.246-18.25,18.246
		s-18.246-8.17-18.246-18.25C32.752,50.922,40.922,42.752,51.002,42.752z M51.019,74.66c7.545-0.008,13.653-6.133,13.641-13.678
		c-0.008-7.545-6.133-13.653-13.679-13.641c-7.545,0.008-13.653,6.133-13.641,13.678C37.349,68.564,43.474,74.672,51.019,74.66z"/>
</g>

<g class="stroke">
	<path d="M20.823,21.134c-3.779,2.86-6.997,6.094-9.838,9.887"/>
	<path d="M58.116,11.509c-4.731-0.68-9.327-0.688-14.06-0.024"/>
	<circle cx="12.302" cy="22.67" r="2.274"/>
	<circle cx="51.031" cy="6.532" r="2.274"/>
	<circle cx="51" cy="61" r="18.248"/>
	<circle cx="51" cy="61" r="13.66"/>
	<path d="M51.102,51.888
		c-5.036-0.058-9.16,3.979-9.214,9.011c-0.058,5.036,3.979,9.161,9.011,9.214c5.036,0.058,9.16-3.979,9.214-9.011
		C60.171,56.066,56.133,51.941,51.102,51.888z"/>
	<path d="M20.823,21.134
		c-3.332-1.13-6.664-2.261-9.995-3.391c-1.087,1.084-2.175,2.169-3.263,3.254c1.14,3.341,2.28,6.683,3.42,10.024
		C0.864,44.531-1.758,62.235,4.015,78.097c5.772,15.862,19.158,27.742,35.594,31.587c16.436,3.845,33.703-0.862,45.914-12.517
		c12.211-11.655,17.716-28.684,14.639-45.281c-1.987,0-3.973,0-5.959,0c0-10.584,0-21.168,0-31.752c-4.798,0-9.596,0-14.394,0
		c-6.449-4.546-13.883-7.502-21.693-8.625c-1.572-3.148-3.144-6.297-4.716-9.446c-1.534,0-3.067,0-4.6,0
		c-1.582,3.141-3.163,6.281-4.744,9.421C35.616,12.668,27.618,15.99,20.823,21.134z"/>
	<polyline points="76.081,17.745 76.081,1 98.762,1 98.762,51.69 		"/>
	<path d="M95.383,11.378
		c-0.928,0.657-1.931,0.963-3.005,1.224c-1.674,0.406-3.339,0.556-5.055,0.556c-1.717,0-3.383-0.15-5.059-0.557
		c-1.074-0.261-2.076-0.566-3.003-1.224c-0.465-0.33-0.98-0.813-0.98-1.473c0-0.661,0.515-1.144,0.981-1.474
		c0.929-0.658,1.932-0.963,3.005-1.224c1.675-0.406,3.34-0.556,5.055-0.556c1.717,0,3.383,0.15,5.059,0.557
		c1.073,0.261,2.075,0.566,3.002,1.224c0.466,0.33,0.98,0.813,0.98,1.474S95.849,11.048,95.383,11.378z"/>
</g>

</svg>
