<?xml version="1.0" encoding="utf-8"?>
<!-- Generator: Adobe Illustrator 15.1.0, SVG Export Plug-In . SVG Version: 6.00 Build 0)  -->
<!DOCTYPE svg PUBLIC "-//W3C//DTD SVG 1.1//EN" "http://www.w3.org/Graphics/SVG/1.1/DTD/svg11.dtd">
<svg version="1.1" id="Default" xmlns="http://www.w3.org/2000/svg" preserveAspectRatio="none"  x="0px" y="0px"
       viewBox="0 0 102 95" xmlns:agg="http://www.example.com">
	 
<agg:params>
	<agg:param type="C" name="color" description="Color" cssAttributes="fill" classes="color"/>
</agg:params>

<style type="text/css" >
   <![CDATA[

	.stroke,.thin,.thick{
		stroke-linecap:butt;
		stroke-linejoin:round;
		stroke: black;
		fill:none;
		opacity:0.35;
	}

	.stroke{stroke-width:0.5;}

	.thin {stroke-width:0.25;}

	.thick {stroke-width:0.75;}
	
	.color {
		fill:#2088B7;
		opacity:1;
	}

      ]]>
</style>	
	 
<path class="color" d="M93.168,35.029c-6.771-3.085-13.544-4.787-20.973-5.259V12.681
	l-1.981-3.847H56.802l-2.015,3.847v16.892H33.801v-1.399h-1.008V6.84h1.008H34.6h3.996V1H34.6h-0.799H18.02v5.84h1.396v21.334
	h-1.007v7.87H17.4V24.362h-0.799h-0.417h-0.799v11.682h-0.973v-2.029H1v9.653v3.847h2.015v1.994H1v3.847l2.015,1.994h12.37v11.471
	h-1.98v5.841h1.98v5.84h-1.98v7.869H10.59v3.813H8.61v3.812H101v-3.812h-2.016v-3.813h-1.389v-1.014H38.005v1.014h-2.398v-4.056
	h-1.806V59.162h-1.008V55.35h1.008l1.806-1.994v-2.028h-1.806v-3.813h16.191v3.813h4.795l3.823,4.067l3.995,0l-0.035,7.614
	l2.814,0.035v-7.649l4.83-0.044l3.788-4.022v-3.813H101v-3.427v-2.833v-1.994v-4.232H93.168z M18.2,78.502H17.4v-5.84H18.2V78.502z
	 M19.416,59.162H18.2v7.659H17.4V55.35h2.015V59.162z"/>
<path opacity="0.2" fill="#FFFFFF" d="M32.792,59.162H19.416V55.35h13.377V59.162z
	 M18.408,43.749H1.018v3.813h17.39V43.749z M35.607,82.448H19.311v3.813h16.296V82.448z"/>
<path opacity="0.5" fill="#FFFFFF" d="M49.993,44.147H36.147v-2.83h13.846V44.147z
	 M101,41.317H74.001v2.83H101V41.317z M101,35.098H72.195v2.83h1.807v1.398H101V35.098z M54.788,35.098H36.147v4.228h13.875
	l-0.029-1.949h4.794L54.788,35.098z"/>
<rect x="49.993" y="37.376" opacity="0.2"  />
<polygon opacity="0.2" points="8.592,94 8.592,90.188 10.573,90.188 10.573,86.375 
	98.966,86.375 98.966,90.188 100.982,90.188 100.982,94 8.592,94 	"/>
<polygon opacity="0.15" fill="#FFFFFF" points="58.61,55.449 54.787,51.427 
	54.787,12.782 56.802,8.934 70.214,8.934 72.195,12.782 72.195,37.928 74.001,37.928 74.001,51.427 70.214,55.449 58.61,55.449 	"/>
<g>
	<polygon opacity="0.1" fill="#FFFFFF" points="18.2,1 33.801,1 33.801,6.84 18.2,6.84 18.2,1"/>
	<polygon opacity="0.1" fill="#FFFFFF" points="19.208,1 32.792,1 32.792,6.84 19.208,6.84 19.208,1"/>
	<polygon opacity="0.1" fill="#FFFFFF" points="20.006,1 31.994,1 31.994,6.84 20.006,6.84 20.006,1"/>
	<polygon opacity="0.1" fill="#FFFFFF" points="20.806,1 31.195,1 31.195,6.84 20.806,6.84 20.806,1"/>
	<polygon opacity="0.1" fill="#FFFFFF" points="21.813,1 30.187,1 30.187,6.84 21.813,6.84 21.813,1"/>
	<polygon opacity="0.1" fill="#FFFFFF" points="22.613,1 29.388,1 29.388,6.84 22.613,6.84 22.613,1"/>
	<polygon opacity="0.1" fill="#FFFFFF" points="23.412,1 28.589,1 28.589,6.84 23.412,6.84 23.412,1"/>
	<polygon opacity="0.1" fill="#FFFFFF" points="24.211,1 27.79,1 27.79,6.84 24.211,6.84 24.211,1"/>
	<polygon opacity="0.1" fill="#FFFFFF" points="25.184,1 26.99,1 26.99,6.84 25.184,6.84 25.184,1"/>
</g>
<g>
	<polygon opacity="0.1" fill="#FFFFFF" points="18.2,59.162 33.8,59.162 33.8,82.314 19.216,82.314 19.208,78.521 18.2,78.521 18.2,59.162"/>
	<polygon opacity="0.1" fill="#FFFFFF" points="19.117,59.162 32.883,59.162 32.883,82.314 19.117,82.314 19.117,59.162"/>
	<polygon opacity="0.1" fill="#FFFFFF" points="20.036,59.162 31.965,59.162 31.965,82.314 20.036,82.314 20.036,59.162"/>
	<polygon opacity="0.1" fill="#FFFFFF" points="21.192,59.162 30.808,59.162 30.808,82.314 21.192,82.314 21.192,59.162"/>
	<polygon opacity="0.1" fill="#FFFFFF" points="22.11,59.162 29.89,59.162 29.89,82.314 22.11,82.314 22.11,59.162"/>
	<polygon opacity="0.1" fill="#FFFFFF" points="23.027,59.162 28.973,59.162 28.973,82.314 23.027,82.314 23.027,59.162"/>
	<polygon opacity="0.1" fill="#FFFFFF" points="23.945,59.162 28.055,59.162 28.055,82.314 23.945,82.314 23.945,59.162"/>
	<polygon opacity="0.1" fill="#FFFFFF" points="25.062,59.162 27.137,59.162 27.137,82.314 25.062,82.314 25.062,59.162"/>
</g>
<g>
	<polygon opacity="0.1" fill="#FFFFFF" points="19.443,6.84 32.792,6.84 32.792,28.174 19.443,28.174 19.443,6.84"/>
	<polygon opacity="0.1" fill="#FFFFFF" points="20.333,6.84 31.902,6.84 31.902,28.174 20.333,28.174 20.333,6.84"/>
	<polygon opacity="0.1" fill="#FFFFFF" points="21.223,6.84 31.013,6.84 31.013,28.174 21.223,28.174 21.223,6.84"/>
	<polygon opacity="0.1" fill="#FFFFFF" points="21.997,6.84 30.239,6.84 30.239,28.174 21.997,28.174 21.997,6.84"/>
	<polygon opacity="0.1" fill="#FFFFFF" points="22.771,6.84 29.465,6.84 29.465,28.174 22.771,28.174 22.771,6.84"/>
	<polygon opacity="0.1" fill="#FFFFFF" points="23.66,6.84 28.575,6.84 28.575,28.174 23.66,28.174 23.66,6.84"/>
	<polygon opacity="0.1" fill="#FFFFFF" points="24.551,6.84 27.685,6.84 27.685,28.174 24.551,28.174 24.551,6.84"/>
	<polygon opacity="0.1" fill="#FFFFFF" points="25.325,6.84 26.911,6.84 26.911,28.174 25.325,28.174 25.325,6.84"/>
</g>
<g>
	<polygon opacity="0.1" fill="#FFFFFF" points="18.408,28.174 33.801,28.174 33.801,53.355 18.408,53.355 18.408,28.174"/>
	<polygon opacity="0.1" fill="#FFFFFF" points="19.313,28.174 32.896,28.174 32.896,53.355 19.313,53.355 19.313,28.174"/>
	<polygon opacity="0.1" fill="#FFFFFF" points="20.22,28.174 31.99,28.174 31.99,53.355 20.22,53.355 20.22,28.174"/>
	<polygon opacity="0.1" fill="#FFFFFF" points="21.361,28.174 31.085,28.174 31.085,53.355 21.361,53.355 21.361,28.174"/>
	<polygon opacity="0.1" fill="#FFFFFF" points="22.267,28.174 29.943,28.174 29.943,53.355 22.267,53.355 22.267,28.174"/>
	<polygon opacity="0.1" fill="#FFFFFF" points="23.171,28.174 29.038,28.174 29.038,53.355 23.171,53.355 23.171,28.174"/>
	<polygon opacity="0.1" fill="#FFFFFF" points="24.077,28.174 28.132,28.174 28.132,53.355 24.077,53.355 24.077,28.174"/>
	<polygon opacity="0.1" fill="#FFFFFF" points="25.179,28.174 27.227,28.174 27.227,53.355 25.179,53.355 25.179,28.174"/>
</g>
<g>
	<polygon opacity="0.1" fill="#FFFFFF" points="14.413,34.051 14.413,43.762 1,43.762 1,34.051 14.413,34.051"/>
	<polygon opacity="0.1" fill="#FFFFFF" points="14.413,34.532 14.413,43.28 1,43.28 1,34.532 14.413,34.532"/>
	<polygon opacity="0.1" fill="#FFFFFF" points="14.413,35.214 14.413,42.598 1,42.598 1,35.214 14.413,35.214"/>
	<polygon opacity="0.1" fill="#FFFFFF" points="14.413,35.896 14.413,41.916 1,41.916 1,35.896 14.413,35.896"/>
	<polygon opacity="0.1" fill="#FFFFFF" points="14.413,36.378 14.413,41.435 1,41.435 1,36.378 14.413,36.378"/>
	<polygon opacity="0.1" fill="#FFFFFF" points="14.413,37.061 14.413,40.752 1,40.752 1,37.061 14.413,37.061"/>
	<polygon opacity="0.1" fill="#FFFFFF" points="14.413,37.542 14.413,40.07 1,40.07 1,37.542 14.413,37.542"/>
	<polygon opacity="0.1" fill="#FFFFFF" points="14.413,38.224 14.413,39.589 1,39.589 1,38.224 14.413,38.224"/>
</g>
<g>
	<polygon opacity="0.1" fill="#FFFFFF" points="13.405,78.502 19.117,78.502 19.117,86.371 13.405,86.371 13.405,78.502"/>
	<polygon opacity="0.1" fill="#FFFFFF" points="14.169,78.502 18.308,78.502 18.308,86.371 14.169,86.371 14.169,78.502"/>
	<polygon opacity="0.1" fill="#FFFFFF" points="14.935,78.502 17.542,78.502 17.542,86.371 14.935,86.371 14.935,78.502"/>
	<polygon opacity="0.1" fill="#FFFFFF" points="15.744,78.502 16.509,78.502 16.509,86.371 15.744,86.371 15.744,78.502"/>
</g>
<g>
	<polygon opacity="0.1" fill="#FFFFFF" points="62.605,55.35 65.35,55.35 65.35,63.008 62.605,63.008 62.605,55.35"/>
	<polygon opacity="0.1" fill="#FFFFFF" points="62.975,55.35 64.98,55.35 64.98,63.008 62.975,63.008 62.975,55.35"/>
	<polygon opacity="0.1" fill="#FFFFFF" points="63.345,55.35 64.609,55.35 64.609,63.008 63.345,63.008 63.345,55.35"/>
	<polygon opacity="0.1" fill="#FFFFFF" points="63.716,55.35 64.239,55.35 64.239,63.008 63.716,63.008 63.716,55.35"/>
</g>

<path opacity="0.6" d="M53.885,41.792c0,0.828-0.669,1.5-1.496,1.5
	s-1.496-0.672-1.496-1.5c0-0.829,0.67-1.5,1.496-1.5S53.885,40.964,53.885,41.792z M52.39,45.594c-0.826,0-1.496,0.671-1.496,1.5
	c0,0.828,0.67,1.5,1.496,1.5s1.496-0.672,1.496-1.5C53.885,46.266,53.216,45.594,52.39,45.594z"/>
<ellipse opacity="0.2" fill="#FFFFFF" cx="64.169" cy="47.094" rx="3.4" ry="3.41"/>
<path opacity="0.25" d="M35.363,6.943h-1.563V1h1.563V6.943z M18.182,66.798h-1.563v5.942h1.563V66.798z"/>
<path fill="black" d="M58.401,37.653l0.799-0.42l4.794,8.464l-0.799,0.384
	L58.401,37.653L58.401,37.653z M64.794,49.124l5.003,8.639l0.799-0.384l-5.003-8.883L64.794,49.124L64.794,49.124z"/>
	
<g fill="none" stroke="#FFFFFF" stroke- >
	<line x1="11.007" y1="89.588" x2="98.602" y2="89.588"/>
	<line x1="15.002" y1="72.662" x2="15.002" y2="66.821"/>
	<line x1="36.997" y1="1" x2="36.997" y2="6.84"/>
	<polyline points="68.408,12.681 58.783,12.681 58.783,31.987 		"/>
</g>

<g class="stroke">
	<polyline points="65.384,55.394 65.384,63.043 62.605,63.043 62.605,55.394 		"/>
	<line x1="17.4" y1="49.562" x2="18.408" y2="49.562"/>
	<polyline points="15.385,55.395 3.016,55.395 1,53.404 1,49.562 15.385,49.562 		"/>
	<polyline points="33.8,51.377 35.607,51.377 35.607,53.404 33.8,55.395 17.4,55.395 		"/>
	<polyline points="13.404,86.38 13.404,78.521 19.208,78.521 19.208,86.38 		"/>
	<polyline points="19.208,82.328 35.607,82.328 35.607,86.38 		"/>
	<polyline points="18.2,78.521 18.2,59.202 33.8,59.202 33.8,82.327 		"/>
	<polyline points="18.2,72.687 13.404,72.687 13.404,66.853 18.2,66.853 		"/>
	<polyline points="17.4,72.687 17.4,78.52 15.385,78.52 15.385,72.687 		"/>
	<polyline points="15.385,43.727 15.385,24.444 17.4,24.444 17.4,43.727 		"/>
	<line x1="19.416" y1="59.202" x2="19.416" y2="55.395"/>
	<line x1="32.793" y1="55.395" x2="32.793" y2="59.202"/>
	<polyline points="38.005,86.379 38.005,85.367 97.595,85.367 97.595,86.379 		"/>
	<line x1="32.793" y1="6.943" x2="32.793" y2="28.251"/>
	<line x1="19.416" y1="28.251" x2="19.416" y2="6.943"/>
	<polyline points="72.195,35.098 101,35.098 101,47.569 74.001,47.569 		"/>
	<line x1="101" y1="39.326" x2="74.001" y2="39.326"/>
	<line x1="101" y1="44.147" x2="74.001" y2="44.147"/>
	<line x1="74.001" y1="41.317" x2="101" y2="41.317"/>
	<polyline points="54.788,51.377 49.993,51.377 49.993,37.509 54.788,37.509 		"/>
	<polyline points="49.993,39.326 36.198,39.326 36.198,35.098 54.787,35.098 		"/>
	<polyline points="49.993,44.147 36.198,44.147 36.198,41.317 49.993,41.317 		"/>
	<line x1="32.793" y1="53.403" x2="32.793" y2="53.404"/>
	<polygon points="58.61,55.395 54.787,51.377 54.787,12.776 56.803,8.934 70.214,8.934 72.195,12.776 72.195,37.893 74.001,37.893 74.001,51.377 70.214,55.395"/>
	<rect x="1" y="34.086"  />
	<polyline points="58.61,32.06 68.408,32.06 68.408,12.776 		"/>
	<line x1="63.404" y1="29.265" x2="63.404" y2="12.777"/>
	<line x1="58.61" y1="29.265" x2="68.408" y2="29.265"/>
	<line x1="72.195" y1="37.894" x2="56.803" y2="37.894"/>
	<line x1="3.016" y1="34.086" x2="3.016" y2="43.727"/>
	<polygon points="8.61,93.995 8.61,90.188 10.59,90.188 10.59,86.38 98.984,86.38 98.984,90.188 101,90.188 101,93.995 		"/>
	<line x1="1" y1="43.727" x2="1" y2="47.583"/>
	<line x1="1" y1="47.583" x2="18.408" y2="47.583"/>
	<line x1="14.413" y1="43.727" x2="18.408" y2="43.727"/>
	<line x1="15.385" y1="47.552" x2="15.385" y2="66.853"/>
	<line x1="17.4" y1="47.583" x2="17.4" y2="66.853"/>
	<polyline points="49.993,47.569 33.8,47.569 33.8,53.403 18.408,53.403 18.408,28.251 33.8,28.251 33.8,29.65 54.787,29.65 		"/>
	<path d="M72.195,29.77c7.488,0.476,14.309,2.196,21.132,5.328"/>
	<line x1="33.801" y1="1.109" x2="33.801" y2="6.943"/>
	<rect x="18.2" y="1.109"  />
	<line x1="3.016" y1="47.583" x2="3.016" y2="49.562"/>
	<line x1="8.61" y1="47.583" x2="8.61" y2="49.562"/>
	<line x1="33.8" y1="29.65" x2="33.8" y2="47.569"/>
	<line x1="14.413" y1="36.044" x2="15.385" y2="36.044"/>
	<line x1="17.4" y1="36.044" x2="18.408" y2="36.044"/>
	<ellipse cx="64.169" cy="47.094" rx="3.4" ry="3.41"/>
	<line x1="11.007" y1="90.183" x2="98.602" y2="90.183"/>
</g>

</svg>
