<?xml version="1.0" encoding="UTF-8" standalone="no"?>
<!-- Generator: Adobe Illustrator 13.0.0, SVG Export Plug-In . SVG Version: 6.00 Build 14948)  -->

<svg
   xmlns:agg="http://www.example.com"
   xmlns:dc="http://purl.org/dc/elements/1.1/"
   xmlns:cc="http://creativecommons.org/ns#"
   xmlns:rdf="http://www.w3.org/1999/02/22-rdf-syntax-ns#"
   xmlns:svg="http://www.w3.org/2000/svg"
   xmlns="http://www.w3.org/2000/svg" preserveAspectRatio="none" 
   xmlns:xlink="http://www.w3.org/1999/xlink"
   xmlns:sodipodi="http://sodipodi.sourceforge.net/DTD/sodipodi-0.dtd"
   xmlns:inkscape="http://www.inkscape.org/namespaces/inkscape"
   version="1.1"
   id="Default"
   x="0px"
   y="0px"
   
   
   viewBox="0 0 122.872 122.872"
   enable-background="new 0 0 127.21 127.21"
   xml:space="preserve"
   inkscape:version="0.48.1 r9760"
   sodipodi:docname="regulator.svg"><metadata
   id="metadata39"><rdf:RDF><cc:Work
       rdf:about=""><dc:format>image/svg+xml</dc:format><dc:type
         rdf:resource="http://purl.org/dc/dcmitype/StillImage" /></cc:Work></rdf:RDF></metadata><defs
   id="defs37" /><sodipodi:namedview
   pagecolor="#ffffff"
   bordercolor="#666666"
   borderopacity="1"
   objecttolerance="10"
   gridtolerance="10"
   guidetolerance="10"
   inkscape:pageopacity="0"
   inkscape:pageshadow="2"
   inkscape:window-
   inkscape:window-
   id="namedview35"
   showgrid="false"
   fit-margin-top="0"
   fit-margin-left="0"
   fit-margin-right="0"
   fit-margin-bottom="0"
   inkscape:zoom="2.263973"
   inkscape:cx="63.499001"
   inkscape:cy="59.623"
   inkscape:window-x="66"
   inkscape:window-y="24"
   inkscape:window-maximized="0"
   inkscape:current-layer="Default" />

    <agg:params>
        <agg:param
   name="color"
   description="Color"
   type="C"
   cssAttributes="fill"
   classes="maincolor" />
        <agg:param
   name="position"
   description="Position"
   type="F"
   attributes="transform"
   ids="mask, regulator"
   pattern="rotate({0} 61.542 61.792)"
   forceRepaint="true"
	/>
    </agg:params>

<style
   type="text/css"
   id="style3">
   

	.maincolor {
		fill: #DD0000;
	}

      
</style>


<radialGradient
   id="darkGray"
   cx="-19.628401"
   cy="-75.501999"
   r="311.1189"
   gradientUnits="userSpaceOnUse">
	<stop
   offset="0"
   style="stop-color:#FFFFFF"
   id="stop6" />
	<stop
   offset="1"
   style="stop-color:#525252"
   id="stop8" />
</radialGradient>

<radialGradient
   id="lightGray"
   cx="15.9199"
   cy="3.9937"
   r="139.8867"
   gradientUnits="userSpaceOnUse">
	<stop
   offset="0"
   style="stop-color:#FFFFFF"
   id="stop11" />
	<stop
   offset="1"
   style="stop-color:#808080"
   id="stop13" />
</radialGradient>



<path
   id="regulatorMask"
   d="m 117.667,65.487001 c 4.625,5.441 2.715,13.801 -3.813,16.695 -10.634,4.717 -18.293999,14.324 -20.524999,25.739999 -1.37,7.01 -9.097,10.73 -15.432,7.432 -10.314,-5.375 -22.605,-5.375 -32.92,0 -6.335,3.299 -14.062,-0.422 -15.432,-7.432 -2.231,-11.415999 -9.892,-21.022999 -20.525,-25.739999 -6.528,-2.895 -8.43799999,-11.254 -3.813,-16.695 7.535,-8.861 10.271,-20.845 7.327,-32.098 -1.808,-6.909 3.54,-13.613 10.68,-13.39 11.623,0.365 22.696,-4.967 29.66,-14.285 4.276,-5.72099999 12.851,-5.72099999 17.127,0 6.964,9.318 18.037,14.65 29.66,14.285 7.139999,-0.224 12.486999,6.48 10.679999,13.39 -2.945,11.254 -0.209,23.237 7.326,32.098 z"
   inkscape:connector-curvature="0" />



<clipPath
   id="transformedRegulatorMask">
	<g
   id="mask"
   transform="matrix(0.8660254,0.5,-0.5,0.8660254,39.141065,-22.492442)">
		<use
   xlink:href="#regulatorMask"
   overflow="visible"
   id="use18"
   style="overflow:visible"
   x="0"
   y="0"
   
   
   transform="translate(0.10599899,0.35599899)" />
	</g>
</clipPath>



<circle
   cx="61.542"
   cy="61.792"
   r="61.436001"
   id="circle20"
   sodipodi:cx="61.542"
   sodipodi:cy="61.792"
   sodipodi:rx="61.436001"
   sodipodi:ry="61.436001"
   style="fill:url(#darkGray)"
   transform="translate(-0.10599899,-0.35599899)" />



<path
   d="m 61.523001,119.601 c -25.474,0 -47.222,-16.151 -55.83,-38.901999 7.638,23.859999 29.743,41.110999 55.83,41.110999 26.087,0 48.194999,-17.251 55.829999,-41.110999 C 108.745,103.449 86.996001,119.601 61.523001,119.601 z"
   id="path22"
   inkscape:connector-curvature="0"
   style="opacity:0.5;fill:#ffffff" />

<path
   d="m 61.273001,3.003001 c 25.359,0 47.010999,17.364 55.579999,41.821 -7.602,-25.65 -29.608999,-44.19799999 -55.579999,-44.19799999 -25.97,0 -47.976,18.54699999 -55.58,44.19799999 8.569,-24.457 30.22,-41.821 55.58,-41.821 z"
   id="path24"
   inkscape:connector-curvature="0"
   style="opacity:0.5;fill:#ffffff" />


<circle
   cx="61.542"
   cy="61.792"
   r="61.436001"
   clip-path="url(#transformedRegulatorMask)"
   id="circle26"
   sodipodi:cx="61.542"
   sodipodi:cy="61.792"
   sodipodi:rx="61.436001"
   sodipodi:ry="61.436001"
   style="fill:url(#lightGray)"
   transform="translate(-0.10599899,-0.35599899)" />
	
<g
   id="regulator"
   transform="matrix(0.8660254,0.5,-0.5,0.8660254,39.035066,-22.848441)">
	<use
   xlink:href="#regulatorMask"
   overflow="visible"
   id="use29"
   style="fill:none;stroke:#ffffff;overflow:visible"
   x="0"
   y="0"
   
   
   transform="translate(0.10599899,0.35599899)" />
	<path
   class="maincolor"
   d="m 65.105,12.471 c 0,-1.968 -1.594,-3.563 -3.563,-3.563 -1.969,0 -3.563,1.595 -3.563,3.563 0,11.878 0,23.757 0,35.634 0,1.968 1.594,3.564 3.563,3.564 1.969,0 3.563,-1.596 3.563,-3.564 0,-11.877 0,-23.756 0,-35.634 z"
   id="path31"
   inkscape:connector-curvature="0"
   style="fill:#dd0000;stroke:#adadad;stroke-width:0.7087" />
</g>
	
	

<ellipse
   clip-path="url(#transformedRegulatorMask)"
   enable-background="new    "
   cx="61.874001"
   cy="28.556"
   rx="42.417"
   ry="28.635"
   id="ellipse33"
   sodipodi:cx="61.874001"
   sodipodi:cy="28.556"
   sodipodi:rx="42.417"
   sodipodi:ry="28.635"
   style="opacity:0.2;fill:#ffffff"
   transform="translate(-0.10599899,-0.35599899)" />



</svg>
