<?xml version="1.0" encoding="utf-8"?>
<!-- Generator: Adobe Illustrator 15.0.0, SVG Export Plug-In . SVG Version: 6.00 Build 0)  -->
<!DOCTYPE svg PUBLIC "-//W3C//DTD SVG 1.1//EN" "http://www.w3.org/Graphics/SVG/1.1/DTD/svg11.dtd">
<svg version="1.1" id="_x30_" xmlns="http://www.w3.org/2000/svg" preserveAspectRatio="none"   xmlns:agg="http://www.example.com" x="0px" y="0px"
	   viewBox="-6.404 -1.418 56.792 46.821" enable-background="new -6.404 -1.418 56.792 46.821"
	 xml:space="preserve">
	 
<agg:params>
	<agg:param name="color" description="Color" type="C" cssAttributes="fill" classes="color"/>
	<agg:param name="strokeColor" description="Stroke Color" type="C" cssAttributes="stroke" classes="color,stroked"/>
</agg:params>

<style type="text/css" >
   <![CDATA[

	.color,.stroked{
		stroke-width:1;
		stroke-linecap:round;
		stroke-linejoin:round;
		stroke: #000000;
	}
	
	.color {
		fill:   #A1BFE2;

	}
	
	.stroked {
		fill:none;
	}

      ]]>
</style>	

<path class="color" d="M30.99,6.286
	c-1.587,0-2.244-0.656-2.244-2.244c0-1.586,0.657-2.244,2.244-2.244c5.245,0,10.492,0,15.738,0c1.586,0,2.244,0.658,2.244,2.244
	c0,1.588-0.658,2.244-2.244,2.244C41.482,6.286,36.235,6.286,30.99,6.286z"/>
<rect x="-4.986" y="15.261" class="color"  />
<g class="stroked">
	<circle fill="none" cx="8.505" cy="37.046" r="2.036"/>
	<line fill="none" x1="8.505" y1="34.457" x2="8.505" y2="17.607"/>
	<path fill="none" d="M8.505,15.262l0-6.732l0,0.026
		c0-2.493,2.021-4.515,4.515-4.515H28.74"/>
</g>
</svg>
