<?xml version="1.0" encoding="utf-8"?>
<!-- Generator: Adobe Illustrator 15.0.0, SVG Export Plug-In . SVG Version: 6.00 Build 0)  -->
<!DOCTYPE svg PUBLIC "-//W3C//DTD SVG 1.1//EN" "http://www.w3.org/Graphics/SVG/1.1/DTD/svg11.dtd">
<svg version="1.1" id="_x30_" xmlns:agg="http://www.example.com"
	 xmlns="http://www.w3.org/2000/svg" preserveAspectRatio="none"   x="0px" y="0px" 
	  viewBox="0 0 38.098 38.094" enable-background="new 0 0 38.098 38.094" xml:space="preserve">

<agg:params>
	<agg:param type="C" name="color" description="Color" cssAttributes="fill" classes="color"/>
	<agg:param type="F" name="saturation" description="Saturation" min="0" max="1" cssAttributes="opacity" classes="color"/>
</agg:params>

<style type="text/css" >
   <![CDATA[

	.stroke{
		stroke-width:0.3;
		stroke-linecap:round;
		stroke-linejoin:round;
		stroke: black;
		fill:none;
	}
	
	.color {
		fill:#3664BF;
		opacity:0.2;
	}

      ]]>
</style>

<linearGradient id="gradient" gradientUnits="userSpaceOnUse" x1="2.0149" y1="36.2639" x2="37.5219" y2="0.757">
	<stop  offset="0" style="stop-color:#99A3B2"/>
	<stop  offset="0.9997" style="stop-color:#F6FAFC"/>
</linearGradient>
<polygon fill="url(#gradient)" points="36.061,8.104 36.061,9.99 28.29,9.99 28.29,2.216 30.176,2.216 30.176,0.683 0.501,0.683 
	0.501,2.216 2.385,2.216 2.385,9.99 2.385,35.894 28.29,35.894 36.061,35.894 36.061,37.779 37.594,37.779 37.594,8.104 "/>

<polygon class="color" points="36.061,8.104 36.061,9.99 28.29,9.99 28.29,2.216 30.176,2.216 30.176,0.683 
	0.501,0.683 0.501,2.216 2.385,2.216 2.385,9.99 2.385,35.894 28.29,35.894 36.061,35.894 36.061,37.779 37.594,37.779 
	37.594,8.104 "/>

<g class="stroke">
	<polyline fill="none" points="36.061,9.99 36.061,8.104 37.594,8.104 37.594,37.779 36.061,37.779 36.061,35.894"/>
	<polyline fill="none" points="28.29,35.894 36.061,35.894 36.061,9.99 28.29,9.99"/>
	<polyline fill="none" points="2.385,2.216 0.501,2.216 0.501,0.683 30.176,0.683 30.176,2.216 28.29,2.216"/>
	<polyline fill="none" points="2.385,9.99 2.385,2.216 28.29,2.216 28.29,9.99"/>
	<rect fill="none" x="2.385" y="9.99"  />
	<rect fill="none" x="3.94" y="11.543"  />
	<line fill="none" x1="3.94" y1="11.543" x2="26.737" y2="34.34"/>
	<line fill="none" x1="3.94" y1="34.34" x2="26.737" y2="11.543"/>
</g>

<polygon opacity="0.1" points="15.337,22.94 3.94,34.34 3.94,11.543 "/>
<polygon opacity="0.15" fill="#FFFFFF" points="15.341,22.94 26.737,34.34 26.737,11.543 "/>
<polygon opacity="0.4" fill="#FFFFFF" points="26.737,34.34 3.94,34.34 15.337,22.94 "/>
<polygon opacity="0.2" points="26.737,11.543 15.337,22.94 3.94,11.543 "/>

</svg>
