<?xml version="1.0" encoding="utf-8"?>
<!-- Generator: Adobe Illustrator 15.1.0, SVG Export Plug-In . SVG Version: 6.00 Build 0)  -->
<!DOCTYPE svg PUBLIC "-//W3C//DTD SVG 1.1//EN" "http://www.w3.org/Graphics/SVG/1.1/DTD/svg11.dtd">
<svg version="1.1" id="Layer_1" xmlns:agg="http://www.example.com"
	 xmlns="http://www.w3.org/2000/svg" preserveAspectRatio="none"  xmlns:xlink="http://www.w3.org/1999/xlink" x="0px" y="0px"  
	 viewBox="-1 -1 52 27" xml:space="preserve">
	 
<agg:params>
	<agg:param type="C" name="color" description="Color" cssAttributes="fill" classes="color"/>
    <agg:param type="F" name="saturation" description="Saturation" min="0" max="1" cssAttributes="opacity" classes="color"/>
</agg:params>

<style type="text/css" >
   <![CDATA[

	.stroke {
		stroke-width:0.3;
		stroke-linecap:round;
		stroke-linejoin:round;
		stroke: black;
		fill:none;
	}
	
	.color {
		fill:#3664BF;
		opacity:0.2;
	}
	
      ]]>
</style>

<path fill="none" stroke="#000000" stroke- stroke-linecap="round" stroke-linejoin="round" d="M36.663,13.158"/>
<path fill="none" stroke="#000000" stroke- stroke-linecap="round" stroke-linejoin="round" d="M36.663,13.158"/>

<linearGradient id="base" gradientUnits="userSpaceOnUse" x1="0" y1="6.6768" x2="50" y2="6.6768">
	<stop  offset="0" style="stop-color:#767676"/>
	<stop  offset="0.06" style="stop-color:#919191"/>
	<stop  offset="0.14" style="stop-color:#B1B1B1"/>
	<stop  offset="0.21" style="stop-color:#CECECE"/>
	<stop  offset="0.28" style="stop-color:#E4E4E4"/>
	<stop  offset="0.35" style="stop-color:#F6F6F6"/>
	<stop  offset="0.42" style="stop-color:#FEFEFF"/>
	<stop  offset="0.47" style="stop-color:#F6F6F6"/>
	<stop  offset="0.53" style="stop-color:#E7E7E7"/>
	<stop  offset="0.58" style="stop-color:#D2D1D1"/>
	<stop  offset="0.64" style="stop-color:#B7B7B7"/>
	<stop  offset="0.7" style="stop-color:#989898"/>
	<stop  offset="0.72" style="stop-color:#8B8B8B"/>
	<stop  offset="1" style="stop-color:#FDFDFD"/>
</linearGradient>
<rect y="1.955" fill="url(#base)"  />

<linearGradient id="SVGID_2_" xlink:href="#base" gradientUnits="userSpaceOnUse" x1="5.4531" y1="18.1987" x2="44.5469" y2="18.1987"/>
<rect x="5.453" y="11.398" fill="url(#SVGID_2_)"  />

<g style="fill:#606060">
	<rect x="30.223" fill="#606060"  />
	<rect x="42.807" fill="#606060"  />
	<rect x="14.66" fill="#606060"  />
	<rect x="2.085" fill="#606060"  />
</g>

<polygon class="stroke" points="0,1.955 0,11.398 5.453,11.398 5.453,25 44.547,25 
	44.547,11.398 50,11.398 50,1.955 "/>
<line class="stroke" x1="5.453" y1="11.398" x2="44.548" y2="11.398"/>

<polygon class="color" points="47.916,1.955 47.916,0 42.807,0 42.807,1.955 35.33,1.955 35.33,0 30.223,0 30.223,1.955 
	19.77,1.955 19.77,0 14.66,0 14.66,1.955 7.193,1.955 7.193,0 2.085,0 2.085,1.955 0,1.955 0,11.398 5.453,11.398 5.453,25 
	44.547,25 44.547,11.398 50,11.398 50,1.955 "/>
</svg>
