<?xml version="1.0" encoding="utf-8"?>
<!-- Generator: Adobe Illustrator 15.1.0, SVG Export Plug-In . SVG Version: 6.00 Build 0)  -->
<!DOCTYPE svg PUBLIC "-//W3C//DTD SVG 1.1//EN" "http://www.w3.org/Graphics/SVG/1.1/DTD/svg11.dtd">
<svg version="1.1" id="Default" xmlns="http://www.w3.org/2000/svg" preserveAspectRatio="none"  x="0px" y="0px"
       viewBox="0 0 114 114" xmlns:agg="http://www.example.com">
	 
<agg:params>
	<agg:param type="C" name="color" description="Color" cssAttributes="fill" classes="color"/>
	<agg:param type="C" name="strokeColor" description="Stroke Color" cssAttributes="stroke" classes="color,stroked"/>
</agg:params>	 
	 
<style type="text/css" >
   <![CDATA[

	.color,.stroked{
		stroke-width:0.5;
		stroke-linecap:round;
		stroke-linejoin:round;
		stroke: #000000;
	}
	
	.color {
		fill:   #A1BFE2;
	}
	
	.stroked {
		fill:none;
	}
      ]]>
</style>
	 
<path class="color" d="M97.521,82.04
	c2.456-5.507,3.832-11.602,3.832-18.021c0-19.593-12.722-36.205-30.352-42.056V15h9.333V1H33.667v14H43v6.988
	c-17.591,5.873-30.277,22.464-30.277,42.03c0,6.389,1.362,12.456,3.796,17.943L1,113h28l8.972-8.971
	c5.775,2.756,12.239,4.303,19.065,4.303c6.807,0,13.252-1.539,19.015-4.28L85,113h28L97.521,82.04z"/>
<g class="stroked">
	<path d="M42.98,21.988c4.413-1.474,9.129-2.283,14.037-2.283c4.88,0,9.571,0.801,13.963,2.258"/>
	<path d="M37.952,104.029C28.426,99.481,20.788,91.63,16.5,81.962"/>
	<path d="M97.5,82.04c-4.303,9.65-11.945,17.48-21.468,22.012"/>
</g>

</svg>
