<?xml version="1.0" encoding="utf-8"?>
<!-- Generator: Adobe Illustrator 15.1.0, SVG Export Plug-In . SVG Version: 6.00 Build 0)  -->
<!DOCTYPE svg PUBLIC "-//W3C//DTD SVG 1.1//EN" "http://www.w3.org/Graphics/SVG/1.1/DTD/svg11.dtd">
<svg version="1.1" id="Layer_1" xmlns="http://www.w3.org/2000/svg" preserveAspectRatio="none"  xmlns:xlink="http://www.w3.org/1999/xlink" x="0px" y="0px"
	   viewBox="0 0 190 79" xmlns:agg="http://www.example.com">

<agg:params>
	<agg:param type="C" name="color" description="Color" cssAttributes="fill" classes="color"/>
	<agg:param type="C" name="strokeColor" description="Stroke Color" cssAttributes="stroke" classes="color,stroked"/>
</agg:params>

<style type="text/css" >
<![CDATA[

	.color,.stroked,.dashed{
		stroke-width:0.5;
		stroke-linecap:round;
		stroke-linejoin:round;
		stroke: #000000;
	}
	
	.color {
		fill:   #A1BFE2;

	}
	
	.stroked,.dashed{
		fill:none;
	}
	
	.dashed {
		stroke-dasharray:1.4173,1.4173;
	}

      ]]>
</style>
	 
<defs>
	<path id="boundary" d="M189,56.262c0-6.707,0-13.417,0-20.124c-16.813,0-33.627,0-50.439,0c-4.027,0-7.801,1.953-10.113,5.235
		c-3.707-6.852-7.416-13.704-11.123-20.556C110.986,9.102,98.311,2.199,84.979,3.203C62.331,4.909,39.683,6.614,17.035,8.32
		C13.73,5.88,10.425,3.44,7.121,1C5.081,1,3.041,1,1,1c10.138,17.814,20.276,35.629,30.414,53.445
		c-0.595,2.939-1.189,5.879-1.783,8.818c0.693,1.377,1.386,2.752,2.08,4.131c3.274,6.502,12.08,7.723,17.016,2.359
		c3.238-3.516,6.473-7.033,9.71-10.551c1.188-2.742,2.376-5.486,3.563-8.229c-0.94,0.778-1.881,1.557-2.821,2.336
		c-3.016,0.229-6.031,0.457-9.047,0.686c0.015,0.73,0.03,1.457,0.044,2.186c-5.835-0.057-10.942-1.32-16.126-3.986
		c-4.488-12.543-8.977-25.086-13.464-37.629c20.046,0,40.094,0,60.141,0c10.01,0,19.508,4.404,25.945,12.03
		c5.914,7.001,11.824,14.002,17.736,21.005c-0.604,0.933-1.207,1.865-1.811,2.799c0,1.954,0,3.909,0,5.862c-1.01,0-2.021,0-3.029,0
		c0,0.699,0,1.396,0,2.096c-1.447,0-2.895,0-4.342,0c-1.307,0-2.576,0.137-3.854,0.416c-4.906,1.07-9.814,2.143-14.721,3.215
		C87.055,63.938,88.483,78,98.279,78c24.061,0,48.121,0,72.18,0c9.799,0,11.227-14.063,1.629-16.012
		c-4.906-1.072-9.814-2.145-14.721-3.215c-1.277-0.279-2.547-0.416-3.852-0.416c-1.439,0-2.877,0-4.316,0c0-0.699,0-1.396,0-2.096
		C162.467,56.262,175.734,56.262,189,56.262z"/>
</defs>

<use xlink:href="#boundary" class="color"/>
	
<circle transform="matrix(-0.9849 -0.1732 0.1732 -0.9849 185.0796 36.422)" fill="#606060" cx="94.129" cy="10.136" r="2"/>

<g class="stroked">
	<line x1="119.568" y1="56.262" x2="94.129" y2="10.136"/>
	<path d="M107.334,27.379
		c-1.734,3.269-2.563,7.027-2.689,10.661c-0.125,3.527,0.408,6.936,1.861,10.195c1.404,3.148,3.668,6.154,6.746,7.308
		c1.939,0.729,4.203,0.719,6.316,0.719"/>
	<path d="M138.561,36.138
		c-0.559-4.109-1.117-8.216-1.676-12.324c-0.363-2.67-2.652-4.662-5.359-4.662c-4.227,0-8.453,0-12.68,0
		c-0.781,0-1.551,0.103-2.305,0.292"/>
	<line x1="7.121" y1="1" x2="77.219" y2="3.787"/>
	<line x1="1" y1="1" x2="29.631" y2="63.264"/>
</g>

</svg>
