<?xml version="1.0" encoding="utf-8"?>
<!-- Generator: Adobe Illustrator 15.1.0, SVG Export Plug-In . SVG Version: 6.00 Build 0)  -->
<!DOCTYPE svg PUBLIC "-//W3C//DTD SVG 1.1//EN" "http://www.w3.org/Graphics/SVG/1.1/DTD/svg11.dtd">
<svg version="1.1" id="Layer_1" xmlns="http://www.w3.org/2000/svg" preserveAspectRatio="none"   x="0px" y="0px"
	   xmlns:agg="http://www.example.com" xml:space="preserve">
	 
<agg:params>
	<agg:param type="C" name="color" description="Color" cssAttributes="fill" classes="color"/>
	<agg:param type="C" name="strokeColor" description="Stroke Color" cssAttributes="stroke" classes="color,stroked"/>
</agg:params>

<style type="text/css" >
   <![CDATA[

	.color,.stroked,.dashed{
		stroke-width:1;
		stroke-linecap:round;
		stroke-linejoin:round;
		stroke: #000000;
	}
	
	.color {
		fill:   #A1BFE2;

	}
	
	.stroked,.dashed {
		fill:none;
	}
	
	.dashed {
		stroke-dasharray:1.4173,1.4173;
	}

      ]]>
</style>	 

<g class="color">
	<path d="M101,21.28l-4-9.61
		l-11.45,4.74L90.3,4.99L80.67,1l-4.75,11.44L71.17,1l-9.64,3.96l4.76,11.45l-11.46-4.74l-3.86,9.37v-0.23H38.56l8.77-8.74l-7.4-7.38
		l-8.76,8.75V1.1H20.73v12.3L12,4.69l-7.37,7.38l8.77,8.74H1v10.41h12.36l-8.73,8.71L12,47.28l8.73-8.71V50.9h10.44V38.53l8.76,8.75
		l7.4-7.35l-8.73-8.71h12.37V31l3.86,9.33L66.31,35.6L61.57,47.01l9.6,3.99l4.75-11.43L80.67,51l9.6-3.99L85.53,35.6l11.439,4.73
		l4.03-9.58l-11.47-4.74L101,21.28z M50.97,30.71v-9.39l11.36,4.69L50.97,30.71z"/>
	<circle cx="26" cy="26.05" r="14.544"/>
	<circle cx="76.016" cy="26.05" r="14.544"/>
</g>

</svg>
