<?xml version="1.0" encoding="utf-8"?>
<!-- Generator: Adobe Illustrator 15.1.0, SVG Export Plug-In . SVG Version: 6.00 Build 0)  -->
<!DOCTYPE svg PUBLIC "-//W3C//DTD SVG 1.1//EN" "http://www.w3.org/Graphics/SVG/1.1/DTD/svg11.dtd">
<svg version="1.1" id="Layer_1" xmlns="http://www.w3.org/2000/svg" preserveAspectRatio="none"  xmlns:xlink="http://www.w3.org/1999/xlink" x="0px" y="0px"
	   viewBox="0 0 190 106" xmlns:agg="http://www.example.com">
	 
<agg:params>
	<agg:param type="C" name="color" description="Color" cssAttributes="fill" classes="color"/>
	<agg:param type="C" name="strokeColor" description="Stroke Color" cssAttributes="stroke" classes="color,stroked"/>
</agg:params>

<style type="text/css" >
<![CDATA[

	.color,.stroked,.dashed{
		stroke-width:0.5;
		stroke-linecap:round;
		stroke-linejoin:round;
		stroke: #000000;
	}
	
	.color {
		fill:   #A1BFE2;

	}
	
	.stroked,.dashed{
		fill:none;
	}
	
	.dashed {
		stroke-dasharray:1.4173,1.4173;
	}

      ]]>
</style>
	 
<defs>	 
	<path id="boundary" d="M66.332,5.335h37.861V9.31H66.332V5.335 M184.637,76.61L189,68.249l-4.363-33.599h-29.498v6.142h-50.945
		V34.65H72.512V19.786L32.524,1L9.206,9.31L7.025,26.341L20.762,65.79c-2.177,8.588-4.354,17.176-6.532,25.763
		c-2.438,3.056-4.876,6.111-7.314,9.167c-1.972-0.073-3.943-0.146-5.915-0.22c1.83,0.952,3.66,1.904,5.49,2.856
		c5.673,0.518,11.347,1.037,17.02,1.555c7.717,0.775,15.033-3.58,18.005-10.72c2.974-7.143,0.9-15.381-5.102-20.279
		c0.096-2.465,0.191-4.929,0.287-7.394c-1.502-0.782-3.005-1.563-4.507-2.346l-8.082-40l1.818-2.219l54.997,33.65v10.477
		l-6.232,4.388v6.142h32.889l3.211,3.2H91.742c-6.977,0-12.635,5.639-12.635,12.595c0,6.955,5.658,12.595,12.635,12.595h78.369
		c6.98,0,12.637-5.64,12.637-12.595c0-6.956-5.656-12.595-12.637-12.595h-19.146l3.213-3.2H184.637z"/>
</defs>

<use xlink:href="#boundary" class="color"/>

<g class="stroked">
	<line x1="72.512" y1="19.786" x2="72.512" y2="9.31"/>
	<line x1="104.193" y1="9.31" x2="104.193" y2="34.65"/>
	<line x1="104.193" y1="34.65" x2="155.139" y2="34.65"/>
	<line x1="120.324" y1="26.341" x2="120.324" y2="40.792"/>
	<line x1="140.133" y1="26.341" x2="140.133" y2="40.792"/>
	<line x1="162.549" y1="26.341" x2="162.549" y2="34.65"/>
	<polyline points="72.512,26.341 184.637,26.341 184.637,34.65 	"/>
	<line x1="91.832" y1="26.341" x2="91.832" y2="34.65"/>
	<line x1="74.693" y1="74.442" x2="46.679" y2="34.65"/>
	<line x1="70.02" y1="48.932" x2="26.502" y2="36.008"/>
	<line x1="36.7" y1="66.519" x2="29.164" y2="23.933"/>
	<polyline points="66.332,5.335 104.193,5.335 104.193,9.31 66.332,9.31 66.332,5.335 	"/>
	<path d="M184.637,76.61L189,68.249
		l-4.363-33.599h-29.498v6.142h-50.945V34.65H72.512V19.786L32.524,1L9.206,9.31L7.025,26.341L20.762,65.79
		c-2.177,8.588-4.354,17.176-6.532,25.763c-2.438,3.056-4.876,6.111-7.314,9.167c-1.972-0.073-3.943-0.146-5.915-0.22
		c1.83,0.952,3.66,1.904,5.49,2.856c5.673,0.518,11.347,1.037,17.02,1.555c7.717,0.775,15.033-3.58,18.005-10.72
		c2.974-7.143,0.9-15.381-5.102-20.279c0.096-2.465,0.191-4.929,0.287-7.394c-1.502-0.782-3.005-1.563-4.507-2.346l-8.082-40
		l1.818-2.219l54.997,33.65v10.477l-6.232,4.388v6.142h32.889l3.211,3.2H91.742c-6.977,0-12.635,5.639-12.635,12.595
		c0,6.955,5.658,12.595,12.635,12.595h78.369c6.98,0,12.637-5.64,12.637-12.595c0-6.956-5.656-12.595-12.637-12.595h-19.146
		l3.213-3.2H184.637z"/>
	<path fill="#98CBCB" d="M23.834,104.941c-0.108-0.011-0.216-0.021-0.325-0.03c0,0,0,0-0.001,0L23.834,104.941z"/>
</g>
</svg>
