<?xml version="1.0" encoding="utf-8"?>
<!-- Generator: Adobe Illustrator 15.1.0, SVG Export Plug-In . SVG Version: 6.00 Build 0)  -->
<!DOCTYPE svg PUBLIC "-//W3C//DTD SVG 1.1//EN" "http://www.w3.org/Graphics/SVG/1.1/DTD/svg11.dtd">
<svg version="1.1" id="Layer_1" xmlns="http://www.w3.org/2000/svg" preserveAspectRatio="none"   x="0px" y="0px"
	   viewBox="0 0 46 100" xml:space="preserve" xmlns:agg="http://www.example.com">

	   <agg:params>
	   	<agg:param type="C" name="color" description="Color" cssAttributes="fill" classes="color"/>
	   	<agg:param type="C" name="strokeColor" description="Stroke Color" cssAttributes="stroke" classes="color,stroked"/>
	   </agg:params>
	 
<style type="text/css" >
   <![CDATA[

	.color,.stroked,.dashed{
		stroke-width:1;
		stroke-linecap:round;
		stroke-linejoin:round;
		stroke: #000000;
	}
	
	.color {
		fill:   #A1BFE2;

	}
	
	.stroked,.dashed {
		fill:none;
	}
	
	.dashed {
		stroke-dasharray:1,2;
	}

      ]]>
</style>
	 
<path class="color" d="
	M40.502,7.86V3.352H26.618V1h-8.995v2.352H3.738v59.583l1.76,2.352H1v6.86h9.582l6.888,9.013l0,0
	c-2.948,1.612-4.948,4.743-4.948,8.342c0,5.246,4.253,9.499,9.5,9.499s9.5-4.253,9.5-9.499c0-3.541-1.937-6.63-4.809-8.265H26.71
	l13.792-18.302V17.072H45V7.86H40.502z"/>
	
<g class="stroked">
	<line x1="3.738" y1="62.936" x2="40.502" y2="62.936"/>
	<line x1="15.326" y1="96.315" x2="28.718" y2="82.687"/>
	<line x1="15.326" y1="82.687" x2="28.718" y2="96.315"/>
	<line x1="5.498" y1="65.287" x2="10.778" y2="72.147"/>
	<line x1="40.502" y1="26.284" x2="3.738" y2="26.284"/>
	<polyline points="8.432,7.86 35.809,7.86 35.809,14.72 8.432,14.72 8.432,7.86"/>
	<line x1="17.623" y1="3.352" x2="26.618" y2="3.352"/>
	<path d="M17.47,81.16c1.352-0.739,2.903-1.159,4.552-1.159c1.706,0,3.307,0.449,4.691,1.236"/>
</g>
</svg>
