<?xml version="1.0" encoding="utf-8"?>
<!-- Generator: Adobe Illustrator 15.1.0, SVG Export Plug-In . SVG Version: 6.00 Build 0)  -->
<!DOCTYPE svg PUBLIC "-//W3C//DTD SVG 1.1//EN" "http://www.w3.org/Graphics/SVG/1.1/DTD/svg11.dtd">
<svg version="1.1" id="Default" xmlns:agg="http://www.example.com"
     xmlns="http://www.w3.org/2000/svg" preserveAspectRatio="none"  x="0px" y="0px"  
     viewBox="0 0 114 134">
	 
<agg:params>
	<agg:param  type="C" name="color" classes="color" description="Color" cssAttributes="fill"/>
	<agg:param  type="C" name="strokeColor" classes="color,stroked" description="Stroke Color" cssAttributes="stroke"/>
</agg:params>

<style type="text/css" >
   <![CDATA[

	.color,.stroked{
		stroke-width:0.5;
		stroke-linecap:round;
		stroke-linejoin:round;
		stroke: #000000;
	}
	
	.color {
		fill:   #A1BFE2;
	}
	
	.stroked {
		fill:none;
	}
      ]]>
</style>

<path class="color" d="M99.497,1C71.166,1,42.834,1,14.503,1C7.046,1,1,7.045,1,14.503c0,28.332,0,56.663,0,84.994
	C1,106.954,7.046,113,14.503,113c-3.838,3.376-11.515,10.128-11.515,10.128V132h108.023v-8.872c0,0-7.677-6.752-11.515-10.128
	c7.458,0,13.503-6.046,13.503-13.503c0-28.331,0-56.663,0-84.994C113,7.045,106.955,1,99.497,1z"/>
	
<g class="stroked">	
	<line x1="14.503" y1="113" x2="99.497" y2="113"/>
	<line x1="2.988" y1="123.128" x2="111.012" y2="123.128"/>
	<circle cx="95.979" cy="34.495" r="8.461"/>
	<circle cx="95.979" cy="79.505" r="8.461"/>
	<circle cx="57" cy="102.01" r="8.461"/>
	<circle cx="18.021" cy="79.505" r="8.461"/>
	<circle cx="18.021" cy="34.495" r="8.461"/>
	<circle cx="57" cy="11.99" r="8.461"/>
	<circle cx="57" cy="57" r="56"/>
</g>
</svg>
