<?xml version="1.0" encoding="utf-8"?>
<!-- Generator: Adobe Illustrator 15.1.0, SVG Export Plug-In . SVG Version: 6.00 Build 0)  -->
<!DOCTYPE svg PUBLIC "-//W3C//DTD SVG 1.1//EN" "http://www.w3.org/Graphics/SVG/1.1/DTD/svg11.dtd">
<svg version="1.1" id="Layer_1" xmlns="http://www.w3.org/2000/svg" preserveAspectRatio="none"   x="0px" y="0px"
	   viewBox="0 0 72 100" xml:space="preserve" xmlns:agg="http://www.example.com">

  <agg:params>
  	<agg:param type="C" name="color" description="Color" cssAttributes="fill" classes="color"/>
  	<agg:param type="C" name="strokeColor" description="Stroke Color" cssAttributes="stroke" classes="color,stroked"/>
  </agg:params>

<style type="text/css" >
   <![CDATA[

	.color,.stroked,.dashed{
		stroke-width:1;
		stroke-linecap:round;
		stroke-linejoin:round;
		stroke: #000000;
	}
	
	.color {
		fill:   #A1BFE2;

	}
	
	.stroked,.dashed {
		fill:none;
	}
	
	.dashed {
		stroke-dasharray:1,2;
	}

      ]]>
</style>	 
	 
<g class="color">
	<polygon  points="64.87,25.5 64.87,66.268 60.717,66.268 44.107,86.652 27.695,86.652 11.283,66.268 7.13,66.268 7.13,25.5 19.39,25.5 19.39,17.268 
		27.695,17.268 27.695,1 44.107,1 44.107,17.268 52.412,17.268 52.412,25.5 64.87,25.5 	"/>
	<polygon  points="58.74,99 58.74,94.883 71,94.883 71,99 58.74,99 	"/>
	<polygon  points="1,99 1,94.883 13.26,94.883 13.26,99 1,99 	"/>
</g>
	
<g class="stroked">	
	<line x1="7.13" y1="94.883" x2="7.13" y2="66.268"/>
	<line x1="64.87" y1="66.268" x2="64.87" y2="94.883"/>
	<line x1="19.39" y1="25.5" x2="52.412" y2="25.5"/>
	<line x1="27.695" y1="17.268" x2="44.107" y2="17.268"/>
	<line x1="11.283" y1="66.268" x2="60.717" y2="66.268"/>
	<line x1="64.87" y1="58.231" x2="7.13" y2="58.231"/>
	<line x1="7.13" y1="37.652" x2="64.87" y2="37.652"/>
</g>
</svg>
