<?xml version="1.0" encoding="utf-8"?>
<!-- Generator: Adobe Illustrator 15.1.0, SVG Export Plug-In . SVG Version: 6.00 Build 0)  -->
<!DOCTYPE svg PUBLIC "-//W3C//DTD SVG 1.1//EN" "http://www.w3.org/Graphics/SVG/1.1/DTD/svg11.dtd">
<svg version="1.1" id="Layer_01" xmlns="http://www.w3.org/2000/svg" preserveAspectRatio="none"  xmlns:xlink="http://www.w3.org/1999/xlink" x="0px" y="0px"
	   viewBox="0 0 152 48" xmlns:agg="http://www.example.com">
	 
<agg:params>
	<agg:param type="C" name="color" description="Color" cssAttributes="fill" classes="color"/>
</agg:params>
	 
<style type="text/css" >
   <![CDATA[

	.stroke,.thin,.thick{
		stroke-linecap:butt;
		stroke-linejoin:round;
		stroke: black;
		fill:none;
		opacity:0.5;
	}

	.stroke{stroke-width:0.5;}

	.thin {stroke-width:0.25;}

	.thick {stroke-width:0.75;}
	
	.color {
		fill:#CC0000;
		opacity:1;
	}

      ]]>
</style>
	 
<polygon fill="#003399" points="138.391,1 138.391,4.86 125.778,4.86 124.28,4.86 102.413,4.865 100.92,4.865 83.784,4.865 
	82.286,4.865 77.517,24.3 74.483,24.3 69.714,4.865 68.221,4.865 51.08,4.865 49.587,4.865 27.394,4.865 25.901,4.865 13.613,4.865 
	13.613,1 "/>
<polygon fill="#6699FF" points="150.112,24.3 148.008,4.86 148.008,24.3 144.696,24.3 144.696,4.86 143.198,4.86 143.198,24.3 
	125.778,24.3 125.778,4.865 125.778,4.86 124.28,4.86 124.28,4.865 124.28,24.3 102.413,24.3 102.413,4.865 100.92,4.865 
	100.92,24.3 83.784,24.3 83.784,4.865 82.286,4.865 82.286,24.3 77.517,24.3 74.483,24.3 69.714,24.3 69.714,4.865 68.221,4.865 
	68.221,24.3 51.08,24.3 51.08,4.865 49.587,4.865 49.587,24.3 27.394,24.3 27.394,4.865 25.901,4.865 25.901,24.3 8.802,24.3 
	8.802,4.865 7.304,4.865 7.304,24.3 3.992,24.3 3.992,4.865 1.888,24.3 1,24.3 1,25.789 1,27.279 1.888,27.279 3.992,47 
	3.992,27.279 7.304,27.279 7.304,47 8.802,47 8.802,27.279 25.901,27.279 25.901,47 27.394,47 27.394,27.279 49.587,27.279 
	49.587,47 51.08,47 51.08,27.279 68.221,27.279 68.221,47 69.714,47 69.714,27.279 74.483,27.279 77.517,27.279 82.286,27.279 
	82.286,47 83.784,47 83.784,27.279 100.92,27.279 100.92,47 102.413,47 102.413,27.279 124.28,27.279 124.28,47 125.778,47 
	125.778,27.279 143.198,27.279 143.198,47 144.696,47 144.696,27.279 148.008,27.279 148.008,47 150.112,27.279 151,27.279 
	151,25.789 151,24.3 "/>
<path fill="#3366CC" d="M68.221,4.865V24.3H51.08V4.865H68.221z M3.992,4.865V24.3h3.313V4.865H3.992z M3.992,27.279V47h3.313
	V27.279H3.992z M8.802,27.279V47h17.099V27.279H8.802z M13.613,4.865H8.802V24.3h17.099V4.865H13.613z M27.394,4.865V24.3h22.193
	V4.865H27.394z M27.394,27.279V47h22.193V27.279H27.394z M51.08,27.279V47h17.141V27.279H51.08z M69.714,24.3h4.769L69.714,4.865
	V24.3z M69.714,27.279V47l4.769-19.721H69.714z M77.517,27.279L82.286,47V27.279H77.517z M83.784,27.279V47h17.136V27.279H83.784z
	 M102.413,27.279V47h21.867V27.279H102.413z M125.778,27.279V47h17.42V27.279H125.778z M144.696,27.279V47h3.313V27.279H144.696z
	 M144.696,4.86V24.3h3.313V4.86H144.696z M125.778,4.86v0.005V24.3h17.42V4.86h-4.807H125.778z M124.28,4.86l-21.867,0.005V24.3
	h21.867V4.865V4.86z M83.784,4.865V24.3h17.136V4.865H83.784z M77.517,24.3h4.769V4.865L77.517,24.3z"/>
<polygon fill="#000066" points="77.517,27.279 82.286,47 69.714,47 74.483,27.279 "/>
<rect x="57.993" y="7.277" fill="#CC9933"  />

<g class="stroke">
	<line x1="7.304" y1="4.865" x2="7.304" y2="24.3"/>
	<line x1="148.008" y1="27.279" x2="148.008" y2="47"/>
	<line x1="148.008" y1="4.86" x2="148.008" y2="24.3"/>
	<line x1="3.992" y1="27.279" x2="3.992" y2="47"/>
	<line x1="8.802" y1="4.865" x2="8.802" y2="24.3"/>
	<line x1="1" y1="25.789" x2="151" y2="25.789"/>
	<polyline points="74.483,24.3 69.714,24.3 
		68.221,24.3 51.08,24.3 49.587,24.3 27.394,24.3 25.901,24.3 8.802,24.3 7.304,24.3 3.992,24.3 1.888,24.3 1,24.3 1,25.789 
		1,27.279 1.888,27.279 3.992,27.279 7.304,27.279 8.802,27.279 25.901,27.279 27.394,27.279 49.587,27.279 51.08,27.279 
		68.221,27.279 69.714,27.279 74.483,27.279 	"/>
	<polyline points="77.517,27.279 82.286,27.279 
		83.784,27.279 100.92,27.279 102.413,27.279 124.28,27.279 125.778,27.279 143.198,27.279 144.696,27.279 148.008,27.279 
		150.112,27.279 151,27.279 151,25.789 151,24.3 150.112,24.3 148.008,24.3 144.696,24.3 143.198,24.3 125.778,24.3 124.28,24.3 
		102.413,24.3 100.92,24.3 83.784,24.3 82.286,24.3 77.517,24.3 	"/>
	<polyline points="1.888,27.279 3.992,47 7.304,47 
		8.802,47 25.901,47 27.394,47 49.587,47 51.08,47 68.221,47 69.714,47 74.483,27.279 77.517,27.279 82.286,47 83.784,47 100.92,47 
		102.413,47 124.28,47 125.778,47 143.198,47 144.696,47 148.008,47 150.112,27.279 	"/>
	<polyline points="1.888,24.3 3.992,4.865 7.304,4.865 
		8.802,4.865 13.613,4.865 25.901,4.865 27.394,4.865 49.587,4.865 51.08,4.865 68.221,4.865 69.714,4.865 74.483,24.3 77.517,24.3 
		82.286,4.865 83.784,4.865 100.92,4.865 102.413,4.865 124.28,4.86 125.778,4.86 138.391,4.86 143.198,4.86 144.696,4.86 
		148.008,4.86 150.112,24.3 	"/>
	<polyline points="13.613,4.865 13.613,1 138.391,1 
		138.391,4.86 138.391,4.865 	"/>
	<line x1="25.901" y1="4.865" x2="25.901" y2="24.3"/>
	<line x1="27.394" y1="4.865" x2="27.394" y2="24.3"/>
	<line x1="49.587" y1="4.865" x2="49.587" y2="24.3"/>
	<line x1="51.08" y1="4.865" x2="51.08" y2="24.3"/>
	<line x1="82.286" y1="4.865" x2="82.286" y2="24.3"/>
	<line x1="83.784" y1="4.865" x2="83.784" y2="24.3"/>
	<line x1="100.92" y1="4.865" x2="100.92" y2="24.3"/>
	<line x1="102.413" y1="4.865" x2="102.413" y2="24.3"/>
	<line x1="124.28" y1="4.865" x2="124.28" y2="24.3"/>
	<line x1="125.778" y1="4.865" x2="125.778" y2="24.3"/>
	<line x1="143.198" y1="4.86" x2="143.198" y2="24.3"/>
	<line x1="144.696" y1="4.86" x2="144.696" y2="24.3"/>
	<line x1="68.221" y1="4.865" x2="68.221" y2="24.3"/>
	<line x1="69.714" y1="4.865" x2="69.714" y2="24.3"/>
	<line x1="100.92" y1="27.279" x2="100.92" y2="47"/>
	<line x1="102.413" y1="27.279" x2="102.413" y2="47"/>
	<line x1="125.778" y1="27.279" x2="125.778" y2="47"/>
	<line x1="124.28" y1="27.279" x2="124.28" y2="47"/>
	<line x1="144.696" y1="27.279" x2="144.696" y2="47"/>
	<line x1="143.198" y1="27.279" x2="143.198" y2="47"/>
	<line x1="83.784" y1="27.279" x2="83.784" y2="47"/>
	<line x1="82.286" y1="27.279" x2="82.286" y2="47"/>
	<line x1="69.714" y1="27.279" x2="69.714" y2="47"/>
	<line x1="68.221" y1="27.279" x2="68.221" y2="47"/>
	<line x1="51.08" y1="27.279" x2="51.08" y2="47"/>
	<line x1="49.587" y1="27.279" x2="49.587" y2="47"/>
	<line x1="27.394" y1="27.279" x2="27.394" y2="47"/>
	<line x1="25.901" y1="27.279" x2="25.901" y2="47"/>
	<line x1="8.802" y1="27.279" x2="8.802" y2="47"/>
	<line x1="7.304" y1="27.279" x2="7.304" y2="47"/>
	<line x1="3.992" y1="4.865" x2="3.992" y2="24.3"/>
	<line x1="69.714" y1="47" x2="82.286" y2="47"/>
	<rect x="57.993" y="7.277"  />
</g>

<g id="wheel">
	<path fill="#CC9933" d="M39.33,25c0.06,7.7-6.2,14-13.98,14.05c-7.77,0.06-14.12-6.15-14.18-13.85c-0.05-7.71,6.21-14,13.98-14.06
		C32.93,11.09,39.28,17.29,39.33,25z M36.29,25.14c0.02-6.04-4.9-10.96-11-10.98c-6.09-0.02-11.05,4.86-11.07,10.9
		s4.9,10.95,10.99,10.97C31.31,36.06,36.26,31.18,36.29,25.14z"/>
	<path fill="#000033" d="M25.29,14.16c6.1,0.02,11.02,4.94,11,10.98c-0.03,6.04-4.98,10.92-11.08,10.89
		c-6.09-0.02-11.01-4.93-10.99-10.97S19.2,14.14,25.29,14.16z"/>
	<path fill="#3366CC" d="M44.69,25.03c0.03,10.67-8.66,19.34-19.42,19.37c-10.76,0.03-19.5-8.59-19.53-19.25
		C5.7,14.49,14.4,5.82,25.15,5.79C35.91,5.76,44.65,14.37,44.69,25.03z M25.35,39.05C33.13,39,39.39,32.7,39.33,25
		c-0.05-7.71-6.4-13.91-14.18-13.86c-7.77,0.06-14.03,6.35-13.98,14.06C11.23,32.9,17.58,39.11,25.35,39.05z"/>
	<path fill="#6699FF" d="M25.27,44.4c10.76-0.03,19.45-8.7,19.42-19.37C44.65,14.37,35.91,5.76,25.15,5.79
		C14.4,5.82,5.7,14.49,5.74,25.15C5.77,35.81,14.51,44.43,25.27,44.4z M25.15,3.37c12.16,0,22.01,9.77,22.01,21.82
		C47.16,37.23,37.31,47,25.15,47c-12.15,0-22-9.77-22-21.81C3.15,13.14,13,3.37,25.15,3.37z"/>
	<g class="stroke">
		<path d="M47.16,25.19c0-12.05-9.85-21.82-22.01-21.82c-12.15,0-22,9.77-22,21.82C3.15,37.23,13,47,25.15,47C37.31,47,47.16,37.23,47.16,25.19z"/>
		<path d="M25.15,11.14c-7.77,0.06-14.03,6.35-13.98,14.06c0.06,7.7,6.41,13.91,14.18,13.85C33.13,39,39.39,32.7,39.33,25
			C39.28,17.29,32.93,11.09,25.15,11.14z"/>
		<path d="M25.29,14.16c-6.09-0.02-11.05,4.86-11.07,10.9s4.9,10.95,10.99,10.97c6.1,0.03,11.05-4.85,11.08-10.89C36.31,19.1,31.39,14.18,25.29,14.16z"
			/>
		<path d="M25.15,5.79C14.4,5.82,5.7,14.49,5.74,25.15c0.03,10.66,8.77,19.28,19.53,19.25c10.76-0.03,19.45-8.7,19.42-19.37
			C44.65,14.37,35.91,5.76,25.15,5.79z"/>
	</g>
	<g fill="#000033">
		<polygon points="25.253,3.837 24.604,4.209 24.604,4.953 25.253,5.324 25.902,4.953 25.902,4.209"/>
		<polygon points="25.211,11.907 24.562,12.278 24.562,13.022 25.211,13.394 25.86,13.022 25.86,12.278"/>
		<polygon points="6.679,14.467 6.679,15.21 7.329,15.582 7.978,15.21 7.978,14.467 7.329,14.095"/>
		<polygon points="13.708,18.538 13.708,19.281 14.357,19.653 15.007,19.281 15.007,18.538 14.357,18.166"/>
		<polygon points="6.679,35.726 7.329,36.097 7.978,35.726 7.978,34.982 7.329,34.61 6.679,34.982"/>
		<polygon points="13.75,31.727 14.399,32.099 15.049,31.727 15.049,30.984 14.399,30.612 13.75,30.984"/>
		<polygon points="25.253,46.355 25.902,45.983 25.902,45.24 25.253,44.868 24.604,45.24 24.604,45.983"/>
		<polygon points="25.295,38.286 25.944,37.914 25.944,37.171 25.295,36.799 24.646,37.171 24.646,37.914"/>
		<polygon points="43.827,35.726 43.827,34.982 43.178,34.61 42.528,34.982 42.528,35.726 43.178,36.097"/>
		<polygon points="36.798,31.655 36.798,30.911 36.148,30.54 35.499,30.911 35.499,31.655 36.148,32.027"/>
		<polygon points="43.827,14.467 43.178,14.095 42.528,14.467 42.528,15.21 43.178,15.582 43.827,15.21"/>
		<polygon points="36.756,18.465 36.106,18.094 35.457,18.465 35.457,19.208 36.106,19.58 36.756,19.208"/>
	</g>
</g>

<use xlink:href="#wheel" transform="translate(101.5 0)"/>

</svg>
