<?xml version="1.0" encoding="utf-8"?>
<!-- Generator: Adobe Illustrator 15.1.0, SVG Export Plug-In . SVG Version: 6.00 Build 0)  -->
<!DOCTYPE svg PUBLIC "-//W3C//DTD SVG 1.1//EN" "http://www.w3.org/Graphics/SVG/1.1/DTD/svg11.dtd">
<svg version="1.1" id="Layer_1" xmlns="http://www.w3.org/2000/svg" preserveAspectRatio="none"  xmlns:xlink="http://www.w3.org/1999/xlink" x="0px" y="0px"
	   viewBox="0 0 50 40" xmlns:agg="http://www.example.com" xml:space="preserve">
	 
<agg:params>
	<agg:param type="C" name="color" description="Color" cssAttributes="fill" classes="color"/>
	<agg:param type="C" name="strokeColor" description="Stroke Color" cssAttributes="stroke" classes="color,stroked"/>
</agg:params>
	 
<style type="text/css" >
<![CDATA[

	.color,.stroked,.dashed{
		stroke-width:0.5;
		stroke-linecap:round;
		stroke-linejoin:round;
		stroke: #000000;
	}
	
	.color {
		fill:   #A1BFE2;

	}
	
	.stroked,.dashed{
		fill:none;
	}
	
	.dashed {
		stroke-dasharray:1.4173,1.4173;
	}
]]>
</style>
	 
<polyline class="color" points="1,39 1,14.721
	14.802,14.721 14.802,5.751 16.029,5.751 16.029,14.721 33.879,14.721 33.879,5.751 35.105,5.751 35.105,14.721 49,14.721 49,39 
	39.492,39 39.492,21.371 29.524,21.371 29.524,39 20.476,39 20.476,21.371 10.508,21.371 10.508,39 1,39 "/>

<g class="color">

    <g id="wheel">
        <polyline points="11.428,39 19.556,39 19.556,28.579 11.428,28.579 11.428,39 	"/>
        <path d="M12.134,2.393c-1.855,1.855-1.855,4.862,0,6.717s4.862,1.855,6.717,0c1.855-1.854,1.855-4.861,0-6.716
            C16.996,0.538,13.989,0.538,12.134,2.393z M17.536,2.86l-2.043,2.044L13.449,2.86C14.671,1.996,16.313,1.996,17.536,2.86z
             M12.6,3.708l2.043,2.043l-2.043,2.042C11.736,6.572,11.736,4.931,12.6,3.708z M13.449,8.643L15.492,6.6l2.043,2.042
            C16.312,9.507,14.671,9.507,13.449,8.643z M18.384,7.794L16.34,5.752l2.044-2.043C19.248,4.931,19.248,6.572,18.384,7.794z"/>
    </g>

    <use xlink:href="#wheel" transform="translate(19 0)"/>
</g>

</svg>
