<?xml version="1.0" encoding="utf-8"?>
<!-- Generator: Adobe Illustrator 15.0.0, SVG Export Plug-In . SVG Version: 6.00 Build 0)  -->
<!DOCTYPE svg PUBLIC "-//W3C//DTD SVG 1.1 Basic//EN" "http://www.w3.org/Graphics/SVG/1.1/DTD/svg11-basic.dtd">
<svg version="1.1" baseProfile="basic" id="Layer_1"
     xmlns="http://www.w3.org/2000/svg" preserveAspectRatio="none"  xmlns:xlink="http://www.w3.org/1999/xlink" xmlns:agg="http://www.example.com"
     x="0px" y="0px" 
      viewBox="0 0 83.972 83.988" xml:space="preserve">

    <agg:params>
        <agg:param name="position" description="Position" type="level" min="0" max="189.5" attributes="transform"
                   ids="arrow" pattern="rotate({0} 42.096 41.992)"/>
        <agg:param name="startLabel" description="Start Label" type="S" ids="startLabel"/>
        <agg:param name="endLabel" description="End Label" type="S" ids="endLabel"/>
    </agg:params>

    <radialGradient id="SVGID_1_" cx="40.2827" cy="-1.1606" r="91.0772" gradientUnits="userSpaceOnUse">
        <stop offset="0" style="stop-color:#525252"/>
        <stop offset="0.0926" style="stop-color:#585858"/>
        <stop offset="0.2475" style="stop-color:#696969"/>
        <stop offset="0.3571" style="stop-color:#787878"/>
        <stop offset="0.4032" style="stop-color:#807F7F"/>
        <stop offset="0.4803" style="stop-color:#959494"/>
        <stop offset="0.5786" style="stop-color:#BDBBBB"/>
        <stop offset="0.6264" style="stop-color:#D7D6D6"/>
        <stop offset="0.8297" style="stop-color:#B5B6B6"/>
        <stop offset="1" style="stop-color:#808080"/>
    </radialGradient>
    <circle fill="url(#SVGID_1_)" cx="41.994" cy="41.994" r="41.494"/>
    <radialGradient id="SVGID_2_" cx="40.3589" cy="0.7793" r="86.9834" gradientUnits="userSpaceOnUse">
        <stop offset="0.011" style="stop-color:#595959"/>
        <stop offset="0.1149" style="stop-color:#626161"/>
        <stop offset="0.2892" style="stop-color:#7C7B7B"/>
        <stop offset="0.5114" style="stop-color:#AFAFAF"/>
        <stop offset="0.5165" style="stop-color:#B0B1B1"/>
        <stop offset="1" style="stop-color:#575858"/>
    </radialGradient>
    <circle fill="url(#SVGID_2_)" cx="41.993" cy="41.994" r="39.629"/>
    <linearGradient id="SVGID_3_" gradientUnits="userSpaceOnUse" x1="63.5361" y1="79.5918" x2="19.8963" y2="3.4278">
        <stop offset="0" style="stop-color:#FFFFFF"/>
        <stop offset="1" style="stop-color:#BBBBBB"/>
    </linearGradient>
    <circle fill="url(#SVGID_3_)" cx="41.994" cy="41.994" r="38.933"/>
    <path fill="#010101" d="M64.155,24.797l0.043,0.056c0.096,0.124,0.338,0.101,0.543-0.054l3.324-2.516
	c0.204-0.154,0.279-0.398,0.166-0.546l-0.051-0.066c-0.111-0.148-0.371-0.135-0.57,0.024l-3.268,2.59
	C64.142,24.445,64.062,24.671,64.155,24.797z M13.478,42.289c0.257-0.003,0.458-0.131,0.462-0.287l0-0.071
	c0.002-0.156-0.205-0.286-0.46-0.29l-4.169-0.057c-0.256-0.004-0.465,0.144-0.466,0.329l-0.001,0.084
	c-0.003,0.186,0.211,0.333,0.465,0.33L13.478,42.289z M15.674,44.438c0.166-0.016,0.29-0.146,0.276-0.29
	c-0.013-0.146-0.153-0.254-0.32-0.242l-6.402,0.455c-0.166,0.011-0.293,0.17-0.277,0.355l0,0c0.017,0.185,0.165,0.321,0.331,0.307
	L15.674,44.438z M20.195,17.642c-0.169-0.19-0.422-0.248-0.558-0.121l-0.062,0.057c-0.136,0.126-0.104,0.38,0.071,0.566l2.85,3.043
	c0.175,0.187,0.41,0.252,0.524,0.146l0.052-0.049c0.114-0.106,0.073-0.343-0.098-0.535L20.195,17.642z M62.645,23.01l0.048,0.052
	c0.107,0.113,0.344,0.072,0.535-0.099l3.105-2.782c0.19-0.17,0.248-0.423,0.121-0.558l-0.058-0.062
	c-0.126-0.137-0.38-0.104-0.565,0.071l-3.041,2.852C62.603,22.66,62.538,22.895,62.645,23.01z M14.318,24.293l5.404,3.462
	c0.14,0.09,0.319,0.064,0.399-0.058c0.081-0.121,0.033-0.296-0.105-0.389l-5.332-3.571c-0.138-0.093-0.333-0.043-0.436,0.112l0,0
	C14.146,24.005,14.176,24.202,14.318,24.293z M60.991,21.354l0.052,0.049c0.114,0.106,0.35,0.042,0.525-0.144l2.864-3.03
	c0.176-0.186,0.209-0.438,0.073-0.565l-0.062-0.057c-0.135-0.128-0.387-0.072-0.558,0.117l-2.794,3.095
	C60.921,21.009,60.878,21.246,60.991,21.354z M57.37,18.527l0.059,0.039c0.131,0.086,0.354-0.016,0.496-0.228l2.333-3.456
	c0.144-0.212,0.134-0.467-0.021-0.569l-0.07-0.046c-0.155-0.103-0.393-0.01-0.53,0.205l-2.253,3.509
	C57.245,18.197,57.239,18.441,57.37,18.527z M58.05,21.38L58.05,21.38c0.116,0.088,0.291,0.059,0.395-0.072l4-5.019
	c0.104-0.13,0.072-0.332-0.075-0.444c-0.146-0.113-0.348-0.097-0.448,0.036l-3.897,5.099C57.922,21.112,57.934,21.292,58.05,21.38z
	 M26.154,18.282c0.143,0.212,0.364,0.315,0.495,0.229l0.059-0.039c0.13-0.087,0.125-0.33-0.011-0.545l-2.239-3.518
	c-0.138-0.217-0.375-0.311-0.53-0.209l-0.07,0.047c-0.155,0.102-0.165,0.356-0.022,0.568L26.154,18.282z M34.709,14.418
	c0.066,0.248,0.241,0.413,0.393,0.377l0.069-0.017c0.152-0.037,0.227-0.27,0.167-0.519l-0.972-4.055
	c-0.059-0.249-0.253-0.415-0.434-0.37l-0.081,0.021c-0.181,0.043-0.272,0.284-0.207,0.531L34.709,14.418z M10.965,31.699
	l3.958,1.311c0.244,0.08,0.477,0.024,0.53-0.123l0.023-0.066c0.052-0.147-0.102-0.337-0.343-0.424l-3.927-1.4
	c-0.241-0.087-0.486-0.015-0.547,0.161l-0.028,0.079C10.57,31.411,10.723,31.62,10.965,31.699z M10.071,34.244l6.238,1.508
	c0.162,0.039,0.321-0.044,0.355-0.186s-0.063-0.289-0.225-0.332L10.233,33.6c-0.161-0.042-0.333,0.067-0.377,0.248
	C9.813,34.027,9.909,34.206,10.071,34.244z M15.996,22.182l3.314,2.53c0.204,0.155,0.446,0.18,0.541,0.056l0.043-0.056
	c0.096-0.124,0.016-0.351-0.185-0.512l-3.255-2.604c-0.199-0.16-0.458-0.174-0.571-0.027l-0.051,0.066
	C15.718,21.782,15.792,22.026,15.996,22.182z M9.707,36.901l4.119,0.646c0.252,0.039,0.478-0.055,0.503-0.209l0.011-0.069
	c0.023-0.155-0.156-0.316-0.408-0.362l-4.104-0.738c-0.252-0.046-0.484,0.064-0.513,0.248L9.302,36.5
	C9.272,36.683,9.454,36.862,9.707,36.901z M9.394,39.606l4.159,0.305c0.255,0.019,0.473-0.094,0.486-0.249l0.006-0.07
	c0.014-0.156-0.182-0.303-0.437-0.328l-4.151-0.397c-0.254-0.024-0.474,0.104-0.49,0.29L8.96,39.239
	C8.945,39.424,9.139,39.588,9.394,39.606z M11.93,29.148l3.834,1.638c0.235,0.101,0.477,0.065,0.539-0.077l0.029-0.065
	c0.062-0.144-0.075-0.345-0.307-0.45l-3.796-1.727c-0.233-0.106-0.484-0.056-0.558,0.115l-0.033,0.077
	C11.564,28.829,11.695,29.048,11.93,29.148z M63.875,27.718L63.875,27.718c0.08,0.121,0.259,0.147,0.399,0.058l5.407-3.457
	c0.142-0.09,0.173-0.288,0.071-0.443c-0.102-0.154-0.297-0.205-0.436-0.112l-5.336,3.565C63.843,27.422,63.796,27.596,63.875,27.718
	z M13.107,26.688l3.684,1.954c0.226,0.12,0.468,0.104,0.542-0.033l0.035-0.062c0.076-0.137-0.043-0.349-0.266-0.475l-3.638-2.037
	c-0.223-0.126-0.477-0.097-0.568,0.066l-0.041,0.072C12.768,26.338,12.881,26.568,13.107,26.688z M68.548,32.922l0.023,0.067
	c0.048,0.148,0.284,0.204,0.527,0.125l3.962-1.3c0.243-0.079,0.394-0.287,0.336-0.463l-0.028-0.08
	c-0.062-0.175-0.307-0.247-0.548-0.161L68.89,32.5C68.648,32.586,68.495,32.775,68.548,32.922z M66.67,28.642l0.032,0.063
	c0.073,0.139,0.316,0.154,0.543,0.036l3.689-1.942c0.227-0.119,0.34-0.348,0.254-0.513l-0.039-0.073
	c-0.09-0.162-0.346-0.192-0.568-0.068l-3.645,2.025C66.713,28.294,66.594,28.505,66.67,28.642z M49.384,14.45l1.074-4.029
	c0.067-0.247-0.024-0.486-0.203-0.534l-0.082-0.021c-0.181-0.044-0.375,0.123-0.436,0.371l-0.982,4.052
	c-0.061,0.249,0.014,0.48,0.166,0.518l0.068,0.017C49.141,14.864,49.317,14.697,49.384,14.45z M67.696,30.743l0.029,0.065
	c0.063,0.143,0.305,0.179,0.539,0.079l3.84-1.627c0.235-0.1,0.366-0.318,0.292-0.488l-0.034-0.077
	c-0.074-0.17-0.323-0.222-0.557-0.116l-3.801,1.714C67.772,30.398,67.634,30.601,67.696,30.743z M20.83,22.883
	c0.19,0.171,0.428,0.215,0.535,0.102l0.049-0.052c0.106-0.114,0.042-0.35-0.143-0.526l-3.028-2.866
	c-0.186-0.176-0.438-0.209-0.565-0.073l-0.057,0.062c-0.127,0.135-0.073,0.386,0.117,0.558L20.83,22.883z M44.811,8.968
	l-0.083-0.007c-0.185-0.016-0.35,0.179-0.367,0.435l-0.302,4.158c-0.019,0.255,0.093,0.473,0.249,0.486l0.07,0.006
	c0.156,0.014,0.303-0.183,0.327-0.437l0.396-4.151C45.124,9.204,44.995,8.984,44.811,8.968z M25.982,20.97l-3.89-5.104
	c-0.101-0.133-0.302-0.149-0.449-0.036l0,0c-0.147,0.111-0.178,0.314-0.075,0.443l3.992,5.025c0.104,0.132,0.279,0.16,0.396,0.072
	l0,0C26.071,21.282,26.083,21.103,25.982,20.97z M47.55,9.315l-0.083-0.015c-0.183-0.029-0.362,0.151-0.401,0.404l-0.643,4.12
	c-0.039,0.253,0.054,0.478,0.208,0.503l0.07,0.012c0.154,0.023,0.315-0.157,0.361-0.408l0.735-4.104
	C47.845,9.575,47.733,9.344,47.55,9.315z M69.669,37.374l0.012,0.069c0.027,0.154,0.252,0.248,0.504,0.21l4.121-0.631
	c0.255-0.038,0.436-0.218,0.404-0.401l-0.014-0.082c-0.03-0.184-0.26-0.296-0.512-0.251l-4.105,0.726
	C69.827,37.059,69.644,37.22,69.669,37.374z M74.545,38.991l-4.152,0.379c-0.255,0.023-0.45,0.169-0.436,0.324l0.007,0.071
	c0.01,0.155,0.225,0.269,0.48,0.251l4.16-0.284c0.255-0.017,0.451-0.181,0.439-0.365l-0.008-0.084
	C75.021,39.099,74.8,38.968,74.545,38.991z M52.771,10.641L52.771,10.641c-0.174-0.063-0.36,0.021-0.412,0.18l-2.021,6.091
	c-0.052,0.158,0.019,0.321,0.156,0.371c0.137,0.049,0.293-0.04,0.35-0.197l2.144-6.049C53.042,10.879,52.946,10.702,52.771,10.641z
	 M55.899,17.094l2.035-3.64c0.125-0.223,0.096-0.478-0.066-0.567l-0.073-0.041c-0.164-0.087-0.394,0.026-0.513,0.253l-1.952,3.685
	c-0.12,0.227-0.104,0.469,0.034,0.542l0.063,0.034C55.563,17.436,55.774,17.316,55.899,17.094z M55.501,12.223
	c0.107-0.233,0.056-0.483-0.115-0.558l-0.076-0.033c-0.17-0.074-0.39,0.057-0.49,0.292l-1.635,3.835
	c-0.1,0.235-0.064,0.478,0.078,0.54l0.064,0.028c0.145,0.062,0.346-0.075,0.451-0.308L55.501,12.223z M67.332,35.591L67.332,35.591
	c0.034,0.142,0.194,0.225,0.356,0.186l6.238-1.509c0.162-0.039,0.258-0.217,0.213-0.396l0,0c-0.043-0.181-0.215-0.291-0.375-0.248
	l-6.207,1.635C67.397,35.301,67.298,35.449,67.332,35.591z M42.343,9.151c0.002-0.167-0.146-0.304-0.332-0.305
	c-0.185-0.004-0.334,0.137-0.333,0.303l0.055,6.418c0.002,0.167,0.121,0.297,0.267,0.301c0.146,0.001,0.266-0.133,0.268-0.3
	L42.343,9.151z M33.52,17.273c0.137-0.05,0.208-0.211,0.155-0.371l-2.022-6.091c-0.052-0.157-0.238-0.242-0.413-0.18
	c-0.175,0.062-0.271,0.239-0.215,0.396l2.146,6.049C33.226,17.233,33.383,17.321,33.52,17.273z M29.28,11.877
	c-0.1-0.236-0.318-0.367-0.488-0.293l-0.077,0.034c-0.17,0.074-0.222,0.323-0.117,0.557l1.711,3.802
	c0.105,0.233,0.307,0.372,0.45,0.309l0.065-0.028c0.143-0.063,0.178-0.305,0.08-0.54L29.28,11.877z M74.755,44.392l-6.4-0.468
	c-0.166-0.012-0.313,0.097-0.324,0.242l0,0c-0.013,0.146,0.111,0.276,0.277,0.292l6.391,0.595c0.166,0.016,0.314-0.121,0.33-0.306
	S74.921,44.403,74.755,44.392z M28.755,16.735l-1.939-3.69c-0.119-0.228-0.348-0.341-0.512-0.254L26.23,12.83
	c-0.163,0.089-0.193,0.345-0.068,0.567l2.022,3.646c0.125,0.224,0.335,0.343,0.472,0.268l0.063-0.033
	C28.858,17.205,28.874,16.963,28.755,16.735z M74.681,41.714l-4.17,0.031c-0.256,0.003-0.459,0.131-0.463,0.287v0.071
	c-0.002,0.156,0.203,0.287,0.459,0.291l4.17,0.062c0.256,0.005,0.465-0.142,0.467-0.327v-0.084
	C75.147,41.859,74.935,41.711,74.681,41.714z M37.043,9.681c-0.038-0.254-0.218-0.437-0.401-0.404L36.56,9.29
	c-0.183,0.03-0.295,0.26-0.25,0.512l0.722,4.106c0.045,0.252,0.206,0.436,0.36,0.409l0.07-0.012c0.154-0.026,0.248-0.251,0.21-0.503
	L37.043,9.681z M39.754,9.385c-0.017-0.255-0.18-0.452-0.366-0.44l-0.083,0.008c-0.185,0.016-0.315,0.236-0.292,0.491l0.376,4.152
	c0.024,0.255,0.169,0.45,0.324,0.436l0.071-0.006c0.156-0.01,0.269-0.226,0.252-0.48L39.754,9.385z"/>
    <path opacity="0.5" fill="#FFFFFF" d="M78.515,28.475C73.02,13.638,58.741,3.062,41.994,3.062
	c-17.071,0-31.576,10.988-36.829,26.277c3.142,7.6,18.042,1.364,36.234,1.364C60.237,30.703,76.054,37.391,78.515,28.475z"/>
    <radialGradient id="SVGID_4_" cx="41.9922" cy="33.9121" r="14.0895" gradientUnits="userSpaceOnUse">
        <stop offset="0" style="stop-color:#FFFFFF"/>
        <stop offset="0.51" style="stop-color:#777372"/>
        <stop offset="1" style="stop-color:#292929"/>
    </radialGradient>
    <circle fill="url(#SVGID_4_)" cx="42.096" cy="41.992" r="4.248"/>
    <text id="startLabel" transform="matrix(1 0 0 1 7 53)" fill="#010101" font-family="Arial" font-size="7">0</text>
    <text id="endLabel" transform="matrix(1 0 0 1 77 53)" text-anchor="end" fill="#010101" font-family="Arial" font-size="7">100</text>
    <linearGradient id="SVGID_5_" gradientUnits="userSpaceOnUse" x1="78.0264" y1="-44.188" x2="53.5846" y2="-22.83"
                    gradientTransform="matrix(-0.7011 0.7131 0.7131 0.7011 97.054 19.6609)">
        <stop offset="0" style="stop-color:#EF4323"/>
        <stop offset="1" style="stop-color:#CA2127"/>
    </linearGradient>
    <g id="arrow" transform="rotate(189.5 42.096 41.992)">
        <path fill="url(#SVGID_5_)" stroke="#8D181B" stroke- stroke-miterlimit="10" d="M10.893,44.001l31.279-3.037
	c0.499-0.042,0.938,0.36,0.983,0.899c0.046,0.54-0.318,1.008-0.817,1.051l-31.345,2.264L10.893,44.001z"/>
    </g>
</svg>
