<?xml version="1.0" encoding="utf-8"?>
<!-- Generator: Adobe Illustrator 15.1.0, SVG Export Plug-In . SVG Version: 6.00 Build 0)  -->
<!DOCTYPE svg PUBLIC "-//W3C//DTD SVG 1.1//EN" "http://www.w3.org/Graphics/SVG/1.1/DTD/svg11.dtd">
<svg version="1.1" xmlns="http://www.w3.org/2000/svg" preserveAspectRatio="none"   x="0px" y="0px" 
	  viewBox="-1 -1 152 152" xmlns:agg="http://www.example.com" xml:space="preserve">
	 
<agg:params>
	<agg:param type="C" name="color" description="Color" cssAttributes="fill" classes="color"/>
</agg:params>

<style type="text/css" >
   <![CDATA[

	.stroke{
		stroke-width:2px;
		stroke-linecap:round;
		stroke-linejoin:round;
		stroke: black;
		opacity:0.5;
		fill:none;
	}
	
	.color {
		fill:#79A2C9;
	}

      ]]>
</style>

<circle class="color" cx="75" cy="75" r="75"/>
<path opacity="0.2" fill="#FFFFFF" d="M62.502,148.92v0.032c-14.624-2.462-28.652-9.25-40.042-20.432
	C-7.092,99.515-7.543,52.024,21.479,22.472C50.5-7.097,97.975-7.532,127.544,21.474c10.151,9.974,16.875,22.12,20.141,34.975
	h-0.017c6.966,27.333-8.478,56.451-28.088,73.375C104.587,142.774,83.271,152.169,62.502,148.92z"/>
<path opacity="0.1" fill="#FFFFFF" d="M137.55,33.604c12.709,19.064,9.042,43.903-0.306,62.581
	c-9.652,19.289-26.657,35.715-46.605,44.193c-16.538,7.029-36.904,9.073-53.491-0.708l-0.032,0.064
	c-5.212-3.041-10.135-6.79-14.656-11.214C-7.092,99.515-7.543,52.024,21.479,22.472C50.5-7.097,97.975-7.532,127.544,21.474
	C131.373,25.238,134.719,29.309,137.55,33.604z"/>
<path opacity="0.15" fill="#FFFFFF" d="M124.503,18.659c13.015,11.985,16.539,29.938,13.997,46.622
	c-2.687,17.632-11.921,34.235-23.955,46.959c-12.05,12.741-28.105,22.861-45.576,26.545c-17.375,3.668-36.567,0.724-49.34-13.32
	l-0.064,0.048C-7.092,96.329-6.562,51.027,21.479,22.472c27.67-28.202,72.136-29.907,101.85-4.843
	c0.226,0.21,0.467,0.402,0.708,0.612C124.198,18.385,124.342,18.514,124.503,18.659z"/>
<path opacity="0.17" fill="#FFFFFF" d="M108.721,7.993c15.268,9.379,22.25,26.995,21.043,44.659
	c-1.335,19.434-11.309,38.031-24.421,51.706C92.264,118,74.101,128.794,54.731,130.854c-20.013,2.139-39.495-5.728-48.102-25.243
	l-0.097,0.049C-5.693,78.327-0.771,45.123,21.479,22.472C44.902-1.386,80.343-6.277,108.689,7.977
	C108.706,7.993,108.721,7.993,108.721,7.993z"/>
<path opacity="0.21" fill="#FFFFFF" d="M117.071,38.414c1.449,20.512-8.864,40.992-22.313,55.165
	c-13.449,14.173-33.349,25.548-53.894,25.178C18.358,118.369,2.27,103.585,0.324,81.095H0.259
	C-1.446,60.164,5.6,38.639,21.479,22.472C37.518,6.143,59.172-1.306,80.327,0.19c0.032-0.016,0.08-0.016,0.112,0.016
	C101.273,2.186,115.543,17.034,117.071,38.414z"/>
<path opacity="0.23" fill="#FFFFFF" d="M99.487,30.129c3.475,21.413-9.508,43.469-24.823,56.307
	c-15.058,12.596-40.428,22.442-59.219,9.234C6.228,89.203,1.948,78.811,1.659,67.999c-0.193-6.676,0.804-12.645,2.767-18.388
	c0.146-0.402,0.274-0.804,0.435-1.207c0.161-0.435,0.337-0.869,0.499-1.303c0.226-0.563,0.467-1.11,0.692-1.673
	c0.241-0.548,0.482-1.11,0.74-1.658c0.241-0.531,0.482-1.045,0.74-1.577c0.499-0.997,1.014-2.011,1.561-3.008
	c0.321-0.58,0.644-1.159,0.981-1.737c3.089-5.342,6.885-10.376,11.406-14.978c8.269-8.414,18.018-14.479,28.426-18.163
	l0.049,0.161C71.994-2.561,95.417,5.129,99.487,30.129z"/>
<path opacity="0.25" fill="#FFFFFF" d="M42.491,13.138c-15.438,4.879-29.18,20.016-31.547,36.288
	C7.988,69.751,23.847,81.034,42.856,75.043c15.457-4.871,29.207-20.036,31.567-36.319C77.369,18.404,61.487,7.136,42.491,13.138z"
	/>
<path opacity="0.35" fill="#FFFFFF" d="M38.544,26.934c-6.548,2.032-12.395,8.418-13.476,15.284
	c-1.354,8.598,5.251,13.496,13.352,10.981c6.548-2.033,12.395-8.419,13.476-15.285C53.249,29.317,46.645,24.419,38.544,26.934z"/>
<circle class="stroke" cx="75" cy="75" r="75"/>

</svg>
