<?xml version="1.0" encoding="utf-8"?>
<!-- Generator: Adobe Illustrator 15.1.0, SVG Export Plug-In . SVG Version: 6.00 Build 0)  -->
<!DOCTYPE svg PUBLIC "-//W3C//DTD SVG 1.1//EN" "http://www.w3.org/Graphics/SVG/1.1/DTD/svg11.dtd">
<svg version="1.1" id="Default" xmlns="http://www.w3.org/2000/svg" preserveAspectRatio="none"  xmlns:xlink="http://www.w3.org/1999/xlink" x="0px" y="0px"
	   xmlns:agg="http://www.example.com">
	 
<path stroke="#000000" d="M8.438,78.672
	c1.037,1.057,2.124,1.588,3.606,1.762c8.796,1.031,17.593,2.062,26.389,3.092c0-20.104,0-40.208,0-60.312
	c-8.806,1.032-17.613,2.064-26.419,3.096c-1.461,0.171-2.539,0.691-3.57,1.725C1.96,34.527,0.986,43.952,1,53.356
	C1.014,62.752,2.014,72.127,8.438,78.672z"/>
	
<g fill="none" stroke="#FFFFFF" stroke- stroke-linecap="square" stroke-miterlimit="10">
	<path d="M32.933,82.815c-8.123-7.499-9.15-18.522-9.143-29.528s1.05-21.991,9.143-29.598"/>
	<path d="M28.361,82.341c-8.166-7.392-9.289-18.165-9.349-29.001c-0.061-10.836,0.941-21.736,9.349-28.939"/>
	<path d="M23.549,81.63c-8.169-7.136-9.315-17.686-9.35-28.309c-0.035-10.623,1.042-21.318,9.35-28.21"/>
	<path d="M18.771,80.918c-8.233-6.717-9.188-17.132-9.145-27.531c0.043-10.399,1.084-20.784,9.145-27.565"/>
	<path d="M13.958,80.208c-7.926-6.56-9.094-16.694-9.109-26.851c-0.015-10.158,1.123-20.338,9.109-26.822"/>
</g>

<polygon fill="#B2B219" stroke="#000000" stroke- stroke-linecap="square" stroke-miterlimit="10" points="104.672,80.208 
	112.854,70.048 90.991,66.019 "/>
<polygon fill="#BFBF26" stroke="#000000" stroke- stroke-linecap="square" stroke-miterlimit="10" points="85.491,90.841 
	89.547,92.975 105.875,82.815 97.729,68.863 73.254,68.863 "/>
<polygon fill="#D9D940" stroke="#000000" stroke- stroke-linecap="square" stroke-miterlimit="10" points="81.401,91.552 
	88.345,85.66 97.729,95.582 92.916,100.288 "/>
<polygon fill="#BFBF26" stroke="#000000" stroke- stroke-linecap="square" stroke-miterlimit="10" points="78.032,37.878 
	114.744,37.878 121,56.097 117.631,70.048 83.565,70.048 81.401,68.863 64.04,82.815 45.411,82.815 45.411,49.222 "/>
<polygon fill="#D9D940" stroke="#000000" stroke- stroke-linecap="square" stroke-miterlimit="10" points="79.476,33.849 
	85.492,30.564 90.991,33.171 102.506,23.215 108.762,30.564 90.991,45.226 "/>
<polygon fill="#CCCC33" stroke="#000000" stroke- stroke-linecap="square" stroke-miterlimit="10" points="60.295,18.508 
	70.608,13.767 77.31,6.216 83.566,5.031 88.825,6.216 91.712,10.923 90.991,17.086 81.4,28.43 55.482,37.167 "/>
<path fill="#CCCC33" stroke="#000000" stroke- stroke-linecap="square" stroke-miterlimit="10" d="M59.091,78.075
	c4.112,3.94,8.225,7.879,12.337,11.819c1.028,0.985,2.056,1.97,3.084,2.955c0.257,0.246,0.514,0.492,0.771,0.739
	c0.032,0.031,0.064,0.062,0.096,0.092c0.058,0.055-0.076-0.024-0.114-0.038c-0.084-0.03-0.168-0.061-0.252-0.091
	c-0.168-0.061-0.336-0.122-0.505-0.183c-0.673-0.243-1.347-0.487-2.02-0.73c-2.694-0.973-5.388-1.946-8.082-2.919
	c-1.051-0.38-2.103-0.76-3.155-1.14c-0.526-0.19-1.049-0.355-1.614-0.418c-0.557-0.062-1.113-0.123-1.67-0.185
	c-2.227-0.246-4.454-0.492-6.68-0.738c-2.227-0.246-4.454-0.492-6.68-0.738c-1.114-0.123-2.227-0.246-3.34-0.368
	c-0.557-0.062-1.113-0.123-1.67-0.185c-0.74-0.082-1.442-0.215-2.131-0.521c-0.491-0.217-0.933-0.487-1.349-0.824
	c-1.467-1.187-2.324-2.698-3.248-4.245c-2.987-4.998-4.153-10.129-4.751-15.762c-0.615-5.776-0.607-11.516-0.375-17.301
	c0.328-8.154,1.646-17.775,7.654-24.495c0.566-0.633,1.198-1.098,1.976-1.454c0.859-0.393,1.742-0.5,2.656-0.601
	c0.875-0.097,1.749-0.193,2.624-0.291c5.621-0.621,11.241-1.241,16.861-1.862c0.176-0.019,0.352-0.039,0.527-0.058
	c0.083-0.01,0.292-0.179,0.251-0.019c-0.022,0.085-0.044,0.17-0.066,0.255c-0.088,0.342-0.176,0.683-0.264,1.024
	c-0.176,0.683-0.352,1.366-0.528,2.048c-0.352,1.366-0.705,2.731-1.057,4.097c-0.352,1.365-0.704,2.731-1.057,4.096
	c-0.088,0.342-0.176,0.683-0.264,1.024c-0.044,0.171-0.088,0.342-0.132,0.512c-0.011,0.042-0.022,0.085-0.033,0.128
	c-0.011,0.042,0.043-0.005,0.061-0.022c0.075-0.07,0.149-0.141,0.223-0.213c0.569-0.547,1.112-1.114,1.637-1.703
	c0.978-1.099,1.871-2.256,2.736-3.44c0.209-0.286,0.417-0.573,0.624-0.86c0.351-0.486,0.351-0.353,0.886-0.353
	c0.714,0,1.428,0,2.142,0c1.428,0,2.855,0,4.283,0c0.762,0,1.372,0.341,2.041,0.576c0.672,0.236,1.345,0.472,2.017,0.708
	c0.672,0.236,1.345,0.472,2.017,0.708c0.319,0.112,1.679,0.544,1.951,0.811c1.011,0.993,2.022,1.985,3.033,2.978
	c2.021,1.985,4.043,3.97,6.065,5.956c0.128,0.125,1.119,0.855,1.002,1.149c-0.195,0.493-0.391,0.985-0.586,1.478
	c-0.391,0.985-0.782,1.97-1.172,2.955c-0.782,1.97-1.563,3.94-2.345,5.91s-1.563,3.94-2.345,5.91
	c-0.391,0.985-0.781,1.97-1.172,2.955c-0.1,0.253-0.307,0.077-0.47,0.077c-0.251,0-0.503,0-0.755,0c-0.503,0-1.007,0-1.511,0
	c-1.007,0-2.015,0-3.022,0c-2.015,0-4.029,0-6.043,0c-3.919,0-7.839,0-11.759,0c-0.145,0-0.994-0.151-0.978,0.127
	c0.007,0.128,0.014,0.257,0.021,0.386c0.015,0.256,0.029,0.513,0.043,0.77c0.029,0.514,0.059,1.027,0.087,1.541
	c0.116,2.055,0.232,4.108,0.348,6.163c0.059,1.027,0.116,2.054,0.174,3.082c0.029,0.512-0.076,1.016,0.128,1.532
	c0.189,0.479,0.378,0.958,0.567,1.438C57.577,74.238,58.334,76.157,59.091,78.075z"/>
<polygon fill="#D9D940" stroke="#000000" stroke- stroke-linecap="square" stroke-miterlimit="10" points="75.385,93.686 
	82.604,92.737 86.936,90.129 89.548,84.238 89.548,80.682 72.772,64.123 68.442,67.678 70.126,70.997 69.404,74.519 65.794,74.519 
	63.148,72.894 59.338,78.312 "/>
<polyline fill="#D9D940" stroke="#000000" stroke- stroke-linecap="square" stroke-miterlimit="10" points="61.779,57.282 
	69.164,33.848 77.31,27.719 87.656,37.878 79.957,57.282 "/>
<polygon fill="#CCCC33" stroke="#000000" stroke- stroke-linecap="square" stroke-miterlimit="10" points="70.607,51.355 
	69.164,46.648 71.329,40.485 73.976,35.271 78.754,33.171 81.401,34.559 96.525,49.934 93.638,55.386 "/>
<polygon fill="#D9D940" stroke="#000000" stroke- stroke-linecap="square" stroke-miterlimit="10" points="89.548,17.086 
	83.566,17.086 79.476,14.952 76.588,10.449 77.31,6.927 86.935,2.186 91.713,5.741 "/>
<path d="M92.917,100.288l4.812-4.706L98.45,101L92.917,100.288z M105.875,39.3v10.633l12.959,6.164l-3.368,13.952h2.166L121,56.097
	l-6.256-18.218h-7.425L105.875,39.3z M93.638,55.385l6.255-0.711l-3.368-4.741L93.638,55.385z M108.762,30.564l1.444-7.349h-7.7
	L108.762,30.564z M91.713,1l-4.538,0.949l-0.24,1.422l0.929,1.66l1.443,0.71h2.166L91.713,1z"/>
</svg>
