<?xml version="1.0" encoding="utf-8"?>
<!-- Generator: Adobe Illustrator 15.1.0, SVG Export Plug-In . SVG Version: 6.00 Build 0)  -->
<!DOCTYPE svg PUBLIC "-//W3C//DTD SVG 1.1//EN" "http://www.w3.org/Graphics/SVG/1.1/DTD/svg11.dtd">
<svg version="1.1" id="Layer_1" xmlns:agg="http://www.example.com"
	 xmlns="http://www.w3.org/2000/svg" preserveAspectRatio="none"   x="0px" y="0px" 
	  viewBox="0 0 43.842 43.703" enable-background="new 0 0 43.842 43.703" xml:space="preserve">
	 
<agg:params>
	<agg:param type="C" name="color" description="Color" cssAttributes="fill" classes="color"/>
	<agg:param type="C" name="strokeColor" description="Stroke Color" cssAttributes="stroke" classes="color,stroked"/>
</agg:params>

<style type="text/css" >
<![CDATA[

	.color,.stroked,.dashed{
		stroke-width:0.5;
		stroke-linecap:round;
		stroke-linejoin:round;
		stroke: #000000;
	}
	
	.color {
		fill:   #A1BFE2;

	}
	
	.stroked,.dashed{
		fill:none;
	}
	
	.dashed {
		stroke-dasharray:1.4173,1.4173;
	}
]]>
</style>

<g class="color">
	<path stroke-linecap="round" stroke-linejoin="round" d="M37.41,3.168
		c1.805,0,3.266,1.462,3.266,3.265c0,4.051,0,8.103,0,12.154c0,0.462,0.193,0.653,0.654,0.653c0.301,0,0.604,0,0.902,0
		c0,0.87,0,1.741,0,2.612c-0.299,0-0.602,0-0.902,0c-1.805,0-3.266-1.463-3.266-3.266c0-4.051,0-8.103,0-12.154
		c0-0.462-0.191-0.653-0.654-0.653c-0.555,0-1.113,0-1.67,0c0-0.871,0-1.741,0-2.612C36.297,3.168,36.855,3.168,37.41,3.168z"/>
	<path stroke-linecap="round" stroke-linejoin="round" d="M28.486,5.781
		c0-0.871,0-1.741,0-2.612c-1.078,0-2.152,0-3.229,0c-0.461,0-0.652-0.191-0.652-0.653c0-0.301,0-0.603,0-0.904
		c-0.871,0-1.742,0-2.612,0c0,0.301,0,0.603,0,0.904c0,1.803,1.461,3.265,3.264,3.265C26.334,5.781,27.408,5.781,28.486,5.781z"/>
	<path stroke-linecap="round" stroke-linejoin="round" d="M25.258,37.924
		c-1.803,0-3.264,1.462-3.264,3.265c0,0.301,0,0.604,0,0.904c0.87,0,1.741,0,2.612,0c0-0.301,0-0.604,0-0.904
		c0-0.461,0.191-0.652,0.652-0.652c1.076,0,2.15,0,3.229,0c0-0.871,0-1.741,0-2.612C27.408,37.924,26.334,37.924,25.258,37.924z"/>
	<path stroke-linecap="round" stroke-linejoin="round" d="M37.41,37.924
		c0.463,0,0.654-0.19,0.654-0.652c0-4.052,0-8.104,0-12.155c0-1.802,1.461-3.264,3.266-3.264c0.301,0,0.604,0,0.902,0
		c0,0.87,0,1.74,0,2.611c-0.299,0-0.602,0-0.902,0c-0.461,0-0.654,0.191-0.654,0.652c0,4.052,0,8.104,0,12.155
		c0,1.802-1.461,3.265-3.266,3.265c-0.555,0-1.113,0-1.67,0c0-0.871,0-1.741,0-2.612C36.297,37.924,36.855,37.924,37.41,37.924z"/>
	<polygon stroke-linecap="round" stroke-linejoin="round" points="
		30.117,40.775 30.117,38.081 34.107,35.717 34.107,38.264 	"/>
	<polygon stroke-linecap="round" stroke-linejoin="round" points="
		30.117,21.389 30.117,18.695 34.107,16.331 34.107,18.878 	"/>
	<polygon stroke-linecap="round" stroke-linejoin="round" points="
		30.117,27.851 30.117,25.157 34.107,22.792 34.107,25.339 	"/>
	<polygon stroke-linecap="round" stroke-linejoin="round" points="
		30.117,14.927 30.117,12.232 34.107,9.869 34.107,12.416 	"/>
	<polygon stroke-linecap="round" stroke-linejoin="round" points="
		30.117,8.465 30.117,5.771 34.107,3.407 34.107,5.954 	"/>
	<polygon stroke-linecap="round" stroke-linejoin="round" points="
		30.117,34.314 30.117,31.618 34.107,29.255 34.107,31.802 	"/>
	<path stroke-linecap="round" stroke-linejoin="round" d="M6.573,40.536
		c4.051,0,8.103,0,12.152,0c0.463,0,0.654,0.191,0.654,0.652c0,0.301,0,0.604,0,0.904c0.871,0,1.74,0,2.613,0
		c0-0.301,0-0.604,0-0.904c0-1.803-1.463-3.265-3.268-3.265c-4.05,0-8.102,0-12.152,0c-0.463,0-0.653-0.19-0.653-0.652
		c0-4.052,0-8.104,0-12.155c0-1.802-1.462-3.264-3.266-3.264c-0.3,0-0.603,0-0.903,0c0,0.87,0,1.74,0,2.611c0.301,0,0.604,0,0.903,0
		c0.462,0,0.653,0.191,0.653,0.652c0,4.052,0,8.104,0,12.155C3.308,39.073,4.771,40.536,6.573,40.536z"/>
	<path stroke-linecap="round" stroke-linejoin="round" d="M6.573,3.168
		c4.051,0,8.103,0,12.152,0c0.463,0,0.654-0.191,0.654-0.653c0-0.301,0-0.603,0-0.904c0.871,0,1.74,0,2.613,0
		c0,0.301,0,0.603,0,0.904c0,1.803-1.463,3.265-3.268,3.265c-4.05,0-8.102,0-12.152,0c-0.463,0-0.653,0.191-0.653,0.653
		c0,4.051,0,8.103,0,12.154c0,1.803-1.462,3.266-3.266,3.266c-0.3,0-0.603,0-0.903,0c0-0.871,0-1.742,0-2.612
		c0.301,0,0.604,0,0.903,0c0.462,0,0.653-0.191,0.653-0.653c0-4.051,0-8.103,0-12.154C3.308,4.63,4.771,3.168,6.573,3.168z"/>
</g>
</svg>
