<?xml version="1.0" encoding="utf-8"?>
<!-- Generator: Adobe Illustrator 15.1.0, SVG Export Plug-In . SVG Version: 6.00 Build 0)  -->
<!DOCTYPE svg PUBLIC "-//W3C//DTD SVG 1.1//EN" "http://www.w3.org/Graphics/SVG/1.1/DTD/svg11.dtd">
<svg version="1.1" id="Layer_1" xmlns="http://www.w3.org/2000/svg" preserveAspectRatio="none"   x="0px" y="0px"
	   viewBox="0 0 47 47" xmlns:agg="http://www.example.com" xml:space="preserve">
	 
<agg:params>
	<agg:param type="C" name="color" description="Color" cssAttributes="fill" classes="color"/>
	<agg:param type="C" name="strokeColor" description="Stroke Color" cssAttributes="stroke" classes="color,stroked"/>
</agg:params>
	 
<style type="text/css" >
<![CDATA[

	.color,.stroked,.dashed{
		stroke-width:0.5;
		stroke-linecap:round;
		stroke-linejoin:round;
		stroke: #000000;
	}
	
	.color {
		fill:   #A1BFE2;

	}
	
	.stroked,.dashed{
		fill:none;
	}
	
	.dashed {
		stroke-dasharray:1.4173,1.4173;
	}
]]>
</style>
	 
<g class="color">
	<polygon points="18.675,2.44 19.938,1 26.972,1 28.415,2.44 18.675,2.44 	"/>
	<polygon points="12.183,22.06 12.183,3.88 1,3.88 1,19.36 3.886,22.06 12.183,22.06 12.183,22.06 	"/>
	<polygon points="34.817,22.06 34.817,3.88 46,3.88 46,19.36 43.114,22.06 34.817,22.06 34.817,22.06 	"/>
	<polygon points="12.183,24.94 12.183,46 8.034,46 12.183,24.94 	"/>
	<polygon points="13.625,3.88 22.823,3.88 22.823,46 13.625,46 13.625,3.88 	"/>
	<polygon points="24.267,3.88 33.465,3.88 33.465,46 24.267,46 24.267,3.88 	"/>
	<polygon points="34.908,24.94 34.908,46 39.056,46 34.908,24.94 	"/>
</g>
</svg>
