<?xml version="1.0" encoding="utf-8"?>
<!-- Generator: Adobe Illustrator 15.1.0, SVG Export Plug-In . SVG Version: 6.00 Build 0)  -->
<!DOCTYPE svg PUBLIC "-//W3C//DTD SVG 1.1//EN" "http://www.w3.org/Graphics/SVG/1.1/DTD/svg11.dtd">
<svg version="1.1" id="Layer_01" xmlns="http://www.w3.org/2000/svg" preserveAspectRatio="none"  xmlns:agg="http://www.example.com"  x="0px" y="0px"   viewBox="0 0 72 102" xml:space="preserve">
	 
<agg:params>
	<agg:param type="C" name="color" description="Color" cssAttributes="fill" classes="color"/>
	<agg:param type="C" name="strokeColor" description="Stroke Color" cssAttributes="stroke" classes="color,stroked"/>
</agg:params>	 
	 
<style type="text/css" >
   <![CDATA[

	.color,.stroked{
		stroke-width:0.5;
		stroke-linecap:round;
		stroke-linejoin:round;
		stroke: #000000;
	}
	
	.color {
		fill:   #A1BFE2;

	}
	
	.stroked {
		fill:none;
	}
      ]]>
</style>
	 
<path id="boundary" class="color" d="M1,66
	c0-10,0-20,0-30C0.963,16.681,16.644,1,36,1s35.037,15.681,35,35c0,10,0,20,0,30c0.037,19.319-15.644,35-35,35S0.963,85.319,1,66z"
	/>
	
<g class="stroked">	
	<path d="M71,36c-3.34,0-6.679,0-10.019,0c0-0.006,0-0.013,0-0.019C61.007,22.192,49.814,11,36,11c-13.815,0-25.007,11.192-24.981,24.981
		c0,0.006,0,0.013,0,0.019C7.679,36,4.34,36,1,36"/>
	<circle cx="36" cy="66" r="3.4"/>
	<path d="M37.65,77.2
		c0.645-2.576,0.415-5.634,1.792-7.182c1.376-1.549,4.358-1.588,6.904-2.237s4.655-1.905,6.196-3.787
		c1.541-1.881,2.513-4.387,2.482-6.853s-1.066-4.892-2.736-6.703c-1.669-1.811-3.972-3.007-6.435-3.319
		c-2.462-0.312-5.084,0.262-7.133,1.61c-2.049,1.348-3.526,3.473-4.244,6.008s-0.674,5.482-2.08,7.036
		c-1.406,1.553-4.26,1.714-6.752,2.428c-2.493,0.713-4.624,1.979-6.155,3.866c-1.531,1.887-2.461,4.395-2.406,6.858
		c0.056,2.463,1.097,4.882,2.776,6.684c1.68,1.801,3.997,2.986,6.455,3.277c2.458,0.29,5.056-0.314,7.114-1.664
		C35.486,81.872,37.005,79.776,37.65,77.2z"/>
	<circle cx="36" cy="36" r="3.4"/>
	<path d="M37.6,47.2
		c0.645-2.577,0.415-5.634,1.792-7.182c1.376-1.549,4.358-1.589,6.904-2.237c2.546-0.648,4.656-1.905,6.196-3.787
		c1.541-1.881,2.514-4.387,2.482-6.853c-0.032-2.466-1.067-4.892-2.736-6.703c-1.669-1.811-3.973-3.007-6.435-3.318
		c-2.463-0.312-5.084,0.262-7.133,1.61c-2.049,1.349-3.526,3.473-4.244,6.008c-0.717,2.536-0.674,5.482-2.08,7.036
		s-4.26,1.715-6.753,2.428c-2.493,0.713-4.624,1.979-6.155,3.866c-1.531,1.887-2.461,4.395-2.406,6.858
		c0.056,2.463,1.098,4.882,2.776,6.684c1.68,1.802,3.998,2.987,6.455,3.277c2.458,0.29,5.056-0.314,7.114-1.664
		C35.436,51.872,36.956,49.776,37.6,47.2z"/>
	<path d="M71,66
		c-3.34,0-6.679,0-10.019,0c0,0.006,0,0.013,0,0.019C61.007,79.808,49.814,91,36,91c-13.815,0-25.007-11.192-24.981-24.981
		c0-0.006,0-0.013,0-0.019C7.679,66,4.34,66,1,66"/>
</g>
</svg>
