<?xml version="1.0" encoding="utf-8"?>
<!-- Generator: Adobe Illustrator 15.0.0, SVG Export Plug-In . SVG Version: 6.00 Build 0)  -->
<!DOCTYPE svg PUBLIC "-//W3C//DTD SVG 1.1//EN" "http://www.w3.org/Graphics/SVG/1.1/DTD/svg11.dtd">
<svg version="1.1" id="_x30_" xmlns:agg="http://www.example.com"
	 xmlns="http://www.w3.org/2000/svg" preserveAspectRatio="none"   x="0px" y="0px" 
	  viewBox="0 0 43.984 43.986" enable-background="new 0 0 43.984 43.986" xml:space="preserve">
<agg:params>
	<agg:param type="C" name="color" description="Color" cssAttributes="fill" classes="color"/>
	<agg:param type="C" name="strokeColor" description="Stroke Color" cssAttributes="stroke" classes="color,stroked"/>
</agg:params>

<style type="text/css" >
   <![CDATA[

	.color,.stroked{
		stroke-width:1;
		stroke-linecap:round;
		stroke-linejoin:round;
		stroke: #000000;
	}
	
	.color {
		fill:   #A1BFE2;

	}
	
	.stroked {
		fill:none;
	}

      ]]>
</style>

<rect x="1.418" y="1.418" class="color"  />
<g class="stroked">
	<path fill="none" d="M27.488,31.655
		c-1.188,2.719,0.805,5.762,3.771,5.762s4.957-3.043,3.771-5.762c-1.258-2.881-2.514-5.762-3.771-8.641
		C30.004,25.893,28.744,28.774,27.488,31.655z"/>
	<path fill="none" d="M15.144,31.655
		c-1.188,2.719,0.805,5.762,3.77,5.762c2.967,0,4.959-3.043,3.771-5.762c-1.256-2.881-2.514-5.762-3.771-8.641
		C17.658,25.893,16.4,28.774,15.144,31.655z"/>
	<path fill="none" d="M21.314,15.194
		c-1.184,2.719,0.807,5.762,3.773,5.762c2.965,0,4.957-3.043,3.771-5.762c-1.258-2.879-2.516-5.761-3.771-8.641
		C23.83,9.433,22.574,12.315,21.314,15.194z"/>
	<path fill="none" d="M8.97,15.194
		c-1.186,2.719,0.807,5.762,3.771,5.762s4.957-3.043,3.771-5.762C15.256,12.315,14,9.433,12.742,6.553
		C11.484,9.433,10.228,12.315,8.97,15.194z"/>
</g>
</svg>
