<?xml version="1.0" encoding="utf-8"?>
<!-- Generator: Adobe Illustrator 15.0.0, SVG Export Plug-In . SVG Version: 6.00 Build 0)  -->
<!DOCTYPE svg PUBLIC "-//W3C//DTD SVG 1.1//EN" "http://www.w3.org/Graphics/SVG/1.1/DTD/svg11.dtd">
<svg version="1.1" id="_x30_" xmlns:agg="http://www.example.com"
	 xmlns="http://www.w3.org/2000/svg" preserveAspectRatio="none"   x="0px" y="0px" 
	  viewBox="0 0 23.747 43.986" enable-background="new 0 0 23.747 43.986" xml:space="preserve">
<agg:params>
	<agg:param type="C" name="color" description="Color" cssAttributes="fill" classes="color"/>
	<agg:param type="C" name="strokeColor" description="Stroke Color" cssAttributes="stroke" classes="color,stroked"/>
</agg:params>
<style type="text/css" >
<![CDATA[

	.color,.stroked,.dashed{
		stroke-width:0.5;
		stroke-linecap:round;
		stroke-linejoin:round;
		stroke: #000000;
	}
	
	.color {
		fill:   #A1BFE2;

	}
	
	.stroked,.dashed{
		fill:none;
	}
	
	.dashed {
		stroke-dasharray:1.4173,1.4173;
	}

      ]]>
</style>
<path class="color" d="M13.292,38.837
	c-0.865,0-1.73,0-2.596,0c-1.649,1.293-3.382,2.151-5.41,2.68c0-3.296,0-6.594,0-9.891c2.172-1.188,4.027-2.879,5.41-4.932
	c0-4.681,0-9.361,0-14.041c-2.269,1.052-4.792,1.431-7.269,1.09c-0.132-0.018-0.082-0.191,0-0.261
	c3.426-2.843,6.149-6.439,7.96-10.506c0.206-0.464,1.009-0.464,1.215,0c1.811,4.067,4.534,7.663,7.96,10.506
	c0.083,0.069,0.132,0.243,0,0.261c-2.478,0.341-5-0.039-7.27-1.09c0,4.68,0,9.359,0,14.041c1.385,2.053,3.239,3.743,5.41,4.932
	c0,3.297,0,6.595,0,9.891C16.675,40.988,14.943,40.13,13.292,38.837z"/>
</svg>
