<?xml version="1.0" encoding="utf-8"?>
<!-- Generator: Adobe Illustrator 15.1.0, SVG Export Plug-In . SVG Version: 6.00 Build 0)  -->
<!DOCTYPE svg PUBLIC "-//W3C//DTD SVG 1.1//EN" "http://www.w3.org/Graphics/SVG/1.1/DTD/svg11.dtd">
<svg version="1.1" id="Layer_1" xmlns:agg="http://www.example.com"
	 xmlns="http://www.w3.org/2000/svg" preserveAspectRatio="none"   x="0px" y="0px" 
	  viewBox="0 0 43.842 43.703" enable-background="new 0 0 43.842 43.703" xml:space="preserve">
	 
<agg:params>
	<agg:param type="C" name="color" description="Color" cssAttributes="fill" classes="color"/>
	<agg:param type="C" name="strokeColor" description="Stroke Color" cssAttributes="stroke" classes="color,stroked"/>
</agg:params>

<style type="text/css" >
<![CDATA[

	.color,.stroked,.dashed{
		stroke-width:0.5;
		stroke-linecap:round;
		stroke-linejoin:round;
		stroke: #000000;
	}
	
	.color {
		fill:   #A1BFE2;

	}
	
	.stroked,.dashed{
		fill:none;
	}
	
	.dashed {
		stroke-dasharray:1.4173,1.4173;
	}
]]>
</style>

<g class="color">
	<path d="M37.411,40.535
		c-4.052,0-8.104,0-12.155,0c-0.461,0-0.652,0.191-0.652,0.652c0,0.302,0,0.604,0,0.905c-0.87,0-1.741,0-2.612,0
		c0-0.302,0-0.604,0-0.905c0-1.803,1.463-3.264,3.265-3.264c4.052,0,8.104,0,12.155,0c0.461,0,0.652-0.192,0.652-0.653
		c0-4.052,0-8.103,0-12.154c0-1.804,1.463-3.265,3.265-3.265c0.302,0,0.603,0,0.904,0c0,0.871,0,1.741,0,2.612
		c-0.302,0-0.603,0-0.904,0c-0.461,0-0.652,0.191-0.652,0.652c0,4.052,0,8.103,0,12.154C40.676,39.073,39.213,40.535,37.411,40.535z"
		/>
	<path d="M37.411,3.167
		c-4.052,0-8.104,0-12.155,0c-0.461,0-0.652-0.191-0.652-0.653c0-0.301,0-0.603,0-0.903c-0.87,0-1.741,0-2.612,0
		c0,0.301,0,0.603,0,0.903c0,1.804,1.463,3.266,3.265,3.266c4.052,0,8.104,0,12.155,0c0.461,0,0.652,0.191,0.652,0.653
		c0,4.051,0,8.102,0,12.153c0,1.805,1.463,3.267,3.265,3.267c0.302,0,0.603,0,0.904,0c0-0.87,0-1.741,0-2.613
		c-0.302,0-0.603,0-0.904,0c-0.461,0-0.652-0.191-0.652-0.653c0-4.051,0-8.102,0-12.153C40.676,4.629,39.213,3.167,37.411,3.167z"/>
	<path d="M6.573,40.535
		c4.051,0,8.102,0,12.154,0c0.461,0,0.652,0.191,0.652,0.652c0,0.302,0,0.604,0,0.905c0.871,0,1.741,0,2.611,0
		c0-0.302,0-0.604,0-0.905c0-1.803-1.462-3.264-3.264-3.264c-4.053,0-8.104,0-12.154,0c-0.463,0-0.654-0.192-0.654-0.653
		c0-4.052,0-8.103,0-12.154c0-1.804-1.461-3.265-3.264-3.265c-0.302,0-0.604,0-0.904,0c0,0.871,0,1.741,0,2.612
		c0.301,0,0.603,0,0.904,0c0.461,0,0.652,0.191,0.652,0.652c0,4.052,0,8.103,0,12.154C3.307,39.073,4.769,40.535,6.573,40.535z"/>
	<path d="M6.573,3.167
		c4.051,0,8.102,0,12.154,0c0.461,0,0.652-0.191,0.652-0.653c0-0.301,0-0.603,0-0.903c0.871,0,1.741,0,2.611,0
		c0,0.301,0,0.603,0,0.903c0,1.804-1.462,3.266-3.264,3.266c-4.053,0-8.104,0-12.154,0c-0.463,0-0.654,0.191-0.654,0.653
		c0,4.051,0,8.102,0,12.153c0,1.805-1.461,3.267-3.264,3.267c-0.302,0-0.604,0-0.904,0c0-0.87,0-1.741,0-2.613
		c0.301,0,0.603,0,0.904,0c0.461,0,0.652-0.191,0.652-0.653c0-4.051,0-8.102,0-12.153C3.307,4.629,4.769,3.167,6.573,3.167z"/>
</g>
</svg>
