<?xml version="1.0" encoding="utf-8"?>
<!-- Generator: Adobe Illustrator 15.0.0, SVG Export Plug-In . SVG Version: 6.00 Build 0)  -->
<!DOCTYPE svg PUBLIC "-//W3C//DTD SVG 1.1//EN" "http://www.w3.org/Graphics/SVG/1.1/DTD/svg11.dtd">
<svg version="1.1" id="_x30_" xmlns:agg="http://www.example.com"
	 xmlns="http://www.w3.org/2000/svg" preserveAspectRatio="none"   x="0px" y="0px" 
	  viewBox="-2.865 23.773 62.925 17.873" enable-background="new -2.865 23.773 62.925 17.873"
	 xml:space="preserve">
<agg:params>
	<agg:param type="C" name="color" description="Color" cssAttributes="fill" classes="color"/>
	<agg:param type="C" name="strokeColor" description="Stroke Color" cssAttributes="stroke" classes="color,stroked"/>
</agg:params>
<style type="text/css" >
<![CDATA[

	.color,.stroked,.dashed{
		stroke-width:0.5;
		stroke-linecap:round;
		stroke-linejoin:round;
		stroke: #000000;
	}
	
	.color {
		fill:   #A1BFE2;

	}
	
	.stroked,.dashed{
		fill:none;
	}
	
	.dashed {
		stroke-dasharray:1.4173,1.4173;
	}

      ]]>
</style>
<rect class="color" x="-1.447" y="25.19" fill="#00D6CB"  />
<g class="stroked">
	<line x1="2.279" y1="40.229" x2="2.279" y2="25.19"/>
	<line x1="6.045" y1="40.229" x2="6.045" y2="25.19"/>
	<line x1="9.77" y1="40.229" x2="9.77" y2="25.19"/>
	<line x1="13.536" y1="40.229" x2="13.536" y2="25.19"/>
	<line x1="17.302" y1="40.229" x2="17.302" y2="25.19"/>
	<line x1="21.067" y1="40.229" x2="21.067" y2="25.19"/>
	<line x1="24.794" y1="40.229" x2="24.794" y2="25.19"/>
	<line x1="28.598" y1="40.229" x2="28.598" y2="25.19"/>
	<line x1="32.323" y1="40.229" x2="32.323" y2="25.19"/>
	<line x1="36.091" y1="40.229" x2="36.091" y2="25.19"/>
	<line x1="39.815" y1="40.229" x2="39.815" y2="25.19"/>
	<line x1="43.581" y1="40.229" x2="43.581" y2="25.19"/>
	<line x1="47.346" y1="40.229" x2="47.346" y2="25.19"/>
	<line x1="51.112" y1="40.229" x2="51.112" y2="25.19"/>
	<line x1="54.839" y1="40.229" x2="54.839" y2="25.19"/>
</g>
</svg>
