<?xml version="1.0" encoding="utf-8"?>
<!-- Generator: Adobe Illustrator 15.0.0, SVG Export Plug-In . SVG Version: 6.00 Build 0)  -->
<!DOCTYPE svg PUBLIC "-//W3C//DTD SVG 1.1//EN" "http://www.w3.org/Graphics/SVG/1.1/DTD/svg11.dtd">
<svg version="1.1" id="_x30_" xmlns:agg="http://www.example.com"
	 xmlns="http://www.w3.org/2000/svg" preserveAspectRatio="none"   x="0px" y="0px" 
	  viewBox="0.309 1.2 23.174 41.93" enable-background="new 0.309 1.2 23.174 41.93" xml:space="preserve">
<agg:params>
	<agg:param type="C" name="color" description="Color" cssAttributes="fill" classes="color"/>
	<agg:param type="C" name="strokeColor" description="Stroke Color" cssAttributes="stroke" classes="color,stroked"/>
</agg:params>
<style type="text/css" >
<![CDATA[

	.color,.stroked,.dashed{
		stroke-width:0.5;
		stroke-linecap:round;
		stroke-linejoin:round;
		stroke: #000000;
	}
	
	.color {
		fill:   #A1BFE2;

	}
	
	.stroked,.dashed{
		fill:none;
	}
	
	.dashed {
		stroke-dasharray:1.4173,1.4173;
	}

      ]]>
</style>
<path class="color" d="M14.352,39.216
	c0.02,1.362-1.043,2.48-2.413,2.497c-1.362,0.014-2.471-1.083-2.471-2.442c0-0.02,0-0.038,0-0.055c0-9.213,0-18.426,0-27.639
	c-1.317,1.829-2.636,3.66-3.953,5.489c-0.666,0.949-1.957,1.191-2.91,0.519c-0.944-0.668-1.164-1.978-0.486-2.917
	c0.01-0.012,0.019-0.023,0.028-0.035c2.667-3.693,5.336-7.384,8.005-11.075c0.838-1.234,2.646-1.258,3.516-0.045
	c0.009,0.012,0.019,0.023,0.028,0.038c2.652,3.696,5.305,7.389,7.957,11.084c0.685,0.935,0.501,2.24-0.443,2.929
	c-0.935,0.685-2.251,0.472-2.922-0.472c-0.009-0.014-0.019-0.026-0.028-0.038c-1.303-1.826-2.605-3.653-3.908-5.477
	C14.352,20.789,14.352,30.003,14.352,39.216z"/>
</svg>
