<?xml version="1.0" encoding="utf-8"?>
<!-- Generator: Adobe Illustrator 15.0.0, SVG Export Plug-In . SVG Version: 6.00 Build 0)  -->
<!DOCTYPE svg PUBLIC "-//W3C//DTD SVG 1.1//EN" "http://www.w3.org/Graphics/SVG/1.1/DTD/svg11.dtd">
<svg version="1.1" id="_x30_" xmlns:agg="http://www.example.com"
	 xmlns="http://www.w3.org/2000/svg" preserveAspectRatio="none"   x="0px" y="0px" 
	  viewBox="0 0 18.945 29.449" enable-background="new 0 0 18.945 29.449" xml:space="preserve">
<agg:params>
	<agg:param type="C" name="color" description="Color" cssAttributes="fill" classes="color"/>
	<agg:param type="C" name="strokeColor" description="Stroke Color" cssAttributes="stroke" classes="color,stroked"/>
</agg:params>
<style type="text/css" >
<![CDATA[

	.color,.stroked,.dashed{
		stroke-width:0.5;
		stroke-linecap:round;
		stroke-linejoin:round;
		stroke: #000000;
	}
	
	.color {
		fill:   #A1BFE2;

	}
	
	.stroked,.dashed{
		fill:none;
	}
	
	.dashed {
		stroke-dasharray:1.4173,1.4173;
	}

      ]]>
</style>
<path class="color" d="M10.2,25.702
	c0,0.235,0.016,0.477,0.048,0.725c0.079,0.631,0.255,1.309,0.69,1.599c0.437,0.289,1.134,0.192,1.736,0.004
	c0.605-0.188,1.117-0.467,1.633-0.763c0.515-0.296,1.034-0.608,1.559-0.933c0.525-0.323,1.055-0.657,1.661-0.657
	c-0.134,0-0.2-0.261-0.227-0.342c-0.114-0.358-0.166-0.725-0.215-1.094c-0.068-0.512-0.111-1.024-0.146-1.538
	c-0.068-1.03-0.095-2.06-0.095-3.091c0-1.032,0.026-2.062,0.095-3.091c0.033-0.514,0.078-1.026,0.146-1.537
	c0.049-0.37,0.1-0.736,0.215-1.096c0.026-0.081,0.093-0.342,0.227-0.342c-0.606,0-1.136,0.334-1.661,0.657
	c-0.524,0.323-1.044,0.637-1.559,0.933c-0.516,0.296-1.027,0.573-1.633,0.762c-0.306,0.096-0.638,0.168-0.945,0.179
	c0-2.562,0-5.125,0-7.687c0-0.356-0.067-0.703-0.23-0.994c-0.283-0.499-0.854-0.831-1.436-0.89c-0.583-0.058-1.18,0.16-1.756,0.373
	C7.732,7.094,7.177,7.302,6.597,7.4c-0.581,0.097-1.184,0.082-1.79,0.082c0-2.021,0-4.043,0-6.064
	c-1.13,4.043-2.26,8.086-3.39,12.13c1.13,4.043,2.26,8.086,3.39,12.13c0-2.022,0-4.044,0-6.064c0.606,0,1.209,0.015,1.79-0.083
	c0.579-0.097,1.134-0.306,1.71-0.52c0.576-0.213,1.173-0.43,1.756-0.373c0.046,0.006,0.092,0.012,0.137,0.02
	C10.2,21.005,10.2,23.353,10.2,25.702z"/>
<path class="stroked" d="M11.73,16.077
	c-0.299,0.009-0.575-0.039-0.791-0.182c-0.436-0.29-0.611-0.968-0.69-1.599c-0.08-0.63-0.063-1.215,0.071-1.788
	c0.135-0.573,0.386-1.135,0.646-1.68c0.262-0.546,0.533-1.074,0.672-1.671c0.058-0.25,0.092-0.511,0.092-0.767"/>
<line class="stroked" x1="10.2" y1="13.572" x2="10.2" y2="18.656"/>
</svg>
