<?xml version="1.0" encoding="utf-8"?>
<!-- Generator: Adobe Illustrator 15.0.0, SVG Export Plug-In . SVG Version: 6.00 Build 0)  -->
<!DOCTYPE svg PUBLIC "-//W3C//DTD SVG 1.1//EN" "http://www.w3.org/Graphics/SVG/1.1/DTD/svg11.dtd">
<svg version="1.1" id="_x30_" xmlns:agg="http://www.example.com"
	 xmlns="http://www.w3.org/2000/svg" preserveAspectRatio="none"   x="0px" y="0px" 
	  viewBox="0 0 23.747 43.986" enable-background="new 0 0 23.747 43.986" xml:space="preserve">
<agg:params>
	<agg:param type="C" name="color" description="Color" cssAttributes="fill" classes="color"/>
	<agg:param type="C" name="strokeColor" description="Stroke Color" cssAttributes="stroke" classes="color,stroked"/>
</agg:params>
<style type="text/css" >
<![CDATA[

	.color,.stroked,.dashed{
		stroke-width:0.5;
		stroke-linecap:round;
		stroke-linejoin:round;
		stroke: #000000;
	}
	
	.color {
		fill:   #A1BFE2;

	}
	
	.stroked,.dashed{
		fill:none;
	}
	
	.dashed {
		stroke-dasharray:1.4173,1.4173;
	}

      ]]>
</style>

<polygon class="color" points="
		4.764,12.018 11.887,2.641 18.97,12.018 14.523,12.018 14.523,27.958 18.97,30.263 18.97,32.999 14.523,30.733 14.523,32.334 
		18.97,34.6 18.97,37.219 14.523,34.913 14.523,36.984 18.97,39.211 18.97,41.712 14.523,39.484 9.29,39.484 4.764,41.712 
		4.764,39.211 9.29,36.984 9.29,34.913 4.764,37.219 4.764,34.6 9.29,32.334 9.29,30.733 4.764,32.999 4.764,30.263 9.29,27.958 
		9.29,12.018 4.764,12.018 	"/>

</svg>
