<?xml version="1.0" encoding="utf-8"?>
<!-- Generator: Adobe Illustrator 15.0.0, SVG Export Plug-In . SVG Version: 6.00 Build 0)  -->
<!DOCTYPE svg PUBLIC "-//W3C//DTD SVG 1.1//EN" "http://www.w3.org/Graphics/SVG/1.1/DTD/svg11.dtd">
<svg version="1.1" id="_x30_" xmlns:agg="http://www.example.com"
	 xmlns="http://www.w3.org/2000/svg" preserveAspectRatio="none"   x="0px" y="0px" 
	  viewBox="0 0 33.451 41.712" enable-background="new 0 0 33.451 41.712" xml:space="preserve">
<agg:params>
	<agg:param type="C" name="color" description="Color" cssAttributes="fill" classes="color"/>
	<agg:param type="C" name="strokeColor" description="Stroke Color" cssAttributes="stroke" classes="color,stroked"/>
</agg:params>
<style type="text/css" >
<![CDATA[

	.color,.stroked,.dashed{
		stroke-width:0.5;
		stroke-linecap:round;
		stroke-linejoin:round;
		stroke: #000000;
	}
	
	.color {
		fill:   #A1BFE2;

	}
	
	.stroked,.dashed{
		fill:none;
	}
	
	.dashed {
		stroke-dasharray:1.4173,1.4173;
	}

      ]]>
</style>
<path class="color" d="M9.551,1.417
	c-2.213,2.323-5.92,2.323-8.133,0c0,3.676,0,7.352,0,11.026c0,2.814,0.17,5.526,1.038,8.261c0.867,2.735,2.146,5.1,3.936,7.338
	c1.807,2.251,3.785,3.998,6.423,5.254c2.668,1.266,5.307,1.474,8.156,1.474c0,1.843,0,3.68,0,5.524
	c3.689-3.688,7.377-7.374,11.063-11.063c-3.687-3.688-7.374-7.374-11.063-11.063c0,1.845,0,3.682,0,5.526
	c-1.528,0-2.978-0.103-4.438-0.661c-1.456-0.556-2.65-1.364-3.761-2.449c-1.117-1.087-1.947-2.257-2.528-3.707
	c-0.584-1.461-0.692-2.905-0.692-4.434C9.551,8.769,9.551,5.093,9.551,1.417z"/>
</svg>
