<?xml version="1.0" encoding="utf-8"?>
<!-- Generator: Adobe Illustrator 15.1.0, SVG Export Plug-In . SVG Version: 6.00 Build 0)  -->
<!DOCTYPE svg PUBLIC "-//W3C//DTD SVG 1.1//EN" "http://www.w3.org/Graphics/SVG/1.1/DTD/svg11.dtd">
<svg version="1.1" id="Default" xmlns="http://www.w3.org/2000/svg" preserveAspectRatio="none"  x="0px" y="0px"
       viewBox="0 0 202 123">
	 
<style type="text/css" >
<![CDATA[

	.stroked,.color{
		stroke-width:0.25;
		stroke-linecap:round;
		stroke-linejoin:round;
		stroke:black;
	}
	
	.color {
		fill: #E5E5E5;
	}
	
	.stroked {
		fill:none;
	}
		]]>

</style>
	 
<polygon class="color" points="88.03,70.241 88.03,71.852 67.604,71.852 67.604,70.241 88.03,70.241 "/>
<polygon class="color" points="89.707,95.313 89.707,96.926 66.237,96.926 66.237,95.313 89.707,95.313 "/>
<polyline class="stroked" points="90.211,120.388 
	70.979,96.502 70.979,94.932 87.396,72.616 87.396,71.046 73.793,48.348 85.819,48.348 72.215,71.046 72.215,72.616 89.018,94.932 
	89.018,96.502 69.401,120.388 "/>
<polygon class="color" points="72.215,48.348 73.793,48.348 69.401,120.388 67.781,120.388 72.215,48.348 "/>
<polygon class="color" points="85.819,48.348 87.396,48.348 91.789,120.388 90.211,120.388 85.819,48.348 "/>
<polyline class="stroked" points="87.013,122 
	66.586,96.926 66.586,95.313 84.199,71.852 84.199,70.241 69.785,47.16 82.621,47.16 68.207,70.241 68.207,71.852 85.819,95.313 
	85.819,96.926 65.393,122 "/>
<polygon class="color" points="5.818,1 201,112.836 196.181,121.194 1,8.977 5.818,1 "/>
<polygon class="color" points="68.207,47.16 69.785,47.16 65.393,122 63.814,122 68.207,47.16 "/>
<polygon class="color" points="82.621,47.16 84.199,47.16 88.59,122 87.013,122 82.621,47.16 "/>

<g class="stroked">
	<line x1="22.194" y1="10.164" x2="17.418" y2="18.522"/>
	<line x1="9.785" y1="3.376" x2="5.008" y2="11.352"/>
	<line x1="13.793" y1="5.37" x2="9.401" y2="13.728"/>
	<line x1="18.186" y1="7.746" x2="13.41" y2="16.104"/>
	<line x1="38.186" y1="19.71" x2="33.793" y2="27.644"/>
	<line x1="26.203" y1="12.54" x2="21.384" y2="20.898"/>
	<line x1="30.211" y1="14.916" x2="25.393" y2="22.892"/>
	<line x1="34.219" y1="17.334" x2="29.785" y2="25.268"/>
	<line x1="54.604" y1="28.874" x2="49.785" y2="37.232"/>
	<line x1="42.621" y1="22.086" x2="37.802" y2="30.063"/>
	<line x1="46.586" y1="24.462" x2="41.811" y2="32.438"/>
	<line x1="50.595" y1="26.457" x2="45.819" y2="34.813"/>
	<line x1="70.979" y1="38.42" x2="66.203" y2="46.354"/>
	<line x1="58.996" y1="31.25" x2="54.22" y2="39.608"/>
	<line x1="63.004" y1="33.626" x2="58.186" y2="41.602"/>
	<line x1="67.013" y1="36.002" x2="62.194" y2="43.979"/>
	<line x1="87.396" y1="47.542" x2="82.621" y2="55.9"/>
	<line x1="74.987" y1="40.796" x2="70.595" y2="48.772"/>
	<line x1="78.996" y1="43.172" x2="74.604" y2="51.148"/>
	<line x1="83.388" y1="45.59" x2="78.612" y2="53.524"/>
	<line x1="103.815" y1="57.13" x2="98.996" y2="65.064"/>
	<line x1="91.405" y1="49.96" x2="86.586" y2="58.318"/>
	<line x1="95.414" y1="52.336" x2="90.595" y2="60.694"/>
	<line x1="99.806" y1="54.712" x2="94.988" y2="62.688"/>
	<line x1="119.806" y1="66.252" x2="115.414" y2="74.61"/>
	<line x1="107.78" y1="59.506" x2="103.004" y2="67.44"/>
	<line x1="111.789" y1="61.882" x2="107.012" y2="69.858"/>
	<line x1="115.797" y1="64.258" x2="111.405" y2="72.233"/>
	<line x1="136.182" y1="75.798" x2="131.405" y2="83.773"/>
	<line x1="124.199" y1="68.67" x2="119.379" y2="77.029"/>
	<line x1="128.207" y1="71.046" x2="123.388" y2="79.404"/>
	<line x1="132.215" y1="73.422" x2="127.397" y2="81.78"/>
	<line x1="152.599" y1="85.386" x2="147.781" y2="93.32"/>
	<line x1="140.19" y1="78.216" x2="135.797" y2="86.15"/>
	<line x1="144.582" y1="80.592" x2="139.807" y2="88.569"/>
	<line x1="148.591" y1="82.969" x2="143.814" y2="90.944"/>
	<line x1="169.018" y1="94.509" x2="164.199" y2="102.866"/>
	<line x1="156.608" y1="87.762" x2="152.215" y2="95.696"/>
	<line x1="160.617" y1="89.756" x2="156.182" y2="98.114"/>
	<line x1="165.008" y1="92.132" x2="160.19" y2="100.49"/>
	<line x1="185.393" y1="104.054" x2="180.617" y2="112.03"/>
	<line x1="172.984" y1="96.926" x2="168.207" y2="104.86"/>
	<line x1="176.992" y1="99.302" x2="172.216" y2="107.236"/>
	<line x1="181" y1="101.678" x2="176.608" y2="109.654"/>
	<line x1="189.401" y1="106.473" x2="184.583" y2="114.406"/>
	<line x1="193.41" y1="108.466" x2="188.59" y2="116.824"/>
	<line x1="197.418" y1="110.842" x2="192.6" y2="119.201"/>
</g>
</svg>
