<?xml version="1.0" encoding="utf-8"?>
<!-- Generator: Adobe Illustrator 15.1.0, SVG Export Plug-In . SVG Version: 6.00 Build 0)  -->
<!DOCTYPE svg PUBLIC "-//W3C//DTD SVG 1.1//EN" "http://www.w3.org/Graphics/SVG/1.1/DTD/svg11.dtd">
<svg version="1.1" id="Layer_1" xmlns="http://www.w3.org/2000/svg" preserveAspectRatio="none"  xmlns:xlink="http://www.w3.org/1999/xlink" x="0px" y="0px"
	   viewBox="0 0 92 152" xmlns:agg="http://www.example.com">

<agg:params>
	<agg:param type="C" name="color" description="Color" cssAttributes="fill" classes="color"/>
</agg:params>	 

<style type="text/css" >
   <![CDATA[

	.stroke,.thin,.thick{
		stroke-linecap:butt;
		stroke-linejoin:round;
		stroke: black;
		fill:none;
	}

	.stroke{stroke-width:0.5;}

	.thin {stroke-width:0.25;}

	.thick {stroke-width:0.75;}
	
	.color {
		fill:#3664BF;
		opacity:1;
	}

      ]]>
</style>	
	 
<polygon fill="#CCCCCC" points="86.184,121.303 32.826,96.415 32.826,94.588 89.497,121.303 86.184,121.303 "/>
<polygon fill="#7F7F7F" points="88.019,122.816 32.826,97.884 32.826,96.415 88.019,121.303 88.019,122.816 "/>
<polygon fill="#CCCCCC" points="86.224,121.303 83.26,122.816 63.005,122.816 64.464,121.303 48.986,121.303 50.754,122.816 42.706,122.816 39.742,135.417 89.497,135.417 89.497,121.303 "/>
<path fill="#7F7F7F" d="M28.995,138.4V77.492h3.892V138.4H28.995L28.995,138.4zM28.995,38.489h3.892V16.583h-3.892V38.489L28.995,38.489z M21.255,64.892v1.825h9.244v-1.825H21.255L21.255,64.892z"/>
	 
<g stroke="#7F7F7F" fill="none" stroke- stroke-linecap="square">
	<line fill="none" stroke-miterlimit="10" x1="30.499" y1="1" x2="34.965" y2="1"/>
	<polyline points="30.499,138.4 34.965,132.122 30.499,126.111 34.965,119.789 30.499,113.511 34.965,107.188 30.499,100.911 34.965,94.588 
		30.499,88.578 34.965,82.3 30.499,75.978 34.965,69.7 30.499,63.422 34.965,57.1 30.499,51.089 34.965,44.812 30.499,38.489 
		34.965,32.211 30.499,25.889 34.965,19.611 30.499,13.6 34.965,7.278 30.499,1 30.499,138.4 	"/>
	<polyline points="34.965,138.4 30.499,132.122 34.965,126.111 30.499,119.789 34.965,113.511 30.499,107.188 34.965,100.911 30.499,94.588 
		34.965,88.578 30.499,82.3 34.965,75.978 30.499,69.7 34.965,63.422 30.499,57.1 34.965,51.089 30.499,44.812 34.965,38.489 
		30.499,32.211 34.965,25.889 30.499,19.611 34.965,13.6 30.499,7.278 34.965,1 34.965,138.4 	"/>
</g>

<g fill="none" stroke="#000000" stroke- stroke-linecap="round" stroke-linejoin="round">
	<polyline points="27.226,138.4 33.506,132.122 27.226,126.111 33.506,119.789 27.226,113.511 33.506,107.188 27.226,100.911 33.506,94.588 
		27.226,88.578 33.506,82.3 27.226,75.978 33.506,69.7 27.226,63.422 33.506,57.1 27.226,51.089 33.506,44.812 27.226,38.489 
		33.506,32.211 27.226,25.889 33.506,19.611 27.226,13.6 33.506,7.278 27.226,1 27.226,138.4 	"/>
	<polyline points="33.506,138.4 27.536,132.122 33.506,126.111 27.536,119.789 33.506,113.511 27.536,107.188 33.506,100.911 27.536,94.588 
		33.506,88.578 27.536,82.3 33.506,75.978 27.536,69.7 33.506,63.422 27.536,57.1 33.506,51.089 27.536,44.812 33.506,38.489 
		27.536,32.211 33.506,25.889 27.536,19.611 33.506,13.6 27.536,7.278 33.506,1 33.506,138.4 	"/>
	<line x1="27.226" y1="1" x2="33.506" y2="1"/>
</g>

<polygon class="color" points="11.747,145.502 2.503,138.4 11.747,138.4 "/>
<polygon fill="white" opacity="0.2" points="11.747,145.502 2.503,138.4 11.747,138.4 "/>
<polygon class="color" points="21.255,135.417 21.255,138.4 39.742,138.4 39.742,135.417 89.497,135.417 89.497,141.694 86.224,141.694 83.26,147.706 
	11.747,147.706 11.747,138.4 2.503,138.4 2.503,135.417 21.255,135.417 "/>
<polygon points="16.523,146.191 78.484,146.191 78.484,149.486 16.523,149.486 16.523,146.191 "/>

<g fill="none" stroke="#999999" stroke- stroke-linecap="square" >
	<polyline points="44.519,132.122 66.278,132.122 66.278,127.581 	"/>
	<polyline points="83.26,132.122 86.224,132.122 86.224,127.581 	"/>
	<polyline points="78.484,132.122 81.756,132.122 81.756,127.581 	"/>
</g>

<g fill="none" stroke="#FFFFFF" stroke- stroke-linecap="square">
	<polyline points="83.26,132.122 83.26,127.581 86.224,127.581"/>
	<polyline points="78.484,132.122 78.484,127.581 81.756,127.581"/>
	<polyline points="44.519,132.122 44.519,127.581 66.278,127.581"/>
</g>

<polygon fill="#CCCCCC" points="2.503,124.286 21.255,124.286 21.255,135.417 2.503,135.417 2.503,124.286 "/>
<path d="M5.776,122.816h12.206v1.47H5.776V122.816L5.776,122.816z M7.28,133.902h1.459v-7.791H7.28V133.902L7.28,133.902z M13.516,133.902h1.504v-7.791h-1.504V133.902L13.516,133.902z"/>
	
<g fill="none" stroke="#FFCC00" stroke- stroke-linecap="square">
	<polyline points="1,133.902 22.759,133.902 22.759,136.886 38.238,136.886 38.238,133.902 91,133.902"/>
	<line x1="25.722" y1="136.886" x2="25.722" y2="63.422"/>
	<polyline points="21.255,63.422 28.995,63.422 28.995,136.886"/>
</g>

<g id="stroke" stroke="black" stroke- opacity="0.5" fill="none">
	<polyline points="83.26,147.706 86.224,141.694 89.497,141.694 89.497,121.303 86.184,121.303 83.26,122.816 63.005,122.816 64.464,121.303 
		48.986,121.303 50.754,122.816 42.706,122.816 39.742,135.417 39.742,138.4 21.255,138.4 21.255,124.286 2.503,124.286 
		2.503,138.4 11.747,145.502 	"/>
	<line x1="50.754" y1="122.816" x2="63.005" y2="122.816"/>
	<line x1="39.742" y1="135.417" x2="89.346" y2="135.417"/>
</g>

<path fill="#333333" d="M86.224,144.723H10.243l-0.019,0.018
	c-1.64,0.095-2.945,1.448-2.945,3.121s1.305,3.027,2.945,3.121L10.243,151h75.981c1.724,0,3.122-1.405,3.122-3.139
	S87.948,144.723,86.224,144.723z"/>

</svg>
