<?xml version="1.0" encoding="utf-8"?>
<!-- Generator: Adobe Illustrator 15.1.0, SVG Export Plug-In . SVG Version: 6.00 Build 0)  -->
<!DOCTYPE svg PUBLIC "-//W3C//DTD SVG 1.1//EN" "http://www.w3.org/Graphics/SVG/1.1/DTD/svg11.dtd">
<svg version="1.1" id="Layer_1" xmlns="http://www.w3.org/2000/svg" preserveAspectRatio="none"  xmlns:xlink="http://www.w3.org/1999/xlink" x="0px" y="0px"
	   viewBox="0 0 152 90.213" xmlns:agg="http://www.example.com">
	 
<agg:params>
	<agg:param type="C" name="color" description="Color" cssAttributes="fill" classes="color"/>
</agg:params>

<style type="text/css" >
<![CDATA[

	.stroked,.dashed{
		stroke-width:0.5;
		stroke-linecap:round;
		stroke-linejoin:round;
		stroke: #000000;
	}
	
	.color {
		fill: #FFCC00;

	}
	
	.stroked,.dashed{
		fill:none;
	}
	
	.dashed {
		stroke-dasharray:1.4173,1.4173;
	}

      ]]>
</style>
	 
<polygon points="13.306,32.223 22.598,4.912 43.012,4.912 67.013,71.807 14.203,72.74 
	13.306,32.223 "/>
<path class="color" d="M151,32.223l-25.584,3.646l-7.422,33.569h-11.409v3.303H37.307
	v-3.303h23.679l-8.008-23.248l-0.961,0.137L38.813,6.707L16.606,5.809V1h2.404v2.404h21.598l105.298,6.604L151,32.223z
	 M12.696,48.73l8.108-6.603h27.302L38.204,8.214h-17.4L15.1,25.619l-2.404,1.472V48.73L12.696,48.73z"/>
<polygon opacity="0.3" points="52.978,46.189 125.416,35.868 117.994,69.438 
	60.985,69.438 52.913,46.003 "/>
<polygon fill="#333333" points="19.01,22.317 22.598,11.515 36.41,11.515 38.813,22.317 
	19.01,22.317 "/>
	
<g id="white" opacity="0.2" fill="white">
	<polygon points="70.313,24.723 73.293,33.692 54.993,33.692 52.014,24.723 	"/>
	<polygon points="92.483,24.723 95.503,33.692 77.203,33.692 74.193,24.723 	"/>
	<polygon points="114.693,24.723 117.703,33.692 99.693,33.692 96.684,24.723 	"/>
	<polygon points="133.604,12.413 136.613,21.423 118.604,21.423 115.593,12.413 	"/>
	<polygon points="111.394,12.413 114.403,21.423 96.394,21.423 93.383,12.413 	"/>
	<polygon points="89.184,12.413 92.203,21.423 73.903,21.423 70.883,12.413 	"/>
	<polygon points="67.014,12.413 69.993,21.423 51.693,21.423 48.713,12.413 	"/>
	<rect x="61.313" y="47.803"  />
	<rect x="61.313" y="53.503"   />
</g>

<g class="stroked" opacity="0.3">
	<polyline points="103.283,47.803 61.313,47.803 61.313,52.033 	"/>
	<polyline points="61.313,66.713 82.583,66.713 82.583,53.503 	"/>
	<polyline points="44.512,29.818 1,29.818 1,38.825 	"/>
	<line x1="1" y1="34.627" x2="45.915" y2="34.627"/>
	<line x1="14.203" y1="29.818" x2="14.203" y2="38.825"/>
	<line x1="25.611" y1="29.818" x2="25.611" y2="38.825"/>
	<line x1="36.41" y1="29.818" x2="36.41" y2="38.825"/>
	<polyline points="133.604,12.413 115.593,12.413 118.604,21.423 	"/>
	<polyline points="111.394,12.413 93.383,12.413 96.394,21.423 	"/>
	<polyline points="114.693,24.723 96.684,24.723 99.693,33.692 	"/>
	<polyline points="92.483,24.723 74.193,24.723 77.203,33.692 	"/>
	<polyline points="89.184,12.413 70.883,12.413 73.903,21.423 	"/>
	<polyline points="67.014,12.413 48.713,12.413 51.693,21.423 	"/>
	<polyline points="70.313,24.723 52.014,24.723 54.993,33.692 	"/>
</g>

<g id="wheel">
	<polygon points="56.773,62.833 49.573,62.833 56.493,61.003 55.594,56.803 48.203,58.753 54.693,55.013 52.583,51.103 
		46.193,54.822 51.394,49.633 48.094,46.612 42.934,51.772 46.583,45.433 42.964,43.313 39.184,49.763 41.174,42.413 36.974,41.232 
		34.894,48.913 34.894,40.902 30.693,40.902 30.693,49.053 28.573,41.232 24.384,42.413 26.413,49.902 22.583,43.313 18.674,45.433 
		22.363,51.763 17.174,46.612 14.193,49.633 19.323,54.803 12.974,51.103 10.894,55.013 17.424,58.772 9.993,56.803 8.773,61.003 
		15.743,62.833 8.773,62.833 8.773,67.322 15.604,67.322 8.773,69.112 9.993,73.313 18.273,71.123 10.894,75.433 12.974,79.022 
		19.394,75.333 14.193,80.522 17.174,83.833 22.083,78.923 18.674,84.723 22.583,87.133 26.283,80.703 24.384,87.743 28.573,88.923 
		30.693,81.103 30.693,89.213 34.894,89.213 34.894,81.243 36.974,88.923 41.174,87.743 39.304,80.843 42.964,87.133 46.583,84.723 
		43.214,78.913 48.094,83.833 51.394,80.522 46.123,75.303 52.583,79.022 54.693,75.433 47.344,71.143 55.594,73.313 56.493,69.112 
		49.714,67.322 56.773,67.322 	"/>
	<circle fill="#333333" cx="32.773" cy="65.146" r="23.019"/>
	<circle opacity="0.3" fill="white" cx="32.773" cy="65.146" r="9.813"/>
	<circle class="color" cx="32.773" cy="65.146" r="7.731"/>
</g>

<use xlink:href="#wheel" transform="translate(77.4 0)"/>

<polygon fill="#999999" points="48.716,45.429 47.783,38.825 21.701,38.825 
	1,38.825 1,40.297 21.701,40.297 21.701,42.128 "/>
	
</svg>
