<?xml version="1.0" encoding="utf-8"?>
<!-- Generator: Adobe Illustrator 15.1.0, SVG Export Plug-In . SVG Version: 6.00 Build 0)  -->
<!DOCTYPE svg PUBLIC "-//W3C//DTD SVG 1.1//EN" "http://www.w3.org/Graphics/SVG/1.1/DTD/svg11.dtd">
<svg version="1.1" id="Layer_1" xmlns="http://www.w3.org/2000/svg" preserveAspectRatio="none"  xmlns:xlink="http://www.w3.org/1999/xlink" x="0px" y="0px"
	   viewBox="0 0 152 90.694" xmlns:agg="http://www.example.com">

<agg:params>
	<agg:param type="C" name="color" description="Color" cssAttributes="fill" classes="color"/>
</agg:params>

<style type="text/css" >
<![CDATA[

	.stroked,.dashed{
		stroke-width:0.5;
		stroke-linecap:round;
		stroke-linejoin:round;
		stroke: #000000;
	}
	
	.color {
		fill: #FFCC00;

	}
	
	.stroked,.dashed{
		fill:none;
	}
	
	.dashed {
		stroke-dasharray:1.4173,1.4173;
	}

      ]]>
</style>
	 
<polygon class="color" points="151,24.726 139.6,4.291 54.71,1 25.599,1 19.019,4.291
	19.593,4.291 42.087,18.105 47.519,37.929 8.498,37.929 8.498,70.341 104.481,70.341 143.964,27.07 "/>
<polygon opacity="0.7" points="72.672,50.824 66.093,28.018 38.472,4.291 19.574,4.291 
	42.068,18.105 47.5,37.929 8.479,37.929 8.479,70.341 104.463,70.341 143.945,27.07 "/>
<path class="color" d="M15.689,49.332L9.11,49.906v-7.194l6.579,0.918V49.332z M47.519,37.929V14.814H11.482v2.679h4.207v20.436
	H7.618v2.984h12.893l-3.902,8.993H9.11H7.618v3.329h7.192L7.618,70.341H1v3.291h8.11L23.8,40.913h39.289v-2.984H47.519z"/>
<polygon opacity="0.3" points="15.689,17.493 47.519,17.493 47.519,37.929 15.689,37.929 
	15.689,17.493 "/>
<path opacity="0.3" fill="white" d="M75.981,24.726h68.4L82.6,44.204L75.981,24.726
	L75.981,24.726z M75.981,21.396h65.11l-2.984-9.604L69.401,8.5L75.981,21.396L75.981,21.396z"/>
<polygon fill="#999999" points="7.618,49.906 7.618,42.712 9.11,42.712 9.11,49.906 
	7.618,49.906 "/>
<path fill="#333333" d="M29.5,21.396h4.208v9.911H29.5V21.396L29.5,21.396z M16.608,21.396
	v9.911h3.902l1.798-9.911H16.608L16.608,21.396z M23.8,21.396l-1.491,9.911h5.7v-9.911H23.8L23.8,21.396z"/>
	
<g id="wheel">
	<polygon points="62.754,64.85 55.973,64.85 62.49,63.126 61.643,59.17 54.683,61.007 60.795,57.483 58.808,53.801 52.789,57.305 
		57.688,52.417 54.579,49.572 49.719,54.432 53.156,48.461 49.748,46.464 46.188,52.539 48.062,45.617 44.106,44.505 42.146,51.739 
		42.146,44.194 38.191,44.194 38.191,51.87 36.194,44.505 32.249,45.617 34.16,52.671 30.553,46.464 26.871,48.461 30.346,54.423 
		25.458,49.572 22.651,52.417 27.482,57.286 21.502,53.801 19.543,57.483 25.693,61.024 18.695,59.17 17.547,63.126 24.11,64.85 
		17.547,64.85 17.547,69.077 23.979,69.077 17.547,70.763 18.695,74.719 26.494,72.657 19.543,76.716 21.502,80.097 27.549,76.622 
		22.651,81.51 25.458,84.627 30.082,80.003 26.871,85.465 30.553,87.735 34.037,81.68 32.249,88.311 36.194,89.421 38.191,82.056 
		38.191,89.694 42.146,89.694 42.146,82.188 44.106,89.421 48.062,88.311 46.301,81.812 49.748,87.735 53.156,85.465 49.983,79.994 
		54.579,84.627 57.688,81.51 52.723,76.594 58.808,80.097 60.795,76.716 53.873,72.676 61.643,74.719 62.49,70.763 56.105,69.077 
		62.754,69.077 	"/>
	<circle fill="#333333" cx="40.15" cy="66.944" r="21.679"/>
	<circle opacity="0.3" fill="white" cx="40.15" cy="66.944" r="9.243"/>
	<circle class="color" cx="40.15" cy="66.944" r="7.282"/>
	<path d="M37.397,61.566l1.482,4.084l-0.023,0.022l-4.083-1.481L37.397,61.566z M45.528,69.697l-4.084-1.482l-0.022,0.022
		l1.481,4.084L45.528,69.697z M34.772,69.697l4.084-1.482l0.022,0.022l-1.481,4.084L34.772,69.697z M42.902,61.566l-1.481,4.084
		l0.022,0.022l4.084-1.481L42.902,61.566z"/>
</g>

<use xlink:href="#wheel" transform="translate(65.1 0)"/>

<g class="stroked" opacity="0.3">
	<line x1="6.7" y1="70.341" x2="6.7" y2="31.308"/>
	<line x1="3.41" y1="70.341" x2="3.41" y2="31.308"/>
	<line x1="3.41" y1="40.913" x2="6.7" y2="40.913"/>
	<line x1="3.41" y1="44.204" x2="6.7" y2="44.204"/>
	<line x1="3.41" y1="47.533" x2="6.7" y2="47.533"/>
	<line x1="3.41" y1="50.824" x2="6.7" y2="50.824"/>
	<line x1="3.41" y1="54.115" x2="6.7" y2="54.115"/>
	<line x1="3.41" y1="57.406" x2="6.7" y2="57.406"/>
	<line x1="3.41" y1="60.735" x2="6.7" y2="60.735"/>
	<line x1="3.41" y1="64.026" x2="6.7" y2="64.026"/>
	<line x1="3.41" y1="67.012" x2="6.7" y2="67.012"/>
	<line x1="3.41" y1="37.929" x2="6.7" y2="37.929"/>
	<line x1="3.41" y1="34.599" x2="6.7" y2="34.599"/>
	<polyline points="138.107,11.792 69.401,8.5 75.981,21.396 	"/>
	<polyline points="144.382,24.726 75.981,24.726 82.6,44.204 	"/>
</g>
</svg>
