<?xml version="1.0" encoding="utf-8"?>
<!-- Generator: Adobe Illustrator 15.1.0, SVG Export Plug-In . SVG Version: 6.00 Build 0)  -->
<!DOCTYPE svg PUBLIC "-//W3C//DTD SVG 1.1//EN" "http://www.w3.org/Graphics/SVG/1.1/DTD/svg11.dtd">
<svg version="1.1" id="Layer_1" xmlns="http://www.w3.org/2000/svg" preserveAspectRatio="none"  xmlns:xlink="http://www.w3.org/1999/xlink" x="0px" y="0px"
	   viewBox="0 0 152 87.382" xmlns:agg="http://www.example.com">
	 
<agg:params>
	<agg:param type="C" name="color" description="Color" cssAttributes="fill" classes="color"/>
</agg:params>

<style type="text/css" >
<![CDATA[

	.stroked,.dashed{
		stroke-width:0.5;
		stroke-linecap:round;
		stroke-linejoin:round;
		stroke: #000000;
	}
	
	.color {
		fill: #FFCC00;

	}
	
	.stroked,.dashed{
		fill:none;
	}
	
	.dashed {
		stroke-dasharray:1.4173,1.4173;
	}

      ]]>
</style>
	 
<polygon class="color" points="129.355,33.937 151,28.805 131.196,7.57 12.412,1 8.216,6.084 9.118,6.084 15.134,10.855
	8.216,10.855 8.216,13.28 12.412,13.28 12.412,33.888 7.588,33.888 1,69.788 6.687,69.788 8.11,66.502 63.186,66.502 63.393,70.688 
	77.196,70.688 77.403,66.502 101.471,66.502 "/>
<polygon opacity="0.7" points="109.275,38.699 104.177,37.799 90.373,41.084 87.393,44.37 
	62.49,50.939 48.687,12.655 36.412,6.084 9.118,6.084 15.134,10.856 44.49,10.856 44.49,13.28 44.49,33.889 51.98,33.889 
	51.98,37.213 20.804,37.213 8.11,66.502 63.186,66.502 62.49,52.464 78.098,52.464 77.403,66.502 101.471,66.502 129.354,33.938 "/>
<polygon opacity="0.3" points="12.412,13.28 44.49,13.28 44.49,33.888 12.412,33.888 12.412,13.28 "/>

<g id="wheel">
	<polygon points="60.168,61.538 53.387,61.538 59.905,59.814 59.057,55.858 52.097,57.695 58.209,54.171 56.222,50.489 
		50.204,53.993 55.102,49.105 51.994,46.26 47.133,51.12 50.571,45.149 47.163,43.152 43.602,49.227 45.476,42.305 41.521,41.193 
		39.561,48.427 39.561,40.882 35.606,40.882 35.606,48.558 33.609,41.193 29.664,42.305 31.575,49.359 27.967,43.152 24.286,45.149 
		27.76,51.111 22.873,46.26 20.066,49.105 24.897,53.974 18.917,50.489 16.958,54.171 23.108,57.712 16.11,55.858 14.961,59.814 
		21.525,61.538 14.961,61.538 14.961,65.765 21.394,65.765 14.961,67.451 16.11,71.407 23.909,69.345 16.958,73.404 18.917,76.785 
		24.963,73.31 20.066,78.198 22.873,81.315 27.497,76.691 24.286,82.153 27.967,84.423 31.452,78.368 29.664,84.999 33.609,86.109 
		35.606,78.744 35.606,86.382 39.561,86.382 39.561,78.876 41.521,86.109 45.476,84.999 43.715,78.5 47.163,84.423 50.571,82.153 
		47.398,76.682 51.994,81.315 55.102,78.198 50.137,73.282 56.222,76.785 58.209,73.404 51.288,69.364 59.057,71.407 59.905,67.451 
		53.52,65.765 60.168,65.765 	"/>
	<circle fill-rule="evenodd" clip-rule="evenodd" fill="#333333" stroke="#000000" stroke- stroke-linecap="square" stroke-miterlimit="10" cx="37.564" cy="63.632" r="21.679"/>
	<circle opacity="0.3" fill-rule="evenodd" clip-rule="evenodd" fill="#FFFFFF" cx="37.564" cy="63.632" r="9.243"/>
	<circle fill-rule="evenodd" clip-rule="evenodd" class="color" cx="37.564" cy="63.632" r="7.282"/>
	<path d="M34.812,58.254l1.482,4.084l-0.023,0.022l-4.083-1.481L34.812,58.254z M42.943,66.385l-4.084-1.482l-0.022,0.022
		l1.481,4.084L42.943,66.385z M32.187,66.385l4.084-1.482l0.022,0.022l-1.481,4.084L32.187,66.385z M40.317,58.254l-1.481,4.084
		l0.022,0.022l4.084-1.481L40.317,58.254z"/>
</g>

<use xlink:href="#wheel" transform="translate(66.3 0)"/>

<path fill="#333333" d="M26.49,17.464h3.922v9.854H26.49V17.464L26.49,17.464z
	 M13.314,17.464v9.854h4.196L19,17.464H13.314L13.314,17.464z M20.49,17.464L19,27.318h5.687v-9.854H20.49L20.49,17.464z"/>
<polygon opacity="0.1" points="135.392,27.318 124.883,15.939 62.49,13.28 73,42.882 135.392,27.318 "/>
<polygon opacity="0.1" points="62.49,50.938 61.274,48.279 148.569,26.419 151,28.805 
	109.275,38.698 104.49,37.799 90.373,41.083 87.393,44.369 62.49,50.938 "/>
<polygon opacity="0.1" points="135.392,27.318 124.883,15.939 62.49,13.28 123.98,18.363 
	135.392,27.318 "/>
<polygon opacity="0.3" fill="#FFFFFF" points="137.196,15.939 45.98,10.855 42.098,8.47 
	135.392,13.28 137.196,15.939 "/>
	
<g class="stroked">
	<line x1="2.294" y1="27.318" x2="2.294" y2="66.502"/>
	<line x1="5.588" y1="27.318" x2="5.588" y2="66.502"/>
	<line x1="5.588" y1="30.604" x2="2.294" y2="30.604"/>
	<line x1="5.588" y1="33.862" x2="2.294" y2="33.862"/>
	<line x1="5.588" y1="37.121" x2="2.294" y2="37.121"/>
	<line x1="5.588" y1="63.19" x2="2.294" y2="63.19"/>
	<line x1="5.588" y1="59.931" x2="2.294" y2="59.931"/>
	<line x1="5.588" y1="56.673" x2="2.294" y2="56.673"/>
	<line x1="5.588" y1="53.414" x2="2.294" y2="53.414"/>
	<line x1="5.588" y1="50.155" x2="2.294" y2="50.155"/>
	<line x1="5.588" y1="46.897" x2="2.294" y2="46.897"/>
	<line x1="5.588" y1="43.638" x2="2.294" y2="43.638"/>
	<line x1="5.588" y1="40.379" x2="2.294" y2="40.379"/>
</g>
</svg>
