<?xml version="1.0" encoding="utf-8"?>
<!-- Generator: Adobe Illustrator 15.1.0, SVG Export Plug-In . SVG Version: 6.00 Build 0)  -->
<!DOCTYPE svg PUBLIC "-//W3C//DTD SVG 1.1//EN" "http://www.w3.org/Graphics/SVG/1.1/DTD/svg11.dtd">
<svg version="1.1" id="Layer_1" xmlns="http://www.w3.org/2000/svg" preserveAspectRatio="none"  xmlns:xlink="http://www.w3.org/1999/xlink" x="0px" y="0px"
	   viewBox="0 0 190 141"  xmlns:agg="http://www.example.com">

<agg:params>
    <agg:param type="C" name="color" description="Color" cssAttributes="fill" classes="color"/>
	<agg:param type="C" name="strokeColor" description="Stroke Color" cssAttributes="stroke" classes="color,stroked"/>
</agg:params>

<style type="text/css" >
<![CDATA[

	.color,.stroked,.dashed{
		stroke-width:0.5;
		stroke-linecap:round;
		stroke-linejoin:round;
		stroke: #000000;
	}
	
	.color {
		fill:   #A1BFE2;

	}
	
	.stroked,.dashed{
		fill:none;
	}
	
	.dashed {
		stroke-dasharray:1.4173,1.4173;
	}

      ]]>
</style>
	
<defs>	
	<path id="boundary" d="M4.662,67.607c-3.885,0-4.949-5.331-1.359-6.814s6.618,3.037,3.87,5.777
		c4.046,4.035,8.091,8.069,12.136,12.104c0,9.646,0,19.291,0,28.938c0.808,0,1.615,0,2.423,0c0-3.419,0-6.839,0-10.259
		c2.76-1.076,5.52-2.15,8.281-3.227c12.863,0,25.727,0,38.59,0c2.629,4.494,5.258,8.99,7.887,13.485
		c15.557-17.405,31.113-34.812,46.668-52.219c17.771-15.971,35.541-31.942,53.313-47.914c0.158-2.93,2.662-5.179,5.6-5.033
		c0.537-0.482,1.072-0.964,1.609-1.446c1.773,1.659,3.547,3.316,5.32,4.975c-0.621,0.703-1.242,1.406-1.861,2.109
		c-0.146,2.44-1.938,4.469-4.346,4.92C166.018,32,149.244,50.993,132.469,69.988c-18.66,15.747-37.318,31.494-55.979,47.242
		c0,1.945,0,3.889,0,5.834c-3.75,0-7.502,0-11.254,0c1.338,1.178,2.674,2.354,4.012,3.531c4.553,0,9.104,0,13.656,0
		c3.709,0,6.719,3,6.719,6.701c0,3.703-3.01,6.703-6.719,6.703c-18.914,0-37.829,0-56.742,0c-3.711,0-6.719-3-6.719-6.703
		c0-3.701,3.008-6.701,6.719-6.701c4.552,0,9.104,0,13.655,0c1.336-1.178,2.674-2.354,4.011-3.531c-14.276,0-28.553,0-42.829,0
		c0-5.151,0-10.302,0-15.452c1.22,0,2.441,0,3.662,0C4.662,94.277,4.662,80.942,4.662,67.607z M179.211,50.559
		c-1.541,1.429-1.631,3.833-0.199,5.372c1.434,1.539,3.846,1.628,5.387,0.2c1.543-1.43,1.631-3.834,0.199-5.374
		C183.166,49.22,180.754,49.13,179.211,50.559z M101.875,31.846c-1.861-0.612-3.871,0.399-4.482,2.257
		c-0.613,1.858,0.4,3.861,2.262,4.473c1.863,0.61,3.871-0.399,4.484-2.257C104.752,34.46,103.738,32.457,101.875,31.846z"/>
</defs>

<use xlink:href="#boundary" class="color"/>

<g class="stroked">
	<path d="M181.805,53.344
		c0,1.034,0,2.068,0,3.102c0,1.387-0.756,2.92-1.541,3.83c-0.576,0.669-1.166,1.002-1.547,1.656
		c-0.611,1.057-0.676,2.95,0.137,4.306c0.936,1.565,3.047,2.411,4.945,1.481c1.117-0.547,2.16-1.707,2.201-2.97
		c0.02-0.595-0.184-1.214-0.834-1.935"/>
	<line x1="7.512" y1="66.908" x2="101.789" y2="38.602"/>
	<line x1="99.504" y1="31.899" x2="7.415" y2="66.811"/>
	<line x1="175.506" y1="21.255" x2="178.006" y2="53.637"/>
	<line x1="189" y1="5.975" x2="185.607" y2="53.613"/>
	<line x1="3.638" y1="60.674" x2="99.74" y2="31.818"/>
	<line x1="61.525" y1="94.127" x2="178.529" y2="3.558"/>
	<line x1="171.652" y1="11.811" x2="100.766" y2="35.21"/>
</g>
</svg>
