<?xml version="1.0" encoding="utf-8"?>
<!-- Generator: Adobe Illustrator 15.1.0, SVG Export Plug-In . SVG Version: 6.00 Build 0)  -->
<!DOCTYPE svg PUBLIC "-//W3C//DTD SVG 1.1//EN" "http://www.w3.org/Graphics/SVG/1.1/DTD/svg11.dtd">
<svg version="1.1" id="Layer_1" xmlns="http://www.w3.org/2000/svg" preserveAspectRatio="none"  xmlns:xlink="http://www.w3.org/1999/xlink" x="0px" y="0px"
	   viewBox="0 0 190 77" xmlns:agg="http://www.example.com">
	 
<agg:params>
	<agg:param type="C" name="color" description="Color" cssAttributes="fill" classes="color"/>
	<agg:param type="C" name="strokeColor" description="Stroke Color" cssAttributes="stroke" classes="color,stroked"/>
</agg:params>

<style type="text/css" >
<![CDATA[

	.color,.stroked,.dashed{
		stroke-width:0.5;
		stroke-linecap:round;
		stroke-linejoin:round;
		stroke: #000000;
	}
	
	.color {
		fill:   #A1BFE2;

	}
	
	.stroked,.dashed{
		fill:none;
	}
	
	.dashed {
		stroke-dasharray:1.4173,1.4173;
	}

      ]]>
</style>
	 
<defs>	 
	<path id="boundary" d="M169.223,44.685L189,35.789l-8.148-27.063H83.746L80.998,1h-5.4l10.848,45.632H70.15V6.422H43.342v2.303
		h24.494v13.531H43.342l-16.297,2.687v2.735L1,33.102v15.835l26.044,5.42l0.563,0.096c-0.524,1.602-0.814,3.309-0.814,5.086
		c0,9.09,7.409,16.461,16.548,16.461c9.057,0,16.404-7.24,16.535-16.219h29.317v-7.773h25.134c-1.172,2.258-1.845,4.814-1.845,7.531
		c0,9.09,7.409,16.461,16.548,16.461c9.14,0,16.549-7.371,16.549-16.461c0-4.234-1.62-8.082-4.261-10.999l9.794-1.262
		c-3.388,3.014-5.533,7.381-5.533,12.26c0,9.09,7.409,16.461,16.548,16.461s16.549-7.371,16.549-16.461
		C178.677,52.977,174.807,47.33,169.223,44.685z"/>
</defs>

<use xlink:href="#boundary" class="color"/>

<g class="stroked">
	<line x1="43.342" y1="8.726" x2="43.342" y2="22.257"/>
	<line x1="56.938" y1="22.257" x2="56.938" y2="8.726"/>
</g>

</svg>
