<?xml version="1.0" encoding="utf-8"?>
<!-- Generator: Adobe Illustrator 15.0.0, SVG Export Plug-In . SVG Version: 6.00 Build 0)  -->
<!DOCTYPE svg PUBLIC "-//W3C//DTD SVG 1.1//EN" "http://www.w3.org/Graphics/SVG/1.1/DTD/svg11.dtd">
<svg version="1.1" id="_x30_" xmlns:agg="http://www.example.com"
	 xmlns="http://www.w3.org/2000/svg" preserveAspectRatio="none"   x="0px" y="0px" 
	  viewBox="0 0 43.984 43.986" enable-background="new 0 0 43.984 43.986" xml:space="preserve">
<agg:params>
	<agg:param type="C" name="color" description="Color" cssAttributes="fill" classes="color"/>
	<agg:param type="C" name="strokeColor" description="Stroke Color" cssAttributes="stroke" classes="color,stroked"/>
</agg:params>
<style type="text/css" >
<![CDATA[

	.color,.stroked{
		stroke-width:1;
		stroke-linecap:round;
		stroke-linejoin:round;
		stroke: #000000;
	}
	
	.color {
		fill:   #A1BFE2;

	}
	
	.stroked {
		fill:none;
	}

      ]]>
</style>
<polygon class="color" points="14.184,23.393 19.87,14.91 25.555,23.393 "/>
<g class="stroked">
	<line x1="22.713" y1="19.14" x2="42.61" y2="19.14"/>
	<polyline points="11.342,31.877 28.397,31.877 28.397,26.221 "/>
	<line x1="8.499" y1="37.53" x2="31.241" y2="37.53"/>
	<path d="M19.869,23.393	c0,4.713,0,9.425,0,14.137"/>
	<path d="M1.417,26.222
		c2.282,0.666,4.639-0.788,5.067-3.127c0.734-4.013,1.469-8.025,2.202-12.037c0.525-2.869,3.151-4.864,6.055-4.6
		c2.904,0.263,5.128,2.699,5.128,5.616c0,1.885,0,0.951,0,2.836"/>
</g>
</svg>
