<?xml version="1.0" encoding="utf-8"?>
<!-- Generator: Adobe Illustrator 15.0.0, SVG Export Plug-In . SVG Version: 6.00 Build 0)  -->
<!DOCTYPE svg PUBLIC "-//W3C//DTD SVG 1.1//EN" "http://www.w3.org/Graphics/SVG/1.1/DTD/svg11.dtd">
<svg version="1.1" id="_x30_" xmlns:agg="http://www.example.com"
	 xmlns="http://www.w3.org/2000/svg" preserveAspectRatio="none"   x="0px" y="0px" 
	  viewBox="0 0 43.984 43.986" enable-background="new 0 0 43.984 43.986" xml:space="preserve">
<agg:params>
	<agg:param type="C" name="color" description="Color" cssAttributes="fill" classes="color"/>
	<agg:param type="C" name="strokeColor" description="Stroke Color" cssAttributes="stroke" classes="color,stroked"/>
</agg:params>
<style type="text/css" >
<![CDATA[

	.color,.stroked{
		stroke-width:1;
		stroke-linecap:round;
		stroke-linejoin:round;
		stroke: #000000;
	}
	
	.color {
		fill:   #A1BFE2;

	}
	
	.stroked {
		fill:none;
	}

      ]]>
</style>
<polygon class="color" points="7.365,17.578 36.7,17.578 36.7,29.261 7.365,29.261 7.365,17.578 "/>
<g class="stroked">
	<line x1="7.365" y1="23.42" x2="1.499" y2="23.42"/>
	<line x1="36.7" y1="23.42" x2="42.567" y2="23.42"/>
	<line x1="36.7" y1="29.261" x2="33.767" y2="17.578"/>
	<line x1="33.767" y1="29.261" x2="30.834" y2="17.578"/>
	<line x1="30.834" y1="29.261" x2="27.9" y2="17.578"/>
	<line x1="27.9" y1="29.261" x2="24.967" y2="17.578"/>
	<line x1="24.967" y1="29.261" x2="22.033" y2="17.578"/>
	<line x1="22.033" y1="29.261" x2="19.099" y2="17.578"/>
	<line x1="19.099" y1="29.261" x2="16.166" y2="17.578"/>
	<line x1="16.166" y1="29.261" x2="13.233" y2="17.578"/>
	<line x1="13.233" y1="29.261" x2="10.299" y2="17.578"/>
	<line x1="10.299" y1="29.261" x2="7.365" y2="17.578"/>
	<line x1="10.299" y1="17.578" x2="7.365" y2="29.261"/>
	<line x1="13.233" y1="17.578" x2="10.299" y2="29.261"/>
	<line x1="16.166" y1="17.578" x2="13.233" y2="29.261"/>
	<line x1="19.099" y1="17.578" x2="16.166" y2="29.261"/>
	<line x1="22.033" y1="17.578" x2="19.099" y2="29.261"/>
	<line x1="24.967" y1="17.578" x2="22.033" y2="29.261"/>
	<line x1="27.9" y1="17.578" x2="24.967" y2="29.261"/>
	<line x1="30.834" y1="17.578" x2="27.9" y2="29.261"/>
	<line x1="33.767" y1="17.578" x2="30.834" y2="29.261"/>
	<line x1="36.7" y1="17.578" x2="33.767" y2="29.261"/>
</g>
</svg>
