<?xml version="1.0" encoding="utf-8"?>
<!-- Generator: Adobe Illustrator 15.0.0, SVG Export Plug-In . SVG Version: 6.00 Build 0)  -->
<!DOCTYPE svg PUBLIC "-//W3C//DTD SVG 1.1//EN" "http://www.w3.org/Graphics/SVG/1.1/DTD/svg11.dtd">
<svg version="1.1" id="_x30_" xmlns:agg="http://www.example.com"
	 xmlns="http://www.w3.org/2000/svg" preserveAspectRatio="none"   x="0px" y="0px" 
	  viewBox="0 0 43.984 43.986" enable-background="new 0 0 43.984 43.986" xml:space="preserve">

<agg:params>
	<agg:param type="C" name="color" description="Color" cssAttributes="fill" classes="color"/>
	<agg:param type="C" name="strokeColor" description="Stroke Color" cssAttributes="stroke" classes="color,stroked"/>
</agg:params>

<style type="text/css" >
   <![CDATA[

	.color,.stroked{
		stroke-width:1;
		stroke-linecap:round;
		stroke-linejoin:round;
		stroke: #000000;
	}
	
	.color {
		fill:   #A1BFE2;

	}
	
	.stroked {
		fill:none;
	}

      ]]>
</style>

	
<rect x="9.937" y="1.404" class="color"  />

<g class="stroked">
	<path fill="none" d="M25.213,19.118
		c-0.697,1.593,0.471,3.375,2.209,3.375c1.736,0,2.904-1.782,2.209-3.375c-0.736-1.688-1.473-3.375-2.209-5.063
		C26.683,15.743,25.947,17.43,25.213,19.118z"/>
	<path fill="none" d="M17.978,19.118
		c-0.693,1.593,0.473,3.375,2.211,3.375c1.736,0,2.904-1.782,2.209-3.375c-0.736-1.688-1.473-3.375-2.209-5.063
		C19.453,15.743,18.715,17.43,17.978,19.118z"/>
	<path fill="none" d="M21.595,9.475
		c-0.695,1.592,0.471,3.375,2.209,3.375s2.904-1.783,2.211-3.375c-0.738-1.688-1.475-3.375-2.211-5.063
		C23.068,6.1,22.332,7.788,21.595,9.475z"/>
	<path fill="none" d="M14.363,9.475
		c-0.695,1.592,0.473,3.375,2.209,3.375c1.738,0,2.904-1.783,2.209-3.375c-0.736-1.688-1.473-3.375-2.209-5.063
		C15.836,6.1,15.099,7.788,14.363,9.475z"/>
	<line fill="none" x1="16.043" y1="25.512" x2="16.043" y2="42.581"/>
	<line fill="none" x1="28.121" y1="25.512" x2="28.121" y2="42.581"/>
</g>

</svg>
