<?xml version="1.0" encoding="utf-8"?>
<!-- Generator: Adobe Illustrator 15.0.0, SVG Export Plug-In . SVG Version: 6.00 Build 0)  -->
<!DOCTYPE svg PUBLIC "-//W3C//DTD SVG 1.1//EN" "http://www.w3.org/Graphics/SVG/1.1/DTD/svg11.dtd">
<svg version="1.1" id="_x30_" xmlns="http://www.w3.org/2000/svg" preserveAspectRatio="none"   x="0px" y="0px"
	  xmlns:agg="http://www.example.com"    viewBox="0 0 43.984 43.986" enable-background="new 0 0 43.984 43.986" xml:space="preserve">

<agg:params>
	<agg:param name="color" description="Color" type="C" cssAttributes="fill" classes="color"/>
	<agg:param name="strokeColor" description="Stroke Color" type="C" cssAttributes="stroke" classes="color,stroked"/>
</agg:params>

<style type="text/css" >
   <![CDATA[

	.color,.stroked{
		stroke-width:1;
		stroke-linecap:round;
		stroke-linejoin:round;
		stroke: #000000;
	}
	
	.color {
		fill:   #A1BFE2;

	}
	
	.stroked {
		fill:none;
	}

      ]]>
</style>
	 
<rect x="8.249" y="1.834" class="color"  />

<g class="stroked">
	<line fill="none" x1="18.537" y1="16.267" x2="18.537" y2="3.889"/>
	<circle fill="none" cx="18.536" cy="18.303" r="2.036"/>
	<path fill="none" d="M18.536,42.985
		c1.211,0,1.714-0.502,1.714-1.713c0-1.213-0.502-1.715-1.714-1.715c-1.213,0-1.715-0.504-1.715-1.715
		c0-1.213,0.502-1.715,1.715-1.715c1.211,0,1.714-0.502,1.714-1.715s-0.502-1.715-1.714-1.715c-1.213,0-1.715-0.502-1.715-1.713
		c0-1.213,0.502-1.715,1.715-1.715c1.211,0,1.714-0.504,1.714-1.717c0-1.211-0.502-1.713-1.714-1.713
		c-1.213,0-1.715-0.502-1.715-1.715s0.502-1.715,1.715-1.715"/>
	<line fill="none" x1="3.069" y1="5.264" x2="7.38" y2="5.264"/>
	<line fill="none" x1="3.069" y1="6.979" x2="3.069" y2="3.55"/>
	<line fill="none" x1="30.587" y1="22.411" x2="40.916" y2="22.411"/>
	<line fill="none" x1="35.546" y1="19.269" x2="35.546" y2="3.55"/>
	<polygon fill="none" points="35.546,22.411 33.176,18.79 
		35.546,19.284 37.915,18.79 "/>
</g>
</svg>
