<?xml version="1.0" encoding="utf-8"?>
<!-- Generator: Adobe Illustrator 15.0.0, SVG Export Plug-In . SVG Version: 6.00 Build 0)  -->
<!DOCTYPE svg PUBLIC "-//W3C//DTD SVG 1.1//EN" "http://www.w3.org/Graphics/SVG/1.1/DTD/svg11.dtd">
<svg version="1.1" id="_x30_" xmlns="http://www.w3.org/2000/svg" preserveAspectRatio="none"    xmlns:agg="http://www.example.com" x="0px" y="0px"
	   viewBox="0 0 43.984 43.986" enable-background="new 0 0 43.984 43.986" xml:space="preserve">
	 
<agg:params>
	<agg:param name="color" description="Color" type="C" cssAttributes="fill" classes="color"/>
	<agg:param name="strokeColor" description="Stroke Color" type="C" cssAttributes="stroke" classes="color,stroked"/>
</agg:params>

<style type="text/css" >
   <![CDATA[

	.color,.stroked{
		stroke-width:1;
		stroke-linecap:round;
		stroke-linejoin:round;
		stroke: #000000;
	}
	
	.color {
		fill:   #A1BFE2;

	}
	
	.stroked {
		fill:none;
	}

      ]]>
</style>

<polygon class="color" points="6.369,1.466 6.369,24.927
	10.283,24.927 10.283,42.521 16.154,42.521 22.024,24.927 29.85,24.927 29.85,1.466 "/>
<polygon class="color" points="37.678,3.686 40.369,7.816
	37.678,7.252 34.986,7.816 "/>
<polygon class="color" points="37.678,3.686 40.369,7.816
	37.678,7.252 34.986,7.816 "/>

<g class="stroked">
	<circle fill="none" cx="18.078" cy="20.113" r="2.037"/>
	<line fill="none" x1="18.078" y1="18.076" x2="18.078" y2="3.654"/>
	<line fill="none" x1="37.678" y1="7.331" x2="37.678" y2="25.255"/>
	<line fill="none" x1="43.547" y1="3.452" x2="31.776" y2="3.452"/>
	<line fill="none" x1="1.438" y1="5.375" x2="4.352" y2="5.375"/>
	<line fill="none" x1="1.438" y1="7.331" x2="1.438" y2="3.421"/>
	<line fill="none" class="stroked" x1="10.283" y1="24.927" x2="22.024" y2="24.927"/>
</g>
</svg>
