<?xml version="1.0" encoding="utf-8"?>
<!-- Generator: Adobe Illustrator 15.0.0, SVG Export Plug-In . SVG Version: 6.00 Build 0)  -->
<!DOCTYPE svg PUBLIC "-//W3C//DTD SVG 1.1//EN" "http://www.w3.org/Graphics/SVG/1.1/DTD/svg11.dtd">
<svg version="1.1" id="_x30_" xmlns:agg="http://www.example.com"
	 xmlns="http://www.w3.org/2000/svg" preserveAspectRatio="none"   x="0px" y="0px" 
	  viewBox="0 0 43.984 43.986" enable-background="new 0 0 43.984 43.986" xml:space="preserve">

<agg:params>
	<agg:param type="C" name="color" description="Color" cssAttributes="fill" classes="color"/>
	<agg:param type="C" name="strokeColor" description="Stroke Color" cssAttributes="stroke" classes="color,stroked"/>
</agg:params>

<style type="text/css" >
   <![CDATA[

	.color,.stroked{
		stroke-width:1;
		stroke-linecap:round;
		stroke-linejoin:round;
		stroke: #000000;
	}
	
	.color {
		fill:   #A1BFE2;

	}
	
	.stroked {
		fill:none;
	}

      ]]>
</style>
	 
<polygon class="color" points="1.107,22.012 11.54,4.005 32.424,4.005 42.877,22.012 32.424,39.981 11.54,39.981 "/>

<g class="stroked">
	<path fill="none" d="M26.441,31.028
		c-0.995,2.279,0.675,4.83,3.163,4.83c2.486,0,4.158-2.551,3.164-4.83c-1.055-2.418-2.109-4.832-3.164-7.248
		C28.551,26.196,27.496,28.61,26.441,31.028z"/>
	<path fill="none" d="M16.088,31.028
		c-0.995,2.279,0.675,4.83,3.164,4.83c2.487,0,4.157-2.551,3.163-4.83c-1.055-2.418-2.109-4.832-3.163-7.248
		C18.197,26.196,17.142,28.61,16.088,31.028z"/>
	<path fill="none" d="M21.264,17.221
		c-0.994,2.281,0.676,4.832,3.162,4.832c2.489,0,4.159-2.551,3.164-4.832c-1.055-2.416-2.109-4.83-3.164-7.246
		C23.374,12.391,22.319,14.805,21.264,17.221z"/>
	<path fill="none" d="M10.911,17.221
		c-0.994,2.281,0.676,4.832,3.162,4.832c2.488,0,4.159-2.551,3.163-4.832c-1.054-2.416-2.108-4.83-3.163-7.246
		C13.018,12.391,11.966,14.805,10.911,17.221z"/>
</g>
</svg>
